<?xml version="1.0" encoding="UTF-8"?><svg id="Layer_2" xmlns="http://www.w3.org/2000/svg" viewBox="0 0 1128 768"><defs><style>.cls-1{fill-rule:evenodd;stroke-width:0px;}</style></defs><g id="Layer_1-2"><path class="cls-1" d="m1128,24.72v-1.44h-23.28V0h-1.44v23.28h-118.56V0h-1.44v23.28h-118.56V0h-1.44v23.28h-118.56V0h-1.44v23.28h-118.56V0h-1.44v23.28h-118.56V0h-1.44v23.28h-118.56V0h-1.44v23.28h-118.56V0h-1.44v23.28h-118.56V0h-1.44v23.28H24.72V0h-1.44v23.28H0v1.44h23.28v23.04H0v.48h23.28v23.52H0v.48h23.28v23.52H0v.48h23.28v23.52H0v.48h23.28v23.04H0v1.44h23.28v23.04H0v.48h23.28v23.52H0v.48h23.28v23.52H0v.48h23.28v23.52H0v.48h23.28v23.04H0v1.44h23.28v23.04H0v.48h23.28v23.52H0v.48h23.28v23.52H0v.48h23.28v23.52H0v.48h23.28v23.04H0v1.44h23.28v23.04H0v.48h23.28v23.52H0v.48h23.28v23.52H0v.48h23.28v23.52H0v.48h23.28v23.04H0v1.44h23.28v23.04H0v.48h23.28v23.52H0v.48h23.28v23.52H0v.48h23.28v23.52H0v.48h23.28v23.04H0v1.44h23.28v23.04H0v.48h23.28v23.52H0v.48h23.28v23.52H0v.48h23.28v23.52H0v.48h23.28v23.04H0v1.44h23.28v23.28h1.44v-23.28h118.56v23.28h1.44v-23.28h118.56v23.28h1.44v-23.28h118.56v23.28h1.44v-23.28h118.56v23.28h1.44v-23.28h118.56v23.28h1.44v-23.28h118.56v23.28h1.44v-23.28h118.56v23.28h1.44v-23.28h118.56v23.28h1.44v-23.28h118.56v23.28h1.44v-23.28h23.28v-1.44h-23.28v-23.04h23.28v-.48h-23.28v-23.52h23.28v-.48h-23.28v-23.52h23.28v-.48h-23.28v-23.52h23.28v-.48h-23.28v-23.04h23.28v-1.44h-23.28v-23.04h23.28v-.48h-23.28v-23.52h23.28v-.48h-23.28v-23.52h23.28v-.48h-23.28v-23.52h23.28v-.48h-23.28v-23.04h23.28v-1.44h-23.28v-23.04h23.28v-.48h-23.28v-23.52h23.28v-.48h-23.28v-23.52h23.28v-.48h-23.28v-23.52h23.28v-.48h-23.28v-23.04h23.28v-1.44h-23.28v-23.04h23.28v-.48h-23.28v-23.52h23.28v-.48h-23.28v-23.52h23.28v-.48h-23.28v-23.52h23.28v-.48h-23.28v-23.04h23.28v-1.44h-23.28v-23.04h23.28v-.48h-23.28v-23.52h23.28v-.48h-23.28v-23.52h23.28v-.48h-23.28v-23.52h23.28v-.48h-23.28v-23.04h23.28v-1.44h-23.28v-23.04h23.28v-.48h-23.28v-23.52h23.28v-.48h-23.28v-23.52h23.28v-.48h-23.28v-23.52h23.28v-.48h-23.28v-23.04h23.28Zm-144.72,0v23.04h-118.56v-23.04h118.56Zm-478.56,598.56v-23.04h118.56v23.04h-118.56Zm118.56,1.44v23.04h-118.56v-23.04h118.56Zm-118.56-24.96v-23.52h118.56v23.52h-118.56Zm0-24v-23.52h118.56v23.52h-118.56Zm0-24v-23.52h118.56v23.52h-118.56Zm0-24v-23.04h118.56v23.04h-118.56Zm0-24.48v-23.04h118.56v23.04h-118.56Zm0-23.52v-23.52h118.56v23.52h-118.56Zm0-24v-23.52h118.56v23.52h-118.56Zm0-24v-23.52h118.56v23.52h-118.56Zm0-24v-23.04h118.56v23.04h-118.56Zm0-24.48v-23.04h118.56v23.04h-118.56Zm0-23.52v-23.52h118.56v23.52h-118.56Zm0-24v-23.52h118.56v23.52h-118.56Zm0-24v-23.52h118.56v23.52h-118.56Zm0-24v-23.04h118.56v23.04h-118.56Zm0-24.48v-23.04h118.56v23.04h-118.56Zm0-23.52v-23.52h118.56v23.52h-118.56Zm0-24v-23.52h118.56v23.52h-118.56Zm0-24v-23.52h118.56v23.52h-118.56Zm0-24v-23.04h118.56v23.04h-118.56Zm0-24.48v-23.04h118.56v23.04h-118.56Zm0-23.52v-23.52h118.56v23.52h-118.56Zm-1.44,0h-118.56v-23.52h118.56v23.52Zm0,.48v23.04h-118.56v-23.04h118.56Zm0,24.48v23.04h-118.56v-23.04h118.56Zm0,23.52v23.52h-118.56v-23.52h118.56Zm0,24v23.52h-118.56v-23.52h118.56Zm0,24v23.52h-118.56v-23.52h118.56Zm0,24v23.04h-118.56v-23.04h118.56Zm0,24.48v23.04h-118.56v-23.04h118.56Zm0,23.52v23.52h-118.56v-23.52h118.56Zm0,24v23.52h-118.56v-23.52h118.56Zm0,24v23.52h-118.56v-23.52h118.56Zm0,24v23.04h-118.56v-23.04h118.56Zm0,24.48v23.04h-118.56v-23.04h118.56Zm0,23.52v23.52h-118.56v-23.52h118.56Zm0,24v23.52h-118.56v-23.52h118.56Zm0,24v23.52h-118.56v-23.52h118.56Zm0,24v23.04h-118.56v-23.04h118.56Zm0,24.48v23.04h-118.56v-23.04h118.56Zm0,23.52v23.52h-118.56v-23.52h118.56Zm0,24v23.52h-118.56v-23.52h118.56Zm0,24v23.52h-118.56v-23.52h118.56Zm0,24v23.04h-118.56v-23.04h118.56Zm0,24.48v23.04h-118.56v-23.04h118.56Zm0,23.52v23.52h-118.56v-23.52h118.56Zm1.44,0h118.56v23.52h-118.56v-23.52Zm120,0h118.56v23.52h-118.56v-23.52Zm0-.48v-23.04h118.56v23.04h-118.56Zm0-24.48v-23.04h118.56v23.04h-118.56Zm0-23.52v-23.52h118.56v23.52h-118.56Zm0-24v-23.52h118.56v23.52h-118.56Zm0-24v-23.52h118.56v23.52h-118.56Zm0-24v-23.04h118.56v23.04h-118.56Zm0-24.48v-23.04h118.56v23.04h-118.56Zm0-23.52v-23.52h118.56v23.52h-118.56Zm0-24v-23.52h118.56v23.52h-118.56Zm0-24v-23.52h118.56v23.52h-118.56Zm0-24v-23.04h118.56v23.04h-118.56Zm0-24.48v-23.04h118.56v23.04h-118.56Zm0-23.52v-23.52h118.56v23.52h-118.56Zm0-24v-23.52h118.56v23.52h-118.56Zm0-24v-23.52h118.56v23.52h-118.56Zm0-24v-23.04h118.56v23.04h-118.56Zm0-24.48v-23.04h118.56v23.04h-118.56Zm0-23.52v-23.52h118.56v23.52h-118.56Zm0-24v-23.52h118.56v23.52h-118.56Zm0-24v-23.52h118.56v23.52h-118.56Zm0-24v-23.04h118.56v23.04h-118.56Zm0-24.48v-23.04h118.56v23.04h-118.56Zm0-23.52v-23.52h118.56v23.52h-118.56Zm0-24v-23.52h118.56v23.52h-118.56Zm-1.44,0h-118.56v-23.52h118.56v23.52Zm-120,0h-118.56v-23.52h118.56v23.52Zm-120,0h-118.56v-23.52h118.56v23.52Zm0,.48v23.52h-118.56v-23.52h118.56Zm0,24v23.04h-118.56v-23.04h118.56Zm0,24.48v23.04h-118.56v-23.04h118.56Zm0,23.52v23.52h-118.56v-23.52h118.56Zm0,24v23.52h-118.56v-23.52h118.56Zm0,24v23.52h-118.56v-23.52h118.56Zm0,24v23.04h-118.56v-23.04h118.56Zm0,24.48v23.04h-118.56v-23.04h118.56Zm0,23.52v23.52h-118.56v-23.52h118.56Zm0,24v23.52h-118.56v-23.52h118.56Zm0,24v23.52h-118.56v-23.52h118.56Zm0,24v23.04h-118.56v-23.04h118.56Zm0,24.48v23.04h-118.56v-23.04h118.56Zm0,23.52v23.52h-118.56v-23.52h118.56Zm0,24v23.52h-118.56v-23.52h118.56Zm0,24v23.52h-118.56v-23.52h118.56Zm0,24v23.04h-118.56v-23.04h118.56Zm0,24.48v23.04h-118.56v-23.04h118.56Zm0,23.52v23.52h-118.56v-23.52h118.56Zm0,24v23.52h-118.56v-23.52h118.56Zm0,24v23.52h-118.56v-23.52h118.56Zm0,24v23.04h-118.56v-23.04h118.56Zm0,24.48v23.04h-118.56v-23.04h118.56Zm0,23.52v23.52h-118.56v-23.52h118.56Zm0,24v23.52h-118.56v-23.52h118.56Zm1.44,0h118.56v23.52h-118.56v-23.52Zm120,0h118.56v23.52h-118.56v-23.52Zm120,0h118.56v23.52h-118.56v-23.52Zm120,0h118.56v23.52h-118.56v-23.52Zm0-.48v-23.52h118.56v23.52h-118.56Zm0-24v-23.04h118.56v23.04h-118.56Zm0-24.48v-23.04h118.56v23.04h-118.56Zm0-23.52v-23.52h118.56v23.52h-118.56Zm0-24v-23.52h118.56v23.52h-118.56Zm0-24v-23.52h118.56v23.52h-118.56Zm0-24v-23.04h118.56v23.04h-118.56Zm0-24.48v-23.04h118.56v23.04h-118.56Zm0-23.52v-23.52h118.56v23.52h-118.56Zm0-24v-23.52h118.56v23.52h-118.56Zm0-24v-23.52h118.56v23.52h-118.56Zm0-24v-23.04h118.56v23.04h-118.56Zm0-24.48v-23.04h118.56v23.04h-118.56Zm0-23.52v-23.52h118.56v23.52h-118.56Zm0-24v-23.52h118.56v23.52h-118.56Zm0-24v-23.52h118.56v23.52h-118.56Zm0-24v-23.04h118.56v23.04h-118.56Zm0-24.48v-23.04h118.56v23.04h-118.56Zm0-23.52v-23.52h118.56v23.52h-118.56Zm0-24v-23.52h118.56v23.52h-118.56Zm0-24v-23.52h118.56v23.52h-118.56Zm0-24v-23.04h118.56v23.04h-118.56Zm0-24.48v-23.04h118.56v23.04h-118.56Zm0-23.52v-23.52h118.56v23.52h-118.56Zm0-24v-23.52h118.56v23.52h-118.56Zm0-24v-23.52h118.56v23.52h-118.56Zm-1.44,0h-118.56v-23.52h118.56v23.52Zm-120,0h-118.56v-23.52h118.56v23.52Zm-120,0h-118.56v-23.52h118.56v23.52Zm-120,0h-118.56v-23.52h118.56v23.52Zm-120,0h-118.56v-23.52h118.56v23.52Zm0,.48v23.52h-118.56v-23.52h118.56Zm0,24v23.52h-118.56v-23.52h118.56Zm0,24v23.04h-118.56v-23.04h118.56Zm0,24.48v23.04h-118.56v-23.04h118.56Zm0,23.52v23.52h-118.56v-23.52h118.56Zm0,24v23.52h-118.56v-23.52h118.56Zm0,24v23.52h-118.56v-23.52h118.56Zm0,24v23.04h-118.56v-23.04h118.56Zm0,24.48v23.04h-118.56v-23.04h118.56Zm0,23.52v23.52h-118.56v-23.52h118.56Zm0,24v23.52h-118.56v-23.52h118.56Zm0,24v23.52h-118.56v-23.52h118.56Zm0,24v23.04h-118.56v-23.04h118.56Zm0,24.48v23.04h-118.56v-23.04h118.56Zm0,23.52v23.52h-118.56v-23.52h118.56Zm0,24v23.52h-118.56v-23.52h118.56Zm0,24v23.52h-118.56v-23.52h118.56Zm0,24v23.04h-118.56v-23.04h118.56Zm0,24.48v23.04h-118.56v-23.04h118.56Zm0,23.52v23.52h-118.56v-23.52h118.56Zm0,24v23.52h-118.56v-23.52h118.56Zm0,24v23.52h-118.56v-23.52h118.56Zm0,24v23.04h-118.56v-23.04h118.56Zm0,24.48v23.04h-118.56v-23.04h118.56Zm0,23.52v23.52h-118.56v-23.52h118.56Zm0,24v23.52h-118.56v-23.52h118.56Zm0,24v23.52h-118.56v-23.52h118.56Zm1.44,0h118.56v23.52h-118.56v-23.52Zm120,0h118.56v23.52h-118.56v-23.52Zm120,0h118.56v23.52h-118.56v-23.52Zm120,0h118.56v23.52h-118.56v-23.52Zm120,0h118.56v23.52h-118.56v-23.52Zm120,0h118.56v23.52h-118.56v-23.52Zm0-.48v-23.52h118.56v23.52h-118.56Zm0-24v-23.52h118.56v23.52h-118.56Zm0-24v-23.04h118.56v23.04h-118.56Zm0-24.48v-23.04h118.56v23.04h-118.56Zm0-23.52v-23.52h118.56v23.52h-118.56Zm0-24v-23.52h118.56v23.52h-118.56Zm0-24v-23.52h118.56v23.52h-118.56Zm0-24v-23.04h118.56v23.04h-118.56Zm0-24.48v-23.04h118.56v23.04h-118.56Zm0-23.52v-23.52h118.56v23.52h-118.56Zm0-24v-23.52h118.56v23.52h-118.56Zm0-24v-23.52h118.56v23.52h-118.56Zm0-24v-23.04h118.56v23.04h-118.56Zm0-24.48v-23.04h118.56v23.04h-118.56Zm0-23.52v-23.52h118.56v23.52h-118.56Zm0-24v-23.52h118.56v23.52h-118.56Zm0-24v-23.52h118.56v23.52h-118.56Zm0-24v-23.04h118.56v23.04h-118.56Zm0-24.48v-23.04h118.56v23.04h-118.56Zm0-23.52v-23.52h118.56v23.52h-118.56Zm0-24v-23.52h118.56v23.52h-118.56Zm0-24v-23.52h118.56v23.52h-118.56Zm0-24v-23.04h118.56v23.04h-118.56Zm0-24.48v-23.04h118.56v23.04h-118.56Zm0-23.52v-23.52h118.56v23.52h-118.56Zm0-24v-23.52h118.56v23.52h-118.56Zm0-24v-23.52h118.56v23.52h-118.56Zm-1.44-47.04v23.04h-118.56v-23.04h118.56Zm-120,0v23.04h-118.56v-23.04h118.56Zm-120,0v23.04h-118.56v-23.04h118.56Zm-120,0v23.04h-118.56v-23.04h118.56Zm-120,0v23.04h-118.56v-23.04h118.56Zm-120,0v23.04h-118.56v-23.04h118.56Zm-238.56,0h118.56v23.04H24.72v-23.04Zm0,23.52h118.56v23.52H24.72v-23.52Zm0,24h118.56v23.52H24.72v-23.52Zm0,24h118.56v23.52H24.72v-23.52Zm0,24h118.56v23.04H24.72v-23.04Zm0,24.48h118.56v23.04H24.72v-23.04Zm0,23.52h118.56v23.52H24.72v-23.52Zm0,24h118.56v23.52H24.72v-23.52Zm0,24h118.56v23.52H24.72v-23.52Zm0,24h118.56v23.04H24.72v-23.04Zm0,24.48h118.56v23.04H24.72v-23.04Zm0,23.52h118.56v23.52H24.72v-23.52Zm0,24h118.56v23.52H24.72v-23.52Zm0,24h118.56v23.52H24.72v-23.52Zm0,24h118.56v23.04H24.72v-23.04Zm0,24.48h118.56v23.04H24.72v-23.04Zm0,23.52h118.56v23.52H24.72v-23.52Zm0,24h118.56v23.52H24.72v-23.52Zm0,24h118.56v23.52H24.72v-23.52Zm0,24h118.56v23.04H24.72v-23.04Zm0,24.48h118.56v23.04H24.72v-23.04Zm0,23.52h118.56v23.52H24.72v-23.52Zm0,24h118.56v23.52H24.72v-23.52Zm0,24h118.56v23.52H24.72v-23.52Zm0,24h118.56v23.04H24.72v-23.04Zm0,24.48h118.56v23.04H24.72v-23.04Zm0,23.52h118.56v23.52H24.72v-23.52Zm0,24h118.56v23.52H24.72v-23.52Zm0,24h118.56v23.52H24.72v-23.52Zm0,47.04v-23.04h118.56v23.04H24.72Zm120,0v-23.04h118.56v23.04h-118.56Zm120,0v-23.04h118.56v23.04h-118.56Zm120,0v-23.04h118.56v23.04h-118.56Zm120,0v-23.04h118.56v23.04h-118.56Zm120,0v-23.04h118.56v23.04h-118.56Zm120,0v-23.04h118.56v23.04h-118.56Zm120,0v-23.04h118.56v23.04h-118.56Zm238.56,0h-118.56v-23.04h118.56v23.04Zm0-23.52h-118.56v-23.52h118.56v23.52Zm0-24h-118.56v-23.52h118.56v23.52Zm0-24h-118.56v-23.52h118.56v23.52Zm0-24h-118.56v-23.04h118.56v23.04Zm0-24.48h-118.56v-23.04h118.56v23.04Zm0-23.52h-118.56v-23.52h118.56v23.52Zm0-24h-118.56v-23.52h118.56v23.52Zm0-24h-118.56v-23.52h118.56v23.52Zm0-24h-118.56v-23.04h118.56v23.04Zm0-24.48h-118.56v-23.04h118.56v23.04Zm0-23.52h-118.56v-23.52h118.56v23.52Zm0-24h-118.56v-23.52h118.56v23.52Zm0-24h-118.56v-23.52h118.56v23.52Zm0-24h-118.56v-23.04h118.56v23.04Zm0-24.48h-118.56v-23.04h118.56v23.04Zm0-23.52h-118.56v-23.52h118.56v23.52Zm0-24h-118.56v-23.52h118.56v23.52Zm0-24h-118.56v-23.52h118.56v23.52Zm0-24h-118.56v-23.04h118.56v23.04Zm0-24.48h-118.56v-23.04h118.56v23.04Zm0-23.52h-118.56v-23.52h118.56v23.52Zm0-24h-118.56v-23.52h118.56v23.52Zm0-24h-118.56v-23.52h118.56v23.52Zm0-24h-118.56v-23.04h118.56v23.04Zm0-24.48h-118.56v-23.04h118.56v23.04Zm0-23.52h-118.56v-23.52h118.56v23.52Zm0-24h-118.56v-23.52h118.56v23.52Zm0-24h-118.56v-23.52h118.56v23.52Zm0-24h-118.56v-23.04h118.56v23.04Z"/></g></svg>