<?xml version="1.0" encoding="UTF-8"?><svg id="Layer_2" xmlns="http://www.w3.org/2000/svg" viewBox="0 0 1128 768"><defs><style>.cls-1{fill-rule:evenodd;stroke-width:0px;}</style></defs><g id="Layer_1-2"><path class="cls-1" d="m1128,24.72v-1.44h-23.28V0h-1.44v23.28h-23.04V0h-.48v23.28h-23.52V0h-.48v23.28h-23.52V0h-.48v23.28h-23.52V0h-.48v23.28h-23.04V0h-1.44v23.28h-23.04V0h-.48v23.28h-23.52V0h-.48v23.28h-23.52V0h-.48v23.28h-23.52V0h-.48v23.28h-23.04V0h-1.44v23.28h-23.04V0h-.48v23.28h-23.52V0h-.48v23.28h-23.52V0h-.48v23.28h-23.52V0h-.48v23.28h-23.04V0h-1.44v23.28h-23.04V0h-.48v23.28h-23.52V0h-.48v23.28h-23.52V0h-.48v23.28h-23.52V0h-.48v23.28h-23.04V0h-1.44v23.28h-23.04V0h-.48v23.28h-23.52V0h-.48v23.28h-23.52V0h-.48v23.28h-23.52V0h-.48v23.28h-23.04V0h-1.44v23.28h-23.04V0h-.48v23.28h-23.52V0h-.48v23.28h-23.52V0h-.48v23.28h-23.52V0h-.48v23.28h-23.04V0h-1.44v23.28h-23.04V0h-.48v23.28h-23.52V0h-.48v23.28h-23.52V0h-.48v23.28h-23.52V0h-.48v23.28h-23.04V0h-1.44v23.28h-23.04V0h-.48v23.28h-23.52V0h-.48v23.28h-23.52V0h-.48v23.28h-23.52V0h-.48v23.28h-23.04V0h-1.44v23.28h-23.04V0h-.48v23.28h-23.52V0h-.48v23.28h-23.52V0h-.48v23.28h-23.52V0h-.48v23.28h-23.04V0h-1.44v23.28H0v1.44h23.28v23.04H0v.48h23.28v23.52H0v.48h23.28v23.52H0v.48h23.28v23.52H0v.48h23.28v23.04H0v1.44h23.28v23.04H0v.48h23.28v23.52H0v.48h23.28v23.52H0v.48h23.28v23.52H0v.48h23.28v23.04H0v1.44h23.28v23.04H0v.48h23.28v23.52H0v.48h23.28v23.52H0v.48h23.28v23.52H0v.48h23.28v23.04H0v1.44h23.28v23.04H0v.48h23.28v23.52H0v.48h23.28v23.52H0v.48h23.28v23.52H0v.48h23.28v23.04H0v1.44h23.28v23.04H0v.48h23.28v23.52H0v.48h23.28v23.52H0v.48h23.28v23.52H0v.48h23.28v23.04H0v1.44h23.28v23.04H0v.48h23.28v23.52H0v.48h23.28v23.52H0v.48h23.28v23.52H0v.48h23.28v23.04H0v1.44h23.28v23.28h1.44v-23.28h23.04v23.28h.48v-23.28h23.52v23.28h.48v-23.28h23.52v23.28h.48v-23.28h23.52v23.28h.48v-23.28h23.04v23.28h1.44v-23.28h23.04v23.28h.48v-23.28h23.52v23.28h.48v-23.28h23.52v23.28h.48v-23.28h23.52v23.28h.48v-23.28h23.04v23.28h1.44v-23.28h23.04v23.28h.48v-23.28h23.52v23.28h.48v-23.28h23.52v23.28h.48v-23.28h23.52v23.28h.48v-23.28h23.04v23.28h1.44v-23.28h23.04v23.28h.48v-23.28h23.52v23.28h.48v-23.28h23.52v23.28h.48v-23.28h23.52v23.28h.48v-23.28h23.04v23.28h1.44v-23.28h23.04v23.28h.48v-23.28h23.52v23.28h.48v-23.28h23.52v23.28h.48v-23.28h23.52v23.28h.48v-23.28h23.04v23.28h1.44v-23.28h23.04v23.28h.48v-23.28h23.52v23.28h.48v-23.28h23.52v23.28h.48v-23.28h23.52v23.28h.48v-23.28h23.04v23.28h1.44v-23.28h23.04v23.28h.48v-23.28h23.52v23.28h.48v-23.28h23.52v23.28h.48v-23.28h23.52v23.28h.48v-23.28h23.04v23.28h1.44v-23.28h23.04v23.28h.48v-23.28h23.52v23.28h.48v-23.28h23.52v23.28h.48v-23.28h23.52v23.28h.48v-23.28h23.04v23.28h1.44v-23.28h23.04v23.28h.48v-23.28h23.52v23.28h.48v-23.28h23.52v23.28h.48v-23.28h23.52v23.28h.48v-23.28h23.04v23.28h1.44v-23.28h23.28v-1.44h-23.28v-23.04h23.28v-.48h-23.28v-23.52h23.28v-.48h-23.28v-23.52h23.28v-.48h-23.28v-23.52h23.28v-.48h-23.28v-23.04h23.28v-1.44h-23.28v-23.04h23.28v-.48h-23.28v-23.52h23.28v-.48h-23.28v-23.52h23.28v-.48h-23.28v-23.52h23.28v-.48h-23.28v-23.04h23.28v-1.44h-23.28v-23.04h23.28v-.48h-23.28v-23.52h23.28v-.48h-23.28v-23.52h23.28v-.48h-23.28v-23.52h23.28v-.48h-23.28v-23.04h23.28v-1.44h-23.28v-23.04h23.28v-.48h-23.28v-23.52h23.28v-.48h-23.28v-23.52h23.28v-.48h-23.28v-23.52h23.28v-.48h-23.28v-23.04h23.28v-1.44h-23.28v-23.04h23.28v-.48h-23.28v-23.52h23.28v-.48h-23.28v-23.52h23.28v-.48h-23.28v-23.52h23.28v-.48h-23.28v-23.04h23.28v-1.44h-23.28v-23.04h23.28v-.48h-23.28v-23.52h23.28v-.48h-23.28v-23.52h23.28v-.48h-23.28v-23.52h23.28v-.48h-23.28v-23.04h23.28Zm-48.24,0v23.04h-23.52v-23.04h23.52Zm-360,358.56h-23.52v-23.04h23.52v23.04Zm.48-23.04h23.04v23.04h-23.04v-23.04Zm-24.48,23.04h-23.52v-23.04h23.52v23.04Zm-24,0h-23.52v-23.04h23.52v23.04Zm-24,0h-23.04v-23.04h23.04v23.04Zm-24.48,0h-23.04v-23.04h23.04v23.04Zm-23.52,0h-23.52v-23.04h23.52v23.04Zm-24,0h-23.52v-23.04h23.52v23.04Zm-24,0h-23.52v-23.04h23.52v23.04Zm-24,0h-23.04v-23.04h23.04v23.04Zm-24.48,0h-23.04v-23.04h23.04v23.04Zm-23.52,0h-23.52v-23.04h23.52v23.04Zm-24,0h-23.52v-23.04h23.52v23.04Zm-24,0h-23.52v-23.04h23.52v23.04Zm-24,0h-23.04v-23.04h23.04v23.04Zm-24.48,0h-23.04v-23.04h23.04v23.04Zm0,1.44v23.04h-23.04v-23.04h23.04Zm1.44,0h23.04v23.04h-23.04v-23.04Zm23.52,0h23.52v23.04h-23.52v-23.04Zm24,0h23.52v23.04h-23.52v-23.04Zm24,0h23.52v23.04h-23.52v-23.04Zm24,0h23.04v23.04h-23.04v-23.04Zm24.48,0h23.04v23.04h-23.04v-23.04Zm23.52,0h23.52v23.04h-23.52v-23.04Zm24,0h23.52v23.04h-23.52v-23.04Zm24,0h23.52v23.04h-23.52v-23.04Zm24,0h23.04v23.04h-23.04v-23.04Zm24.48,0h23.04v23.04h-23.04v-23.04Zm23.52,0h23.52v23.04h-23.52v-23.04Zm24,0h23.52v23.04h-23.52v-23.04Zm24,0h23.52v23.04h-23.52v-23.04Zm24,0h23.04v23.04h-23.04v-23.04Zm24.48,0h23.04v23.04h-23.04v-23.04Zm0-1.44v-23.04h23.04v23.04h-23.04Zm0-23.52v-23.52h23.04v23.52h-23.04Zm-1.44,0h-23.04v-23.52h23.04v23.52Zm-23.52,0h-23.52v-23.52h23.52v23.52Zm-24,0h-23.52v-23.52h23.52v23.52Zm-24,0h-23.52v-23.52h23.52v23.52Zm-24,0h-23.04v-23.52h23.04v23.52Zm-24.48,0h-23.04v-23.52h23.04v23.52Zm-23.52,0h-23.52v-23.52h23.52v23.52Zm-24,0h-23.52v-23.52h23.52v23.52Zm-24,0h-23.52v-23.52h23.52v23.52Zm-24,0h-23.04v-23.52h23.04v23.52Zm-24.48,0h-23.04v-23.52h23.04v23.52Zm-23.52,0h-23.52v-23.52h23.52v23.52Zm-24,0h-23.52v-23.52h23.52v23.52Zm-24,0h-23.52v-23.52h23.52v23.52Zm-24,0h-23.04v-23.52h23.04v23.52Zm-24.48,0h-23.04v-23.52h23.04v23.52Zm-23.52,0h-23.52v-23.52h23.52v23.52Zm0,.48v23.04h-23.52v-23.04h23.52Zm0,24.48v23.04h-23.52v-23.04h23.52Zm0,23.52v23.52h-23.52v-23.52h23.52Zm.48,0h23.04v23.52h-23.04v-23.52Zm24.48,0h23.04v23.52h-23.04v-23.52Zm23.52,0h23.52v23.52h-23.52v-23.52Zm24,0h23.52v23.52h-23.52v-23.52Zm24,0h23.52v23.52h-23.52v-23.52Zm24,0h23.04v23.52h-23.04v-23.52Zm24.48,0h23.04v23.52h-23.04v-23.52Zm23.52,0h23.52v23.52h-23.52v-23.52Zm24,0h23.52v23.52h-23.52v-23.52Zm24,0h23.52v23.52h-23.52v-23.52Zm24,0h23.04v23.52h-23.04v-23.52Zm24.48,0h23.04v23.52h-23.04v-23.52Zm23.52,0h23.52v23.52h-23.52v-23.52Zm24,0h23.52v23.52h-23.52v-23.52Zm24,0h23.52v23.52h-23.52v-23.52Zm24,0h23.04v23.52h-23.04v-23.52Zm24.48,0h23.04v23.52h-23.04v-23.52Zm23.52,0h23.52v23.52h-23.52v-23.52Zm0-.48v-23.04h23.52v23.04h-23.52Zm0-24.48v-23.04h23.52v23.04h-23.52Zm0-23.52v-23.52h23.52v23.52h-23.52Zm0-24v-23.52h23.52v23.52h-23.52Zm-.48,0h-23.04v-23.52h23.04v23.52Zm-24.48,0h-23.04v-23.52h23.04v23.52Zm-23.52,0h-23.52v-23.52h23.52v23.52Zm-24,0h-23.52v-23.52h23.52v23.52Zm-24,0h-23.52v-23.52h23.52v23.52Zm-24,0h-23.04v-23.52h23.04v23.52Zm-24.48,0h-23.04v-23.52h23.04v23.52Zm-23.52,0h-23.52v-23.52h23.52v23.52Zm-24,0h-23.52v-23.52h23.52v23.52Zm-24,0h-23.52v-23.52h23.52v23.52Zm-24,0h-23.04v-23.52h23.04v23.52Zm-24.48,0h-23.04v-23.52h23.04v23.52Zm-23.52,0h-23.52v-23.52h23.52v23.52Zm-24,0h-23.52v-23.52h23.52v23.52Zm-24,0h-23.52v-23.52h23.52v23.52Zm-24,0h-23.04v-23.52h23.04v23.52Zm-24.48,0h-23.04v-23.52h23.04v23.52Zm-23.52,0h-23.52v-23.52h23.52v23.52Zm-24,0h-23.52v-23.52h23.52v23.52Zm0,.48v23.52h-23.52v-23.52h23.52Zm0,24v23.04h-23.52v-23.04h23.52Zm0,24.48v23.04h-23.52v-23.04h23.52Zm0,23.52v23.52h-23.52v-23.52h23.52Zm0,24v23.52h-23.52v-23.52h23.52Zm.48,0h23.52v23.52h-23.52v-23.52Zm24,0h23.04v23.52h-23.04v-23.52Zm24.48,0h23.04v23.52h-23.04v-23.52Zm23.52,0h23.52v23.52h-23.52v-23.52Zm24,0h23.52v23.52h-23.52v-23.52Zm24,0h23.52v23.52h-23.52v-23.52Zm24,0h23.04v23.52h-23.04v-23.52Zm24.48,0h23.04v23.52h-23.04v-23.52Zm23.52,0h23.52v23.52h-23.52v-23.52Zm24,0h23.52v23.52h-23.52v-23.52Zm24,0h23.52v23.52h-23.52v-23.52Zm24,0h23.04v23.52h-23.04v-23.52Zm24.48,0h23.04v23.52h-23.04v-23.52Zm23.52,0h23.52v23.52h-23.52v-23.52Zm24,0h23.52v23.52h-23.52v-23.52Zm24,0h23.52v23.52h-23.52v-23.52Zm24,0h23.04v23.52h-23.04v-23.52Zm24.48,0h23.04v23.52h-23.04v-23.52Zm23.52,0h23.52v23.52h-23.52v-23.52Zm24,0h23.52v23.52h-23.52v-23.52Zm0-.48v-23.52h23.52v23.52h-23.52Zm0-24v-23.04h23.52v23.04h-23.52Zm0-24.48v-23.04h23.52v23.04h-23.52Zm0-23.52v-23.52h23.52v23.52h-23.52Zm0-24v-23.52h23.52v23.52h-23.52Zm0-24v-23.52h23.52v23.52h-23.52Zm-.48,0h-23.52v-23.52h23.52v23.52Zm-24,0h-23.04v-23.52h23.04v23.52Zm-24.48,0h-23.04v-23.52h23.04v23.52Zm-23.52,0h-23.52v-23.52h23.52v23.52Zm-24,0h-23.52v-23.52h23.52v23.52Zm-24,0h-23.52v-23.52h23.52v23.52Zm-24,0h-23.04v-23.52h23.04v23.52Zm-24.48,0h-23.04v-23.52h23.04v23.52Zm-23.52,0h-23.52v-23.52h23.52v23.52Zm-24,0h-23.52v-23.52h23.52v23.52Zm-24,0h-23.52v-23.52h23.52v23.52Zm-24,0h-23.04v-23.52h23.04v23.52Zm-24.48,0h-23.04v-23.52h23.04v23.52Zm-23.52,0h-23.52v-23.52h23.52v23.52Zm-24,0h-23.52v-23.52h23.52v23.52Zm-24,0h-23.52v-23.52h23.52v23.52Zm-24,0h-23.04v-23.52h23.04v23.52Zm-24.48,0h-23.04v-23.52h23.04v23.52Zm-23.52,0h-23.52v-23.52h23.52v23.52Zm-24,0h-23.52v-23.52h23.52v23.52Zm-24,0h-23.52v-23.52h23.52v23.52Zm0,.48v23.52h-23.52v-23.52h23.52Zm0,24v23.52h-23.52v-23.52h23.52Zm0,24v23.04h-23.52v-23.04h23.52Zm0,24.48v23.04h-23.52v-23.04h23.52Zm0,23.52v23.52h-23.52v-23.52h23.52Zm0,24v23.52h-23.52v-23.52h23.52Zm0,24v23.52h-23.52v-23.52h23.52Zm.48,0h23.52v23.52h-23.52v-23.52Zm24,0h23.52v23.52h-23.52v-23.52Zm24,0h23.04v23.52h-23.04v-23.52Zm24.48,0h23.04v23.52h-23.04v-23.52Zm23.52,0h23.52v23.52h-23.52v-23.52Zm24,0h23.52v23.52h-23.52v-23.52Zm24,0h23.52v23.52h-23.52v-23.52Zm24,0h23.04v23.52h-23.04v-23.52Zm24.48,0h23.04v23.52h-23.04v-23.52Zm23.52,0h23.52v23.52h-23.52v-23.52Zm24,0h23.52v23.52h-23.52v-23.52Zm24,0h23.52v23.52h-23.52v-23.52Zm24,0h23.04v23.52h-23.04v-23.52Zm24.48,0h23.04v23.52h-23.04v-23.52Zm23.52,0h23.52v23.52h-23.52v-23.52Zm24,0h23.52v23.52h-23.52v-23.52Zm24,0h23.52v23.52h-23.52v-23.52Zm24,0h23.04v23.52h-23.04v-23.52Zm24.48,0h23.04v23.52h-23.04v-23.52Zm23.52,0h23.52v23.52h-23.52v-23.52Zm24,0h23.52v23.52h-23.52v-23.52Zm24,0h23.52v23.52h-23.52v-23.52Zm0-.48v-23.52h23.52v23.52h-23.52Zm0-24v-23.52h23.52v23.52h-23.52Zm0-24v-23.04h23.52v23.04h-23.52Zm0-24.48v-23.04h23.52v23.04h-23.52Zm0-23.52v-23.52h23.52v23.52h-23.52Zm0-24v-23.52h23.52v23.52h-23.52Zm0-24v-23.52h23.52v23.52h-23.52Zm0-24v-23.04h23.52v23.04h-23.52Zm-.48,0h-23.52v-23.04h23.52v23.04Zm-24,0h-23.52v-23.04h23.52v23.04Zm-24,0h-23.04v-23.04h23.04v23.04Zm-24.48,0h-23.04v-23.04h23.04v23.04Zm-23.52,0h-23.52v-23.04h23.52v23.04Zm-24,0h-23.52v-23.04h23.52v23.04Zm-24,0h-23.52v-23.04h23.52v23.04Zm-24,0h-23.04v-23.04h23.04v23.04Zm-24.48,0h-23.04v-23.04h23.04v23.04Zm-23.52,0h-23.52v-23.04h23.52v23.04Zm-24,0h-23.52v-23.04h23.52v23.04Zm-24,0h-23.52v-23.04h23.52v23.04Zm-24,0h-23.04v-23.04h23.04v23.04Zm-24.48,0h-23.04v-23.04h23.04v23.04Zm-23.52,0h-23.52v-23.04h23.52v23.04Zm-24,0h-23.52v-23.04h23.52v23.04Zm-24,0h-23.52v-23.04h23.52v23.04Zm-24,0h-23.04v-23.04h23.04v23.04Zm-24.48,0h-23.04v-23.04h23.04v23.04Zm-23.52,0h-23.52v-23.04h23.52v23.04Zm-24,0h-23.52v-23.04h23.52v23.04Zm-24,0h-23.52v-23.04h23.52v23.04Zm-24,0h-23.04v-23.04h23.04v23.04Zm0,.48v23.52h-23.04v-23.52h23.04Zm0,24v23.52h-23.04v-23.52h23.04Zm0,24v23.52h-23.04v-23.52h23.04Zm0,24v23.04h-23.04v-23.04h23.04Zm0,24.48v23.04h-23.04v-23.04h23.04Zm0,23.52v23.52h-23.04v-23.52h23.04Zm0,24v23.52h-23.04v-23.52h23.04Zm0,24v23.52h-23.04v-23.52h23.04Zm0,24v23.04h-23.04v-23.04h23.04Zm.48,0h23.52v23.04h-23.52v-23.04Zm24,0h23.52v23.04h-23.52v-23.04Zm24,0h23.52v23.04h-23.52v-23.04Zm24,0h23.04v23.04h-23.04v-23.04Zm24.48,0h23.04v23.04h-23.04v-23.04Zm23.52,0h23.52v23.04h-23.52v-23.04Zm24,0h23.52v23.04h-23.52v-23.04Zm24,0h23.52v23.04h-23.52v-23.04Zm24,0h23.04v23.04h-23.04v-23.04Zm24.48,0h23.04v23.04h-23.04v-23.04Zm23.52,0h23.52v23.04h-23.52v-23.04Zm24,0h23.52v23.04h-23.52v-23.04Zm24,0h23.52v23.04h-23.52v-23.04Zm24,0h23.04v23.04h-23.04v-23.04Zm24.48,0h23.04v23.04h-23.04v-23.04Zm23.52,0h23.52v23.04h-23.52v-23.04Zm24,0h23.52v23.04h-23.52v-23.04Zm24,0h23.52v23.04h-23.52v-23.04Zm24,0h23.04v23.04h-23.04v-23.04Zm24.48,0h23.04v23.04h-23.04v-23.04Zm23.52,0h23.52v23.04h-23.52v-23.04Zm24,0h23.52v23.04h-23.52v-23.04Zm24,0h23.52v23.04h-23.52v-23.04Zm24,0h23.04v23.04h-23.04v-23.04Zm0-.48v-23.52h23.04v23.52h-23.04Zm0-24v-23.52h23.04v23.52h-23.04Zm0-24v-23.52h23.04v23.52h-23.04Zm0-24v-23.04h23.04v23.04h-23.04Zm0-24.48v-23.04h23.04v23.04h-23.04Zm0-23.52v-23.52h23.04v23.52h-23.04Zm0-24v-23.52h23.04v23.52h-23.04Zm0-24v-23.52h23.04v23.52h-23.04Zm0-24v-23.04h23.04v23.04h-23.04Zm0-24.48v-23.04h23.04v23.04h-23.04Zm-.48,0h-23.52v-23.04h23.52v23.04Zm-24,0h-23.52v-23.04h23.52v23.04Zm-24,0h-23.52v-23.04h23.52v23.04Zm-24,0h-23.04v-23.04h23.04v23.04Zm-24.48,0h-23.04v-23.04h23.04v23.04Zm-23.52,0h-23.52v-23.04h23.52v23.04Zm-24,0h-23.52v-23.04h23.52v23.04Zm-24,0h-23.52v-23.04h23.52v23.04Zm-24,0h-23.04v-23.04h23.04v23.04Zm-24.48,0h-23.04v-23.04h23.04v23.04Zm-23.52,0h-23.52v-23.04h23.52v23.04Zm-24,0h-23.52v-23.04h23.52v23.04Zm-24,0h-23.52v-23.04h23.52v23.04Zm-24,0h-23.04v-23.04h23.04v23.04Zm-24.48,0h-23.04v-23.04h23.04v23.04Zm-23.52,0h-23.52v-23.04h23.52v23.04Zm-24,0h-23.52v-23.04h23.52v23.04Zm-24,0h-23.52v-23.04h23.52v23.04Zm-24,0h-23.04v-23.04h23.04v23.04Zm-24.48,0h-23.04v-23.04h23.04v23.04Zm-23.52,0h-23.52v-23.04h23.52v23.04Zm-24,0h-23.52v-23.04h23.52v23.04Zm-24,0h-23.52v-23.04h23.52v23.04Zm-24,0h-23.04v-23.04h23.04v23.04Zm-24.48,0h-23.04v-23.04h23.04v23.04Zm0,1.44v23.04h-23.04v-23.04h23.04Zm0,23.52v23.52h-23.04v-23.52h23.04Zm0,24v23.52h-23.04v-23.52h23.04Zm0,24v23.52h-23.04v-23.52h23.04Zm0,24v23.04h-23.04v-23.04h23.04Zm0,24.48v23.04h-23.04v-23.04h23.04Zm0,23.52v23.52h-23.04v-23.52h23.04Zm0,24v23.52h-23.04v-23.52h23.04Zm0,24v23.52h-23.04v-23.52h23.04Zm0,24v23.04h-23.04v-23.04h23.04Zm0,24.48v23.04h-23.04v-23.04h23.04Zm1.44,0h23.04v23.04h-23.04v-23.04Zm23.52,0h23.52v23.04h-23.52v-23.04Zm24,0h23.52v23.04h-23.52v-23.04Zm24,0h23.52v23.04h-23.52v-23.04Zm24,0h23.04v23.04h-23.04v-23.04Zm24.48,0h23.04v23.04h-23.04v-23.04Zm23.52,0h23.52v23.04h-23.52v-23.04Zm24,0h23.52v23.04h-23.52v-23.04Zm24,0h23.52v23.04h-23.52v-23.04Zm24,0h23.04v23.04h-23.04v-23.04Zm24.48,0h23.04v23.04h-23.04v-23.04Zm23.52,0h23.52v23.04h-23.52v-23.04Zm24,0h23.52v23.04h-23.52v-23.04Zm24,0h23.52v23.04h-23.52v-23.04Zm24,0h23.04v23.04h-23.04v-23.04Zm24.48,0h23.04v23.04h-23.04v-23.04Zm23.52,0h23.52v23.04h-23.52v-23.04Zm24,0h23.52v23.04h-23.52v-23.04Zm24,0h23.52v23.04h-23.52v-23.04Zm24,0h23.04v23.04h-23.04v-23.04Zm24.48,0h23.04v23.04h-23.04v-23.04Zm23.52,0h23.52v23.04h-23.52v-23.04Zm24,0h23.52v23.04h-23.52v-23.04Zm24,0h23.52v23.04h-23.52v-23.04Zm24,0h23.04v23.04h-23.04v-23.04Zm24.48,0h23.04v23.04h-23.04v-23.04Zm0-1.44v-23.04h23.04v23.04h-23.04Zm0-23.52v-23.52h23.04v23.52h-23.04Zm0-24v-23.52h23.04v23.52h-23.04Zm0-24v-23.52h23.04v23.52h-23.04Zm0-24v-23.04h23.04v23.04h-23.04Zm0-24.48v-23.04h23.04v23.04h-23.04Zm0-23.52v-23.52h23.04v23.52h-23.04Zm0-24v-23.52h23.04v23.52h-23.04Zm0-24v-23.52h23.04v23.52h-23.04Zm0-24v-23.04h23.04v23.04h-23.04Zm0-24.48v-23.04h23.04v23.04h-23.04Zm0-23.52v-23.52h23.04v23.52h-23.04Zm-1.44,0h-23.04v-23.52h23.04v23.52Zm-23.52,0h-23.52v-23.52h23.52v23.52Zm-24,0h-23.52v-23.52h23.52v23.52Zm-24,0h-23.52v-23.52h23.52v23.52Zm-24,0h-23.04v-23.52h23.04v23.52Zm-24.48,0h-23.04v-23.52h23.04v23.52Zm-23.52,0h-23.52v-23.52h23.52v23.52Zm-24,0h-23.52v-23.52h23.52v23.52Zm-24,0h-23.52v-23.52h23.52v23.52Zm-24,0h-23.04v-23.52h23.04v23.52Zm-24.48,0h-23.04v-23.52h23.04v23.52Zm-23.52,0h-23.52v-23.52h23.52v23.52Zm-24,0h-23.52v-23.52h23.52v23.52Zm-24,0h-23.52v-23.52h23.52v23.52Zm-24,0h-23.04v-23.52h23.04v23.52Zm-24.48,0h-23.04v-23.52h23.04v23.52Zm-23.52,0h-23.52v-23.52h23.52v23.52Zm-24,0h-23.52v-23.52h23.52v23.52Zm-24,0h-23.52v-23.52h23.52v23.52Zm-24,0h-23.04v-23.52h23.04v23.52Zm-24.48,0h-23.04v-23.52h23.04v23.52Zm-23.52,0h-23.52v-23.52h23.52v23.52Zm-24,0h-23.52v-23.52h23.52v23.52Zm-24,0h-23.52v-23.52h23.52v23.52Zm-24,0h-23.04v-23.52h23.04v23.52Zm-24.48,0h-23.04v-23.52h23.04v23.52Zm-23.52,0h-23.52v-23.52h23.52v23.52Zm0,.48v23.04h-23.52v-23.04h23.52Zm0,24.48v23.04h-23.52v-23.04h23.52Zm0,23.52v23.52h-23.52v-23.52h23.52Zm0,24v23.52h-23.52v-23.52h23.52Zm0,24v23.52h-23.52v-23.52h23.52Zm0,24v23.04h-23.52v-23.04h23.52Zm0,24.48v23.04h-23.52v-23.04h23.52Zm0,23.52v23.52h-23.52v-23.52h23.52Zm0,24v23.52h-23.52v-23.52h23.52Zm0,24v23.52h-23.52v-23.52h23.52Zm0,24v23.04h-23.52v-23.04h23.52Zm0,24.48v23.04h-23.52v-23.04h23.52Zm0,23.52v23.52h-23.52v-23.52h23.52Zm.48,0h23.04v23.52h-23.04v-23.52Zm24.48,0h23.04v23.52h-23.04v-23.52Zm23.52,0h23.52v23.52h-23.52v-23.52Zm24,0h23.52v23.52h-23.52v-23.52Zm24,0h23.52v23.52h-23.52v-23.52Zm24,0h23.04v23.52h-23.04v-23.52Zm24.48,0h23.04v23.52h-23.04v-23.52Zm23.52,0h23.52v23.52h-23.52v-23.52Zm24,0h23.52v23.52h-23.52v-23.52Zm24,0h23.52v23.52h-23.52v-23.52Zm24,0h23.04v23.52h-23.04v-23.52Zm24.48,0h23.04v23.52h-23.04v-23.52Zm23.52,0h23.52v23.52h-23.52v-23.52Zm24,0h23.52v23.52h-23.52v-23.52Zm24,0h23.52v23.52h-23.52v-23.52Zm24,0h23.04v23.52h-23.04v-23.52Zm24.48,0h23.04v23.52h-23.04v-23.52Zm23.52,0h23.52v23.52h-23.52v-23.52Zm24,0h23.52v23.52h-23.52v-23.52Zm24,0h23.52v23.52h-23.52v-23.52Zm24,0h23.04v23.52h-23.04v-23.52Zm24.48,0h23.04v23.52h-23.04v-23.52Zm23.52,0h23.52v23.52h-23.52v-23.52Zm24,0h23.52v23.52h-23.52v-23.52Zm24,0h23.52v23.52h-23.52v-23.52Zm24,0h23.04v23.52h-23.04v-23.52Zm24.48,0h23.04v23.52h-23.04v-23.52Zm23.52,0h23.52v23.52h-23.52v-23.52Zm0-.48v-23.04h23.52v23.04h-23.52Zm0-24.48v-23.04h23.52v23.04h-23.52Zm0-23.52v-23.52h23.52v23.52h-23.52Zm0-24v-23.52h23.52v23.52h-23.52Zm0-24v-23.52h23.52v23.52h-23.52Zm0-24v-23.04h23.52v23.04h-23.52Zm0-24.48v-23.04h23.52v23.04h-23.52Zm0-23.52v-23.52h23.52v23.52h-23.52Zm0-24v-23.52h23.52v23.52h-23.52Zm0-24v-23.52h23.52v23.52h-23.52Zm0-24v-23.04h23.52v23.04h-23.52Zm0-24.48v-23.04h23.52v23.04h-23.52Zm0-23.52v-23.52h23.52v23.52h-23.52Zm0-24v-23.52h23.52v23.52h-23.52Zm-.48,0h-23.04v-23.52h23.04v23.52Zm-24.48,0h-23.04v-23.52h23.04v23.52Zm-23.52,0h-23.52v-23.52h23.52v23.52Zm-24,0h-23.52v-23.52h23.52v23.52Zm-24,0h-23.52v-23.52h23.52v23.52Zm-24,0h-23.04v-23.52h23.04v23.52Zm-24.48,0h-23.04v-23.52h23.04v23.52Zm-23.52,0h-23.52v-23.52h23.52v23.52Zm-24,0h-23.52v-23.52h23.52v23.52Zm-24,0h-23.52v-23.52h23.52v23.52Zm-24,0h-23.04v-23.52h23.04v23.52Zm-24.48,0h-23.04v-23.52h23.04v23.52Zm-23.52,0h-23.52v-23.52h23.52v23.52Zm-24,0h-23.52v-23.52h23.52v23.52Zm-24,0h-23.52v-23.52h23.52v23.52Zm-24,0h-23.04v-23.52h23.04v23.52Zm-24.48,0h-23.04v-23.52h23.04v23.52Zm-23.52,0h-23.52v-23.52h23.52v23.52Zm-24,0h-23.52v-23.52h23.52v23.52Zm-24,0h-23.52v-23.52h23.52v23.52Zm-24,0h-23.04v-23.52h23.04v23.52Zm-24.48,0h-23.04v-23.52h23.04v23.52Zm-23.52,0h-23.52v-23.52h23.52v23.52Zm-24,0h-23.52v-23.52h23.52v23.52Zm-24,0h-23.52v-23.52h23.52v23.52Zm-24,0h-23.04v-23.52h23.04v23.52Zm-24.48,0h-23.04v-23.52h23.04v23.52Zm-23.52,0h-23.52v-23.52h23.52v23.52Zm-24,0h-23.52v-23.52h23.52v23.52Zm0,.48v23.52h-23.52v-23.52h23.52Zm0,24v23.04h-23.52v-23.04h23.52Zm0,24.48v23.04h-23.52v-23.04h23.52Zm0,23.52v23.52h-23.52v-23.52h23.52Zm0,24v23.52h-23.52v-23.52h23.52Zm0,24v23.52h-23.52v-23.52h23.52Zm0,24v23.04h-23.52v-23.04h23.52Zm0,24.48v23.04h-23.52v-23.04h23.52Zm0,23.52v23.52h-23.52v-23.52h23.52Zm0,24v23.52h-23.52v-23.52h23.52Zm0,24v23.52h-23.52v-23.52h23.52Zm0,24v23.04h-23.52v-23.04h23.52Zm0,24.48v23.04h-23.52v-23.04h23.52Zm0,23.52v23.52h-23.52v-23.52h23.52Zm0,24v23.52h-23.52v-23.52h23.52Zm.48,0h23.52v23.52h-23.52v-23.52Zm24,0h23.04v23.52h-23.04v-23.52Zm24.48,0h23.04v23.52h-23.04v-23.52Zm23.52,0h23.52v23.52h-23.52v-23.52Zm24,0h23.52v23.52h-23.52v-23.52Zm24,0h23.52v23.52h-23.52v-23.52Zm24,0h23.04v23.52h-23.04v-23.52Zm24.48,0h23.04v23.52h-23.04v-23.52Zm23.52,0h23.52v23.52h-23.52v-23.52Zm24,0h23.52v23.52h-23.52v-23.52Zm24,0h23.52v23.52h-23.52v-23.52Zm24,0h23.04v23.52h-23.04v-23.52Zm24.48,0h23.04v23.52h-23.04v-23.52Zm23.52,0h23.52v23.52h-23.52v-23.52Zm24,0h23.52v23.52h-23.52v-23.52Zm24,0h23.52v23.52h-23.52v-23.52Zm24,0h23.04v23.52h-23.04v-23.52Zm24.48,0h23.04v23.52h-23.04v-23.52Zm23.52,0h23.52v23.52h-23.52v-23.52Zm24,0h23.52v23.52h-23.52v-23.52Zm24,0h23.52v23.52h-23.52v-23.52Zm24,0h23.04v23.52h-23.04v-23.52Zm24.48,0h23.04v23.52h-23.04v-23.52Zm23.52,0h23.52v23.52h-23.52v-23.52Zm24,0h23.52v23.52h-23.52v-23.52Zm24,0h23.52v23.52h-23.52v-23.52Zm24,0h23.04v23.52h-23.04v-23.52Zm24.48,0h23.04v23.52h-23.04v-23.52Zm23.52,0h23.52v23.52h-23.52v-23.52Zm24,0h23.52v23.52h-23.52v-23.52Zm0-.48v-23.52h23.52v23.52h-23.52Zm0-24v-23.04h23.52v23.04h-23.52Zm0-24.48v-23.04h23.52v23.04h-23.52Zm0-23.52v-23.52h23.52v23.52h-23.52Zm0-24v-23.52h23.52v23.52h-23.52Zm0-24v-23.52h23.52v23.52h-23.52Zm0-24v-23.04h23.52v23.04h-23.52Zm0-24.48v-23.04h23.52v23.04h-23.52Zm0-23.52v-23.52h23.52v23.52h-23.52Zm0-24v-23.52h23.52v23.52h-23.52Zm0-24v-23.52h23.52v23.52h-23.52Zm0-24v-23.04h23.52v23.04h-23.52Zm0-24.48v-23.04h23.52v23.04h-23.52Zm0-23.52v-23.52h23.52v23.52h-23.52Zm0-24v-23.52h23.52v23.52h-23.52Zm0-24v-23.52h23.52v23.52h-23.52Zm-.48,0h-23.52v-23.52h23.52v23.52Zm-24,0h-23.04v-23.52h23.04v23.52Zm-24.48,0h-23.04v-23.52h23.04v23.52Zm-23.52,0h-23.52v-23.52h23.52v23.52Zm-24,0h-23.52v-23.52h23.52v23.52Zm-24,0h-23.52v-23.52h23.52v23.52Zm-24,0h-23.04v-23.52h23.04v23.52Zm-24.48,0h-23.04v-23.52h23.04v23.52Zm-23.52,0h-23.52v-23.52h23.52v23.52Zm-24,0h-23.52v-23.52h23.52v23.52Zm-24,0h-23.52v-23.52h23.52v23.52Zm-24,0h-23.04v-23.52h23.04v23.52Zm-24.48,0h-23.04v-23.52h23.04v23.52Zm-23.52,0h-23.52v-23.52h23.52v23.52Zm-24,0h-23.52v-23.52h23.52v23.52Zm-24,0h-23.52v-23.52h23.52v23.52Zm-24,0h-23.04v-23.52h23.04v23.52Zm-24.48,0h-23.04v-23.52h23.04v23.52Zm-23.52,0h-23.52v-23.52h23.52v23.52Zm-24,0h-23.52v-23.52h23.52v23.52Zm-24,0h-23.52v-23.52h23.52v23.52Zm-24,0h-23.04v-23.52h23.04v23.52Zm-24.48,0h-23.04v-23.52h23.04v23.52Zm-23.52,0h-23.52v-23.52h23.52v23.52Zm-24,0h-23.52v-23.52h23.52v23.52Zm-24,0h-23.52v-23.52h23.52v23.52Zm-24,0h-23.04v-23.52h23.04v23.52Zm-24.48,0h-23.04v-23.52h23.04v23.52Zm-23.52,0h-23.52v-23.52h23.52v23.52Zm-24,0h-23.52v-23.52h23.52v23.52Zm-24,0h-23.52v-23.52h23.52v23.52Zm0,.48v23.52h-23.52v-23.52h23.52Zm0,24v23.52h-23.52v-23.52h23.52Zm0,24v23.04h-23.52v-23.04h23.52Zm0,24.48v23.04h-23.52v-23.04h23.52Zm0,23.52v23.52h-23.52v-23.52h23.52Zm0,24v23.52h-23.52v-23.52h23.52Zm0,24v23.52h-23.52v-23.52h23.52Zm0,24v23.04h-23.52v-23.04h23.52Zm0,24.48v23.04h-23.52v-23.04h23.52Zm0,23.52v23.52h-23.52v-23.52h23.52Zm0,24v23.52h-23.52v-23.52h23.52Zm0,24v23.52h-23.52v-23.52h23.52Zm0,24v23.04h-23.52v-23.04h23.52Zm0,24.48v23.04h-23.52v-23.04h23.52Zm0,23.52v23.52h-23.52v-23.52h23.52Zm0,24v23.52h-23.52v-23.52h23.52Zm0,24v23.52h-23.52v-23.52h23.52Zm.48,0h23.52v23.52h-23.52v-23.52Zm24,0h23.52v23.52h-23.52v-23.52Zm24,0h23.04v23.52h-23.04v-23.52Zm24.48,0h23.04v23.52h-23.04v-23.52Zm23.52,0h23.52v23.52h-23.52v-23.52Zm24,0h23.52v23.52h-23.52v-23.52Zm24,0h23.52v23.52h-23.52v-23.52Zm24,0h23.04v23.52h-23.04v-23.52Zm24.48,0h23.04v23.52h-23.04v-23.52Zm23.52,0h23.52v23.52h-23.52v-23.52Zm24,0h23.52v23.52h-23.52v-23.52Zm24,0h23.52v23.52h-23.52v-23.52Zm24,0h23.04v23.52h-23.04v-23.52Zm24.48,0h23.04v23.52h-23.04v-23.52Zm23.52,0h23.52v23.52h-23.52v-23.52Zm24,0h23.52v23.52h-23.52v-23.52Zm24,0h23.52v23.52h-23.52v-23.52Zm24,0h23.04v23.52h-23.04v-23.52Zm24.48,0h23.04v23.52h-23.04v-23.52Zm23.52,0h23.52v23.52h-23.52v-23.52Zm24,0h23.52v23.52h-23.52v-23.52Zm24,0h23.52v23.52h-23.52v-23.52Zm24,0h23.04v23.52h-23.04v-23.52Zm24.48,0h23.04v23.52h-23.04v-23.52Zm23.52,0h23.52v23.52h-23.52v-23.52Zm24,0h23.52v23.52h-23.52v-23.52Zm24,0h23.52v23.52h-23.52v-23.52Zm24,0h23.04v23.52h-23.04v-23.52Zm24.48,0h23.04v23.52h-23.04v-23.52Zm23.52,0h23.52v23.52h-23.52v-23.52Zm24,0h23.52v23.52h-23.52v-23.52Zm24,0h23.52v23.52h-23.52v-23.52Zm0-.48v-23.52h23.52v23.52h-23.52Zm0-24v-23.52h23.52v23.52h-23.52Zm0-24v-23.04h23.52v23.04h-23.52Zm0-24.48v-23.04h23.52v23.04h-23.52Zm0-23.52v-23.52h23.52v23.52h-23.52Zm0-24v-23.52h23.52v23.52h-23.52Zm0-24v-23.52h23.52v23.52h-23.52Zm0-24v-23.04h23.52v23.04h-23.52Zm0-24.48v-23.04h23.52v23.04h-23.52Zm0-23.52v-23.52h23.52v23.52h-23.52Zm0-24v-23.52h23.52v23.52h-23.52Zm0-24v-23.52h23.52v23.52h-23.52Zm0-24v-23.04h23.52v23.04h-23.52Zm0-24.48v-23.04h23.52v23.04h-23.52Zm0-23.52v-23.52h23.52v23.52h-23.52Zm0-24v-23.52h23.52v23.52h-23.52Zm0-24v-23.52h23.52v23.52h-23.52Zm0-24v-23.04h23.52v23.04h-23.52Zm-.48,0h-23.52v-23.04h23.52v23.04Zm-24,0h-23.52v-23.04h23.52v23.04Zm-24,0h-23.04v-23.04h23.04v23.04Zm-24.48,0h-23.04v-23.04h23.04v23.04Zm-23.52,0h-23.52v-23.04h23.52v23.04Zm-24,0h-23.52v-23.04h23.52v23.04Zm-24,0h-23.52v-23.04h23.52v23.04Zm-24,0h-23.04v-23.04h23.04v23.04Zm-24.48,0h-23.04v-23.04h23.04v23.04Zm-23.52,0h-23.52v-23.04h23.52v23.04Zm-24,0h-23.52v-23.04h23.52v23.04Zm-24,0h-23.52v-23.04h23.52v23.04Zm-24,0h-23.04v-23.04h23.04v23.04Zm-24.48,0h-23.04v-23.04h23.04v23.04Zm-23.52,0h-23.52v-23.04h23.52v23.04Zm-24,0h-23.52v-23.04h23.52v23.04Zm-24,0h-23.52v-23.04h23.52v23.04Zm-24,0h-23.04v-23.04h23.04v23.04Zm-24.48,0h-23.04v-23.04h23.04v23.04Zm-23.52,0h-23.52v-23.04h23.52v23.04Zm-24,0h-23.52v-23.04h23.52v23.04Zm-24,0h-23.52v-23.04h23.52v23.04Zm-24,0h-23.04v-23.04h23.04v23.04Zm-24.48,0h-23.04v-23.04h23.04v23.04Zm-23.52,0h-23.52v-23.04h23.52v23.04Zm-24,0h-23.52v-23.04h23.52v23.04Zm-24,0h-23.52v-23.04h23.52v23.04Zm-24,0h-23.04v-23.04h23.04v23.04Zm-24.48,0h-23.04v-23.04h23.04v23.04Zm-23.52,0h-23.52v-23.04h23.52v23.04Zm-24,0h-23.52v-23.04h23.52v23.04Zm-24,0h-23.52v-23.04h23.52v23.04Zm-24,0h-23.04v-23.04h23.04v23.04Zm0,.48v23.52h-23.04v-23.52h23.04Zm0,24v23.52h-23.04v-23.52h23.04Zm0,24v23.52h-23.04v-23.52h23.04Zm0,24v23.04h-23.04v-23.04h23.04Zm0,24.48v23.04h-23.04v-23.04h23.04Zm0,23.52v23.52h-23.04v-23.52h23.04Zm0,24v23.52h-23.04v-23.52h23.04Zm0,24v23.52h-23.04v-23.52h23.04Zm0,24v23.04h-23.04v-23.04h23.04Zm0,24.48v23.04h-23.04v-23.04h23.04Zm0,23.52v23.52h-23.04v-23.52h23.04Zm0,24v23.52h-23.04v-23.52h23.04Zm0,24v23.52h-23.04v-23.52h23.04Zm0,24v23.04h-23.04v-23.04h23.04Zm0,24.48v23.04h-23.04v-23.04h23.04Zm0,23.52v23.52h-23.04v-23.52h23.04Zm0,24v23.52h-23.04v-23.52h23.04Zm0,24v23.52h-23.04v-23.52h23.04Zm0,24v23.04h-23.04v-23.04h23.04Zm.48,0h23.52v23.04h-23.52v-23.04Zm24,0h23.52v23.04h-23.52v-23.04Zm24,0h23.52v23.04h-23.52v-23.04Zm24,0h23.04v23.04h-23.04v-23.04Zm24.48,0h23.04v23.04h-23.04v-23.04Zm23.52,0h23.52v23.04h-23.52v-23.04Zm24,0h23.52v23.04h-23.52v-23.04Zm24,0h23.52v23.04h-23.52v-23.04Zm24,0h23.04v23.04h-23.04v-23.04Zm24.48,0h23.04v23.04h-23.04v-23.04Zm23.52,0h23.52v23.04h-23.52v-23.04Zm24,0h23.52v23.04h-23.52v-23.04Zm24,0h23.52v23.04h-23.52v-23.04Zm24,0h23.04v23.04h-23.04v-23.04Zm24.48,0h23.04v23.04h-23.04v-23.04Zm23.52,0h23.52v23.04h-23.52v-23.04Zm24,0h23.52v23.04h-23.52v-23.04Zm24,0h23.52v23.04h-23.52v-23.04Zm24,0h23.04v23.04h-23.04v-23.04Zm24.48,0h23.04v23.04h-23.04v-23.04Zm23.52,0h23.52v23.04h-23.52v-23.04Zm24,0h23.52v23.04h-23.52v-23.04Zm24,0h23.52v23.04h-23.52v-23.04Zm24,0h23.04v23.04h-23.04v-23.04Zm24.48,0h23.04v23.04h-23.04v-23.04Zm23.52,0h23.52v23.04h-23.52v-23.04Zm24,0h23.52v23.04h-23.52v-23.04Zm24,0h23.52v23.04h-23.52v-23.04Zm24,0h23.04v23.04h-23.04v-23.04Zm24.48,0h23.04v23.04h-23.04v-23.04Zm23.52,0h23.52v23.04h-23.52v-23.04Zm24,0h23.52v23.04h-23.52v-23.04Zm24,0h23.52v23.04h-23.52v-23.04Zm24,0h23.04v23.04h-23.04v-23.04Zm0-.48v-23.52h23.04v23.52h-23.04Zm0-24v-23.52h23.04v23.52h-23.04Zm0-24v-23.52h23.04v23.52h-23.04Zm0-24v-23.04h23.04v23.04h-23.04Zm0-24.48v-23.04h23.04v23.04h-23.04Zm0-23.52v-23.52h23.04v23.52h-23.04Zm0-24v-23.52h23.04v23.52h-23.04Zm0-24v-23.52h23.04v23.52h-23.04Zm0-24v-23.04h23.04v23.04h-23.04Zm0-24.48v-23.04h23.04v23.04h-23.04Zm0-23.52v-23.52h23.04v23.52h-23.04Zm0-24v-23.52h23.04v23.52h-23.04Zm0-24v-23.52h23.04v23.52h-23.04Zm0-24v-23.04h23.04v23.04h-23.04Zm0-24.48v-23.04h23.04v23.04h-23.04Zm0-23.52v-23.52h23.04v23.52h-23.04Zm0-24v-23.52h23.04v23.52h-23.04Zm0-24v-23.52h23.04v23.52h-23.04Zm0-24v-23.04h23.04v23.04h-23.04Zm0-24.48v-23.04h23.04v23.04h-23.04Zm-.48,0h-23.52v-23.04h23.52v23.04Zm-24,0h-23.52v-23.04h23.52v23.04Zm-24,0h-23.52v-23.04h23.52v23.04Zm-24,0h-23.04v-23.04h23.04v23.04Zm-24.48,0h-23.04v-23.04h23.04v23.04Zm-23.52,0h-23.52v-23.04h23.52v23.04Zm-24,0h-23.52v-23.04h23.52v23.04Zm-24,0h-23.52v-23.04h23.52v23.04Zm-24,0h-23.04v-23.04h23.04v23.04Zm-24.48,0h-23.04v-23.04h23.04v23.04Zm-23.52,0h-23.52v-23.04h23.52v23.04Zm-24,0h-23.52v-23.04h23.52v23.04Zm-24,0h-23.52v-23.04h23.52v23.04Zm-24,0h-23.04v-23.04h23.04v23.04Zm-24.48,0h-23.04v-23.04h23.04v23.04Zm-23.52,0h-23.52v-23.04h23.52v23.04Zm-24,0h-23.52v-23.04h23.52v23.04Zm-24,0h-23.52v-23.04h23.52v23.04Zm-24,0h-23.04v-23.04h23.04v23.04Zm-24.48,0h-23.04v-23.04h23.04v23.04Zm-23.52,0h-23.52v-23.04h23.52v23.04Zm-24,0h-23.52v-23.04h23.52v23.04Zm-24,0h-23.52v-23.04h23.52v23.04Zm-24,0h-23.04v-23.04h23.04v23.04Zm-24.48,0h-23.04v-23.04h23.04v23.04Zm-23.52,0h-23.52v-23.04h23.52v23.04Zm-24,0h-23.52v-23.04h23.52v23.04Zm-24,0h-23.52v-23.04h23.52v23.04Zm-24,0h-23.04v-23.04h23.04v23.04Zm-24.48,0h-23.04v-23.04h23.04v23.04Zm-23.52,0h-23.52v-23.04h23.52v23.04Zm-24,0h-23.52v-23.04h23.52v23.04Zm-24,0h-23.52v-23.04h23.52v23.04Zm-24,0h-23.04v-23.04h23.04v23.04Zm-24.48,0h-23.04v-23.04h23.04v23.04Zm0,1.44v23.04h-23.04v-23.04h23.04Zm0,23.52v23.52h-23.04v-23.52h23.04Zm0,24v23.52h-23.04v-23.52h23.04Zm0,24v23.52h-23.04v-23.52h23.04Zm0,24v23.04h-23.04v-23.04h23.04Zm0,24.48v23.04h-23.04v-23.04h23.04Zm0,23.52v23.52h-23.04v-23.52h23.04Zm0,24v23.52h-23.04v-23.52h23.04Zm0,24v23.52h-23.04v-23.52h23.04Zm0,24v23.04h-23.04v-23.04h23.04Zm0,24.48v23.04h-23.04v-23.04h23.04Zm0,23.52v23.52h-23.04v-23.52h23.04Zm0,24v23.52h-23.04v-23.52h23.04Zm0,24v23.52h-23.04v-23.52h23.04Zm0,24v23.04h-23.04v-23.04h23.04Zm0,24.48v23.04h-23.04v-23.04h23.04Zm0,23.52v23.52h-23.04v-23.52h23.04Zm0,24v23.52h-23.04v-23.52h23.04Zm0,24v23.52h-23.04v-23.52h23.04Zm0,24v23.04h-23.04v-23.04h23.04Zm0,24.48v23.04h-23.04v-23.04h23.04Zm1.44,0h23.04v23.04h-23.04v-23.04Zm23.52,0h23.52v23.04h-23.52v-23.04Zm24,0h23.52v23.04h-23.52v-23.04Zm24,0h23.52v23.04h-23.52v-23.04Zm24,0h23.04v23.04h-23.04v-23.04Zm24.48,0h23.04v23.04h-23.04v-23.04Zm23.52,0h23.52v23.04h-23.52v-23.04Zm24,0h23.52v23.04h-23.52v-23.04Zm24,0h23.52v23.04h-23.52v-23.04Zm24,0h23.04v23.04h-23.04v-23.04Zm24.48,0h23.04v23.04h-23.04v-23.04Zm23.52,0h23.52v23.04h-23.52v-23.04Zm24,0h23.52v23.04h-23.52v-23.04Zm24,0h23.52v23.04h-23.52v-23.04Zm24,0h23.04v23.04h-23.04v-23.04Zm24.48,0h23.04v23.04h-23.04v-23.04Zm23.52,0h23.52v23.04h-23.52v-23.04Zm24,0h23.52v23.04h-23.52v-23.04Zm24,0h23.52v23.04h-23.52v-23.04Zm24,0h23.04v23.04h-23.04v-23.04Zm24.48,0h23.04v23.04h-23.04v-23.04Zm23.52,0h23.52v23.04h-23.52v-23.04Zm24,0h23.52v23.04h-23.52v-23.04Zm24,0h23.52v23.04h-23.52v-23.04Zm24,0h23.04v23.04h-23.04v-23.04Zm24.48,0h23.04v23.04h-23.04v-23.04Zm23.52,0h23.52v23.04h-23.52v-23.04Zm24,0h23.52v23.04h-23.52v-23.04Zm24,0h23.52v23.04h-23.52v-23.04Zm24,0h23.04v23.04h-23.04v-23.04Zm24.48,0h23.04v23.04h-23.04v-23.04Zm23.52,0h23.52v23.04h-23.52v-23.04Zm24,0h23.52v23.04h-23.52v-23.04Zm24,0h23.52v23.04h-23.52v-23.04Zm24,0h23.04v23.04h-23.04v-23.04Zm24.48,0h23.04v23.04h-23.04v-23.04Zm0-1.44v-23.04h23.04v23.04h-23.04Zm0-23.52v-23.52h23.04v23.52h-23.04Zm0-24v-23.52h23.04v23.52h-23.04Zm0-24v-23.52h23.04v23.52h-23.04Zm0-24v-23.04h23.04v23.04h-23.04Zm0-24.48v-23.04h23.04v23.04h-23.04Zm0-23.52v-23.52h23.04v23.52h-23.04Zm0-24v-23.52h23.04v23.52h-23.04Zm0-24v-23.52h23.04v23.52h-23.04Zm0-24v-23.04h23.04v23.04h-23.04Zm0-24.48v-23.04h23.04v23.04h-23.04Zm0-23.52v-23.52h23.04v23.52h-23.04Zm0-24v-23.52h23.04v23.52h-23.04Zm0-24v-23.52h23.04v23.52h-23.04Zm0-24v-23.04h23.04v23.04h-23.04Zm0-24.48v-23.04h23.04v23.04h-23.04Zm0-23.52v-23.52h23.04v23.52h-23.04Zm0-24v-23.52h23.04v23.52h-23.04Zm0-24v-23.52h23.04v23.52h-23.04Zm0-24v-23.04h23.04v23.04h-23.04Zm0-24.48v-23.04h23.04v23.04h-23.04Zm0-23.52v-23.52h23.04v23.52h-23.04Zm-1.44,0h-23.04v-23.52h23.04v23.52Zm-23.52,0h-23.52v-23.52h23.52v23.52Zm-24,0h-23.52v-23.52h23.52v23.52Zm-24,0h-23.52v-23.52h23.52v23.52Zm-24,0h-23.04v-23.52h23.04v23.52Zm-24.48,0h-23.04v-23.52h23.04v23.52Zm-23.52,0h-23.52v-23.52h23.52v23.52Zm-24,0h-23.52v-23.52h23.52v23.52Zm-24,0h-23.52v-23.52h23.52v23.52Zm-24,0h-23.04v-23.52h23.04v23.52Zm-24.48,0h-23.04v-23.52h23.04v23.52Zm-23.52,0h-23.52v-23.52h23.52v23.52Zm-24,0h-23.52v-23.52h23.52v23.52Zm-24,0h-23.52v-23.52h23.52v23.52Zm-24,0h-23.04v-23.52h23.04v23.52Zm-24.48,0h-23.04v-23.52h23.04v23.52Zm-23.52,0h-23.52v-23.52h23.52v23.52Zm-24,0h-23.52v-23.52h23.52v23.52Zm-24,0h-23.52v-23.52h23.52v23.52Zm-24,0h-23.04v-23.52h23.04v23.52Zm-24.48,0h-23.04v-23.52h23.04v23.52Zm-23.52,0h-23.52v-23.52h23.52v23.52Zm-24,0h-23.52v-23.52h23.52v23.52Zm-24,0h-23.52v-23.52h23.52v23.52Zm-24,0h-23.04v-23.52h23.04v23.52Zm-24.48,0h-23.04v-23.52h23.04v23.52Zm-23.52,0h-23.52v-23.52h23.52v23.52Zm-24,0h-23.52v-23.52h23.52v23.52Zm-24,0h-23.52v-23.52h23.52v23.52Zm-24,0h-23.04v-23.52h23.04v23.52Zm-24.48,0h-23.04v-23.52h23.04v23.52Zm-23.52,0h-23.52v-23.52h23.52v23.52Zm-24,0h-23.52v-23.52h23.52v23.52Zm-24,0h-23.52v-23.52h23.52v23.52Zm-24,0h-23.04v-23.52h23.04v23.52Zm-24.48,0h-23.04v-23.52h23.04v23.52Zm-23.52,0h-23.52v-23.52h23.52v23.52Zm0,.48v23.04h-23.52v-23.04h23.52Zm0,24.48v23.04h-23.52v-23.04h23.52Zm0,23.52v23.52h-23.52v-23.52h23.52Zm0,24v23.52h-23.52v-23.52h23.52Zm0,24v23.52h-23.52v-23.52h23.52Zm0,24v23.04h-23.52v-23.04h23.52Zm0,24.48v23.04h-23.52v-23.04h23.52Zm0,23.52v23.52h-23.52v-23.52h23.52Zm0,24v23.52h-23.52v-23.52h23.52Zm0,24v23.52h-23.52v-23.52h23.52Zm0,24v23.04h-23.52v-23.04h23.52Zm0,24.48v23.04h-23.52v-23.04h23.52Zm0,23.52v23.52h-23.52v-23.52h23.52Zm0,24v23.52h-23.52v-23.52h23.52Zm0,24v23.52h-23.52v-23.52h23.52Zm0,24v23.04h-23.52v-23.04h23.52Zm0,24.48v23.04h-23.52v-23.04h23.52Zm0,23.52v23.52h-23.52v-23.52h23.52Zm0,24v23.52h-23.52v-23.52h23.52Zm0,24v23.52h-23.52v-23.52h23.52Zm0,24v23.04h-23.52v-23.04h23.52Zm0,24.48v23.04h-23.52v-23.04h23.52Zm0,23.52v23.52h-23.52v-23.52h23.52Zm.48,0h23.04v23.52h-23.04v-23.52Zm24.48,0h23.04v23.52h-23.04v-23.52Zm23.52,0h23.52v23.52h-23.52v-23.52Zm24,0h23.52v23.52h-23.52v-23.52Zm24,0h23.52v23.52h-23.52v-23.52Zm24,0h23.04v23.52h-23.04v-23.52Zm24.48,0h23.04v23.52h-23.04v-23.52Zm23.52,0h23.52v23.52h-23.52v-23.52Zm24,0h23.52v23.52h-23.52v-23.52Zm24,0h23.52v23.52h-23.52v-23.52Zm24,0h23.04v23.52h-23.04v-23.52Zm24.48,0h23.04v23.52h-23.04v-23.52Zm23.52,0h23.52v23.52h-23.52v-23.52Zm24,0h23.52v23.52h-23.52v-23.52Zm24,0h23.52v23.52h-23.52v-23.52Zm24,0h23.04v23.52h-23.04v-23.52Zm24.48,0h23.04v23.52h-23.04v-23.52Zm23.52,0h23.52v23.52h-23.52v-23.52Zm24,0h23.52v23.52h-23.52v-23.52Zm24,0h23.52v23.52h-23.52v-23.52Zm24,0h23.04v23.52h-23.04v-23.52Zm24.48,0h23.04v23.52h-23.04v-23.52Zm23.52,0h23.52v23.52h-23.52v-23.52Zm24,0h23.52v23.52h-23.52v-23.52Zm24,0h23.52v23.52h-23.52v-23.52Zm24,0h23.04v23.52h-23.04v-23.52Zm24.48,0h23.04v23.52h-23.04v-23.52Zm23.52,0h23.52v23.52h-23.52v-23.52Zm24,0h23.52v23.52h-23.52v-23.52Zm24,0h23.52v23.52h-23.52v-23.52Zm24,0h23.04v23.52h-23.04v-23.52Zm24.48,0h23.04v23.52h-23.04v-23.52Zm23.52,0h23.52v23.52h-23.52v-23.52Zm24,0h23.52v23.52h-23.52v-23.52Zm24,0h23.52v23.52h-23.52v-23.52Zm24,0h23.04v23.52h-23.04v-23.52Zm24.48,0h23.04v23.52h-23.04v-23.52Zm23.52,0h23.52v23.52h-23.52v-23.52Zm0-.48v-23.04h23.52v23.04h-23.52Zm0-24.48v-23.04h23.52v23.04h-23.52Zm0-23.52v-23.52h23.52v23.52h-23.52Zm0-24v-23.52h23.52v23.52h-23.52Zm0-24v-23.52h23.52v23.52h-23.52Zm0-24v-23.04h23.52v23.04h-23.52Zm0-24.48v-23.04h23.52v23.04h-23.52Zm0-23.52v-23.52h23.52v23.52h-23.52Zm0-24v-23.52h23.52v23.52h-23.52Zm0-24v-23.52h23.52v23.52h-23.52Zm0-24v-23.04h23.52v23.04h-23.52Zm0-24.48v-23.04h23.52v23.04h-23.52Zm0-23.52v-23.52h23.52v23.52h-23.52Zm0-24v-23.52h23.52v23.52h-23.52Zm0-24v-23.52h23.52v23.52h-23.52Zm0-24v-23.04h23.52v23.04h-23.52Zm0-24.48v-23.04h23.52v23.04h-23.52Zm0-23.52v-23.52h23.52v23.52h-23.52Zm0-24v-23.52h23.52v23.52h-23.52Zm0-24v-23.52h23.52v23.52h-23.52Zm0-24v-23.04h23.52v23.04h-23.52Zm0-24.48v-23.04h23.52v23.04h-23.52Zm0-23.52v-23.52h23.52v23.52h-23.52Zm0-24v-23.52h23.52v23.52h-23.52Zm-.48,0h-23.04v-23.52h23.04v23.52Zm-24.48,0h-23.04v-23.52h23.04v23.52Zm-23.52,0h-23.52v-23.52h23.52v23.52Zm-24,0h-23.52v-23.52h23.52v23.52Zm-24,0h-23.52v-23.52h23.52v23.52Zm-24,0h-23.04v-23.52h23.04v23.52Zm-24.48,0h-23.04v-23.52h23.04v23.52Zm-23.52,0h-23.52v-23.52h23.52v23.52Zm-24,0h-23.52v-23.52h23.52v23.52Zm-24,0h-23.52v-23.52h23.52v23.52Zm-24,0h-23.04v-23.52h23.04v23.52Zm-24.48,0h-23.04v-23.52h23.04v23.52Zm-23.52,0h-23.52v-23.52h23.52v23.52Zm-24,0h-23.52v-23.52h23.52v23.52Zm-24,0h-23.52v-23.52h23.52v23.52Zm-24,0h-23.04v-23.52h23.04v23.52Zm-24.48,0h-23.04v-23.52h23.04v23.52Zm-23.52,0h-23.52v-23.52h23.52v23.52Zm-24,0h-23.52v-23.52h23.52v23.52Zm-24,0h-23.52v-23.52h23.52v23.52Zm-24,0h-23.04v-23.52h23.04v23.52Zm-24.48,0h-23.04v-23.52h23.04v23.52Zm-23.52,0h-23.52v-23.52h23.52v23.52Zm-24,0h-23.52v-23.52h23.52v23.52Zm-24,0h-23.52v-23.52h23.52v23.52Zm-24,0h-23.04v-23.52h23.04v23.52Zm-24.48,0h-23.04v-23.52h23.04v23.52Zm-23.52,0h-23.52v-23.52h23.52v23.52Zm-24,0h-23.52v-23.52h23.52v23.52Zm-24,0h-23.52v-23.52h23.52v23.52Zm-24,0h-23.04v-23.52h23.04v23.52Zm-24.48,0h-23.04v-23.52h23.04v23.52Zm-23.52,0h-23.52v-23.52h23.52v23.52Zm-24,0h-23.52v-23.52h23.52v23.52Zm-24,0h-23.52v-23.52h23.52v23.52Zm-24,0h-23.04v-23.52h23.04v23.52Zm-24.48,0h-23.04v-23.52h23.04v23.52Zm-23.52,0h-23.52v-23.52h23.52v23.52Zm-24,0h-23.52v-23.52h23.52v23.52Zm0,.48v23.52h-23.52v-23.52h23.52Zm0,24v23.04h-23.52v-23.04h23.52Zm0,24.48v23.04h-23.52v-23.04h23.52Zm0,23.52v23.52h-23.52v-23.52h23.52Zm0,24v23.52h-23.52v-23.52h23.52Zm0,24v23.52h-23.52v-23.52h23.52Zm0,24v23.04h-23.52v-23.04h23.52Zm0,24.48v23.04h-23.52v-23.04h23.52Zm0,23.52v23.52h-23.52v-23.52h23.52Zm0,24v23.52h-23.52v-23.52h23.52Zm0,24v23.52h-23.52v-23.52h23.52Zm0,24v23.04h-23.52v-23.04h23.52Zm0,24.48v23.04h-23.52v-23.04h23.52Zm0,23.52v23.52h-23.52v-23.52h23.52Zm0,24v23.52h-23.52v-23.52h23.52Zm0,24v23.52h-23.52v-23.52h23.52Zm0,24v23.04h-23.52v-23.04h23.52Zm0,24.48v23.04h-23.52v-23.04h23.52Zm0,23.52v23.52h-23.52v-23.52h23.52Zm0,24v23.52h-23.52v-23.52h23.52Zm0,24v23.52h-23.52v-23.52h23.52Zm0,24v23.04h-23.52v-23.04h23.52Zm0,24.48v23.04h-23.52v-23.04h23.52Zm0,23.52v23.52h-23.52v-23.52h23.52Zm0,24v23.52h-23.52v-23.52h23.52Zm.48,0h23.52v23.52h-23.52v-23.52Zm24,0h23.04v23.52h-23.04v-23.52Zm24.48,0h23.04v23.52h-23.04v-23.52Zm23.52,0h23.52v23.52h-23.52v-23.52Zm24,0h23.52v23.52h-23.52v-23.52Zm24,0h23.52v23.52h-23.52v-23.52Zm24,0h23.04v23.52h-23.04v-23.52Zm24.48,0h23.04v23.52h-23.04v-23.52Zm23.52,0h23.52v23.52h-23.52v-23.52Zm24,0h23.52v23.52h-23.52v-23.52Zm24,0h23.52v23.52h-23.52v-23.52Zm24,0h23.04v23.52h-23.04v-23.52Zm24.48,0h23.04v23.52h-23.04v-23.52Zm23.52,0h23.52v23.52h-23.52v-23.52Zm24,0h23.52v23.52h-23.52v-23.52Zm24,0h23.52v23.52h-23.52v-23.52Zm24,0h23.04v23.52h-23.04v-23.52Zm24.48,0h23.04v23.52h-23.04v-23.52Zm23.52,0h23.52v23.52h-23.52v-23.52Zm24,0h23.52v23.52h-23.52v-23.52Zm24,0h23.52v23.52h-23.52v-23.52Zm24,0h23.04v23.52h-23.04v-23.52Zm24.48,0h23.04v23.52h-23.04v-23.52Zm23.52,0h23.52v23.52h-23.52v-23.52Zm24,0h23.52v23.52h-23.52v-23.52Zm24,0h23.52v23.52h-23.52v-23.52Zm24,0h23.04v23.52h-23.04v-23.52Zm24.48,0h23.04v23.52h-23.04v-23.52Zm23.52,0h23.52v23.52h-23.52v-23.52Zm24,0h23.52v23.52h-23.52v-23.52Zm24,0h23.52v23.52h-23.52v-23.52Zm24,0h23.04v23.52h-23.04v-23.52Zm24.48,0h23.04v23.52h-23.04v-23.52Zm23.52,0h23.52v23.52h-23.52v-23.52Zm24,0h23.52v23.52h-23.52v-23.52Zm24,0h23.52v23.52h-23.52v-23.52Zm24,0h23.04v23.52h-23.04v-23.52Zm24.48,0h23.04v23.52h-23.04v-23.52Zm23.52,0h23.52v23.52h-23.52v-23.52Zm24,0h23.52v23.52h-23.52v-23.52Zm0-.48v-23.52h23.52v23.52h-23.52Zm0-24v-23.04h23.52v23.04h-23.52Zm0-24.48v-23.04h23.52v23.04h-23.52Zm0-23.52v-23.52h23.52v23.52h-23.52Zm0-24v-23.52h23.52v23.52h-23.52Zm0-24v-23.52h23.52v23.52h-23.52Zm0-24v-23.04h23.52v23.04h-23.52Zm0-24.48v-23.04h23.52v23.04h-23.52Zm0-23.52v-23.52h23.52v23.52h-23.52Zm0-24v-23.52h23.52v23.52h-23.52Zm0-24v-23.52h23.52v23.52h-23.52Zm0-24v-23.04h23.52v23.04h-23.52Zm0-24.48v-23.04h23.52v23.04h-23.52Zm0-23.52v-23.52h23.52v23.52h-23.52Zm0-24v-23.52h23.52v23.52h-23.52Zm0-24v-23.52h23.52v23.52h-23.52Zm0-24v-23.04h23.52v23.04h-23.52Zm0-24.48v-23.04h23.52v23.04h-23.52Zm0-23.52v-23.52h23.52v23.52h-23.52Zm0-24v-23.52h23.52v23.52h-23.52Zm0-24v-23.52h23.52v23.52h-23.52Zm0-24v-23.04h23.52v23.04h-23.52Zm0-24.48v-23.04h23.52v23.04h-23.52Zm0-23.52v-23.52h23.52v23.52h-23.52Zm0-24v-23.52h23.52v23.52h-23.52Zm0-24v-23.52h23.52v23.52h-23.52Zm-.48,0h-23.52v-23.52h23.52v23.52Zm-24,0h-23.04v-23.52h23.04v23.52Zm-24.48,0h-23.04v-23.52h23.04v23.52Zm-23.52,0h-23.52v-23.52h23.52v23.52Zm-24,0h-23.52v-23.52h23.52v23.52Zm-24,0h-23.52v-23.52h23.52v23.52Zm-24,0h-23.04v-23.52h23.04v23.52Zm-24.48,0h-23.04v-23.52h23.04v23.52Zm-23.52,0h-23.52v-23.52h23.52v23.52Zm-24,0h-23.52v-23.52h23.52v23.52Zm-24,0h-23.52v-23.52h23.52v23.52Zm-24,0h-23.04v-23.52h23.04v23.52Zm-24.48,0h-23.04v-23.52h23.04v23.52Zm-23.52,0h-23.52v-23.52h23.52v23.52Zm-24,0h-23.52v-23.52h23.52v23.52Zm-24,0h-23.52v-23.52h23.52v23.52Zm-24,0h-23.04v-23.52h23.04v23.52Zm-24.48,0h-23.04v-23.52h23.04v23.52Zm-23.52,0h-23.52v-23.52h23.52v23.52Zm-24,0h-23.52v-23.52h23.52v23.52Zm-24,0h-23.52v-23.52h23.52v23.52Zm-24,0h-23.04v-23.52h23.04v23.52Zm-24.48,0h-23.04v-23.52h23.04v23.52Zm-23.52,0h-23.52v-23.52h23.52v23.52Zm-24,0h-23.52v-23.52h23.52v23.52Zm-24,0h-23.52v-23.52h23.52v23.52Zm-24,0h-23.04v-23.52h23.04v23.52Zm-24.48,0h-23.04v-23.52h23.04v23.52Zm-23.52,0h-23.52v-23.52h23.52v23.52Zm-24,0h-23.52v-23.52h23.52v23.52Zm-24,0h-23.52v-23.52h23.52v23.52Zm-24,0h-23.04v-23.52h23.04v23.52Zm-24.48,0h-23.04v-23.52h23.04v23.52Zm-23.52,0h-23.52v-23.52h23.52v23.52Zm-24,0h-23.52v-23.52h23.52v23.52Zm-24,0h-23.52v-23.52h23.52v23.52Zm-24,0h-23.04v-23.52h23.04v23.52Zm-24.48,0h-23.04v-23.52h23.04v23.52Zm-23.52,0h-23.52v-23.52h23.52v23.52Zm-24,0h-23.52v-23.52h23.52v23.52Zm-24,0h-23.52v-23.52h23.52v23.52Zm0,.48v23.52h-23.52v-23.52h23.52Zm0,24v23.52h-23.52v-23.52h23.52Zm0,24v23.04h-23.52v-23.04h23.52Zm0,24.48v23.04h-23.52v-23.04h23.52Zm0,23.52v23.52h-23.52v-23.52h23.52Zm0,24v23.52h-23.52v-23.52h23.52Zm0,24v23.52h-23.52v-23.52h23.52Zm0,24v23.04h-23.52v-23.04h23.52Zm0,24.48v23.04h-23.52v-23.04h23.52Zm0,23.52v23.52h-23.52v-23.52h23.52Zm0,24v23.52h-23.52v-23.52h23.52Zm0,24v23.52h-23.52v-23.52h23.52Zm0,24v23.04h-23.52v-23.04h23.52Zm0,24.48v23.04h-23.52v-23.04h23.52Zm0,23.52v23.52h-23.52v-23.52h23.52Zm0,24v23.52h-23.52v-23.52h23.52Zm0,24v23.52h-23.52v-23.52h23.52Zm0,24v23.04h-23.52v-23.04h23.52Zm0,24.48v23.04h-23.52v-23.04h23.52Zm0,23.52v23.52h-23.52v-23.52h23.52Zm0,24v23.52h-23.52v-23.52h23.52Zm0,24v23.52h-23.52v-23.52h23.52Zm0,24v23.04h-23.52v-23.04h23.52Zm0,24.48v23.04h-23.52v-23.04h23.52Zm0,23.52v23.52h-23.52v-23.52h23.52Zm0,24v23.52h-23.52v-23.52h23.52Zm0,24v23.52h-23.52v-23.52h23.52Zm.48,0h23.52v23.52h-23.52v-23.52Zm24,0h23.52v23.52h-23.52v-23.52Zm24,0h23.04v23.52h-23.04v-23.52Zm24.48,0h23.04v23.52h-23.04v-23.52Zm23.52,0h23.52v23.52h-23.52v-23.52Zm24,0h23.52v23.52h-23.52v-23.52Zm24,0h23.52v23.52h-23.52v-23.52Zm24,0h23.04v23.52h-23.04v-23.52Zm24.48,0h23.04v23.52h-23.04v-23.52Zm23.52,0h23.52v23.52h-23.52v-23.52Zm24,0h23.52v23.52h-23.52v-23.52Zm24,0h23.52v23.52h-23.52v-23.52Zm24,0h23.04v23.52h-23.04v-23.52Zm24.48,0h23.04v23.52h-23.04v-23.52Zm23.52,0h23.52v23.52h-23.52v-23.52Zm24,0h23.52v23.52h-23.52v-23.52Zm24,0h23.52v23.52h-23.52v-23.52Zm24,0h23.04v23.52h-23.04v-23.52Zm24.48,0h23.04v23.52h-23.04v-23.52Zm23.52,0h23.52v23.52h-23.52v-23.52Zm24,0h23.52v23.52h-23.52v-23.52Zm24,0h23.52v23.52h-23.52v-23.52Zm24,0h23.04v23.52h-23.04v-23.52Zm24.48,0h23.04v23.52h-23.04v-23.52Zm23.52,0h23.52v23.52h-23.52v-23.52Zm24,0h23.52v23.52h-23.52v-23.52Zm24,0h23.52v23.52h-23.52v-23.52Zm24,0h23.04v23.52h-23.04v-23.52Zm24.48,0h23.04v23.52h-23.04v-23.52Zm23.52,0h23.52v23.52h-23.52v-23.52Zm24,0h23.52v23.52h-23.52v-23.52Zm24,0h23.52v23.52h-23.52v-23.52Zm24,0h23.04v23.52h-23.04v-23.52Zm24.48,0h23.04v23.52h-23.04v-23.52Zm23.52,0h23.52v23.52h-23.52v-23.52Zm24,0h23.52v23.52h-23.52v-23.52Zm24,0h23.52v23.52h-23.52v-23.52Zm24,0h23.04v23.52h-23.04v-23.52Zm24.48,0h23.04v23.52h-23.04v-23.52Zm23.52,0h23.52v23.52h-23.52v-23.52Zm24,0h23.52v23.52h-23.52v-23.52Zm24,0h23.52v23.52h-23.52v-23.52Zm0-.48v-23.52h23.52v23.52h-23.52Zm0-24v-23.52h23.52v23.52h-23.52Zm0-24v-23.04h23.52v23.04h-23.52Zm0-24.48v-23.04h23.52v23.04h-23.52Zm0-23.52v-23.52h23.52v23.52h-23.52Zm0-24v-23.52h23.52v23.52h-23.52Zm0-24v-23.52h23.52v23.52h-23.52Zm0-24v-23.04h23.52v23.04h-23.52Zm0-24.48v-23.04h23.52v23.04h-23.52Zm0-23.52v-23.52h23.52v23.52h-23.52Zm0-24v-23.52h23.52v23.52h-23.52Zm0-24v-23.52h23.52v23.52h-23.52Zm0-24v-23.04h23.52v23.04h-23.52Zm0-24.48v-23.04h23.52v23.04h-23.52Zm0-23.52v-23.52h23.52v23.52h-23.52Zm0-24v-23.52h23.52v23.52h-23.52Zm0-24v-23.52h23.52v23.52h-23.52Zm0-24v-23.04h23.52v23.04h-23.52Zm0-24.48v-23.04h23.52v23.04h-23.52Zm0-23.52v-23.52h23.52v23.52h-23.52Zm0-24v-23.52h23.52v23.52h-23.52Zm0-24v-23.52h23.52v23.52h-23.52Zm0-24v-23.04h23.52v23.04h-23.52Zm0-24.48v-23.04h23.52v23.04h-23.52Zm0-23.52v-23.52h23.52v23.52h-23.52Zm0-24v-23.52h23.52v23.52h-23.52Zm0-24v-23.52h23.52v23.52h-23.52Zm-.48-47.04v23.04h-23.52v-23.04h23.52Zm-24,0v23.04h-23.52v-23.04h23.52Zm-24,0v23.04h-23.04v-23.04h23.04Zm-24.48,0v23.04h-23.04v-23.04h23.04Zm-23.52,0v23.04h-23.52v-23.04h23.52Zm-24,0v23.04h-23.52v-23.04h23.52Zm-24,0v23.04h-23.52v-23.04h23.52Zm-24,0v23.04h-23.04v-23.04h23.04Zm-24.48,0v23.04h-23.04v-23.04h23.04Zm-23.52,0v23.04h-23.52v-23.04h23.52Zm-24,0v23.04h-23.52v-23.04h23.52Zm-24,0v23.04h-23.52v-23.04h23.52Zm-24,0v23.04h-23.04v-23.04h23.04Zm-24.48,0v23.04h-23.04v-23.04h23.04Zm-23.52,0v23.04h-23.52v-23.04h23.52Zm-24,0v23.04h-23.52v-23.04h23.52Zm-24,0v23.04h-23.52v-23.04h23.52Zm-24,0v23.04h-23.04v-23.04h23.04Zm-24.48,0v23.04h-23.04v-23.04h23.04Zm-23.52,0v23.04h-23.52v-23.04h23.52Zm-24,0v23.04h-23.52v-23.04h23.52Zm-24,0v23.04h-23.52v-23.04h23.52Zm-24,0v23.04h-23.04v-23.04h23.04Zm-24.48,0v23.04h-23.04v-23.04h23.04Zm-23.52,0v23.04h-23.52v-23.04h23.52Zm-24,0v23.04h-23.52v-23.04h23.52Zm-24,0v23.04h-23.52v-23.04h23.52Zm-24,0v23.04h-23.04v-23.04h23.04Zm-24.48,0v23.04h-23.04v-23.04h23.04Zm-23.52,0v23.04h-23.52v-23.04h23.52Zm-24,0v23.04h-23.52v-23.04h23.52Zm-24,0v23.04h-23.52v-23.04h23.52Zm-24,0v23.04h-23.04v-23.04h23.04Zm-24.48,0v23.04h-23.04v-23.04h23.04Zm-23.52,0v23.04h-23.52v-23.04h23.52Zm-24,0v23.04h-23.52v-23.04h23.52Zm-24,0v23.04h-23.52v-23.04h23.52Zm-24,0v23.04h-23.04v-23.04h23.04Zm-24.48,0v23.04h-23.04v-23.04h23.04Zm-23.52,0v23.04h-23.52v-23.04h23.52Zm-24,0v23.04h-23.52v-23.04h23.52Zm-24,0v23.04h-23.52v-23.04h23.52Zm-47.04,0h23.04v23.04h-23.04v-23.04Zm0,23.52h23.04v23.52h-23.04v-23.52Zm0,24h23.04v23.52h-23.04v-23.52Zm0,24h23.04v23.52h-23.04v-23.52Zm0,24h23.04v23.04h-23.04v-23.04Zm0,24.48h23.04v23.04h-23.04v-23.04Zm0,23.52h23.04v23.52h-23.04v-23.52Zm0,24h23.04v23.52h-23.04v-23.52Zm0,24h23.04v23.52h-23.04v-23.52Zm0,24h23.04v23.04h-23.04v-23.04Zm0,24.48h23.04v23.04h-23.04v-23.04Zm0,23.52h23.04v23.52h-23.04v-23.52Zm0,24h23.04v23.52h-23.04v-23.52Zm0,24h23.04v23.52h-23.04v-23.52Zm0,24h23.04v23.04h-23.04v-23.04Zm0,24.48h23.04v23.04h-23.04v-23.04Zm0,23.52h23.04v23.52h-23.04v-23.52Zm0,24h23.04v23.52h-23.04v-23.52Zm0,24h23.04v23.52h-23.04v-23.52Zm0,24h23.04v23.04h-23.04v-23.04Zm0,24.48h23.04v23.04h-23.04v-23.04Zm0,23.52h23.04v23.52h-23.04v-23.52Zm0,24h23.04v23.52h-23.04v-23.52Zm0,24h23.04v23.52h-23.04v-23.52Zm0,24h23.04v23.04h-23.04v-23.04Zm0,24.48h23.04v23.04h-23.04v-23.04Zm0,23.52h23.04v23.52h-23.04v-23.52Zm0,24h23.04v23.52h-23.04v-23.52Zm0,24h23.04v23.52h-23.04v-23.52Zm0,47.04v-23.04h23.04v23.04h-23.04Zm23.52,0v-23.04h23.52v23.04h-23.52Zm24,0v-23.04h23.52v23.04h-23.52Zm24,0v-23.04h23.52v23.04h-23.52Zm24,0v-23.04h23.04v23.04h-23.04Zm24.48,0v-23.04h23.04v23.04h-23.04Zm23.52,0v-23.04h23.52v23.04h-23.52Zm24,0v-23.04h23.52v23.04h-23.52Zm24,0v-23.04h23.52v23.04h-23.52Zm24,0v-23.04h23.04v23.04h-23.04Zm24.48,0v-23.04h23.04v23.04h-23.04Zm23.52,0v-23.04h23.52v23.04h-23.52Zm24,0v-23.04h23.52v23.04h-23.52Zm24,0v-23.04h23.52v23.04h-23.52Zm24,0v-23.04h23.04v23.04h-23.04Zm24.48,0v-23.04h23.04v23.04h-23.04Zm23.52,0v-23.04h23.52v23.04h-23.52Zm24,0v-23.04h23.52v23.04h-23.52Zm24,0v-23.04h23.52v23.04h-23.52Zm24,0v-23.04h23.04v23.04h-23.04Zm24.48,0v-23.04h23.04v23.04h-23.04Zm23.52,0v-23.04h23.52v23.04h-23.52Zm24,0v-23.04h23.52v23.04h-23.52Zm24,0v-23.04h23.52v23.04h-23.52Zm24,0v-23.04h23.04v23.04h-23.04Zm24.48,0v-23.04h23.04v23.04h-23.04Zm23.52,0v-23.04h23.52v23.04h-23.52Zm24,0v-23.04h23.52v23.04h-23.52Zm24,0v-23.04h23.52v23.04h-23.52Zm24,0v-23.04h23.04v23.04h-23.04Zm24.48,0v-23.04h23.04v23.04h-23.04Zm23.52,0v-23.04h23.52v23.04h-23.52Zm24,0v-23.04h23.52v23.04h-23.52Zm24,0v-23.04h23.52v23.04h-23.52Zm24,0v-23.04h23.04v23.04h-23.04Zm24.48,0v-23.04h23.04v23.04h-23.04Zm23.52,0v-23.04h23.52v23.04h-23.52Zm24,0v-23.04h23.52v23.04h-23.52Zm24,0v-23.04h23.52v23.04h-23.52Zm24,0v-23.04h23.04v23.04h-23.04Zm24.48,0v-23.04h23.04v23.04h-23.04Zm23.52,0v-23.04h23.52v23.04h-23.52Zm24,0v-23.04h23.52v23.04h-23.52Zm24,0v-23.04h23.52v23.04h-23.52Zm47.04,0h-23.04v-23.04h23.04v23.04Zm0-23.52h-23.04v-23.52h23.04v23.52Zm0-24h-23.04v-23.52h23.04v23.52Zm0-24h-23.04v-23.52h23.04v23.52Zm0-24h-23.04v-23.04h23.04v23.04Zm0-24.48h-23.04v-23.04h23.04v23.04Zm0-23.52h-23.04v-23.52h23.04v23.52Zm0-24h-23.04v-23.52h23.04v23.52Zm0-24h-23.04v-23.52h23.04v23.52Zm0-24h-23.04v-23.04h23.04v23.04Zm0-24.48h-23.04v-23.04h23.04v23.04Zm0-23.52h-23.04v-23.52h23.04v23.52Zm0-24h-23.04v-23.52h23.04v23.52Zm0-24h-23.04v-23.52h23.04v23.52Zm0-24h-23.04v-23.04h23.04v23.04Zm0-24.48h-23.04v-23.04h23.04v23.04Zm0-23.52h-23.04v-23.52h23.04v23.52Zm0-24h-23.04v-23.52h23.04v23.52Zm0-24h-23.04v-23.52h23.04v23.52Zm0-24h-23.04v-23.04h23.04v23.04Zm0-24.48h-23.04v-23.04h23.04v23.04Zm0-23.52h-23.04v-23.52h23.04v23.52Zm0-24h-23.04v-23.52h23.04v23.52Zm0-24h-23.04v-23.52h23.04v23.52Zm0-24h-23.04v-23.04h23.04v23.04Zm0-24.48h-23.04v-23.04h23.04v23.04Zm0-23.52h-23.04v-23.52h23.04v23.52Zm0-24h-23.04v-23.52h23.04v23.52Zm0-24h-23.04v-23.52h23.04v23.52Zm0-24h-23.04v-23.04h23.04v23.04Z"/></g></svg>