<?xml version="1.0" encoding="UTF-8"?><svg id="Layer_2" xmlns="http://www.w3.org/2000/svg" viewBox="0 0 1089.6 729.6"><defs><style>.cls-1{fill:#aaaaaa;fill-rule:evenodd;stroke-width:0px;}</style></defs><g id="Layer_1-2"><path class="cls-1" d="m5.28,0h-.96v4.32H0v.96h4.32v4.32h.96v-4.32h4.32v-.96h-4.32V0Zm0,24h-.96v4.32H0v.96h4.32v4.32h.96v-4.32h4.32v-.96h-4.32v-4.32ZM29.28,0h-.96v4.32h-4.32v.96h4.32v4.32h.96v-4.32h4.32v-.96h-4.32V0Zm0,24h-.96v4.32h-4.32v.96h4.32v4.32h.96v-4.32h4.32v-.96h-4.32v-4.32ZM53.28,0h-.96v4.32h-4.32v.96h4.32v4.32h.96v-4.32h4.32v-.96h-4.32V0Zm0,24h-.96v4.32h-4.32v.96h4.32v4.32h.96v-4.32h4.32v-.96h-4.32v-4.32ZM77.28,0h-.96v4.32h-4.32v.96h4.32v4.32h.96v-4.32h4.32v-.96h-4.32V0Zm0,24h-.96v4.32h-4.32v.96h4.32v4.32h.96v-4.32h4.32v-.96h-4.32v-4.32ZM5.28,48h-.96v4.32H0v.96h4.32v4.32h.96v-4.32h4.32v-.96h-4.32v-4.32Zm0,24h-.96v4.32H0v.96h4.32v4.32h.96v-4.32h4.32v-.96h-4.32v-4.32Zm24-24h-.96v4.32h-4.32v.96h4.32v4.32h.96v-4.32h4.32v-.96h-4.32v-4.32Zm0,24h-.96v4.32h-4.32v.96h4.32v4.32h.96v-4.32h4.32v-.96h-4.32v-4.32Zm24-24h-.96v4.32h-4.32v.96h4.32v4.32h.96v-4.32h4.32v-.96h-4.32v-4.32Zm0,24h-.96v4.32h-4.32v.96h4.32v4.32h.96v-4.32h4.32v-.96h-4.32v-4.32Zm24-24h-.96v4.32h-4.32v.96h4.32v4.32h.96v-4.32h4.32v-.96h-4.32v-4.32Zm0,24h-.96v4.32h-4.32v.96h4.32v4.32h.96v-4.32h4.32v-.96h-4.32v-4.32ZM101.28,0h-.96v4.32h-4.32v.96h4.32v4.32h.96v-4.32h4.32v-.96h-4.32V0Zm0,24h-.96v4.32h-4.32v.96h4.32v4.32h.96v-4.32h4.32v-.96h-4.32v-4.32ZM125.28,0h-.96v4.32h-4.32v.96h4.32v4.32h.96v-4.32h4.32v-.96h-4.32V0Zm0,24h-.96v4.32h-4.32v.96h4.32v4.32h.96v-4.32h4.32v-.96h-4.32v-4.32ZM149.28,0h-.96v4.32h-4.32v.96h4.32v4.32h.96v-4.32h4.32v-.96h-4.32V0Zm0,24h-.96v4.32h-4.32v.96h4.32v4.32h.96v-4.32h4.32v-.96h-4.32v-4.32ZM173.28,0h-.96v4.32h-4.32v.96h4.32v4.32h.96v-4.32h4.32v-.96h-4.32V0Zm0,24h-.96v4.32h-4.32v.96h4.32v4.32h.96v-4.32h4.32v-.96h-4.32v-4.32Zm-72,24h-.96v4.32h-4.32v.96h4.32v4.32h.96v-4.32h4.32v-.96h-4.32v-4.32Zm0,24h-.96v4.32h-4.32v.96h4.32v4.32h.96v-4.32h4.32v-.96h-4.32v-4.32Zm24-24h-.96v4.32h-4.32v.96h4.32v4.32h.96v-4.32h4.32v-.96h-4.32v-4.32Zm0,24h-.96v4.32h-4.32v.96h4.32v4.32h.96v-4.32h4.32v-.96h-4.32v-4.32Zm24-24h-.96v4.32h-4.32v.96h4.32v4.32h.96v-4.32h4.32v-.96h-4.32v-4.32Zm0,24h-.96v4.32h-4.32v.96h4.32v4.32h.96v-4.32h4.32v-.96h-4.32v-4.32Zm24-24h-.96v4.32h-4.32v.96h4.32v4.32h.96v-4.32h4.32v-.96h-4.32v-4.32Zm0,24h-.96v4.32h-4.32v.96h4.32v4.32h.96v-4.32h4.32v-.96h-4.32v-4.32ZM5.28,96h-.96v4.32H0v.96h4.32v4.32h.96v-4.32h4.32v-.96h-4.32v-4.32Zm0,24h-.96v4.32H0v.96h4.32v4.32h.96v-4.32h4.32v-.96h-4.32v-4.32Zm24-24h-.96v4.32h-4.32v.96h4.32v4.32h.96v-4.32h4.32v-.96h-4.32v-4.32Zm0,24h-.96v4.32h-4.32v.96h4.32v4.32h.96v-4.32h4.32v-.96h-4.32v-4.32Zm24-24h-.96v4.32h-4.32v.96h4.32v4.32h.96v-4.32h4.32v-.96h-4.32v-4.32Zm0,24h-.96v4.32h-4.32v.96h4.32v4.32h.96v-4.32h4.32v-.96h-4.32v-4.32Zm24-24h-.96v4.32h-4.32v.96h4.32v4.32h.96v-4.32h4.32v-.96h-4.32v-4.32Zm0,24h-.96v4.32h-4.32v.96h4.32v4.32h.96v-4.32h4.32v-.96h-4.32v-4.32ZM5.28,144h-.96v4.32H0v.96h4.32v4.32h.96v-4.32h4.32v-.96h-4.32v-4.32Zm0,24h-.96v4.32H0v.96h4.32v4.32h.96v-4.32h4.32v-.96h-4.32v-4.32Zm24-24h-.96v4.32h-4.32v.96h4.32v4.32h.96v-4.32h4.32v-.96h-4.32v-4.32Zm0,24h-.96v4.32h-4.32v.96h4.32v4.32h.96v-4.32h4.32v-.96h-4.32v-4.32Zm24-24h-.96v4.32h-4.32v.96h4.32v4.32h.96v-4.32h4.32v-.96h-4.32v-4.32Zm0,24h-.96v4.32h-4.32v.96h4.32v4.32h.96v-4.32h4.32v-.96h-4.32v-4.32Zm24-24h-.96v4.32h-4.32v.96h4.32v4.32h.96v-4.32h4.32v-.96h-4.32v-4.32Zm0,24h-.96v4.32h-4.32v.96h4.32v4.32h.96v-4.32h4.32v-.96h-4.32v-4.32Zm24-72h-.96v4.32h-4.32v.96h4.32v4.32h.96v-4.32h4.32v-.96h-4.32v-4.32Zm0,24h-.96v4.32h-4.32v.96h4.32v4.32h.96v-4.32h4.32v-.96h-4.32v-4.32Zm24-24h-.96v4.32h-4.32v.96h4.32v4.32h.96v-4.32h4.32v-.96h-4.32v-4.32Zm0,24h-.96v4.32h-4.32v.96h4.32v4.32h.96v-4.32h4.32v-.96h-4.32v-4.32Zm24-24h-.96v4.32h-4.32v.96h4.32v4.32h.96v-4.32h4.32v-.96h-4.32v-4.32Zm0,24h-.96v4.32h-4.32v.96h4.32v4.32h.96v-4.32h4.32v-.96h-4.32v-4.32Zm24-24h-.96v4.32h-4.32v.96h4.32v4.32h.96v-4.32h4.32v-.96h-4.32v-4.32Zm0,24h-.96v4.32h-4.32v.96h4.32v4.32h.96v-4.32h4.32v-.96h-4.32v-4.32Zm-72,24h-.96v4.32h-4.32v.96h4.32v4.32h.96v-4.32h4.32v-.96h-4.32v-4.32Zm0,24h-.96v4.32h-4.32v.96h4.32v4.32h.96v-4.32h4.32v-.96h-4.32v-4.32Zm24-24h-.96v4.32h-4.32v.96h4.32v4.32h.96v-4.32h4.32v-.96h-4.32v-4.32Zm0,24h-.96v4.32h-4.32v.96h4.32v4.32h.96v-4.32h4.32v-.96h-4.32v-4.32Zm24-24h-.96v4.32h-4.32v.96h4.32v4.32h.96v-4.32h4.32v-.96h-4.32v-4.32Zm0,24h-.96v4.32h-4.32v.96h4.32v4.32h.96v-4.32h4.32v-.96h-4.32v-4.32Zm24-24h-.96v4.32h-4.32v.96h4.32v4.32h.96v-4.32h4.32v-.96h-4.32v-4.32Zm0,24h-.96v4.32h-4.32v.96h4.32v4.32h.96v-4.32h4.32v-.96h-4.32v-4.32ZM197.28,0h-.96v4.32h-4.32v.96h4.32v4.32h.96v-4.32h4.32v-.96h-4.32V0Zm0,24h-.96v4.32h-4.32v.96h4.32v4.32h.96v-4.32h4.32v-.96h-4.32v-4.32ZM221.28,0h-.96v4.32h-4.32v.96h4.32v4.32h.96v-4.32h4.32v-.96h-4.32V0Zm0,24h-.96v4.32h-4.32v.96h4.32v4.32h.96v-4.32h4.32v-.96h-4.32v-4.32ZM245.28,0h-.96v4.32h-4.32v.96h4.32v4.32h.96v-4.32h4.32v-.96h-4.32V0Zm0,24h-.96v4.32h-4.32v.96h4.32v4.32h.96v-4.32h4.32v-.96h-4.32v-4.32ZM269.28,0h-.96v4.32h-4.32v.96h4.32v4.32h.96v-4.32h4.32v-.96h-4.32V0Zm0,24h-.96v4.32h-4.32v.96h4.32v4.32h.96v-4.32h4.32v-.96h-4.32v-4.32Zm-72,24h-.96v4.32h-4.32v.96h4.32v4.32h.96v-4.32h4.32v-.96h-4.32v-4.32Zm0,24h-.96v4.32h-4.32v.96h4.32v4.32h.96v-4.32h4.32v-.96h-4.32v-4.32Zm24-24h-.96v4.32h-4.32v.96h4.32v4.32h.96v-4.32h4.32v-.96h-4.32v-4.32Zm0,24h-.96v4.32h-4.32v.96h4.32v4.32h.96v-4.32h4.32v-.96h-4.32v-4.32Zm24-24h-.96v4.32h-4.32v.96h4.32v4.32h.96v-4.32h4.32v-.96h-4.32v-4.32Zm0,24h-.96v4.32h-4.32v.96h4.32v4.32h.96v-4.32h4.32v-.96h-4.32v-4.32Zm24-24h-.96v4.32h-4.32v.96h4.32v4.32h.96v-4.32h4.32v-.96h-4.32v-4.32Zm0,24h-.96v4.32h-4.32v.96h4.32v4.32h.96v-4.32h4.32v-.96h-4.32v-4.32ZM293.28,0h-.96v4.32h-4.32v.96h4.32v4.32h.96v-4.32h4.32v-.96h-4.32V0Zm0,24h-.96v4.32h-4.32v.96h4.32v4.32h.96v-4.32h4.32v-.96h-4.32v-4.32ZM317.28,0h-.96v4.32h-4.32v.96h4.32v4.32h.96v-4.32h4.32v-.96h-4.32V0Zm0,24h-.96v4.32h-4.32v.96h4.32v4.32h.96v-4.32h4.32v-.96h-4.32v-4.32ZM341.28,0h-.96v4.32h-4.32v.96h4.32v4.32h.96v-4.32h4.32v-.96h-4.32V0Zm0,24h-.96v4.32h-4.32v.96h4.32v4.32h.96v-4.32h4.32v-.96h-4.32v-4.32ZM365.28,0h-.96v4.32h-4.32v.96h4.32v4.32h.96v-4.32h4.32v-.96h-4.32V0Zm0,24h-.96v4.32h-4.32v.96h4.32v4.32h.96v-4.32h4.32v-.96h-4.32v-4.32Zm-72,24h-.96v4.32h-4.32v.96h4.32v4.32h.96v-4.32h4.32v-.96h-4.32v-4.32Zm0,24h-.96v4.32h-4.32v.96h4.32v4.32h.96v-4.32h4.32v-.96h-4.32v-4.32Zm24-24h-.96v4.32h-4.32v.96h4.32v4.32h.96v-4.32h4.32v-.96h-4.32v-4.32Zm0,24h-.96v4.32h-4.32v.96h4.32v4.32h.96v-4.32h4.32v-.96h-4.32v-4.32Zm24-24h-.96v4.32h-4.32v.96h4.32v4.32h.96v-4.32h4.32v-.96h-4.32v-4.32Zm0,24h-.96v4.32h-4.32v.96h4.32v4.32h.96v-4.32h4.32v-.96h-4.32v-4.32Zm24-24h-.96v4.32h-4.32v.96h4.32v4.32h.96v-4.32h4.32v-.96h-4.32v-4.32Zm0,24h-.96v4.32h-4.32v.96h4.32v4.32h.96v-4.32h4.32v-.96h-4.32v-4.32Zm-168,24h-.96v4.32h-4.32v.96h4.32v4.32h.96v-4.32h4.32v-.96h-4.32v-4.32Zm0,24h-.96v4.32h-4.32v.96h4.32v4.32h.96v-4.32h4.32v-.96h-4.32v-4.32Zm24-24h-.96v4.32h-4.32v.96h4.32v4.32h.96v-4.32h4.32v-.96h-4.32v-4.32Zm0,24h-.96v4.32h-4.32v.96h4.32v4.32h.96v-4.32h4.32v-.96h-4.32v-4.32Zm24-24h-.96v4.32h-4.32v.96h4.32v4.32h.96v-4.32h4.32v-.96h-4.32v-4.32Zm0,24h-.96v4.32h-4.32v.96h4.32v4.32h.96v-4.32h4.32v-.96h-4.32v-4.32Zm24-24h-.96v4.32h-4.32v.96h4.32v4.32h.96v-4.32h4.32v-.96h-4.32v-4.32Zm0,24h-.96v4.32h-4.32v.96h4.32v4.32h.96v-4.32h4.32v-.96h-4.32v-4.32Zm-72,24h-.96v4.32h-4.32v.96h4.32v4.32h.96v-4.32h4.32v-.96h-4.32v-4.32Zm0,24h-.96v4.32h-4.32v.96h4.32v4.32h.96v-4.32h4.32v-.96h-4.32v-4.32Zm24-24h-.96v4.32h-4.32v.96h4.32v4.32h.96v-4.32h4.32v-.96h-4.32v-4.32Zm0,24h-.96v4.32h-4.32v.96h4.32v4.32h.96v-4.32h4.32v-.96h-4.32v-4.32Zm24-24h-.96v4.32h-4.32v.96h4.32v4.32h.96v-4.32h4.32v-.96h-4.32v-4.32Zm0,24h-.96v4.32h-4.32v.96h4.32v4.32h.96v-4.32h4.32v-.96h-4.32v-4.32Zm24-24h-.96v4.32h-4.32v.96h4.32v4.32h.96v-4.32h4.32v-.96h-4.32v-4.32Zm0,24h-.96v4.32h-4.32v.96h4.32v4.32h.96v-4.32h4.32v-.96h-4.32v-4.32Zm24-72h-.96v4.32h-4.32v.96h4.32v4.32h.96v-4.32h4.32v-.96h-4.32v-4.32Zm0,24h-.96v4.32h-4.32v.96h4.32v4.32h.96v-4.32h4.32v-.96h-4.32v-4.32Zm24-24h-.96v4.32h-4.32v.96h4.32v4.32h.96v-4.32h4.32v-.96h-4.32v-4.32Zm0,24h-.96v4.32h-4.32v.96h4.32v4.32h.96v-4.32h4.32v-.96h-4.32v-4.32Zm24-24h-.96v4.32h-4.32v.96h4.32v4.32h.96v-4.32h4.32v-.96h-4.32v-4.32Zm0,24h-.96v4.32h-4.32v.96h4.32v4.32h.96v-4.32h4.32v-.96h-4.32v-4.32Zm24-24h-.96v4.32h-4.32v.96h4.32v4.32h.96v-4.32h4.32v-.96h-4.32v-4.32Zm0,24h-.96v4.32h-4.32v.96h4.32v4.32h.96v-4.32h4.32v-.96h-4.32v-4.32Zm-72,24h-.96v4.32h-4.32v.96h4.32v4.32h.96v-4.32h4.32v-.96h-4.32v-4.32Zm0,24h-.96v4.32h-4.32v.96h4.32v4.32h.96v-4.32h4.32v-.96h-4.32v-4.32Zm24-24h-.96v4.32h-4.32v.96h4.32v4.32h.96v-4.32h4.32v-.96h-4.32v-4.32Zm0,24h-.96v4.32h-4.32v.96h4.32v4.32h.96v-4.32h4.32v-.96h-4.32v-4.32Zm24-24h-.96v4.32h-4.32v.96h4.32v4.32h.96v-4.32h4.32v-.96h-4.32v-4.32Zm0,24h-.96v4.32h-4.32v.96h4.32v4.32h.96v-4.32h4.32v-.96h-4.32v-4.32Zm24-24h-.96v4.32h-4.32v.96h4.32v4.32h.96v-4.32h4.32v-.96h-4.32v-4.32Zm0,24h-.96v4.32h-4.32v.96h4.32v4.32h.96v-4.32h4.32v-.96h-4.32v-4.32ZM5.28,192h-.96v4.32H0v.96h4.32v4.32h.96v-4.32h4.32v-.96h-4.32v-4.32Zm0,24h-.96v4.32H0v.96h4.32v4.32h.96v-4.32h4.32v-.96h-4.32v-4.32Zm24-24h-.96v4.32h-4.32v.96h4.32v4.32h.96v-4.32h4.32v-.96h-4.32v-4.32Zm0,24h-.96v4.32h-4.32v.96h4.32v4.32h.96v-4.32h4.32v-.96h-4.32v-4.32Zm24-24h-.96v4.32h-4.32v.96h4.32v4.32h.96v-4.32h4.32v-.96h-4.32v-4.32Zm0,24h-.96v4.32h-4.32v.96h4.32v4.32h.96v-4.32h4.32v-.96h-4.32v-4.32Zm24-24h-.96v4.32h-4.32v.96h4.32v4.32h.96v-4.32h4.32v-.96h-4.32v-4.32Zm0,24h-.96v4.32h-4.32v.96h4.32v4.32h.96v-4.32h4.32v-.96h-4.32v-4.32ZM5.28,240h-.96v4.32H0v.96h4.32v4.32h.96v-4.32h4.32v-.96h-4.32v-4.32Zm0,24h-.96v4.32H0v.96h4.32v4.32h.96v-4.32h4.32v-.96h-4.32v-4.32Zm24-24h-.96v4.32h-4.32v.96h4.32v4.32h.96v-4.32h4.32v-.96h-4.32v-4.32Zm0,24h-.96v4.32h-4.32v.96h4.32v4.32h.96v-4.32h4.32v-.96h-4.32v-4.32Zm24-24h-.96v4.32h-4.32v.96h4.32v4.32h.96v-4.32h4.32v-.96h-4.32v-4.32Zm0,24h-.96v4.32h-4.32v.96h4.32v4.32h.96v-4.32h4.32v-.96h-4.32v-4.32Zm24-24h-.96v4.32h-4.32v.96h4.32v4.32h.96v-4.32h4.32v-.96h-4.32v-4.32Zm0,24h-.96v4.32h-4.32v.96h4.32v4.32h.96v-4.32h4.32v-.96h-4.32v-4.32Zm24-72h-.96v4.32h-4.32v.96h4.32v4.32h.96v-4.32h4.32v-.96h-4.32v-4.32Zm0,24h-.96v4.32h-4.32v.96h4.32v4.32h.96v-4.32h4.32v-.96h-4.32v-4.32Zm24-24h-.96v4.32h-4.32v.96h4.32v4.32h.96v-4.32h4.32v-.96h-4.32v-4.32Zm0,24h-.96v4.32h-4.32v.96h4.32v4.32h.96v-4.32h4.32v-.96h-4.32v-4.32Zm24-24h-.96v4.32h-4.32v.96h4.32v4.32h.96v-4.32h4.32v-.96h-4.32v-4.32Zm0,24h-.96v4.32h-4.32v.96h4.32v4.32h.96v-4.32h4.32v-.96h-4.32v-4.32Zm24-24h-.96v4.32h-4.32v.96h4.32v4.32h.96v-4.32h4.32v-.96h-4.32v-4.32Zm0,24h-.96v4.32h-4.32v.96h4.32v4.32h.96v-4.32h4.32v-.96h-4.32v-4.32Zm-72,24h-.96v4.32h-4.32v.96h4.32v4.32h.96v-4.32h4.32v-.96h-4.32v-4.32Zm0,24h-.96v4.32h-4.32v.96h4.32v4.32h.96v-4.32h4.32v-.96h-4.32v-4.32Zm24-24h-.96v4.32h-4.32v.96h4.32v4.32h.96v-4.32h4.32v-.96h-4.32v-4.32Zm0,24h-.96v4.32h-4.32v.96h4.32v4.32h.96v-4.32h4.32v-.96h-4.32v-4.32Zm24-24h-.96v4.32h-4.32v.96h4.32v4.32h.96v-4.32h4.32v-.96h-4.32v-4.32Zm0,24h-.96v4.32h-4.32v.96h4.32v4.32h.96v-4.32h4.32v-.96h-4.32v-4.32Zm24-24h-.96v4.32h-4.32v.96h4.32v4.32h.96v-4.32h4.32v-.96h-4.32v-4.32Zm0,24h-.96v4.32h-4.32v.96h4.32v4.32h.96v-4.32h4.32v-.96h-4.32v-4.32ZM5.28,288h-.96v4.32H0v.96h4.32v4.32h.96v-4.32h4.32v-.96h-4.32v-4.32Zm0,24h-.96v4.32H0v.96h4.32v4.32h.96v-4.32h4.32v-.96h-4.32v-4.32Zm24-24h-.96v4.32h-4.32v.96h4.32v4.32h.96v-4.32h4.32v-.96h-4.32v-4.32Zm0,24h-.96v4.32h-4.32v.96h4.32v4.32h.96v-4.32h4.32v-.96h-4.32v-4.32Zm24-24h-.96v4.32h-4.32v.96h4.32v4.32h.96v-4.32h4.32v-.96h-4.32v-4.32Zm0,24h-.96v4.32h-4.32v.96h4.32v4.32h.96v-4.32h4.32v-.96h-4.32v-4.32Zm24-24h-.96v4.32h-4.32v.96h4.32v4.32h.96v-4.32h4.32v-.96h-4.32v-4.32Zm0,24h-.96v4.32h-4.32v.96h4.32v4.32h.96v-4.32h4.32v-.96h-4.32v-4.32Zm-72,24h-.96v4.32H0v.96h4.32v4.32h.96v-4.32h4.32v-.96h-4.32v-4.32Zm0,24h-.96v4.32H0v.96h4.32v4.32h.96v-4.32h4.32v-.96h-4.32v-4.32Zm24-24h-.96v4.32h-4.32v.96h4.32v4.32h.96v-4.32h4.32v-.96h-4.32v-4.32Zm0,24h-.96v4.32h-4.32v.96h4.32v4.32h.96v-4.32h4.32v-.96h-4.32v-4.32Zm24-24h-.96v4.32h-4.32v.96h4.32v4.32h.96v-4.32h4.32v-.96h-4.32v-4.32Zm0,24h-.96v4.32h-4.32v.96h4.32v4.32h.96v-4.32h4.32v-.96h-4.32v-4.32Zm24-24h-.96v4.32h-4.32v.96h4.32v4.32h.96v-4.32h4.32v-.96h-4.32v-4.32Zm0,24h-.96v4.32h-4.32v.96h4.32v4.32h.96v-4.32h4.32v-.96h-4.32v-4.32Zm24-72h-.96v4.32h-4.32v.96h4.32v4.32h.96v-4.32h4.32v-.96h-4.32v-4.32Zm0,24h-.96v4.32h-4.32v.96h4.32v4.32h.96v-4.32h4.32v-.96h-4.32v-4.32Zm24-24h-.96v4.32h-4.32v.96h4.32v4.32h.96v-4.32h4.32v-.96h-4.32v-4.32Zm0,24h-.96v4.32h-4.32v.96h4.32v4.32h.96v-4.32h4.32v-.96h-4.32v-4.32Zm24-24h-.96v4.32h-4.32v.96h4.32v4.32h.96v-4.32h4.32v-.96h-4.32v-4.32Zm0,24h-.96v4.32h-4.32v.96h4.32v4.32h.96v-4.32h4.32v-.96h-4.32v-4.32Zm24-24h-.96v4.32h-4.32v.96h4.32v4.32h.96v-4.32h4.32v-.96h-4.32v-4.32Zm0,24h-.96v4.32h-4.32v.96h4.32v4.32h.96v-4.32h4.32v-.96h-4.32v-4.32Zm-72,24h-.96v4.32h-4.32v.96h4.32v4.32h.96v-4.32h4.32v-.96h-4.32v-4.32Zm0,24h-.96v4.32h-4.32v.96h4.32v4.32h.96v-4.32h4.32v-.96h-4.32v-4.32Zm24-24h-.96v4.32h-4.32v.96h4.32v4.32h.96v-4.32h4.32v-.96h-4.32v-4.32Zm0,24h-.96v4.32h-4.32v.96h4.32v4.32h.96v-4.32h4.32v-.96h-4.32v-4.32Zm24-24h-.96v4.32h-4.32v.96h4.32v4.32h.96v-4.32h4.32v-.96h-4.32v-4.32Zm0,24h-.96v4.32h-4.32v.96h4.32v4.32h.96v-4.32h4.32v-.96h-4.32v-4.32Zm24-24h-.96v4.32h-4.32v.96h4.32v4.32h.96v-4.32h4.32v-.96h-4.32v-4.32Zm0,24h-.96v4.32h-4.32v.96h4.32v4.32h.96v-4.32h4.32v-.96h-4.32v-4.32Zm24-168h-.96v4.32h-4.32v.96h4.32v4.32h.96v-4.32h4.32v-.96h-4.32v-4.32Zm0,24h-.96v4.32h-4.32v.96h4.32v4.32h.96v-4.32h4.32v-.96h-4.32v-4.32Zm24-24h-.96v4.32h-4.32v.96h4.32v4.32h.96v-4.32h4.32v-.96h-4.32v-4.32Zm0,24h-.96v4.32h-4.32v.96h4.32v4.32h.96v-4.32h4.32v-.96h-4.32v-4.32Zm24-24h-.96v4.32h-4.32v.96h4.32v4.32h.96v-4.32h4.32v-.96h-4.32v-4.32Zm0,24h-.96v4.32h-4.32v.96h4.32v4.32h.96v-4.32h4.32v-.96h-4.32v-4.32Zm24-24h-.96v4.32h-4.32v.96h4.32v4.32h.96v-4.32h4.32v-.96h-4.32v-4.32Zm0,24h-.96v4.32h-4.32v.96h4.32v4.32h.96v-4.32h4.32v-.96h-4.32v-4.32Zm-72,24h-.96v4.32h-4.32v.96h4.32v4.32h.96v-4.32h4.32v-.96h-4.32v-4.32Zm0,24h-.96v4.32h-4.32v.96h4.32v4.32h.96v-4.32h4.32v-.96h-4.32v-4.32Zm24-24h-.96v4.32h-4.32v.96h4.32v4.32h.96v-4.32h4.32v-.96h-4.32v-4.32Zm0,24h-.96v4.32h-4.32v.96h4.32v4.32h.96v-4.32h4.32v-.96h-4.32v-4.32Zm24-24h-.96v4.32h-4.32v.96h4.32v4.32h.96v-4.32h4.32v-.96h-4.32v-4.32Zm0,24h-.96v4.32h-4.32v.96h4.32v4.32h.96v-4.32h4.32v-.96h-4.32v-4.32Zm24-24h-.96v4.32h-4.32v.96h4.32v4.32h.96v-4.32h4.32v-.96h-4.32v-4.32Zm0,24h-.96v4.32h-4.32v.96h4.32v4.32h.96v-4.32h4.32v-.96h-4.32v-4.32Zm24-72h-.96v4.32h-4.32v.96h4.32v4.32h.96v-4.32h4.32v-.96h-4.32v-4.32Zm0,24h-.96v4.32h-4.32v.96h4.32v4.32h.96v-4.32h4.32v-.96h-4.32v-4.32Zm24-24h-.96v4.32h-4.32v.96h4.32v4.32h.96v-4.32h4.32v-.96h-4.32v-4.32Zm0,24h-.96v4.32h-4.32v.96h4.32v4.32h.96v-4.32h4.32v-.96h-4.32v-4.32Zm24-24h-.96v4.32h-4.32v.96h4.32v4.32h.96v-4.32h4.32v-.96h-4.32v-4.32Zm0,24h-.96v4.32h-4.32v.96h4.32v4.32h.96v-4.32h4.32v-.96h-4.32v-4.32Zm24-24h-.96v4.32h-4.32v.96h4.32v4.32h.96v-4.32h4.32v-.96h-4.32v-4.32Zm0,24h-.96v4.32h-4.32v.96h4.32v4.32h.96v-4.32h4.32v-.96h-4.32v-4.32Zm-72,24h-.96v4.32h-4.32v.96h4.32v4.32h.96v-4.32h4.32v-.96h-4.32v-4.32Zm0,24h-.96v4.32h-4.32v.96h4.32v4.32h.96v-4.32h4.32v-.96h-4.32v-4.32Zm24-24h-.96v4.32h-4.32v.96h4.32v4.32h.96v-4.32h4.32v-.96h-4.32v-4.32Zm0,24h-.96v4.32h-4.32v.96h4.32v4.32h.96v-4.32h4.32v-.96h-4.32v-4.32Zm24-24h-.96v4.32h-4.32v.96h4.32v4.32h.96v-4.32h4.32v-.96h-4.32v-4.32Zm0,24h-.96v4.32h-4.32v.96h4.32v4.32h.96v-4.32h4.32v-.96h-4.32v-4.32Zm24-24h-.96v4.32h-4.32v.96h4.32v4.32h.96v-4.32h4.32v-.96h-4.32v-4.32Zm0,24h-.96v4.32h-4.32v.96h4.32v4.32h.96v-4.32h4.32v-.96h-4.32v-4.32Zm-168,24h-.96v4.32h-4.32v.96h4.32v4.32h.96v-4.32h4.32v-.96h-4.32v-4.32Zm0,24h-.96v4.32h-4.32v.96h4.32v4.32h.96v-4.32h4.32v-.96h-4.32v-4.32Zm24-24h-.96v4.32h-4.32v.96h4.32v4.32h.96v-4.32h4.32v-.96h-4.32v-4.32Zm0,24h-.96v4.32h-4.32v.96h4.32v4.32h.96v-4.32h4.32v-.96h-4.32v-4.32Zm24-24h-.96v4.32h-4.32v.96h4.32v4.32h.96v-4.32h4.32v-.96h-4.32v-4.32Zm0,24h-.96v4.32h-4.32v.96h4.32v4.32h.96v-4.32h4.32v-.96h-4.32v-4.32Zm24-24h-.96v4.32h-4.32v.96h4.32v4.32h.96v-4.32h4.32v-.96h-4.32v-4.32Zm0,24h-.96v4.32h-4.32v.96h4.32v4.32h.96v-4.32h4.32v-.96h-4.32v-4.32Zm-72,24h-.96v4.32h-4.32v.96h4.32v4.32h.96v-4.32h4.32v-.96h-4.32v-4.32Zm0,24h-.96v4.32h-4.32v.96h4.32v4.32h.96v-4.32h4.32v-.96h-4.32v-4.32Zm24-24h-.96v4.32h-4.32v.96h4.32v4.32h.96v-4.32h4.32v-.96h-4.32v-4.32Zm0,24h-.96v4.32h-4.32v.96h4.32v4.32h.96v-4.32h4.32v-.96h-4.32v-4.32Zm24-24h-.96v4.32h-4.32v.96h4.32v4.32h.96v-4.32h4.32v-.96h-4.32v-4.32Zm0,24h-.96v4.32h-4.32v.96h4.32v4.32h.96v-4.32h4.32v-.96h-4.32v-4.32Zm24-24h-.96v4.32h-4.32v.96h4.32v4.32h.96v-4.32h4.32v-.96h-4.32v-4.32Zm0,24h-.96v4.32h-4.32v.96h4.32v4.32h.96v-4.32h4.32v-.96h-4.32v-4.32Zm24-72h-.96v4.32h-4.32v.96h4.32v4.32h.96v-4.32h4.32v-.96h-4.32v-4.32Zm0,24h-.96v4.32h-4.32v.96h4.32v4.32h.96v-4.32h4.32v-.96h-4.32v-4.32Zm24-24h-.96v4.32h-4.32v.96h4.32v4.32h.96v-4.32h4.32v-.96h-4.32v-4.32Zm0,24h-.96v4.32h-4.32v.96h4.32v4.32h.96v-4.32h4.32v-.96h-4.32v-4.32Zm24-24h-.96v4.32h-4.32v.96h4.32v4.32h.96v-4.32h4.32v-.96h-4.32v-4.32Zm0,24h-.96v4.32h-4.32v.96h4.32v4.32h.96v-4.32h4.32v-.96h-4.32v-4.32Zm24-24h-.96v4.32h-4.32v.96h4.32v4.32h.96v-4.32h4.32v-.96h-4.32v-4.32Zm0,24h-.96v4.32h-4.32v.96h4.32v4.32h.96v-4.32h4.32v-.96h-4.32v-4.32Zm-72,24h-.96v4.32h-4.32v.96h4.32v4.32h.96v-4.32h4.32v-.96h-4.32v-4.32Zm0,24h-.96v4.32h-4.32v.96h4.32v4.32h.96v-4.32h4.32v-.96h-4.32v-4.32Zm24-24h-.96v4.32h-4.32v.96h4.32v4.32h.96v-4.32h4.32v-.96h-4.32v-4.32Zm0,24h-.96v4.32h-4.32v.96h4.32v4.32h.96v-4.32h4.32v-.96h-4.32v-4.32Zm24-24h-.96v4.32h-4.32v.96h4.32v4.32h.96v-4.32h4.32v-.96h-4.32v-4.32Zm0,24h-.96v4.32h-4.32v.96h4.32v4.32h.96v-4.32h4.32v-.96h-4.32v-4.32Zm24-24h-.96v4.32h-4.32v.96h4.32v4.32h.96v-4.32h4.32v-.96h-4.32v-4.32Zm0,24h-.96v4.32h-4.32v.96h4.32v4.32h.96v-4.32h4.32v-.96h-4.32v-4.32ZM5.28,384h-.96v4.32H0v.96h4.32v4.32h.96v-4.32h4.32v-.96h-4.32v-4.32Zm0,24h-.96v4.32H0v.96h4.32v4.32h.96v-4.32h4.32v-.96h-4.32v-4.32Zm24-24h-.96v4.32h-4.32v.96h4.32v4.32h.96v-4.32h4.32v-.96h-4.32v-4.32Zm0,24h-.96v4.32h-4.32v.96h4.32v4.32h.96v-4.32h4.32v-.96h-4.32v-4.32Zm24-24h-.96v4.32h-4.32v.96h4.32v4.32h.96v-4.32h4.32v-.96h-4.32v-4.32Zm0,24h-.96v4.32h-4.32v.96h4.32v4.32h.96v-4.32h4.32v-.96h-4.32v-4.32Zm24-24h-.96v4.32h-4.32v.96h4.32v4.32h.96v-4.32h4.32v-.96h-4.32v-4.32Zm0,24h-.96v4.32h-4.32v.96h4.32v4.32h.96v-4.32h4.32v-.96h-4.32v-4.32Zm-72,24h-.96v4.32H0v.96h4.32v4.32h.96v-4.32h4.32v-.96h-4.32v-4.32Zm0,24h-.96v4.32H0v.96h4.32v4.32h.96v-4.32h4.32v-.96h-4.32v-4.32Zm24-24h-.96v4.32h-4.32v.96h4.32v4.32h.96v-4.32h4.32v-.96h-4.32v-4.32Zm0,24h-.96v4.32h-4.32v.96h4.32v4.32h.96v-4.32h4.32v-.96h-4.32v-4.32Zm24-24h-.96v4.32h-4.32v.96h4.32v4.32h.96v-4.32h4.32v-.96h-4.32v-4.32Zm0,24h-.96v4.32h-4.32v.96h4.32v4.32h.96v-4.32h4.32v-.96h-4.32v-4.32Zm24-24h-.96v4.32h-4.32v.96h4.32v4.32h.96v-4.32h4.32v-.96h-4.32v-4.32Zm0,24h-.96v4.32h-4.32v.96h4.32v4.32h.96v-4.32h4.32v-.96h-4.32v-4.32Zm24-72h-.96v4.32h-4.32v.96h4.32v4.32h.96v-4.32h4.32v-.96h-4.32v-4.32Zm0,24h-.96v4.32h-4.32v.96h4.32v4.32h.96v-4.32h4.32v-.96h-4.32v-4.32Zm24-24h-.96v4.32h-4.32v.96h4.32v4.32h.96v-4.32h4.32v-.96h-4.32v-4.32Zm0,24h-.96v4.32h-4.32v.96h4.32v4.32h.96v-4.32h4.32v-.96h-4.32v-4.32Zm24-24h-.96v4.32h-4.32v.96h4.32v4.32h.96v-4.32h4.32v-.96h-4.32v-4.32Zm0,24h-.96v4.32h-4.32v.96h4.32v4.32h.96v-4.32h4.32v-.96h-4.32v-4.32Zm24-24h-.96v4.32h-4.32v.96h4.32v4.32h.96v-4.32h4.32v-.96h-4.32v-4.32Zm0,24h-.96v4.32h-4.32v.96h4.32v4.32h.96v-4.32h4.32v-.96h-4.32v-4.32Zm-72,24h-.96v4.32h-4.32v.96h4.32v4.32h.96v-4.32h4.32v-.96h-4.32v-4.32Zm0,24h-.96v4.32h-4.32v.96h4.32v4.32h.96v-4.32h4.32v-.96h-4.32v-4.32Zm24-24h-.96v4.32h-4.32v.96h4.32v4.32h.96v-4.32h4.32v-.96h-4.32v-4.32Zm0,24h-.96v4.32h-4.32v.96h4.32v4.32h.96v-4.32h4.32v-.96h-4.32v-4.32Zm24-24h-.96v4.32h-4.32v.96h4.32v4.32h.96v-4.32h4.32v-.96h-4.32v-4.32Zm0,24h-.96v4.32h-4.32v.96h4.32v4.32h.96v-4.32h4.32v-.96h-4.32v-4.32Zm24-24h-.96v4.32h-4.32v.96h4.32v4.32h.96v-4.32h4.32v-.96h-4.32v-4.32Zm0,24h-.96v4.32h-4.32v.96h4.32v4.32h.96v-4.32h4.32v-.96h-4.32v-4.32ZM5.28,480h-.96v4.32H0v.96h4.32v4.32h.96v-4.32h4.32v-.96h-4.32v-4.32Zm0,24h-.96v4.32H0v.96h4.32v4.32h.96v-4.32h4.32v-.96h-4.32v-4.32Zm24-24h-.96v4.32h-4.32v.96h4.32v4.32h.96v-4.32h4.32v-.96h-4.32v-4.32Zm0,24h-.96v4.32h-4.32v.96h4.32v4.32h.96v-4.32h4.32v-.96h-4.32v-4.32Zm24-24h-.96v4.32h-4.32v.96h4.32v4.32h.96v-4.32h4.32v-.96h-4.32v-4.32Zm0,24h-.96v4.32h-4.32v.96h4.32v4.32h.96v-4.32h4.32v-.96h-4.32v-4.32Zm24-24h-.96v4.32h-4.32v.96h4.32v4.32h.96v-4.32h4.32v-.96h-4.32v-4.32Zm0,24h-.96v4.32h-4.32v.96h4.32v4.32h.96v-4.32h4.32v-.96h-4.32v-4.32Zm-72,24h-.96v4.32H0v.96h4.32v4.32h.96v-4.32h4.32v-.96h-4.32v-4.32Zm0,24h-.96v4.32H0v.96h4.32v4.32h.96v-4.32h4.32v-.96h-4.32v-4.32Zm24-24h-.96v4.32h-4.32v.96h4.32v4.32h.96v-4.32h4.32v-.96h-4.32v-4.32Zm0,24h-.96v4.32h-4.32v.96h4.32v4.32h.96v-4.32h4.32v-.96h-4.32v-4.32Zm24-24h-.96v4.32h-4.32v.96h4.32v4.32h.96v-4.32h4.32v-.96h-4.32v-4.32Zm0,24h-.96v4.32h-4.32v.96h4.32v4.32h.96v-4.32h4.32v-.96h-4.32v-4.32Zm24-24h-.96v4.32h-4.32v.96h4.32v4.32h.96v-4.32h4.32v-.96h-4.32v-4.32Zm0,24h-.96v4.32h-4.32v.96h4.32v4.32h.96v-4.32h4.32v-.96h-4.32v-4.32Zm24-72h-.96v4.32h-4.32v.96h4.32v4.32h.96v-4.32h4.32v-.96h-4.32v-4.32Zm0,24h-.96v4.32h-4.32v.96h4.32v4.32h.96v-4.32h4.32v-.96h-4.32v-4.32Zm24-24h-.96v4.32h-4.32v.96h4.32v4.32h.96v-4.32h4.32v-.96h-4.32v-4.32Zm0,24h-.96v4.32h-4.32v.96h4.32v4.32h.96v-4.32h4.32v-.96h-4.32v-4.32Zm24-24h-.96v4.32h-4.32v.96h4.32v4.32h.96v-4.32h4.32v-.96h-4.32v-4.32Zm0,24h-.96v4.32h-4.32v.96h4.32v4.32h.96v-4.32h4.32v-.96h-4.32v-4.32Zm24-24h-.96v4.32h-4.32v.96h4.32v4.32h.96v-4.32h4.32v-.96h-4.32v-4.32Zm0,24h-.96v4.32h-4.32v.96h4.32v4.32h.96v-4.32h4.32v-.96h-4.32v-4.32Zm-72,24h-.96v4.32h-4.32v.96h4.32v4.32h.96v-4.32h4.32v-.96h-4.32v-4.32Zm0,24h-.96v4.32h-4.32v.96h4.32v4.32h.96v-4.32h4.32v-.96h-4.32v-4.32Zm24-24h-.96v4.32h-4.32v.96h4.32v4.32h.96v-4.32h4.32v-.96h-4.32v-4.32Zm0,24h-.96v4.32h-4.32v.96h4.32v4.32h.96v-4.32h4.32v-.96h-4.32v-4.32Zm24-24h-.96v4.32h-4.32v.96h4.32v4.32h.96v-4.32h4.32v-.96h-4.32v-4.32Zm0,24h-.96v4.32h-4.32v.96h4.32v4.32h.96v-4.32h4.32v-.96h-4.32v-4.32Zm24-24h-.96v4.32h-4.32v.96h4.32v4.32h.96v-4.32h4.32v-.96h-4.32v-4.32Zm0,24h-.96v4.32h-4.32v.96h4.32v4.32h.96v-4.32h4.32v-.96h-4.32v-4.32Zm24-168h-.96v4.32h-4.32v.96h4.32v4.32h.96v-4.32h4.32v-.96h-4.32v-4.32Zm0,24h-.96v4.32h-4.32v.96h4.32v4.32h.96v-4.32h4.32v-.96h-4.32v-4.32Zm24-24h-.96v4.32h-4.32v.96h4.32v4.32h.96v-4.32h4.32v-.96h-4.32v-4.32Zm0,24h-.96v4.32h-4.32v.96h4.32v4.32h.96v-4.32h4.32v-.96h-4.32v-4.32Zm24-24h-.96v4.32h-4.32v.96h4.32v4.32h.96v-4.32h4.32v-.96h-4.32v-4.32Zm0,24h-.96v4.32h-4.32v.96h4.32v4.32h.96v-4.32h4.32v-.96h-4.32v-4.32Zm24-24h-.96v4.32h-4.32v.96h4.32v4.32h.96v-4.32h4.32v-.96h-4.32v-4.32Zm0,24h-.96v4.32h-4.32v.96h4.32v4.32h.96v-4.32h4.32v-.96h-4.32v-4.32Zm-72,24h-.96v4.32h-4.32v.96h4.32v4.32h.96v-4.32h4.32v-.96h-4.32v-4.32Zm0,24h-.96v4.32h-4.32v.96h4.32v4.32h.96v-4.32h4.32v-.96h-4.32v-4.32Zm24-24h-.96v4.32h-4.32v.96h4.32v4.32h.96v-4.32h4.32v-.96h-4.32v-4.32Zm0,24h-.96v4.32h-4.32v.96h4.32v4.32h.96v-4.32h4.32v-.96h-4.32v-4.32Zm24-24h-.96v4.32h-4.32v.96h4.32v4.32h.96v-4.32h4.32v-.96h-4.32v-4.32Zm0,24h-.96v4.32h-4.32v.96h4.32v4.32h.96v-4.32h4.32v-.96h-4.32v-4.32Zm24-24h-.96v4.32h-4.32v.96h4.32v4.32h.96v-4.32h4.32v-.96h-4.32v-4.32Zm0,24h-.96v4.32h-4.32v.96h4.32v4.32h.96v-4.32h4.32v-.96h-4.32v-4.32Zm24-72h-.96v4.32h-4.32v.96h4.32v4.32h.96v-4.32h4.32v-.96h-4.32v-4.32Zm0,24h-.96v4.32h-4.32v.96h4.32v4.32h.96v-4.32h4.32v-.96h-4.32v-4.32Zm24-24h-.96v4.32h-4.32v.96h4.32v4.32h.96v-4.32h4.32v-.96h-4.32v-4.32Zm0,24h-.96v4.32h-4.32v.96h4.32v4.32h.96v-4.32h4.32v-.96h-4.32v-4.32Zm24-24h-.96v4.32h-4.32v.96h4.32v4.32h.96v-4.32h4.32v-.96h-4.32v-4.32Zm0,24h-.96v4.32h-4.32v.96h4.32v4.32h.96v-4.32h4.32v-.96h-4.32v-4.32Zm24-24h-.96v4.32h-4.32v.96h4.32v4.32h.96v-4.32h4.32v-.96h-4.32v-4.32Zm0,24h-.96v4.32h-4.32v.96h4.32v4.32h.96v-4.32h4.32v-.96h-4.32v-4.32Zm-72,24h-.96v4.32h-4.32v.96h4.32v4.32h.96v-4.32h4.32v-.96h-4.32v-4.32Zm0,24h-.96v4.32h-4.32v.96h4.32v4.32h.96v-4.32h4.32v-.96h-4.32v-4.32Zm24-24h-.96v4.32h-4.32v.96h4.32v4.32h.96v-4.32h4.32v-.96h-4.32v-4.32Zm0,24h-.96v4.32h-4.32v.96h4.32v4.32h.96v-4.32h4.32v-.96h-4.32v-4.32Zm24-24h-.96v4.32h-4.32v.96h4.32v4.32h.96v-4.32h4.32v-.96h-4.32v-4.32Zm0,24h-.96v4.32h-4.32v.96h4.32v4.32h.96v-4.32h4.32v-.96h-4.32v-4.32Zm24-24h-.96v4.32h-4.32v.96h4.32v4.32h.96v-4.32h4.32v-.96h-4.32v-4.32Zm0,24h-.96v4.32h-4.32v.96h4.32v4.32h.96v-4.32h4.32v-.96h-4.32v-4.32Zm-168,24h-.96v4.32h-4.32v.96h4.32v4.32h.96v-4.32h4.32v-.96h-4.32v-4.32Zm0,24h-.96v4.32h-4.32v.96h4.32v4.32h.96v-4.32h4.32v-.96h-4.32v-4.32Zm24-24h-.96v4.32h-4.32v.96h4.32v4.32h.96v-4.32h4.32v-.96h-4.32v-4.32Zm0,24h-.96v4.32h-4.32v.96h4.32v4.32h.96v-4.32h4.32v-.96h-4.32v-4.32Zm24-24h-.96v4.32h-4.32v.96h4.32v4.32h.96v-4.32h4.32v-.96h-4.32v-4.32Zm0,24h-.96v4.32h-4.32v.96h4.32v4.32h.96v-4.32h4.32v-.96h-4.32v-4.32Zm24-24h-.96v4.32h-4.32v.96h4.32v4.32h.96v-4.32h4.32v-.96h-4.32v-4.32Zm0,24h-.96v4.32h-4.32v.96h4.32v4.32h.96v-4.32h4.32v-.96h-4.32v-4.32Zm-72,24h-.96v4.32h-4.32v.96h4.32v4.32h.96v-4.32h4.32v-.96h-4.32v-4.32Zm0,24h-.96v4.32h-4.32v.96h4.32v4.32h.96v-4.32h4.32v-.96h-4.32v-4.32Zm24-24h-.96v4.32h-4.32v.96h4.32v4.32h.96v-4.32h4.32v-.96h-4.32v-4.32Zm0,24h-.96v4.32h-4.32v.96h4.32v4.32h.96v-4.32h4.32v-.96h-4.32v-4.32Zm24-24h-.96v4.32h-4.32v.96h4.32v4.32h.96v-4.32h4.32v-.96h-4.32v-4.32Zm0,24h-.96v4.32h-4.32v.96h4.32v4.32h.96v-4.32h4.32v-.96h-4.32v-4.32Zm24-24h-.96v4.32h-4.32v.96h4.32v4.32h.96v-4.32h4.32v-.96h-4.32v-4.32Zm0,24h-.96v4.32h-4.32v.96h4.32v4.32h.96v-4.32h4.32v-.96h-4.32v-4.32Zm24-72h-.96v4.32h-4.32v.96h4.32v4.32h.96v-4.32h4.32v-.96h-4.32v-4.32Zm0,24h-.96v4.32h-4.32v.96h4.32v4.32h.96v-4.32h4.32v-.96h-4.32v-4.32Zm24-24h-.96v4.32h-4.32v.96h4.32v4.32h.96v-4.32h4.32v-.96h-4.32v-4.32Zm0,24h-.96v4.32h-4.32v.96h4.32v4.32h.96v-4.32h4.32v-.96h-4.32v-4.32Zm24-24h-.96v4.32h-4.32v.96h4.32v4.32h.96v-4.32h4.32v-.96h-4.32v-4.32Zm0,24h-.96v4.32h-4.32v.96h4.32v4.32h.96v-4.32h4.32v-.96h-4.32v-4.32Zm24-24h-.96v4.32h-4.32v.96h4.32v4.32h.96v-4.32h4.32v-.96h-4.32v-4.32Zm0,24h-.96v4.32h-4.32v.96h4.32v4.32h.96v-4.32h4.32v-.96h-4.32v-4.32Zm-72,24h-.96v4.32h-4.32v.96h4.32v4.32h.96v-4.32h4.32v-.96h-4.32v-4.32Zm0,24h-.96v4.32h-4.32v.96h4.32v4.32h.96v-4.32h4.32v-.96h-4.32v-4.32Zm24-24h-.96v4.32h-4.32v.96h4.32v4.32h.96v-4.32h4.32v-.96h-4.32v-4.32Zm0,24h-.96v4.32h-4.32v.96h4.32v4.32h.96v-4.32h4.32v-.96h-4.32v-4.32Zm24-24h-.96v4.32h-4.32v.96h4.32v4.32h.96v-4.32h4.32v-.96h-4.32v-4.32Zm0,24h-.96v4.32h-4.32v.96h4.32v4.32h.96v-4.32h4.32v-.96h-4.32v-4.32Zm24-24h-.96v4.32h-4.32v.96h4.32v4.32h.96v-4.32h4.32v-.96h-4.32v-4.32Zm0,24h-.96v4.32h-4.32v.96h4.32v4.32h.96v-4.32h4.32v-.96h-4.32v-4.32ZM5.28,576h-.96v4.32H0v.96h4.32v4.32h.96v-4.32h4.32v-.96h-4.32v-4.32Zm0,24h-.96v4.32H0v.96h4.32v4.32h.96v-4.32h4.32v-.96h-4.32v-4.32Zm24-24h-.96v4.32h-4.32v.96h4.32v4.32h.96v-4.32h4.32v-.96h-4.32v-4.32Zm0,24h-.96v4.32h-4.32v.96h4.32v4.32h.96v-4.32h4.32v-.96h-4.32v-4.32Zm24-24h-.96v4.32h-4.32v.96h4.32v4.32h.96v-4.32h4.32v-.96h-4.32v-4.32Zm0,24h-.96v4.32h-4.32v.96h4.32v4.32h.96v-4.32h4.32v-.96h-4.32v-4.32Zm24-24h-.96v4.32h-4.32v.96h4.32v4.32h.96v-4.32h4.32v-.96h-4.32v-4.32Zm0,24h-.96v4.32h-4.32v.96h4.32v4.32h.96v-4.32h4.32v-.96h-4.32v-4.32Zm-72,24h-.96v4.32H0v.96h4.32v4.32h.96v-4.32h4.32v-.96h-4.32v-4.32Zm0,24h-.96v4.32H0v.96h4.32v4.32h.96v-4.32h4.32v-.96h-4.32v-4.32Zm24-24h-.96v4.32h-4.32v.96h4.32v4.32h.96v-4.32h4.32v-.96h-4.32v-4.32Zm0,24h-.96v4.32h-4.32v.96h4.32v4.32h.96v-4.32h4.32v-.96h-4.32v-4.32Zm24-24h-.96v4.32h-4.32v.96h4.32v4.32h.96v-4.32h4.32v-.96h-4.32v-4.32Zm0,24h-.96v4.32h-4.32v.96h4.32v4.32h.96v-4.32h4.32v-.96h-4.32v-4.32Zm24-24h-.96v4.32h-4.32v.96h4.32v4.32h.96v-4.32h4.32v-.96h-4.32v-4.32Zm0,24h-.96v4.32h-4.32v.96h4.32v4.32h.96v-4.32h4.32v-.96h-4.32v-4.32Zm24-72h-.96v4.32h-4.32v.96h4.32v4.32h.96v-4.32h4.32v-.96h-4.32v-4.32Zm0,24h-.96v4.32h-4.32v.96h4.32v4.32h.96v-4.32h4.32v-.96h-4.32v-4.32Zm24-24h-.96v4.32h-4.32v.96h4.32v4.32h.96v-4.32h4.32v-.96h-4.32v-4.32Zm0,24h-.96v4.32h-4.32v.96h4.32v4.32h.96v-4.32h4.32v-.96h-4.32v-4.32Zm24-24h-.96v4.32h-4.32v.96h4.32v4.32h.96v-4.32h4.32v-.96h-4.32v-4.32Zm0,24h-.96v4.32h-4.32v.96h4.32v4.32h.96v-4.32h4.32v-.96h-4.32v-4.32Zm24-24h-.96v4.32h-4.32v.96h4.32v4.32h.96v-4.32h4.32v-.96h-4.32v-4.32Zm0,24h-.96v4.32h-4.32v.96h4.32v4.32h.96v-4.32h4.32v-.96h-4.32v-4.32Zm-72,24h-.96v4.32h-4.32v.96h4.32v4.32h.96v-4.32h4.32v-.96h-4.32v-4.32Zm0,24h-.96v4.32h-4.32v.96h4.32v4.32h.96v-4.32h4.32v-.96h-4.32v-4.32Zm24-24h-.96v4.32h-4.32v.96h4.32v4.32h.96v-4.32h4.32v-.96h-4.32v-4.32Zm0,24h-.96v4.32h-4.32v.96h4.32v4.32h.96v-4.32h4.32v-.96h-4.32v-4.32Zm24-24h-.96v4.32h-4.32v.96h4.32v4.32h.96v-4.32h4.32v-.96h-4.32v-4.32Zm0,24h-.96v4.32h-4.32v.96h4.32v4.32h.96v-4.32h4.32v-.96h-4.32v-4.32Zm24-24h-.96v4.32h-4.32v.96h4.32v4.32h.96v-4.32h4.32v-.96h-4.32v-4.32Zm0,24h-.96v4.32h-4.32v.96h4.32v4.32h.96v-4.32h4.32v-.96h-4.32v-4.32Zm-168,24h-.96v4.32H0v.96h4.32v4.32h.96v-4.32h4.32v-.96h-4.32v-4.32Zm0,24h-.96v4.32H0v.96h4.32v4.32h.96v-4.32h4.32v-.96h-4.32v-4.32Zm24-24h-.96v4.32h-4.32v.96h4.32v4.32h.96v-4.32h4.32v-.96h-4.32v-4.32Zm0,24h-.96v4.32h-4.32v.96h4.32v4.32h.96v-4.32h4.32v-.96h-4.32v-4.32Zm24-24h-.96v4.32h-4.32v.96h4.32v4.32h.96v-4.32h4.32v-.96h-4.32v-4.32Zm0,24h-.96v4.32h-4.32v.96h4.32v4.32h.96v-4.32h4.32v-.96h-4.32v-4.32Zm24-24h-.96v4.32h-4.32v.96h4.32v4.32h.96v-4.32h4.32v-.96h-4.32v-4.32Zm0,24h-.96v4.32h-4.32v.96h4.32v4.32h.96v-4.32h4.32v-.96h-4.32v-4.32Zm-72,24h-.96v4.32H0v.96h4.32v4.32h.96v-4.32h4.32v-.96h-4.32v-4.32Zm24,0h-.96v4.32h-4.32v.96h4.32v4.32h.96v-4.32h4.32v-.96h-4.32v-4.32Zm24,0h-.96v4.32h-4.32v.96h4.32v4.32h.96v-4.32h4.32v-.96h-4.32v-4.32Zm24,0h-.96v4.32h-4.32v.96h4.32v4.32h.96v-4.32h4.32v-.96h-4.32v-4.32Zm24-48h-.96v4.32h-4.32v.96h4.32v4.32h.96v-4.32h4.32v-.96h-4.32v-4.32Zm0,24h-.96v4.32h-4.32v.96h4.32v4.32h.96v-4.32h4.32v-.96h-4.32v-4.32Zm24-24h-.96v4.32h-4.32v.96h4.32v4.32h.96v-4.32h4.32v-.96h-4.32v-4.32Zm0,24h-.96v4.32h-4.32v.96h4.32v4.32h.96v-4.32h4.32v-.96h-4.32v-4.32Zm24-24h-.96v4.32h-4.32v.96h4.32v4.32h.96v-4.32h4.32v-.96h-4.32v-4.32Zm0,24h-.96v4.32h-4.32v.96h4.32v4.32h.96v-4.32h4.32v-.96h-4.32v-4.32Zm24-24h-.96v4.32h-4.32v.96h4.32v4.32h.96v-4.32h4.32v-.96h-4.32v-4.32Zm0,24h-.96v4.32h-4.32v.96h4.32v4.32h.96v-4.32h4.32v-.96h-4.32v-4.32Zm-72,24h-.96v4.32h-4.32v.96h4.32v4.32h.96v-4.32h4.32v-.96h-4.32v-4.32Zm24,0h-.96v4.32h-4.32v.96h4.32v4.32h.96v-4.32h4.32v-.96h-4.32v-4.32Zm24,0h-.96v4.32h-4.32v.96h4.32v4.32h.96v-4.32h4.32v-.96h-4.32v-4.32Zm24,0h-.96v4.32h-4.32v.96h4.32v4.32h.96v-4.32h4.32v-.96h-4.32v-4.32Zm24-144h-.96v4.32h-4.32v.96h4.32v4.32h.96v-4.32h4.32v-.96h-4.32v-4.32Zm0,24h-.96v4.32h-4.32v.96h4.32v4.32h.96v-4.32h4.32v-.96h-4.32v-4.32Zm24-24h-.96v4.32h-4.32v.96h4.32v4.32h.96v-4.32h4.32v-.96h-4.32v-4.32Zm0,24h-.96v4.32h-4.32v.96h4.32v4.32h.96v-4.32h4.32v-.96h-4.32v-4.32Zm24-24h-.96v4.32h-4.32v.96h4.32v4.32h.96v-4.32h4.32v-.96h-4.32v-4.32Zm0,24h-.96v4.32h-4.32v.96h4.32v4.32h.96v-4.32h4.32v-.96h-4.32v-4.32Zm24-24h-.96v4.32h-4.32v.96h4.32v4.32h.96v-4.32h4.32v-.96h-4.32v-4.32Zm0,24h-.96v4.32h-4.32v.96h4.32v4.32h.96v-4.32h4.32v-.96h-4.32v-4.32Zm-72,24h-.96v4.32h-4.32v.96h4.32v4.32h.96v-4.32h4.32v-.96h-4.32v-4.32Zm0,24h-.96v4.32h-4.32v.96h4.32v4.32h.96v-4.32h4.32v-.96h-4.32v-4.32Zm24-24h-.96v4.32h-4.32v.96h4.32v4.32h.96v-4.32h4.32v-.96h-4.32v-4.32Zm0,24h-.96v4.32h-4.32v.96h4.32v4.32h.96v-4.32h4.32v-.96h-4.32v-4.32Zm24-24h-.96v4.32h-4.32v.96h4.32v4.32h.96v-4.32h4.32v-.96h-4.32v-4.32Zm0,24h-.96v4.32h-4.32v.96h4.32v4.32h.96v-4.32h4.32v-.96h-4.32v-4.32Zm24-24h-.96v4.32h-4.32v.96h4.32v4.32h.96v-4.32h4.32v-.96h-4.32v-4.32Zm0,24h-.96v4.32h-4.32v.96h4.32v4.32h.96v-4.32h4.32v-.96h-4.32v-4.32Zm24-72h-.96v4.32h-4.32v.96h4.32v4.32h.96v-4.32h4.32v-.96h-4.32v-4.32Zm0,24h-.96v4.32h-4.32v.96h4.32v4.32h.96v-4.32h4.32v-.96h-4.32v-4.32Zm24-24h-.96v4.32h-4.32v.96h4.32v4.32h.96v-4.32h4.32v-.96h-4.32v-4.32Zm0,24h-.96v4.32h-4.32v.96h4.32v4.32h.96v-4.32h4.32v-.96h-4.32v-4.32Zm24-24h-.96v4.32h-4.32v.96h4.32v4.32h.96v-4.32h4.32v-.96h-4.32v-4.32Zm0,24h-.96v4.32h-4.32v.96h4.32v4.32h.96v-4.32h4.32v-.96h-4.32v-4.32Zm24-24h-.96v4.32h-4.32v.96h4.32v4.32h.96v-4.32h4.32v-.96h-4.32v-4.32Zm0,24h-.96v4.32h-4.32v.96h4.32v4.32h.96v-4.32h4.32v-.96h-4.32v-4.32Zm-72,24h-.96v4.32h-4.32v.96h4.32v4.32h.96v-4.32h4.32v-.96h-4.32v-4.32Zm0,24h-.96v4.32h-4.32v.96h4.32v4.32h.96v-4.32h4.32v-.96h-4.32v-4.32Zm24-24h-.96v4.32h-4.32v.96h4.32v4.32h.96v-4.32h4.32v-.96h-4.32v-4.32Zm0,24h-.96v4.32h-4.32v.96h4.32v4.32h.96v-4.32h4.32v-.96h-4.32v-4.32Zm24-24h-.96v4.32h-4.32v.96h4.32v4.32h.96v-4.32h4.32v-.96h-4.32v-4.32Zm0,24h-.96v4.32h-4.32v.96h4.32v4.32h.96v-4.32h4.32v-.96h-4.32v-4.32Zm24-24h-.96v4.32h-4.32v.96h4.32v4.32h.96v-4.32h4.32v-.96h-4.32v-4.32Zm0,24h-.96v4.32h-4.32v.96h4.32v4.32h.96v-4.32h4.32v-.96h-4.32v-4.32Zm-168,24h-.96v4.32h-4.32v.96h4.32v4.32h.96v-4.32h4.32v-.96h-4.32v-4.32Zm0,24h-.96v4.32h-4.32v.96h4.32v4.32h.96v-4.32h4.32v-.96h-4.32v-4.32Zm24-24h-.96v4.32h-4.32v.96h4.32v4.32h.96v-4.32h4.32v-.96h-4.32v-4.32Zm0,24h-.96v4.32h-4.32v.96h4.32v4.32h.96v-4.32h4.32v-.96h-4.32v-4.32Zm24-24h-.96v4.32h-4.32v.96h4.32v4.32h.96v-4.32h4.32v-.96h-4.32v-4.32Zm0,24h-.96v4.32h-4.32v.96h4.32v4.32h.96v-4.32h4.32v-.96h-4.32v-4.32Zm24-24h-.96v4.32h-4.32v.96h4.32v4.32h.96v-4.32h4.32v-.96h-4.32v-4.32Zm0,24h-.96v4.32h-4.32v.96h4.32v4.32h.96v-4.32h4.32v-.96h-4.32v-4.32Zm-72,24h-.96v4.32h-4.32v.96h4.32v4.32h.96v-4.32h4.32v-.96h-4.32v-4.32Zm24,0h-.96v4.32h-4.32v.96h4.32v4.32h.96v-4.32h4.32v-.96h-4.32v-4.32Zm24,0h-.96v4.32h-4.32v.96h4.32v4.32h.96v-4.32h4.32v-.96h-4.32v-4.32Zm24,0h-.96v4.32h-4.32v.96h4.32v4.32h.96v-4.32h4.32v-.96h-4.32v-4.32Zm24-48h-.96v4.32h-4.32v.96h4.32v4.32h.96v-4.32h4.32v-.96h-4.32v-4.32Zm0,24h-.96v4.32h-4.32v.96h4.32v4.32h.96v-4.32h4.32v-.96h-4.32v-4.32Zm24-24h-.96v4.32h-4.32v.96h4.32v4.32h.96v-4.32h4.32v-.96h-4.32v-4.32Zm0,24h-.96v4.32h-4.32v.96h4.32v4.32h.96v-4.32h4.32v-.96h-4.32v-4.32Zm24-24h-.96v4.32h-4.32v.96h4.32v4.32h.96v-4.32h4.32v-.96h-4.32v-4.32Zm0,24h-.96v4.32h-4.32v.96h4.32v4.32h.96v-4.32h4.32v-.96h-4.32v-4.32Zm24-24h-.96v4.32h-4.32v.96h4.32v4.32h.96v-4.32h4.32v-.96h-4.32v-4.32Zm0,24h-.96v4.32h-4.32v.96h4.32v4.32h.96v-4.32h4.32v-.96h-4.32v-4.32Zm-72,24h-.96v4.32h-4.32v.96h4.32v4.32h.96v-4.32h4.32v-.96h-4.32v-4.32Zm24,0h-.96v4.32h-4.32v.96h4.32v4.32h.96v-4.32h4.32v-.96h-4.32v-4.32Zm24,0h-.96v4.32h-4.32v.96h4.32v4.32h.96v-4.32h4.32v-.96h-4.32v-4.32Zm24,0h-.96v4.32h-4.32v.96h4.32v4.32h.96v-4.32h4.32v-.96h-4.32v-4.32ZM389.28,0h-.96v4.32h-4.32v.96h4.32v4.32h.96v-4.32h4.32v-.96h-4.32V0Zm0,24h-.96v4.32h-4.32v.96h4.32v4.32h.96v-4.32h4.32v-.96h-4.32v-4.32ZM413.28,0h-.96v4.32h-4.32v.96h4.32v4.32h.96v-4.32h4.32v-.96h-4.32V0Zm0,24h-.96v4.32h-4.32v.96h4.32v4.32h.96v-4.32h4.32v-.96h-4.32v-4.32ZM437.28,0h-.96v4.32h-4.32v.96h4.32v4.32h.96v-4.32h4.32v-.96h-4.32V0Zm0,24h-.96v4.32h-4.32v.96h4.32v4.32h.96v-4.32h4.32v-.96h-4.32v-4.32ZM461.28,0h-.96v4.32h-4.32v.96h4.32v4.32h.96v-4.32h4.32v-.96h-4.32V0Zm0,24h-.96v4.32h-4.32v.96h4.32v4.32h.96v-4.32h4.32v-.96h-4.32v-4.32Zm-72,24h-.96v4.32h-4.32v.96h4.32v4.32h.96v-4.32h4.32v-.96h-4.32v-4.32Zm0,24h-.96v4.32h-4.32v.96h4.32v4.32h.96v-4.32h4.32v-.96h-4.32v-4.32Zm24-24h-.96v4.32h-4.32v.96h4.32v4.32h.96v-4.32h4.32v-.96h-4.32v-4.32Zm0,24h-.96v4.32h-4.32v.96h4.32v4.32h.96v-4.32h4.32v-.96h-4.32v-4.32Zm24-24h-.96v4.32h-4.32v.96h4.32v4.32h.96v-4.32h4.32v-.96h-4.32v-4.32Zm0,24h-.96v4.32h-4.32v.96h4.32v4.32h.96v-4.32h4.32v-.96h-4.32v-4.32Zm24-24h-.96v4.32h-4.32v.96h4.32v4.32h.96v-4.32h4.32v-.96h-4.32v-4.32Zm0,24h-.96v4.32h-4.32v.96h4.32v4.32h.96v-4.32h4.32v-.96h-4.32v-4.32ZM485.28,0h-.96v4.32h-4.32v.96h4.32v4.32h.96v-4.32h4.32v-.96h-4.32V0Zm0,24h-.96v4.32h-4.32v.96h4.32v4.32h.96v-4.32h4.32v-.96h-4.32v-4.32ZM509.28,0h-.96v4.32h-4.32v.96h4.32v4.32h.96v-4.32h4.32v-.96h-4.32V0Zm0,24h-.96v4.32h-4.32v.96h4.32v4.32h.96v-4.32h4.32v-.96h-4.32v-4.32Zm24-24h-.96v4.32h-4.32v.96h4.32v4.32h.96v-4.32h4.32v-.96h-4.32V0Zm0,24h-.96v4.32h-4.32v.96h4.32v4.32h.96v-4.32h4.32v-.96h-4.32v-4.32Zm24-24h-.96v4.32h-4.32v.96h4.32v4.32h.96v-4.32h4.32v-.96h-4.32V0Zm0,24h-.96v4.32h-4.32v.96h4.32v4.32h.96v-4.32h4.32v-.96h-4.32v-4.32Zm-72,24h-.96v4.32h-4.32v.96h4.32v4.32h.96v-4.32h4.32v-.96h-4.32v-4.32Zm0,24h-.96v4.32h-4.32v.96h4.32v4.32h.96v-4.32h4.32v-.96h-4.32v-4.32Zm24-24h-.96v4.32h-4.32v.96h4.32v4.32h.96v-4.32h4.32v-.96h-4.32v-4.32Zm0,24h-.96v4.32h-4.32v.96h4.32v4.32h.96v-4.32h4.32v-.96h-4.32v-4.32Zm24-24h-.96v4.32h-4.32v.96h4.32v4.32h.96v-4.32h4.32v-.96h-4.32v-4.32Zm0,24h-.96v4.32h-4.32v.96h4.32v4.32h.96v-4.32h4.32v-.96h-4.32v-4.32Zm24-24h-.96v4.32h-4.32v.96h4.32v4.32h.96v-4.32h4.32v-.96h-4.32v-4.32Zm0,24h-.96v4.32h-4.32v.96h4.32v4.32h.96v-4.32h4.32v-.96h-4.32v-4.32Zm-168,24h-.96v4.32h-4.32v.96h4.32v4.32h.96v-4.32h4.32v-.96h-4.32v-4.32Zm0,24h-.96v4.32h-4.32v.96h4.32v4.32h.96v-4.32h4.32v-.96h-4.32v-4.32Zm24-24h-.96v4.32h-4.32v.96h4.32v4.32h.96v-4.32h4.32v-.96h-4.32v-4.32Zm0,24h-.96v4.32h-4.32v.96h4.32v4.32h.96v-4.32h4.32v-.96h-4.32v-4.32Zm24-24h-.96v4.32h-4.32v.96h4.32v4.32h.96v-4.32h4.32v-.96h-4.32v-4.32Zm0,24h-.96v4.32h-4.32v.96h4.32v4.32h.96v-4.32h4.32v-.96h-4.32v-4.32Zm24-24h-.96v4.32h-4.32v.96h4.32v4.32h.96v-4.32h4.32v-.96h-4.32v-4.32Zm0,24h-.96v4.32h-4.32v.96h4.32v4.32h.96v-4.32h4.32v-.96h-4.32v-4.32Zm-72,24h-.96v4.32h-4.32v.96h4.32v4.32h.96v-4.32h4.32v-.96h-4.32v-4.32Zm0,24h-.96v4.32h-4.32v.96h4.32v4.32h.96v-4.32h4.32v-.96h-4.32v-4.32Zm24-24h-.96v4.32h-4.32v.96h4.32v4.32h.96v-4.32h4.32v-.96h-4.32v-4.32Zm0,24h-.96v4.32h-4.32v.96h4.32v4.32h.96v-4.32h4.32v-.96h-4.32v-4.32Zm24-24h-.96v4.32h-4.32v.96h4.32v4.32h.96v-4.32h4.32v-.96h-4.32v-4.32Zm0,24h-.96v4.32h-4.32v.96h4.32v4.32h.96v-4.32h4.32v-.96h-4.32v-4.32Zm24-24h-.96v4.32h-4.32v.96h4.32v4.32h.96v-4.32h4.32v-.96h-4.32v-4.32Zm0,24h-.96v4.32h-4.32v.96h4.32v4.32h.96v-4.32h4.32v-.96h-4.32v-4.32Zm24-72h-.96v4.32h-4.32v.96h4.32v4.32h.96v-4.32h4.32v-.96h-4.32v-4.32Zm0,24h-.96v4.32h-4.32v.96h4.32v4.32h.96v-4.32h4.32v-.96h-4.32v-4.32Zm24-24h-.96v4.32h-4.32v.96h4.32v4.32h.96v-4.32h4.32v-.96h-4.32v-4.32Zm0,24h-.96v4.32h-4.32v.96h4.32v4.32h.96v-4.32h4.32v-.96h-4.32v-4.32Zm24-24h-.96v4.32h-4.32v.96h4.32v4.32h.96v-4.32h4.32v-.96h-4.32v-4.32Zm0,24h-.96v4.32h-4.32v.96h4.32v4.32h.96v-4.32h4.32v-.96h-4.32v-4.32Zm24-24h-.96v4.32h-4.32v.96h4.32v4.32h.96v-4.32h4.32v-.96h-4.32v-4.32Zm0,24h-.96v4.32h-4.32v.96h4.32v4.32h.96v-4.32h4.32v-.96h-4.32v-4.32Zm-72,24h-.96v4.32h-4.32v.96h4.32v4.32h.96v-4.32h4.32v-.96h-4.32v-4.32Zm0,24h-.96v4.32h-4.32v.96h4.32v4.32h.96v-4.32h4.32v-.96h-4.32v-4.32Zm24-24h-.96v4.32h-4.32v.96h4.32v4.32h.96v-4.32h4.32v-.96h-4.32v-4.32Zm0,24h-.96v4.32h-4.32v.96h4.32v4.32h.96v-4.32h4.32v-.96h-4.32v-4.32Zm24-24h-.96v4.32h-4.32v.96h4.32v4.32h.96v-4.32h4.32v-.96h-4.32v-4.32Zm0,24h-.96v4.32h-4.32v.96h4.32v4.32h.96v-4.32h4.32v-.96h-4.32v-4.32Zm24-24h-.96v4.32h-4.32v.96h4.32v4.32h.96v-4.32h4.32v-.96h-4.32v-4.32Zm0,24h-.96v4.32h-4.32v.96h4.32v4.32h.96v-4.32h4.32v-.96h-4.32v-4.32ZM581.28,0h-.96v4.32h-4.32v.96h4.32v4.32h.96v-4.32h4.32v-.96h-4.32V0Zm0,24h-.96v4.32h-4.32v.96h4.32v4.32h.96v-4.32h4.32v-.96h-4.32v-4.32Zm24-24h-.96v4.32h-4.32v.96h4.32v4.32h.96v-4.32h4.32v-.96h-4.32V0Zm0,24h-.96v4.32h-4.32v.96h4.32v4.32h.96v-4.32h4.32v-.96h-4.32v-4.32Zm24-24h-.96v4.32h-4.32v.96h4.32v4.32h.96v-4.32h4.32v-.96h-4.32V0Zm0,24h-.96v4.32h-4.32v.96h4.32v4.32h.96v-4.32h4.32v-.96h-4.32v-4.32Zm24-24h-.96v4.32h-4.32v.96h4.32v4.32h.96v-4.32h4.32v-.96h-4.32V0Zm0,24h-.96v4.32h-4.32v.96h4.32v4.32h.96v-4.32h4.32v-.96h-4.32v-4.32Zm-72,24h-.96v4.32h-4.32v.96h4.32v4.32h.96v-4.32h4.32v-.96h-4.32v-4.32Zm0,24h-.96v4.32h-4.32v.96h4.32v4.32h.96v-4.32h4.32v-.96h-4.32v-4.32Zm24-24h-.96v4.32h-4.32v.96h4.32v4.32h.96v-4.32h4.32v-.96h-4.32v-4.32Zm0,24h-.96v4.32h-4.32v.96h4.32v4.32h.96v-4.32h4.32v-.96h-4.32v-4.32Zm24-24h-.96v4.32h-4.32v.96h4.32v4.32h.96v-4.32h4.32v-.96h-4.32v-4.32Zm0,24h-.96v4.32h-4.32v.96h4.32v4.32h.96v-4.32h4.32v-.96h-4.32v-4.32Zm24-24h-.96v4.32h-4.32v.96h4.32v4.32h.96v-4.32h4.32v-.96h-4.32v-4.32Zm0,24h-.96v4.32h-4.32v.96h4.32v4.32h.96v-4.32h4.32v-.96h-4.32v-4.32ZM677.28,0h-.96v4.32h-4.32v.96h4.32v4.32h.96v-4.32h4.32v-.96h-4.32V0Zm0,24h-.96v4.32h-4.32v.96h4.32v4.32h.96v-4.32h4.32v-.96h-4.32v-4.32Zm24-24h-.96v4.32h-4.32v.96h4.32v4.32h.96v-4.32h4.32v-.96h-4.32V0Zm0,24h-.96v4.32h-4.32v.96h4.32v4.32h.96v-4.32h4.32v-.96h-4.32v-4.32Zm24-24h-.96v4.32h-4.32v.96h4.32v4.32h.96v-4.32h4.32v-.96h-4.32V0Zm0,24h-.96v4.32h-4.32v.96h4.32v4.32h.96v-4.32h4.32v-.96h-4.32v-4.32Zm24-24h-.96v4.32h-4.32v.96h4.32v4.32h.96v-4.32h4.32v-.96h-4.32V0Zm0,24h-.96v4.32h-4.32v.96h4.32v4.32h.96v-4.32h4.32v-.96h-4.32v-4.32Zm-72,24h-.96v4.32h-4.32v.96h4.32v4.32h.96v-4.32h4.32v-.96h-4.32v-4.32Zm0,24h-.96v4.32h-4.32v.96h4.32v4.32h.96v-4.32h4.32v-.96h-4.32v-4.32Zm24-24h-.96v4.32h-4.32v.96h4.32v4.32h.96v-4.32h4.32v-.96h-4.32v-4.32Zm0,24h-.96v4.32h-4.32v.96h4.32v4.32h.96v-4.32h4.32v-.96h-4.32v-4.32Zm24-24h-.96v4.32h-4.32v.96h4.32v4.32h.96v-4.32h4.32v-.96h-4.32v-4.32Zm0,24h-.96v4.32h-4.32v.96h4.32v4.32h.96v-4.32h4.32v-.96h-4.32v-4.32Zm24-24h-.96v4.32h-4.32v.96h4.32v4.32h.96v-4.32h4.32v-.96h-4.32v-4.32Zm0,24h-.96v4.32h-4.32v.96h4.32v4.32h.96v-4.32h4.32v-.96h-4.32v-4.32Zm-168,24h-.96v4.32h-4.32v.96h4.32v4.32h.96v-4.32h4.32v-.96h-4.32v-4.32Zm0,24h-.96v4.32h-4.32v.96h4.32v4.32h.96v-4.32h4.32v-.96h-4.32v-4.32Zm24-24h-.96v4.32h-4.32v.96h4.32v4.32h.96v-4.32h4.32v-.96h-4.32v-4.32Zm0,24h-.96v4.32h-4.32v.96h4.32v4.32h.96v-4.32h4.32v-.96h-4.32v-4.32Zm24-24h-.96v4.32h-4.32v.96h4.32v4.32h.96v-4.32h4.32v-.96h-4.32v-4.32Zm0,24h-.96v4.32h-4.32v.96h4.32v4.32h.96v-4.32h4.32v-.96h-4.32v-4.32Zm24-24h-.96v4.32h-4.32v.96h4.32v4.32h.96v-4.32h4.32v-.96h-4.32v-4.32Zm0,24h-.96v4.32h-4.32v.96h4.32v4.32h.96v-4.32h4.32v-.96h-4.32v-4.32Zm-72,24h-.96v4.32h-4.32v.96h4.32v4.32h.96v-4.32h4.32v-.96h-4.32v-4.32Zm0,24h-.96v4.32h-4.32v.96h4.32v4.32h.96v-4.32h4.32v-.96h-4.32v-4.32Zm24-24h-.96v4.32h-4.32v.96h4.32v4.32h.96v-4.32h4.32v-.96h-4.32v-4.32Zm0,24h-.96v4.32h-4.32v.96h4.32v4.32h.96v-4.32h4.32v-.96h-4.32v-4.32Zm24-24h-.96v4.32h-4.32v.96h4.32v4.32h.96v-4.32h4.32v-.96h-4.32v-4.32Zm0,24h-.96v4.32h-4.32v.96h4.32v4.32h.96v-4.32h4.32v-.96h-4.32v-4.32Zm24-24h-.96v4.32h-4.32v.96h4.32v4.32h.96v-4.32h4.32v-.96h-4.32v-4.32Zm0,24h-.96v4.32h-4.32v.96h4.32v4.32h.96v-4.32h4.32v-.96h-4.32v-4.32Zm24-72h-.96v4.32h-4.32v.96h4.32v4.32h.96v-4.32h4.32v-.96h-4.32v-4.32Zm0,24h-.96v4.32h-4.32v.96h4.32v4.32h.96v-4.32h4.32v-.96h-4.32v-4.32Zm24-24h-.96v4.32h-4.32v.96h4.32v4.32h.96v-4.32h4.32v-.96h-4.32v-4.32Zm0,24h-.96v4.32h-4.32v.96h4.32v4.32h.96v-4.32h4.32v-.96h-4.32v-4.32Zm24-24h-.96v4.32h-4.32v.96h4.32v4.32h.96v-4.32h4.32v-.96h-4.32v-4.32Zm0,24h-.96v4.32h-4.32v.96h4.32v4.32h.96v-4.32h4.32v-.96h-4.32v-4.32Zm24-24h-.96v4.32h-4.32v.96h4.32v4.32h.96v-4.32h4.32v-.96h-4.32v-4.32Zm0,24h-.96v4.32h-4.32v.96h4.32v4.32h.96v-4.32h4.32v-.96h-4.32v-4.32Zm-72,24h-.96v4.32h-4.32v.96h4.32v4.32h.96v-4.32h4.32v-.96h-4.32v-4.32Zm0,24h-.96v4.32h-4.32v.96h4.32v4.32h.96v-4.32h4.32v-.96h-4.32v-4.32Zm24-24h-.96v4.32h-4.32v.96h4.32v4.32h.96v-4.32h4.32v-.96h-4.32v-4.32Zm0,24h-.96v4.32h-4.32v.96h4.32v4.32h.96v-4.32h4.32v-.96h-4.32v-4.32Zm24-24h-.96v4.32h-4.32v.96h4.32v4.32h.96v-4.32h4.32v-.96h-4.32v-4.32Zm0,24h-.96v4.32h-4.32v.96h4.32v4.32h.96v-4.32h4.32v-.96h-4.32v-4.32Zm24-24h-.96v4.32h-4.32v.96h4.32v4.32h.96v-4.32h4.32v-.96h-4.32v-4.32Zm0,24h-.96v4.32h-4.32v.96h4.32v4.32h.96v-4.32h4.32v-.96h-4.32v-4.32Zm-360,24h-.96v4.32h-4.32v.96h4.32v4.32h.96v-4.32h4.32v-.96h-4.32v-4.32Zm0,24h-.96v4.32h-4.32v.96h4.32v4.32h.96v-4.32h4.32v-.96h-4.32v-4.32Zm24-24h-.96v4.32h-4.32v.96h4.32v4.32h.96v-4.32h4.32v-.96h-4.32v-4.32Zm0,24h-.96v4.32h-4.32v.96h4.32v4.32h.96v-4.32h4.32v-.96h-4.32v-4.32Zm24-24h-.96v4.32h-4.32v.96h4.32v4.32h.96v-4.32h4.32v-.96h-4.32v-4.32Zm0,24h-.96v4.32h-4.32v.96h4.32v4.32h.96v-4.32h4.32v-.96h-4.32v-4.32Zm24-24h-.96v4.32h-4.32v.96h4.32v4.32h.96v-4.32h4.32v-.96h-4.32v-4.32Zm0,24h-.96v4.32h-4.32v.96h4.32v4.32h.96v-4.32h4.32v-.96h-4.32v-4.32Zm-72,24h-.96v4.32h-4.32v.96h4.32v4.32h.96v-4.32h4.32v-.96h-4.32v-4.32Zm0,24h-.96v4.32h-4.32v.96h4.32v4.32h.96v-4.32h4.32v-.96h-4.32v-4.32Zm24-24h-.96v4.32h-4.32v.96h4.32v4.32h.96v-4.32h4.32v-.96h-4.32v-4.32Zm0,24h-.96v4.32h-4.32v.96h4.32v4.32h.96v-4.32h4.32v-.96h-4.32v-4.32Zm24-24h-.96v4.32h-4.32v.96h4.32v4.32h.96v-4.32h4.32v-.96h-4.32v-4.32Zm0,24h-.96v4.32h-4.32v.96h4.32v4.32h.96v-4.32h4.32v-.96h-4.32v-4.32Zm24-24h-.96v4.32h-4.32v.96h4.32v4.32h.96v-4.32h4.32v-.96h-4.32v-4.32Zm0,24h-.96v4.32h-4.32v.96h4.32v4.32h.96v-4.32h4.32v-.96h-4.32v-4.32Zm24-72h-.96v4.32h-4.32v.96h4.32v4.32h.96v-4.32h4.32v-.96h-4.32v-4.32Zm0,24h-.96v4.32h-4.32v.96h4.32v4.32h.96v-4.32h4.32v-.96h-4.32v-4.32Zm24-24h-.96v4.32h-4.32v.96h4.32v4.32h.96v-4.32h4.32v-.96h-4.32v-4.32Zm0,24h-.96v4.32h-4.32v.96h4.32v4.32h.96v-4.32h4.32v-.96h-4.32v-4.32Zm24-24h-.96v4.32h-4.32v.96h4.32v4.32h.96v-4.32h4.32v-.96h-4.32v-4.32Zm0,24h-.96v4.32h-4.32v.96h4.32v4.32h.96v-4.32h4.32v-.96h-4.32v-4.32Zm24-24h-.96v4.32h-4.32v.96h4.32v4.32h.96v-4.32h4.32v-.96h-4.32v-4.32Zm0,24h-.96v4.32h-4.32v.96h4.32v4.32h.96v-4.32h4.32v-.96h-4.32v-4.32Zm-72,24h-.96v4.32h-4.32v.96h4.32v4.32h.96v-4.32h4.32v-.96h-4.32v-4.32Zm0,24h-.96v4.32h-4.32v.96h4.32v4.32h.96v-4.32h4.32v-.96h-4.32v-4.32Zm24-24h-.96v4.32h-4.32v.96h4.32v4.32h.96v-4.32h4.32v-.96h-4.32v-4.32Zm0,24h-.96v4.32h-4.32v.96h4.32v4.32h.96v-4.32h4.32v-.96h-4.32v-4.32Zm24-24h-.96v4.32h-4.32v.96h4.32v4.32h.96v-4.32h4.32v-.96h-4.32v-4.32Zm0,24h-.96v4.32h-4.32v.96h4.32v4.32h.96v-4.32h4.32v-.96h-4.32v-4.32Zm24-24h-.96v4.32h-4.32v.96h4.32v4.32h.96v-4.32h4.32v-.96h-4.32v-4.32Zm0,24h-.96v4.32h-4.32v.96h4.32v4.32h.96v-4.32h4.32v-.96h-4.32v-4.32Zm-168,24h-.96v4.32h-4.32v.96h4.32v4.32h.96v-4.32h4.32v-.96h-4.32v-4.32Zm0,24h-.96v4.32h-4.32v.96h4.32v4.32h.96v-4.32h4.32v-.96h-4.32v-4.32Zm24-24h-.96v4.32h-4.32v.96h4.32v4.32h.96v-4.32h4.32v-.96h-4.32v-4.32Zm0,24h-.96v4.32h-4.32v.96h4.32v4.32h.96v-4.32h4.32v-.96h-4.32v-4.32Zm24-24h-.96v4.32h-4.32v.96h4.32v4.32h.96v-4.32h4.32v-.96h-4.32v-4.32Zm0,24h-.96v4.32h-4.32v.96h4.32v4.32h.96v-4.32h4.32v-.96h-4.32v-4.32Zm24-24h-.96v4.32h-4.32v.96h4.32v4.32h.96v-4.32h4.32v-.96h-4.32v-4.32Zm0,24h-.96v4.32h-4.32v.96h4.32v4.32h.96v-4.32h4.32v-.96h-4.32v-4.32Zm-72,24h-.96v4.32h-4.32v.96h4.32v4.32h.96v-4.32h4.32v-.96h-4.32v-4.32Zm0,24h-.96v4.32h-4.32v.96h4.32v4.32h.96v-4.32h4.32v-.96h-4.32v-4.32Zm24-24h-.96v4.32h-4.32v.96h4.32v4.32h.96v-4.32h4.32v-.96h-4.32v-4.32Zm0,24h-.96v4.32h-4.32v.96h4.32v4.32h.96v-4.32h4.32v-.96h-4.32v-4.32Zm24-24h-.96v4.32h-4.32v.96h4.32v4.32h.96v-4.32h4.32v-.96h-4.32v-4.32Zm0,24h-.96v4.32h-4.32v.96h4.32v4.32h.96v-4.32h4.32v-.96h-4.32v-4.32Zm24-24h-.96v4.32h-4.32v.96h4.32v4.32h.96v-4.32h4.32v-.96h-4.32v-4.32Zm0,24h-.96v4.32h-4.32v.96h4.32v4.32h.96v-4.32h4.32v-.96h-4.32v-4.32Zm24-72h-.96v4.32h-4.32v.96h4.32v4.32h.96v-4.32h4.32v-.96h-4.32v-4.32Zm0,24h-.96v4.32h-4.32v.96h4.32v4.32h.96v-4.32h4.32v-.96h-4.32v-4.32Zm24-24h-.96v4.32h-4.32v.96h4.32v4.32h.96v-4.32h4.32v-.96h-4.32v-4.32Zm0,24h-.96v4.32h-4.32v.96h4.32v4.32h.96v-4.32h4.32v-.96h-4.32v-4.32Zm24-24h-.96v4.32h-4.32v.96h4.32v4.32h.96v-4.32h4.32v-.96h-4.32v-4.32Zm0,24h-.96v4.32h-4.32v.96h4.32v4.32h.96v-4.32h4.32v-.96h-4.32v-4.32Zm24-24h-.96v4.32h-4.32v.96h4.32v4.32h.96v-4.32h4.32v-.96h-4.32v-4.32Zm0,24h-.96v4.32h-4.32v.96h4.32v4.32h.96v-4.32h4.32v-.96h-4.32v-4.32Zm-72,24h-.96v4.32h-4.32v.96h4.32v4.32h.96v-4.32h4.32v-.96h-4.32v-4.32Zm0,24h-.96v4.32h-4.32v.96h4.32v4.32h.96v-4.32h4.32v-.96h-4.32v-4.32Zm24-24h-.96v4.32h-4.32v.96h4.32v4.32h.96v-4.32h4.32v-.96h-4.32v-4.32Zm0,24h-.96v4.32h-4.32v.96h4.32v4.32h.96v-4.32h4.32v-.96h-4.32v-4.32Zm24-24h-.96v4.32h-4.32v.96h4.32v4.32h.96v-4.32h4.32v-.96h-4.32v-4.32Zm0,24h-.96v4.32h-4.32v.96h4.32v4.32h.96v-4.32h4.32v-.96h-4.32v-4.32Zm24-24h-.96v4.32h-4.32v.96h4.32v4.32h.96v-4.32h4.32v-.96h-4.32v-4.32Zm0,24h-.96v4.32h-4.32v.96h4.32v4.32h.96v-4.32h4.32v-.96h-4.32v-4.32Zm24-168h-.96v4.32h-4.32v.96h4.32v4.32h.96v-4.32h4.32v-.96h-4.32v-4.32Zm0,24h-.96v4.32h-4.32v.96h4.32v4.32h.96v-4.32h4.32v-.96h-4.32v-4.32Zm24-24h-.96v4.32h-4.32v.96h4.32v4.32h.96v-4.32h4.32v-.96h-4.32v-4.32Zm0,24h-.96v4.32h-4.32v.96h4.32v4.32h.96v-4.32h4.32v-.96h-4.32v-4.32Zm24-24h-.96v4.32h-4.32v.96h4.32v4.32h.96v-4.32h4.32v-.96h-4.32v-4.32Zm0,24h-.96v4.32h-4.32v.96h4.32v4.32h.96v-4.32h4.32v-.96h-4.32v-4.32Zm24-24h-.96v4.32h-4.32v.96h4.32v4.32h.96v-4.32h4.32v-.96h-4.32v-4.32Zm0,24h-.96v4.32h-4.32v.96h4.32v4.32h.96v-4.32h4.32v-.96h-4.32v-4.32Zm-72,24h-.96v4.32h-4.32v.96h4.32v4.32h.96v-4.32h4.32v-.96h-4.32v-4.32Zm0,24h-.96v4.32h-4.32v.96h4.32v4.32h.96v-4.32h4.32v-.96h-4.32v-4.32Zm24-24h-.96v4.32h-4.32v.96h4.32v4.32h.96v-4.32h4.32v-.96h-4.32v-4.32Zm0,24h-.96v4.32h-4.32v.96h4.32v4.32h.96v-4.32h4.32v-.96h-4.32v-4.32Zm24-24h-.96v4.32h-4.32v.96h4.32v4.32h.96v-4.32h4.32v-.96h-4.32v-4.32Zm0,24h-.96v4.32h-4.32v.96h4.32v4.32h.96v-4.32h4.32v-.96h-4.32v-4.32Zm24-24h-.96v4.32h-4.32v.96h4.32v4.32h.96v-4.32h4.32v-.96h-4.32v-4.32Zm0,24h-.96v4.32h-4.32v.96h4.32v4.32h.96v-4.32h4.32v-.96h-4.32v-4.32Zm24-72h-.96v4.32h-4.32v.96h4.32v4.32h.96v-4.32h4.32v-.96h-4.32v-4.32Zm0,24h-.96v4.32h-4.32v.96h4.32v4.32h.96v-4.32h4.32v-.96h-4.32v-4.32Zm24-24h-.96v4.32h-4.32v.96h4.32v4.32h.96v-4.32h4.32v-.96h-4.32v-4.32Zm0,24h-.96v4.32h-4.32v.96h4.32v4.32h.96v-4.32h4.32v-.96h-4.32v-4.32Zm24-24h-.96v4.32h-4.32v.96h4.32v4.32h.96v-4.32h4.32v-.96h-4.32v-4.32Zm0,24h-.96v4.32h-4.32v.96h4.32v4.32h.96v-4.32h4.32v-.96h-4.32v-4.32Zm24-24h-.96v4.32h-4.32v.96h4.32v4.32h.96v-4.32h4.32v-.96h-4.32v-4.32Zm0,24h-.96v4.32h-4.32v.96h4.32v4.32h.96v-4.32h4.32v-.96h-4.32v-4.32Zm-72,24h-.96v4.32h-4.32v.96h4.32v4.32h.96v-4.32h4.32v-.96h-4.32v-4.32Zm0,24h-.96v4.32h-4.32v.96h4.32v4.32h.96v-4.32h4.32v-.96h-4.32v-4.32Zm24-24h-.96v4.32h-4.32v.96h4.32v4.32h.96v-4.32h4.32v-.96h-4.32v-4.32Zm0,24h-.96v4.32h-4.32v.96h4.32v4.32h.96v-4.32h4.32v-.96h-4.32v-4.32Zm24-24h-.96v4.32h-4.32v.96h4.32v4.32h.96v-4.32h4.32v-.96h-4.32v-4.32Zm0,24h-.96v4.32h-4.32v.96h4.32v4.32h.96v-4.32h4.32v-.96h-4.32v-4.32Zm24-24h-.96v4.32h-4.32v.96h4.32v4.32h.96v-4.32h4.32v-.96h-4.32v-4.32Zm0,24h-.96v4.32h-4.32v.96h4.32v4.32h.96v-4.32h4.32v-.96h-4.32v-4.32Zm-168,24h-.96v4.32h-4.32v.96h4.32v4.32h.96v-4.32h4.32v-.96h-4.32v-4.32Zm0,24h-.96v4.32h-4.32v.96h4.32v4.32h.96v-4.32h4.32v-.96h-4.32v-4.32Zm24-24h-.96v4.32h-4.32v.96h4.32v4.32h.96v-4.32h4.32v-.96h-4.32v-4.32Zm0,24h-.96v4.32h-4.32v.96h4.32v4.32h.96v-4.32h4.32v-.96h-4.32v-4.32Zm24-24h-.96v4.32h-4.32v.96h4.32v4.32h.96v-4.32h4.32v-.96h-4.32v-4.32Zm0,24h-.96v4.32h-4.32v.96h4.32v4.32h.96v-4.32h4.32v-.96h-4.32v-4.32Zm24-24h-.96v4.32h-4.32v.96h4.32v4.32h.96v-4.32h4.32v-.96h-4.32v-4.32Zm0,24h-.96v4.32h-4.32v.96h4.32v4.32h.96v-4.32h4.32v-.96h-4.32v-4.32Zm-72,24h-.96v4.32h-4.32v.96h4.32v4.32h.96v-4.32h4.32v-.96h-4.32v-4.32Zm0,24h-.96v4.32h-4.32v.96h4.32v4.32h.96v-4.32h4.32v-.96h-4.32v-4.32Zm24-24h-.96v4.32h-4.32v.96h4.32v4.32h.96v-4.32h4.32v-.96h-4.32v-4.32Zm0,24h-.96v4.32h-4.32v.96h4.32v4.32h.96v-4.32h4.32v-.96h-4.32v-4.32Zm24-24h-.96v4.32h-4.32v.96h4.32v4.32h.96v-4.32h4.32v-.96h-4.32v-4.32Zm0,24h-.96v4.32h-4.32v.96h4.32v4.32h.96v-4.32h4.32v-.96h-4.32v-4.32Zm24-24h-.96v4.32h-4.32v.96h4.32v4.32h.96v-4.32h4.32v-.96h-4.32v-4.32Zm0,24h-.96v4.32h-4.32v.96h4.32v4.32h.96v-4.32h4.32v-.96h-4.32v-4.32Zm24-72h-.96v4.32h-4.32v.96h4.32v4.32h.96v-4.32h4.32v-.96h-4.32v-4.32Zm0,24h-.96v4.32h-4.32v.96h4.32v4.32h.96v-4.32h4.32v-.96h-4.32v-4.32Zm24-24h-.96v4.32h-4.32v.96h4.32v4.32h.96v-4.32h4.32v-.96h-4.32v-4.32Zm0,24h-.96v4.32h-4.32v.96h4.32v4.32h.96v-4.32h4.32v-.96h-4.32v-4.32Zm24-24h-.96v4.32h-4.32v.96h4.32v4.32h.96v-4.32h4.32v-.96h-4.32v-4.32Zm0,24h-.96v4.32h-4.32v.96h4.32v4.32h.96v-4.32h4.32v-.96h-4.32v-4.32Zm24-24h-.96v4.32h-4.32v.96h4.32v4.32h.96v-4.32h4.32v-.96h-4.32v-4.32Zm0,24h-.96v4.32h-4.32v.96h4.32v4.32h.96v-4.32h4.32v-.96h-4.32v-4.32Zm-72,24h-.96v4.32h-4.32v.96h4.32v4.32h.96v-4.32h4.32v-.96h-4.32v-4.32Zm0,24h-.96v4.32h-4.32v.96h4.32v4.32h.96v-4.32h4.32v-.96h-4.32v-4.32Zm24-24h-.96v4.32h-4.32v.96h4.32v4.32h.96v-4.32h4.32v-.96h-4.32v-4.32Zm0,24h-.96v4.32h-4.32v.96h4.32v4.32h.96v-4.32h4.32v-.96h-4.32v-4.32Zm24-24h-.96v4.32h-4.32v.96h4.32v4.32h.96v-4.32h4.32v-.96h-4.32v-4.32Zm0,24h-.96v4.32h-4.32v.96h4.32v4.32h.96v-4.32h4.32v-.96h-4.32v-4.32Zm24-24h-.96v4.32h-4.32v.96h4.32v4.32h.96v-4.32h4.32v-.96h-4.32v-4.32Zm0,24h-.96v4.32h-4.32v.96h4.32v4.32h.96v-4.32h4.32v-.96h-4.32v-4.32Zm-360,24h-.96v4.32h-4.32v.96h4.32v4.32h.96v-4.32h4.32v-.96h-4.32v-4.32Zm0,24h-.96v4.32h-4.32v.96h4.32v4.32h.96v-4.32h4.32v-.96h-4.32v-4.32Zm24-24h-.96v4.32h-4.32v.96h4.32v4.32h.96v-4.32h4.32v-.96h-4.32v-4.32Zm0,24h-.96v4.32h-4.32v.96h4.32v4.32h.96v-4.32h4.32v-.96h-4.32v-4.32Zm24-24h-.96v4.32h-4.32v.96h4.32v4.32h.96v-4.32h4.32v-.96h-4.32v-4.32Zm0,24h-.96v4.32h-4.32v.96h4.32v4.32h.96v-4.32h4.32v-.96h-4.32v-4.32Zm24-24h-.96v4.32h-4.32v.96h4.32v4.32h.96v-4.32h4.32v-.96h-4.32v-4.32Zm0,24h-.96v4.32h-4.32v.96h4.32v4.32h.96v-4.32h4.32v-.96h-4.32v-4.32Zm-72,24h-.96v4.32h-4.32v.96h4.32v4.32h.96v-4.32h4.32v-.96h-4.32v-4.32Zm0,24h-.96v4.32h-4.32v.96h4.32v4.32h.96v-4.32h4.32v-.96h-4.32v-4.32Zm24-24h-.96v4.32h-4.32v.96h4.32v4.32h.96v-4.32h4.32v-.96h-4.32v-4.32Zm0,24h-.96v4.32h-4.32v.96h4.32v4.32h.96v-4.32h4.32v-.96h-4.32v-4.32Zm24-24h-.96v4.32h-4.32v.96h4.32v4.32h.96v-4.32h4.32v-.96h-4.32v-4.32Zm0,24h-.96v4.32h-4.32v.96h4.32v4.32h.96v-4.32h4.32v-.96h-4.32v-4.32Zm24-24h-.96v4.32h-4.32v.96h4.32v4.32h.96v-4.32h4.32v-.96h-4.32v-4.32Zm0,24h-.96v4.32h-4.32v.96h4.32v4.32h.96v-4.32h4.32v-.96h-4.32v-4.32Zm24-72h-.96v4.32h-4.32v.96h4.32v4.32h.96v-4.32h4.32v-.96h-4.32v-4.32Zm0,24h-.96v4.32h-4.32v.96h4.32v4.32h.96v-4.32h4.32v-.96h-4.32v-4.32Zm24-24h-.96v4.32h-4.32v.96h4.32v4.32h.96v-4.32h4.32v-.96h-4.32v-4.32Zm0,24h-.96v4.32h-4.32v.96h4.32v4.32h.96v-4.32h4.32v-.96h-4.32v-4.32Zm24-24h-.96v4.32h-4.32v.96h4.32v4.32h.96v-4.32h4.32v-.96h-4.32v-4.32Zm0,24h-.96v4.32h-4.32v.96h4.32v4.32h.96v-4.32h4.32v-.96h-4.32v-4.32Zm24-24h-.96v4.32h-4.32v.96h4.32v4.32h.96v-4.32h4.32v-.96h-4.32v-4.32Zm0,24h-.96v4.32h-4.32v.96h4.32v4.32h.96v-4.32h4.32v-.96h-4.32v-4.32Zm-72,24h-.96v4.32h-4.32v.96h4.32v4.32h.96v-4.32h4.32v-.96h-4.32v-4.32Zm0,24h-.96v4.32h-4.32v.96h4.32v4.32h.96v-4.32h4.32v-.96h-4.32v-4.32Zm24-24h-.96v4.32h-4.32v.96h4.32v4.32h.96v-4.32h4.32v-.96h-4.32v-4.32Zm0,24h-.96v4.32h-4.32v.96h4.32v4.32h.96v-4.32h4.32v-.96h-4.32v-4.32Zm24-24h-.96v4.32h-4.32v.96h4.32v4.32h.96v-4.32h4.32v-.96h-4.32v-4.32Zm0,24h-.96v4.32h-4.32v.96h4.32v4.32h.96v-4.32h4.32v-.96h-4.32v-4.32Zm24-24h-.96v4.32h-4.32v.96h4.32v4.32h.96v-4.32h4.32v-.96h-4.32v-4.32Zm0,24h-.96v4.32h-4.32v.96h4.32v4.32h.96v-4.32h4.32v-.96h-4.32v-4.32Zm-168,24h-.96v4.32h-4.32v.96h4.32v4.32h.96v-4.32h4.32v-.96h-4.32v-4.32Zm0,24h-.96v4.32h-4.32v.96h4.32v4.32h.96v-4.32h4.32v-.96h-4.32v-4.32Zm24-24h-.96v4.32h-4.32v.96h4.32v4.32h.96v-4.32h4.32v-.96h-4.32v-4.32Zm0,24h-.96v4.32h-4.32v.96h4.32v4.32h.96v-4.32h4.32v-.96h-4.32v-4.32Zm24-24h-.96v4.32h-4.32v.96h4.32v4.32h.96v-4.32h4.32v-.96h-4.32v-4.32Zm0,24h-.96v4.32h-4.32v.96h4.32v4.32h.96v-4.32h4.32v-.96h-4.32v-4.32Zm24-24h-.96v4.32h-4.32v.96h4.32v4.32h.96v-4.32h4.32v-.96h-4.32v-4.32Zm0,24h-.96v4.32h-4.32v.96h4.32v4.32h.96v-4.32h4.32v-.96h-4.32v-4.32Zm-72,24h-.96v4.32h-4.32v.96h4.32v4.32h.96v-4.32h4.32v-.96h-4.32v-4.32Zm0,24h-.96v4.32h-4.32v.96h4.32v4.32h.96v-4.32h4.32v-.96h-4.32v-4.32Zm24-24h-.96v4.32h-4.32v.96h4.32v4.32h.96v-4.32h4.32v-.96h-4.32v-4.32Zm0,24h-.96v4.32h-4.32v.96h4.32v4.32h.96v-4.32h4.32v-.96h-4.32v-4.32Zm24-24h-.96v4.32h-4.32v.96h4.32v4.32h.96v-4.32h4.32v-.96h-4.32v-4.32Zm0,24h-.96v4.32h-4.32v.96h4.32v4.32h.96v-4.32h4.32v-.96h-4.32v-4.32Zm24-24h-.96v4.32h-4.32v.96h4.32v4.32h.96v-4.32h4.32v-.96h-4.32v-4.32Zm0,24h-.96v4.32h-4.32v.96h4.32v4.32h.96v-4.32h4.32v-.96h-4.32v-4.32Zm24-72h-.96v4.32h-4.32v.96h4.32v4.32h.96v-4.32h4.32v-.96h-4.32v-4.32Zm0,24h-.96v4.32h-4.32v.96h4.32v4.32h.96v-4.32h4.32v-.96h-4.32v-4.32Zm24-24h-.96v4.32h-4.32v.96h4.32v4.32h.96v-4.32h4.32v-.96h-4.32v-4.32Zm0,24h-.96v4.32h-4.32v.96h4.32v4.32h.96v-4.32h4.32v-.96h-4.32v-4.32Zm24-24h-.96v4.32h-4.32v.96h4.32v4.32h.96v-4.32h4.32v-.96h-4.32v-4.32Zm0,24h-.96v4.32h-4.32v.96h4.32v4.32h.96v-4.32h4.32v-.96h-4.32v-4.32Zm24-24h-.96v4.32h-4.32v.96h4.32v4.32h.96v-4.32h4.32v-.96h-4.32v-4.32Zm0,24h-.96v4.32h-4.32v.96h4.32v4.32h.96v-4.32h4.32v-.96h-4.32v-4.32Zm-72,24h-.96v4.32h-4.32v.96h4.32v4.32h.96v-4.32h4.32v-.96h-4.32v-4.32Zm0,24h-.96v4.32h-4.32v.96h4.32v4.32h.96v-4.32h4.32v-.96h-4.32v-4.32Zm24-24h-.96v4.32h-4.32v.96h4.32v4.32h.96v-4.32h4.32v-.96h-4.32v-4.32Zm0,24h-.96v4.32h-4.32v.96h4.32v4.32h.96v-4.32h4.32v-.96h-4.32v-4.32Zm24-24h-.96v4.32h-4.32v.96h4.32v4.32h.96v-4.32h4.32v-.96h-4.32v-4.32Zm0,24h-.96v4.32h-4.32v.96h4.32v4.32h.96v-4.32h4.32v-.96h-4.32v-4.32Zm24-24h-.96v4.32h-4.32v.96h4.32v4.32h.96v-4.32h4.32v-.96h-4.32v-4.32Zm0,24h-.96v4.32h-4.32v.96h4.32v4.32h.96v-4.32h4.32v-.96h-4.32v-4.32Zm24-168h-.96v4.32h-4.32v.96h4.32v4.32h.96v-4.32h4.32v-.96h-4.32v-4.32Zm0,24h-.96v4.32h-4.32v.96h4.32v4.32h.96v-4.32h4.32v-.96h-4.32v-4.32Zm24-24h-.96v4.32h-4.32v.96h4.32v4.32h.96v-4.32h4.32v-.96h-4.32v-4.32Zm0,24h-.96v4.32h-4.32v.96h4.32v4.32h.96v-4.32h4.32v-.96h-4.32v-4.32Zm24-24h-.96v4.32h-4.32v.96h4.32v4.32h.96v-4.32h4.32v-.96h-4.32v-4.32Zm0,24h-.96v4.32h-4.32v.96h4.32v4.32h.96v-4.32h4.32v-.96h-4.32v-4.32Zm24-24h-.96v4.32h-4.32v.96h4.32v4.32h.96v-4.32h4.32v-.96h-4.32v-4.32Zm0,24h-.96v4.32h-4.32v.96h4.32v4.32h.96v-4.32h4.32v-.96h-4.32v-4.32Zm-72,24h-.96v4.32h-4.32v.96h4.32v4.32h.96v-4.32h4.32v-.96h-4.32v-4.32Zm0,24h-.96v4.32h-4.32v.96h4.32v4.32h.96v-4.32h4.32v-.96h-4.32v-4.32Zm24-24h-.96v4.32h-4.32v.96h4.32v4.32h.96v-4.32h4.32v-.96h-4.32v-4.32Zm0,24h-.96v4.32h-4.32v.96h4.32v4.32h.96v-4.32h4.32v-.96h-4.32v-4.32Zm24-24h-.96v4.32h-4.32v.96h4.32v4.32h.96v-4.32h4.32v-.96h-4.32v-4.32Zm0,24h-.96v4.32h-4.32v.96h4.32v4.32h.96v-4.32h4.32v-.96h-4.32v-4.32Zm24-24h-.96v4.32h-4.32v.96h4.32v4.32h.96v-4.32h4.32v-.96h-4.32v-4.32Zm0,24h-.96v4.32h-4.32v.96h4.32v4.32h.96v-4.32h4.32v-.96h-4.32v-4.32Zm24-72h-.96v4.32h-4.32v.96h4.32v4.32h.96v-4.32h4.32v-.96h-4.32v-4.32Zm0,24h-.96v4.32h-4.32v.96h4.32v4.32h.96v-4.32h4.32v-.96h-4.32v-4.32Zm24-24h-.96v4.32h-4.32v.96h4.32v4.32h.96v-4.32h4.32v-.96h-4.32v-4.32Zm0,24h-.96v4.32h-4.32v.96h4.32v4.32h.96v-4.32h4.32v-.96h-4.32v-4.32Zm24-24h-.96v4.32h-4.32v.96h4.32v4.32h.96v-4.32h4.32v-.96h-4.32v-4.32Zm0,24h-.96v4.32h-4.32v.96h4.32v4.32h.96v-4.32h4.32v-.96h-4.32v-4.32Zm24-24h-.96v4.32h-4.32v.96h4.32v4.32h.96v-4.32h4.32v-.96h-4.32v-4.32Zm0,24h-.96v4.32h-4.32v.96h4.32v4.32h.96v-4.32h4.32v-.96h-4.32v-4.32Zm-72,24h-.96v4.32h-4.32v.96h4.32v4.32h.96v-4.32h4.32v-.96h-4.32v-4.32Zm0,24h-.96v4.32h-4.32v.96h4.32v4.32h.96v-4.32h4.32v-.96h-4.32v-4.32Zm24-24h-.96v4.32h-4.32v.96h4.32v4.32h.96v-4.32h4.32v-.96h-4.32v-4.32Zm0,24h-.96v4.32h-4.32v.96h4.32v4.32h.96v-4.32h4.32v-.96h-4.32v-4.32Zm24-24h-.96v4.32h-4.32v.96h4.32v4.32h.96v-4.32h4.32v-.96h-4.32v-4.32Zm0,24h-.96v4.32h-4.32v.96h4.32v4.32h.96v-4.32h4.32v-.96h-4.32v-4.32Zm24-24h-.96v4.32h-4.32v.96h4.32v4.32h.96v-4.32h4.32v-.96h-4.32v-4.32Zm0,24h-.96v4.32h-4.32v.96h4.32v4.32h.96v-4.32h4.32v-.96h-4.32v-4.32Zm-168,24h-.96v4.32h-4.32v.96h4.32v4.32h.96v-4.32h4.32v-.96h-4.32v-4.32Zm0,24h-.96v4.32h-4.32v.96h4.32v4.32h.96v-4.32h4.32v-.96h-4.32v-4.32Zm24-24h-.96v4.32h-4.32v.96h4.32v4.32h.96v-4.32h4.32v-.96h-4.32v-4.32Zm0,24h-.96v4.32h-4.32v.96h4.32v4.32h.96v-4.32h4.32v-.96h-4.32v-4.32Zm24-24h-.96v4.32h-4.32v.96h4.32v4.32h.96v-4.32h4.32v-.96h-4.32v-4.32Zm0,24h-.96v4.32h-4.32v.96h4.32v4.32h.96v-4.32h4.32v-.96h-4.32v-4.32Zm24-24h-.96v4.32h-4.32v.96h4.32v4.32h.96v-4.32h4.32v-.96h-4.32v-4.32Zm0,24h-.96v4.32h-4.32v.96h4.32v4.32h.96v-4.32h4.32v-.96h-4.32v-4.32Zm-72,24h-.96v4.32h-4.32v.96h4.32v4.32h.96v-4.32h4.32v-.96h-4.32v-4.32Zm0,24h-.96v4.32h-4.32v.96h4.32v4.32h.96v-4.32h4.32v-.96h-4.32v-4.32Zm24-24h-.96v4.32h-4.32v.96h4.32v4.32h.96v-4.32h4.32v-.96h-4.32v-4.32Zm0,24h-.96v4.32h-4.32v.96h4.32v4.32h.96v-4.32h4.32v-.96h-4.32v-4.32Zm24-24h-.96v4.32h-4.32v.96h4.32v4.32h.96v-4.32h4.32v-.96h-4.32v-4.32Zm0,24h-.96v4.32h-4.32v.96h4.32v4.32h.96v-4.32h4.32v-.96h-4.32v-4.32Zm24-24h-.96v4.32h-4.32v.96h4.32v4.32h.96v-4.32h4.32v-.96h-4.32v-4.32Zm0,24h-.96v4.32h-4.32v.96h4.32v4.32h.96v-4.32h4.32v-.96h-4.32v-4.32Zm24-72h-.96v4.32h-4.32v.96h4.32v4.32h.96v-4.32h4.32v-.96h-4.32v-4.32Zm0,24h-.96v4.32h-4.32v.96h4.32v4.32h.96v-4.32h4.32v-.96h-4.32v-4.32Zm24-24h-.96v4.32h-4.32v.96h4.32v4.32h.96v-4.32h4.32v-.96h-4.32v-4.32Zm0,24h-.96v4.32h-4.32v.96h4.32v4.32h.96v-4.32h4.32v-.96h-4.32v-4.32Zm24-24h-.96v4.32h-4.32v.96h4.32v4.32h.96v-4.32h4.32v-.96h-4.32v-4.32Zm0,24h-.96v4.32h-4.32v.96h4.32v4.32h.96v-4.32h4.32v-.96h-4.32v-4.32Zm24-24h-.96v4.32h-4.32v.96h4.32v4.32h.96v-4.32h4.32v-.96h-4.32v-4.32Zm0,24h-.96v4.32h-4.32v.96h4.32v4.32h.96v-4.32h4.32v-.96h-4.32v-4.32Zm-72,24h-.96v4.32h-4.32v.96h4.32v4.32h.96v-4.32h4.32v-.96h-4.32v-4.32Zm0,24h-.96v4.32h-4.32v.96h4.32v4.32h.96v-4.32h4.32v-.96h-4.32v-4.32Zm24-24h-.96v4.32h-4.32v.96h4.32v4.32h.96v-4.32h4.32v-.96h-4.32v-4.32Zm0,24h-.96v4.32h-4.32v.96h4.32v4.32h.96v-4.32h4.32v-.96h-4.32v-4.32Zm24-24h-.96v4.32h-4.32v.96h4.32v4.32h.96v-4.32h4.32v-.96h-4.32v-4.32Zm0,24h-.96v4.32h-4.32v.96h4.32v4.32h.96v-4.32h4.32v-.96h-4.32v-4.32Zm24-24h-.96v4.32h-4.32v.96h4.32v4.32h.96v-4.32h4.32v-.96h-4.32v-4.32Zm0,24h-.96v4.32h-4.32v.96h4.32v4.32h.96v-4.32h4.32v-.96h-4.32v-4.32Zm-360,24h-.96v4.32h-4.32v.96h4.32v4.32h.96v-4.32h4.32v-.96h-4.32v-4.32Zm0,24h-.96v4.32h-4.32v.96h4.32v4.32h.96v-4.32h4.32v-.96h-4.32v-4.32Zm24-24h-.96v4.32h-4.32v.96h4.32v4.32h.96v-4.32h4.32v-.96h-4.32v-4.32Zm0,24h-.96v4.32h-4.32v.96h4.32v4.32h.96v-4.32h4.32v-.96h-4.32v-4.32Zm24-24h-.96v4.32h-4.32v.96h4.32v4.32h.96v-4.32h4.32v-.96h-4.32v-4.32Zm0,24h-.96v4.32h-4.32v.96h4.32v4.32h.96v-4.32h4.32v-.96h-4.32v-4.32Zm24-24h-.96v4.32h-4.32v.96h4.32v4.32h.96v-4.32h4.32v-.96h-4.32v-4.32Zm0,24h-.96v4.32h-4.32v.96h4.32v4.32h.96v-4.32h4.32v-.96h-4.32v-4.32Zm-72,24h-.96v4.32h-4.32v.96h4.32v4.32h.96v-4.32h4.32v-.96h-4.32v-4.32Zm0,24h-.96v4.32h-4.32v.96h4.32v4.32h.96v-4.32h4.32v-.96h-4.32v-4.32Zm24-24h-.96v4.32h-4.32v.96h4.32v4.32h.96v-4.32h4.32v-.96h-4.32v-4.32Zm0,24h-.96v4.32h-4.32v.96h4.32v4.32h.96v-4.32h4.32v-.96h-4.32v-4.32Zm24-24h-.96v4.32h-4.32v.96h4.32v4.32h.96v-4.32h4.32v-.96h-4.32v-4.32Zm0,24h-.96v4.32h-4.32v.96h4.32v4.32h.96v-4.32h4.32v-.96h-4.32v-4.32Zm24-24h-.96v4.32h-4.32v.96h4.32v4.32h.96v-4.32h4.32v-.96h-4.32v-4.32Zm0,24h-.96v4.32h-4.32v.96h4.32v4.32h.96v-4.32h4.32v-.96h-4.32v-4.32Zm24-72h-.96v4.32h-4.32v.96h4.32v4.32h.96v-4.32h4.32v-.96h-4.32v-4.32Zm0,24h-.96v4.32h-4.32v.96h4.32v4.32h.96v-4.32h4.32v-.96h-4.32v-4.32Zm24-24h-.96v4.32h-4.32v.96h4.32v4.32h.96v-4.32h4.32v-.96h-4.32v-4.32Zm0,24h-.96v4.32h-4.32v.96h4.32v4.32h.96v-4.32h4.32v-.96h-4.32v-4.32Zm24-24h-.96v4.32h-4.32v.96h4.32v4.32h.96v-4.32h4.32v-.96h-4.32v-4.32Zm0,24h-.96v4.32h-4.32v.96h4.32v4.32h.96v-4.32h4.32v-.96h-4.32v-4.32Zm24-24h-.96v4.32h-4.32v.96h4.32v4.32h.96v-4.32h4.32v-.96h-4.32v-4.32Zm0,24h-.96v4.32h-4.32v.96h4.32v4.32h.96v-4.32h4.32v-.96h-4.32v-4.32Zm-72,24h-.96v4.32h-4.32v.96h4.32v4.32h.96v-4.32h4.32v-.96h-4.32v-4.32Zm0,24h-.96v4.32h-4.32v.96h4.32v4.32h.96v-4.32h4.32v-.96h-4.32v-4.32Zm24-24h-.96v4.32h-4.32v.96h4.32v4.32h.96v-4.32h4.32v-.96h-4.32v-4.32Zm0,24h-.96v4.32h-4.32v.96h4.32v4.32h.96v-4.32h4.32v-.96h-4.32v-4.32Zm24-24h-.96v4.32h-4.32v.96h4.32v4.32h.96v-4.32h4.32v-.96h-4.32v-4.32Zm0,24h-.96v4.32h-4.32v.96h4.32v4.32h.96v-4.32h4.32v-.96h-4.32v-4.32Zm24-24h-.96v4.32h-4.32v.96h4.32v4.32h.96v-4.32h4.32v-.96h-4.32v-4.32Zm0,24h-.96v4.32h-4.32v.96h4.32v4.32h.96v-4.32h4.32v-.96h-4.32v-4.32Zm-168,24h-.96v4.32h-4.32v.96h4.32v4.32h.96v-4.32h4.32v-.96h-4.32v-4.32Zm0,24h-.96v4.32h-4.32v.96h4.32v4.32h.96v-4.32h4.32v-.96h-4.32v-4.32Zm24-24h-.96v4.32h-4.32v.96h4.32v4.32h.96v-4.32h4.32v-.96h-4.32v-4.32Zm0,24h-.96v4.32h-4.32v.96h4.32v4.32h.96v-4.32h4.32v-.96h-4.32v-4.32Zm24-24h-.96v4.32h-4.32v.96h4.32v4.32h.96v-4.32h4.32v-.96h-4.32v-4.32Zm0,24h-.96v4.32h-4.32v.96h4.32v4.32h.96v-4.32h4.32v-.96h-4.32v-4.32Zm24-24h-.96v4.32h-4.32v.96h4.32v4.32h.96v-4.32h4.32v-.96h-4.32v-4.32Zm0,24h-.96v4.32h-4.32v.96h4.32v4.32h.96v-4.32h4.32v-.96h-4.32v-4.32Zm-72,24h-.96v4.32h-4.32v.96h4.32v4.32h.96v-4.32h4.32v-.96h-4.32v-4.32Zm24,0h-.96v4.32h-4.32v.96h4.32v4.32h.96v-4.32h4.32v-.96h-4.32v-4.32Zm24,0h-.96v4.32h-4.32v.96h4.32v4.32h.96v-4.32h4.32v-.96h-4.32v-4.32Zm24,0h-.96v4.32h-4.32v.96h4.32v4.32h.96v-4.32h4.32v-.96h-4.32v-4.32Zm24-48h-.96v4.32h-4.32v.96h4.32v4.32h.96v-4.32h4.32v-.96h-4.32v-4.32Zm0,24h-.96v4.32h-4.32v.96h4.32v4.32h.96v-4.32h4.32v-.96h-4.32v-4.32Zm24-24h-.96v4.32h-4.32v.96h4.32v4.32h.96v-4.32h4.32v-.96h-4.32v-4.32Zm0,24h-.96v4.32h-4.32v.96h4.32v4.32h.96v-4.32h4.32v-.96h-4.32v-4.32Zm24-24h-.96v4.32h-4.32v.96h4.32v4.32h.96v-4.32h4.32v-.96h-4.32v-4.32Zm0,24h-.96v4.32h-4.32v.96h4.32v4.32h.96v-4.32h4.32v-.96h-4.32v-4.32Zm24-24h-.96v4.32h-4.32v.96h4.32v4.32h.96v-4.32h4.32v-.96h-4.32v-4.32Zm0,24h-.96v4.32h-4.32v.96h4.32v4.32h.96v-4.32h4.32v-.96h-4.32v-4.32Zm-72,24h-.96v4.32h-4.32v.96h4.32v4.32h.96v-4.32h4.32v-.96h-4.32v-4.32Zm24,0h-.96v4.32h-4.32v.96h4.32v4.32h.96v-4.32h4.32v-.96h-4.32v-4.32Zm24,0h-.96v4.32h-4.32v.96h4.32v4.32h.96v-4.32h4.32v-.96h-4.32v-4.32Zm24,0h-.96v4.32h-4.32v.96h4.32v4.32h.96v-4.32h4.32v-.96h-4.32v-4.32Zm24-144h-.96v4.32h-4.32v.96h4.32v4.32h.96v-4.32h4.32v-.96h-4.32v-4.32Zm0,24h-.96v4.32h-4.32v.96h4.32v4.32h.96v-4.32h4.32v-.96h-4.32v-4.32Zm24-24h-.96v4.32h-4.32v.96h4.32v4.32h.96v-4.32h4.32v-.96h-4.32v-4.32Zm0,24h-.96v4.32h-4.32v.96h4.32v4.32h.96v-4.32h4.32v-.96h-4.32v-4.32Zm24-24h-.96v4.32h-4.32v.96h4.32v4.32h.96v-4.32h4.32v-.96h-4.32v-4.32Zm0,24h-.96v4.32h-4.32v.96h4.32v4.32h.96v-4.32h4.32v-.96h-4.32v-4.32Zm24-24h-.96v4.32h-4.32v.96h4.32v4.32h.96v-4.32h4.32v-.96h-4.32v-4.32Zm0,24h-.96v4.32h-4.32v.96h4.32v4.32h.96v-4.32h4.32v-.96h-4.32v-4.32Zm-72,24h-.96v4.32h-4.32v.96h4.32v4.32h.96v-4.32h4.32v-.96h-4.32v-4.32Zm0,24h-.96v4.32h-4.32v.96h4.32v4.32h.96v-4.32h4.32v-.96h-4.32v-4.32Zm24-24h-.96v4.32h-4.32v.96h4.32v4.32h.96v-4.32h4.32v-.96h-4.32v-4.32Zm0,24h-.96v4.32h-4.32v.96h4.32v4.32h.96v-4.32h4.32v-.96h-4.32v-4.32Zm24-24h-.96v4.32h-4.32v.96h4.32v4.32h.96v-4.32h4.32v-.96h-4.32v-4.32Zm0,24h-.96v4.32h-4.32v.96h4.32v4.32h.96v-4.32h4.32v-.96h-4.32v-4.32Zm24-24h-.96v4.32h-4.32v.96h4.32v4.32h.96v-4.32h4.32v-.96h-4.32v-4.32Zm0,24h-.96v4.32h-4.32v.96h4.32v4.32h.96v-4.32h4.32v-.96h-4.32v-4.32Zm24-72h-.96v4.32h-4.32v.96h4.32v4.32h.96v-4.32h4.32v-.96h-4.32v-4.32Zm0,24h-.96v4.32h-4.32v.96h4.32v4.32h.96v-4.32h4.32v-.96h-4.32v-4.32Zm24-24h-.96v4.32h-4.32v.96h4.32v4.32h.96v-4.32h4.32v-.96h-4.32v-4.32Zm0,24h-.96v4.32h-4.32v.96h4.32v4.32h.96v-4.32h4.32v-.96h-4.32v-4.32Zm24-24h-.96v4.32h-4.32v.96h4.32v4.32h.96v-4.32h4.32v-.96h-4.32v-4.32Zm0,24h-.96v4.32h-4.32v.96h4.32v4.32h.96v-4.32h4.32v-.96h-4.32v-4.32Zm24-24h-.96v4.32h-4.32v.96h4.32v4.32h.96v-4.32h4.32v-.96h-4.32v-4.32Zm0,24h-.96v4.32h-4.32v.96h4.32v4.32h.96v-4.32h4.32v-.96h-4.32v-4.32Zm-72,24h-.96v4.32h-4.32v.96h4.32v4.32h.96v-4.32h4.32v-.96h-4.32v-4.32Zm0,24h-.96v4.32h-4.32v.96h4.32v4.32h.96v-4.32h4.32v-.96h-4.32v-4.32Zm24-24h-.96v4.32h-4.32v.96h4.32v4.32h.96v-4.32h4.32v-.96h-4.32v-4.32Zm0,24h-.96v4.32h-4.32v.96h4.32v4.32h.96v-4.32h4.32v-.96h-4.32v-4.32Zm24-24h-.96v4.32h-4.32v.96h4.32v4.32h.96v-4.32h4.32v-.96h-4.32v-4.32Zm0,24h-.96v4.32h-4.32v.96h4.32v4.32h.96v-4.32h4.32v-.96h-4.32v-4.32Zm24-24h-.96v4.32h-4.32v.96h4.32v4.32h.96v-4.32h4.32v-.96h-4.32v-4.32Zm0,24h-.96v4.32h-4.32v.96h4.32v4.32h.96v-4.32h4.32v-.96h-4.32v-4.32Zm-168,24h-.96v4.32h-4.32v.96h4.32v4.32h.96v-4.32h4.32v-.96h-4.32v-4.32Zm0,24h-.96v4.32h-4.32v.96h4.32v4.32h.96v-4.32h4.32v-.96h-4.32v-4.32Zm24-24h-.96v4.32h-4.32v.96h4.32v4.32h.96v-4.32h4.32v-.96h-4.32v-4.32Zm0,24h-.96v4.32h-4.32v.96h4.32v4.32h.96v-4.32h4.32v-.96h-4.32v-4.32Zm24-24h-.96v4.32h-4.32v.96h4.32v4.32h.96v-4.32h4.32v-.96h-4.32v-4.32Zm0,24h-.96v4.32h-4.32v.96h4.32v4.32h.96v-4.32h4.32v-.96h-4.32v-4.32Zm24-24h-.96v4.32h-4.32v.96h4.32v4.32h.96v-4.32h4.32v-.96h-4.32v-4.32Zm0,24h-.96v4.32h-4.32v.96h4.32v4.32h.96v-4.32h4.32v-.96h-4.32v-4.32Zm-72,24h-.96v4.32h-4.32v.96h4.32v4.32h.96v-4.32h4.32v-.96h-4.32v-4.32Zm24,0h-.96v4.32h-4.32v.96h4.32v4.32h.96v-4.32h4.32v-.96h-4.32v-4.32Zm24,0h-.96v4.32h-4.32v.96h4.32v4.32h.96v-4.32h4.32v-.96h-4.32v-4.32Zm24,0h-.96v4.32h-4.32v.96h4.32v4.32h.96v-4.32h4.32v-.96h-4.32v-4.32Zm24-48h-.96v4.32h-4.32v.96h4.32v4.32h.96v-4.32h4.32v-.96h-4.32v-4.32Zm0,24h-.96v4.32h-4.32v.96h4.32v4.32h.96v-4.32h4.32v-.96h-4.32v-4.32Zm24-24h-.96v4.32h-4.32v.96h4.32v4.32h.96v-4.32h4.32v-.96h-4.32v-4.32Zm0,24h-.96v4.32h-4.32v.96h4.32v4.32h.96v-4.32h4.32v-.96h-4.32v-4.32Zm24-24h-.96v4.32h-4.32v.96h4.32v4.32h.96v-4.32h4.32v-.96h-4.32v-4.32Zm0,24h-.96v4.32h-4.32v.96h4.32v4.32h.96v-4.32h4.32v-.96h-4.32v-4.32Zm24-24h-.96v4.32h-4.32v.96h4.32v4.32h.96v-4.32h4.32v-.96h-4.32v-4.32Zm0,24h-.96v4.32h-4.32v.96h4.32v4.32h.96v-4.32h4.32v-.96h-4.32v-4.32Zm-72,24h-.96v4.32h-4.32v.96h4.32v4.32h.96v-4.32h4.32v-.96h-4.32v-4.32Zm24,0h-.96v4.32h-4.32v.96h4.32v4.32h.96v-4.32h4.32v-.96h-4.32v-4.32Zm24,0h-.96v4.32h-4.32v.96h4.32v4.32h.96v-4.32h4.32v-.96h-4.32v-4.32Zm24,0h-.96v4.32h-4.32v.96h4.32v4.32h.96v-4.32h4.32v-.96h-4.32v-4.32ZM773.28,0h-.96v4.32h-4.32v.96h4.32v4.32h.96v-4.32h4.32v-.96h-4.32V0Zm0,24h-.96v4.32h-4.32v.96h4.32v4.32h.96v-4.32h4.32v-.96h-4.32v-4.32Zm24-24h-.96v4.32h-4.32v.96h4.32v4.32h.96v-4.32h4.32v-.96h-4.32V0Zm0,24h-.96v4.32h-4.32v.96h4.32v4.32h.96v-4.32h4.32v-.96h-4.32v-4.32Zm-24,24h-.96v4.32h-4.32v.96h4.32v4.32h.96v-4.32h4.32v-.96h-4.32v-4.32Zm0,24h-.96v4.32h-4.32v.96h4.32v4.32h.96v-4.32h4.32v-.96h-4.32v-4.32Zm24-24h-.96v4.32h-4.32v.96h4.32v4.32h.96v-4.32h4.32v-.96h-4.32v-4.32Zm0,24h-.96v4.32h-4.32v.96h4.32v4.32h.96v-4.32h4.32v-.96h-4.32v-4.32ZM821.28,0h-.96v4.32h-4.32v.96h4.32v4.32h.96v-4.32h4.32v-.96h-4.32V0Zm0,24h-.96v4.32h-4.32v.96h4.32v4.32h.96v-4.32h4.32v-.96h-4.32v-4.32Zm24-24h-.96v4.32h-4.32v.96h4.32v4.32h.96v-4.32h4.32v-.96h-4.32V0Zm0,24h-.96v4.32h-4.32v.96h4.32v4.32h.96v-4.32h4.32v-.96h-4.32v-4.32Zm24-24h-.96v4.32h-4.32v.96h4.32v4.32h.96v-4.32h4.32v-.96h-4.32V0Zm0,24h-.96v4.32h-4.32v.96h4.32v4.32h.96v-4.32h4.32v-.96h-4.32v-4.32Zm24-24h-.96v4.32h-4.32v.96h4.32v4.32h.96v-4.32h4.32v-.96h-4.32V0Zm0,24h-.96v4.32h-4.32v.96h4.32v4.32h.96v-4.32h4.32v-.96h-4.32v-4.32Zm-72,24h-.96v4.32h-4.32v.96h4.32v4.32h.96v-4.32h4.32v-.96h-4.32v-4.32Zm0,24h-.96v4.32h-4.32v.96h4.32v4.32h.96v-4.32h4.32v-.96h-4.32v-4.32Zm24-24h-.96v4.32h-4.32v.96h4.32v4.32h.96v-4.32h4.32v-.96h-4.32v-4.32Zm0,24h-.96v4.32h-4.32v.96h4.32v4.32h.96v-4.32h4.32v-.96h-4.32v-4.32Zm24-24h-.96v4.32h-4.32v.96h4.32v4.32h.96v-4.32h4.32v-.96h-4.32v-4.32Zm0,24h-.96v4.32h-4.32v.96h4.32v4.32h.96v-4.32h4.32v-.96h-4.32v-4.32Zm24-24h-.96v4.32h-4.32v.96h4.32v4.32h.96v-4.32h4.32v-.96h-4.32v-4.32Zm0,24h-.96v4.32h-4.32v.96h4.32v4.32h.96v-4.32h4.32v-.96h-4.32v-4.32Zm-120,24h-.96v4.32h-4.32v.96h4.32v4.32h.96v-4.32h4.32v-.96h-4.32v-4.32Zm0,24h-.96v4.32h-4.32v.96h4.32v4.32h.96v-4.32h4.32v-.96h-4.32v-4.32Zm24-24h-.96v4.32h-4.32v.96h4.32v4.32h.96v-4.32h4.32v-.96h-4.32v-4.32Zm0,24h-.96v4.32h-4.32v.96h4.32v4.32h.96v-4.32h4.32v-.96h-4.32v-4.32Zm-24,24h-.96v4.32h-4.32v.96h4.32v4.32h.96v-4.32h4.32v-.96h-4.32v-4.32Zm0,24h-.96v4.32h-4.32v.96h4.32v4.32h.96v-4.32h4.32v-.96h-4.32v-4.32Zm24-24h-.96v4.32h-4.32v.96h4.32v4.32h.96v-4.32h4.32v-.96h-4.32v-4.32Zm0,24h-.96v4.32h-4.32v.96h4.32v4.32h.96v-4.32h4.32v-.96h-4.32v-4.32Zm24-72h-.96v4.32h-4.32v.96h4.32v4.32h.96v-4.32h4.32v-.96h-4.32v-4.32Zm0,24h-.96v4.32h-4.32v.96h4.32v4.32h.96v-4.32h4.32v-.96h-4.32v-4.32Zm24-24h-.96v4.32h-4.32v.96h4.32v4.32h.96v-4.32h4.32v-.96h-4.32v-4.32Zm0,24h-.96v4.32h-4.32v.96h4.32v4.32h.96v-4.32h4.32v-.96h-4.32v-4.32Zm24-24h-.96v4.32h-4.32v.96h4.32v4.32h.96v-4.32h4.32v-.96h-4.32v-4.32Zm0,24h-.96v4.32h-4.32v.96h4.32v4.32h.96v-4.32h4.32v-.96h-4.32v-4.32Zm24-24h-.96v4.32h-4.32v.96h4.32v4.32h.96v-4.32h4.32v-.96h-4.32v-4.32Zm0,24h-.96v4.32h-4.32v.96h4.32v4.32h.96v-4.32h4.32v-.96h-4.32v-4.32Zm-72,24h-.96v4.32h-4.32v.96h4.32v4.32h.96v-4.32h4.32v-.96h-4.32v-4.32Zm0,24h-.96v4.32h-4.32v.96h4.32v4.32h.96v-4.32h4.32v-.96h-4.32v-4.32Zm24-24h-.96v4.32h-4.32v.96h4.32v4.32h.96v-4.32h4.32v-.96h-4.32v-4.32Zm0,24h-.96v4.32h-4.32v.96h4.32v4.32h.96v-4.32h4.32v-.96h-4.32v-4.32Zm24-24h-.96v4.32h-4.32v.96h4.32v4.32h.96v-4.32h4.32v-.96h-4.32v-4.32Zm0,24h-.96v4.32h-4.32v.96h4.32v4.32h.96v-4.32h4.32v-.96h-4.32v-4.32Zm24-24h-.96v4.32h-4.32v.96h4.32v4.32h.96v-4.32h4.32v-.96h-4.32v-4.32Zm0,24h-.96v4.32h-4.32v.96h4.32v4.32h.96v-4.32h4.32v-.96h-4.32v-4.32ZM917.28,0h-.96v4.32h-4.32v.96h4.32v4.32h.96v-4.32h4.32v-.96h-4.32V0Zm0,24h-.96v4.32h-4.32v.96h4.32v4.32h.96v-4.32h4.32v-.96h-4.32v-4.32Zm24-24h-.96v4.32h-4.32v.96h4.32v4.32h.96v-4.32h4.32v-.96h-4.32V0Zm0,24h-.96v4.32h-4.32v.96h4.32v4.32h.96v-4.32h4.32v-.96h-4.32v-4.32Zm24-24h-.96v4.32h-4.32v.96h4.32v4.32h.96v-4.32h4.32v-.96h-4.32V0Zm0,24h-.96v4.32h-4.32v.96h4.32v4.32h.96v-4.32h4.32v-.96h-4.32v-4.32Zm24-24h-.96v4.32h-4.32v.96h4.32v4.32h.96v-4.32h4.32v-.96h-4.32V0Zm0,24h-.96v4.32h-4.32v.96h4.32v4.32h.96v-4.32h4.32v-.96h-4.32v-4.32Zm-72,24h-.96v4.32h-4.32v.96h4.32v4.32h.96v-4.32h4.32v-.96h-4.32v-4.32Zm0,24h-.96v4.32h-4.32v.96h4.32v4.32h.96v-4.32h4.32v-.96h-4.32v-4.32Zm24-24h-.96v4.32h-4.32v.96h4.32v4.32h.96v-4.32h4.32v-.96h-4.32v-4.32Zm0,24h-.96v4.32h-4.32v.96h4.32v4.32h.96v-4.32h4.32v-.96h-4.32v-4.32Zm24-24h-.96v4.32h-4.32v.96h4.32v4.32h.96v-4.32h4.32v-.96h-4.32v-4.32Zm0,24h-.96v4.32h-4.32v.96h4.32v4.32h.96v-4.32h4.32v-.96h-4.32v-4.32Zm24-24h-.96v4.32h-4.32v.96h4.32v4.32h.96v-4.32h4.32v-.96h-4.32v-4.32Zm0,24h-.96v4.32h-4.32v.96h4.32v4.32h.96v-4.32h4.32v-.96h-4.32v-4.32ZM1013.28,0h-.96v4.32h-4.32v.96h4.32v4.32h.96v-4.32h4.32v-.96h-4.32V0Zm0,24h-.96v4.32h-4.32v.96h4.32v4.32h.96v-4.32h4.32v-.96h-4.32v-4.32Zm24-24h-.96v4.32h-4.32v.96h4.32v4.32h.96v-4.32h4.32v-.96h-4.32V0Zm0,24h-.96v4.32h-4.32v.96h4.32v4.32h.96v-4.32h4.32v-.96h-4.32v-4.32Zm24-24h-.96v4.32h-4.32v.96h4.32v4.32h.96v-4.32h4.32v-.96h-4.32V0Zm0,24h-.96v4.32h-4.32v.96h4.32v4.32h.96v-4.32h4.32v-.96h-4.32v-4.32Zm24-19.68V0h-.96v4.32h-4.32v.96h4.32v4.32h.96v-4.32h4.32v-.96h-4.32Zm0,19.68h-.96v4.32h-4.32v.96h4.32v4.32h.96v-4.32h4.32v-.96h-4.32v-4.32Zm-72,24h-.96v4.32h-4.32v.96h4.32v4.32h.96v-4.32h4.32v-.96h-4.32v-4.32Zm0,24h-.96v4.32h-4.32v.96h4.32v4.32h.96v-4.32h4.32v-.96h-4.32v-4.32Zm24-24h-.96v4.32h-4.32v.96h4.32v4.32h.96v-4.32h4.32v-.96h-4.32v-4.32Zm0,24h-.96v4.32h-4.32v.96h4.32v4.32h.96v-4.32h4.32v-.96h-4.32v-4.32Zm24-24h-.96v4.32h-4.32v.96h4.32v4.32h.96v-4.32h4.32v-.96h-4.32v-4.32Zm0,24h-.96v4.32h-4.32v.96h4.32v4.32h.96v-4.32h4.32v-.96h-4.32v-4.32Zm24-24h-.96v4.32h-4.32v.96h4.32v4.32h.96v-4.32h4.32v-.96h-4.32v-4.32Zm0,24h-.96v4.32h-4.32v.96h4.32v4.32h.96v-4.32h4.32v-.96h-4.32v-4.32Zm-168,24h-.96v4.32h-4.32v.96h4.32v4.32h.96v-4.32h4.32v-.96h-4.32v-4.32Zm0,24h-.96v4.32h-4.32v.96h4.32v4.32h.96v-4.32h4.32v-.96h-4.32v-4.32Zm24-24h-.96v4.32h-4.32v.96h4.32v4.32h.96v-4.32h4.32v-.96h-4.32v-4.32Zm0,24h-.96v4.32h-4.32v.96h4.32v4.32h.96v-4.32h4.32v-.96h-4.32v-4.32Zm24-24h-.96v4.32h-4.32v.96h4.32v4.32h.96v-4.32h4.32v-.96h-4.32v-4.32Zm0,24h-.96v4.32h-4.32v.96h4.32v4.32h.96v-4.32h4.32v-.96h-4.32v-4.32Zm24-24h-.96v4.32h-4.32v.96h4.32v4.32h.96v-4.32h4.32v-.96h-4.32v-4.32Zm0,24h-.96v4.32h-4.32v.96h4.32v4.32h.96v-4.32h4.32v-.96h-4.32v-4.32Zm-72,24h-.96v4.32h-4.32v.96h4.32v4.32h.96v-4.32h4.32v-.96h-4.32v-4.32Zm0,24h-.96v4.32h-4.32v.96h4.32v4.32h.96v-4.32h4.32v-.96h-4.32v-4.32Zm24-24h-.96v4.32h-4.32v.96h4.32v4.32h.96v-4.32h4.32v-.96h-4.32v-4.32Zm0,24h-.96v4.32h-4.32v.96h4.32v4.32h.96v-4.32h4.32v-.96h-4.32v-4.32Zm24-24h-.96v4.32h-4.32v.96h4.32v4.32h.96v-4.32h4.32v-.96h-4.32v-4.32Zm0,24h-.96v4.32h-4.32v.96h4.32v4.32h.96v-4.32h4.32v-.96h-4.32v-4.32Zm24-24h-.96v4.32h-4.32v.96h4.32v4.32h.96v-4.32h4.32v-.96h-4.32v-4.32Zm0,24h-.96v4.32h-4.32v.96h4.32v4.32h.96v-4.32h4.32v-.96h-4.32v-4.32Zm24-72h-.96v4.32h-4.32v.96h4.32v4.32h.96v-4.32h4.32v-.96h-4.32v-4.32Zm0,24h-.96v4.32h-4.32v.96h4.32v4.32h.96v-4.32h4.32v-.96h-4.32v-4.32Zm24-24h-.96v4.32h-4.32v.96h4.32v4.32h.96v-4.32h4.32v-.96h-4.32v-4.32Zm0,24h-.96v4.32h-4.32v.96h4.32v4.32h.96v-4.32h4.32v-.96h-4.32v-4.32Zm24-24h-.96v4.32h-4.32v.96h4.32v4.32h.96v-4.32h4.32v-.96h-4.32v-4.32Zm0,24h-.96v4.32h-4.32v.96h4.32v4.32h.96v-4.32h4.32v-.96h-4.32v-4.32Zm24-24h-.96v4.32h-4.32v.96h4.32v4.32h.96v-4.32h4.32v-.96h-4.32v-4.32Zm0,24h-.96v4.32h-4.32v.96h4.32v4.32h.96v-4.32h4.32v-.96h-4.32v-4.32Zm-72,24h-.96v4.32h-4.32v.96h4.32v4.32h.96v-4.32h4.32v-.96h-4.32v-4.32Zm0,24h-.96v4.32h-4.32v.96h4.32v4.32h.96v-4.32h4.32v-.96h-4.32v-4.32Zm24-24h-.96v4.32h-4.32v.96h4.32v4.32h.96v-4.32h4.32v-.96h-4.32v-4.32Zm0,24h-.96v4.32h-4.32v.96h4.32v4.32h.96v-4.32h4.32v-.96h-4.32v-4.32Zm24-24h-.96v4.32h-4.32v.96h4.32v4.32h.96v-4.32h4.32v-.96h-4.32v-4.32Zm0,24h-.96v4.32h-4.32v.96h4.32v4.32h.96v-4.32h4.32v-.96h-4.32v-4.32Zm24-24h-.96v4.32h-4.32v.96h4.32v4.32h.96v-4.32h4.32v-.96h-4.32v-4.32Zm0,24h-.96v4.32h-4.32v.96h4.32v4.32h.96v-4.32h4.32v-.96h-4.32v-4.32Zm-312,24h-.96v4.32h-4.32v.96h4.32v4.32h.96v-4.32h4.32v-.96h-4.32v-4.32Zm0,24h-.96v4.32h-4.32v.96h4.32v4.32h.96v-4.32h4.32v-.96h-4.32v-4.32Zm24-24h-.96v4.32h-4.32v.96h4.32v4.32h.96v-4.32h4.32v-.96h-4.32v-4.32Zm0,24h-.96v4.32h-4.32v.96h4.32v4.32h.96v-4.32h4.32v-.96h-4.32v-4.32Zm-24,24h-.96v4.32h-4.32v.96h4.32v4.32h.96v-4.32h4.32v-.96h-4.32v-4.32Zm0,24h-.96v4.32h-4.32v.96h4.32v4.32h.96v-4.32h4.32v-.96h-4.32v-4.32Zm24-24h-.96v4.32h-4.32v.96h4.32v4.32h.96v-4.32h4.32v-.96h-4.32v-4.32Zm0,24h-.96v4.32h-4.32v.96h4.32v4.32h.96v-4.32h4.32v-.96h-4.32v-4.32Zm24-72h-.96v4.32h-4.32v.96h4.32v4.32h.96v-4.32h4.32v-.96h-4.32v-4.32Zm0,24h-.96v4.32h-4.32v.96h4.32v4.32h.96v-4.32h4.32v-.96h-4.32v-4.32Zm24-24h-.96v4.32h-4.32v.96h4.32v4.32h.96v-4.32h4.32v-.96h-4.32v-4.32Zm0,24h-.96v4.32h-4.32v.96h4.32v4.32h.96v-4.32h4.32v-.96h-4.32v-4.32Zm24-24h-.96v4.32h-4.32v.96h4.32v4.32h.96v-4.32h4.32v-.96h-4.32v-4.32Zm0,24h-.96v4.32h-4.32v.96h4.32v4.32h.96v-4.32h4.32v-.96h-4.32v-4.32Zm24-24h-.96v4.32h-4.32v.96h4.32v4.32h.96v-4.32h4.32v-.96h-4.32v-4.32Zm0,24h-.96v4.32h-4.32v.96h4.32v4.32h.96v-4.32h4.32v-.96h-4.32v-4.32Zm-72,24h-.96v4.32h-4.32v.96h4.32v4.32h.96v-4.32h4.32v-.96h-4.32v-4.32Zm0,24h-.96v4.32h-4.32v.96h4.32v4.32h.96v-4.32h4.32v-.96h-4.32v-4.32Zm24-24h-.96v4.32h-4.32v.96h4.32v4.32h.96v-4.32h4.32v-.96h-4.32v-4.32Zm0,24h-.96v4.32h-4.32v.96h4.32v4.32h.96v-4.32h4.32v-.96h-4.32v-4.32Zm24-24h-.96v4.32h-4.32v.96h4.32v4.32h.96v-4.32h4.32v-.96h-4.32v-4.32Zm0,24h-.96v4.32h-4.32v.96h4.32v4.32h.96v-4.32h4.32v-.96h-4.32v-4.32Zm24-24h-.96v4.32h-4.32v.96h4.32v4.32h.96v-4.32h4.32v-.96h-4.32v-4.32Zm0,24h-.96v4.32h-4.32v.96h4.32v4.32h.96v-4.32h4.32v-.96h-4.32v-4.32Zm-120,24h-.96v4.32h-4.32v.96h4.32v4.32h.96v-4.32h4.32v-.96h-4.32v-4.32Zm0,24h-.96v4.32h-4.32v.96h4.32v4.32h.96v-4.32h4.32v-.96h-4.32v-4.32Zm24-24h-.96v4.32h-4.32v.96h4.32v4.32h.96v-4.32h4.32v-.96h-4.32v-4.32Zm0,24h-.96v4.32h-4.32v.96h4.32v4.32h.96v-4.32h4.32v-.96h-4.32v-4.32Zm-24,24h-.96v4.32h-4.32v.96h4.32v4.32h.96v-4.32h4.32v-.96h-4.32v-4.32Zm0,24h-.96v4.32h-4.32v.96h4.32v4.32h.96v-4.32h4.32v-.96h-4.32v-4.32Zm24-24h-.96v4.32h-4.32v.96h4.32v4.32h.96v-4.32h4.32v-.96h-4.32v-4.32Zm0,24h-.96v4.32h-4.32v.96h4.32v4.32h.96v-4.32h4.32v-.96h-4.32v-4.32Zm24-72h-.96v4.32h-4.32v.96h4.32v4.32h.96v-4.32h4.32v-.96h-4.32v-4.32Zm0,24h-.96v4.32h-4.32v.96h4.32v4.32h.96v-4.32h4.32v-.96h-4.32v-4.32Zm24-24h-.96v4.32h-4.32v.96h4.32v4.32h.96v-4.32h4.32v-.96h-4.32v-4.32Zm0,24h-.96v4.32h-4.32v.96h4.32v4.32h.96v-4.32h4.32v-.96h-4.32v-4.32Zm24-24h-.96v4.32h-4.32v.96h4.32v4.32h.96v-4.32h4.32v-.96h-4.32v-4.32Zm0,24h-.96v4.32h-4.32v.96h4.32v4.32h.96v-4.32h4.32v-.96h-4.32v-4.32Zm24-24h-.96v4.32h-4.32v.96h4.32v4.32h.96v-4.32h4.32v-.96h-4.32v-4.32Zm0,24h-.96v4.32h-4.32v.96h4.32v4.32h.96v-4.32h4.32v-.96h-4.32v-4.32Zm-72,24h-.96v4.32h-4.32v.96h4.32v4.32h.96v-4.32h4.32v-.96h-4.32v-4.32Zm0,24h-.96v4.32h-4.32v.96h4.32v4.32h.96v-4.32h4.32v-.96h-4.32v-4.32Zm24-24h-.96v4.32h-4.32v.96h4.32v4.32h.96v-4.32h4.32v-.96h-4.32v-4.32Zm0,24h-.96v4.32h-4.32v.96h4.32v4.32h.96v-4.32h4.32v-.96h-4.32v-4.32Zm24-24h-.96v4.32h-4.32v.96h4.32v4.32h.96v-4.32h4.32v-.96h-4.32v-4.32Zm0,24h-.96v4.32h-4.32v.96h4.32v4.32h.96v-4.32h4.32v-.96h-4.32v-4.32Zm24-24h-.96v4.32h-4.32v.96h4.32v4.32h.96v-4.32h4.32v-.96h-4.32v-4.32Zm0,24h-.96v4.32h-4.32v.96h4.32v4.32h.96v-4.32h4.32v-.96h-4.32v-4.32Zm24-168h-.96v4.32h-4.32v.96h4.32v4.32h.96v-4.32h4.32v-.96h-4.32v-4.32Zm0,24h-.96v4.32h-4.32v.96h4.32v4.32h.96v-4.32h4.32v-.96h-4.32v-4.32Zm24-24h-.96v4.32h-4.32v.96h4.32v4.32h.96v-4.32h4.32v-.96h-4.32v-4.32Zm0,24h-.96v4.32h-4.32v.96h4.32v4.32h.96v-4.32h4.32v-.96h-4.32v-4.32Zm24-24h-.96v4.32h-4.32v.96h4.32v4.32h.96v-4.32h4.32v-.96h-4.32v-4.32Zm0,24h-.96v4.32h-4.32v.96h4.32v4.32h.96v-4.32h4.32v-.96h-4.32v-4.32Zm24-24h-.96v4.32h-4.32v.96h4.32v4.32h.96v-4.32h4.32v-.96h-4.32v-4.32Zm0,24h-.96v4.32h-4.32v.96h4.32v4.32h.96v-4.32h4.32v-.96h-4.32v-4.32Zm-72,24h-.96v4.32h-4.32v.96h4.32v4.32h.96v-4.32h4.32v-.96h-4.32v-4.32Zm0,24h-.96v4.32h-4.32v.96h4.32v4.32h.96v-4.32h4.32v-.96h-4.32v-4.32Zm24-24h-.96v4.32h-4.32v.96h4.32v4.32h.96v-4.32h4.32v-.96h-4.32v-4.32Zm0,24h-.96v4.32h-4.32v.96h4.32v4.32h.96v-4.32h4.32v-.96h-4.32v-4.32Zm24-24h-.96v4.32h-4.32v.96h4.32v4.32h.96v-4.32h4.32v-.96h-4.32v-4.32Zm0,24h-.96v4.32h-4.32v.96h4.32v4.32h.96v-4.32h4.32v-.96h-4.32v-4.32Zm24-24h-.96v4.32h-4.32v.96h4.32v4.32h.96v-4.32h4.32v-.96h-4.32v-4.32Zm0,24h-.96v4.32h-4.32v.96h4.32v4.32h.96v-4.32h4.32v-.96h-4.32v-4.32Zm24-72h-.96v4.32h-4.32v.96h4.32v4.32h.96v-4.32h4.32v-.96h-4.32v-4.32Zm0,24h-.96v4.32h-4.32v.96h4.32v4.32h.96v-4.32h4.32v-.96h-4.32v-4.32Zm24-24h-.96v4.32h-4.32v.96h4.32v4.32h.96v-4.32h4.32v-.96h-4.32v-4.32Zm0,24h-.96v4.32h-4.32v.96h4.32v4.32h.96v-4.32h4.32v-.96h-4.32v-4.32Zm24-24h-.96v4.32h-4.32v.96h4.32v4.32h.96v-4.32h4.32v-.96h-4.32v-4.32Zm0,24h-.96v4.32h-4.32v.96h4.32v4.32h.96v-4.32h4.32v-.96h-4.32v-4.32Zm24-24h-.96v4.32h-4.32v.96h4.32v4.32h.96v-4.32h4.32v-.96h-4.32v-4.32Zm0,24h-.96v4.32h-4.32v.96h4.32v4.32h.96v-4.32h4.32v-.96h-4.32v-4.32Zm-72,24h-.96v4.32h-4.32v.96h4.32v4.32h.96v-4.32h4.32v-.96h-4.32v-4.32Zm0,24h-.96v4.32h-4.32v.96h4.32v4.32h.96v-4.32h4.32v-.96h-4.32v-4.32Zm24-24h-.96v4.32h-4.32v.96h4.32v4.32h.96v-4.32h4.32v-.96h-4.32v-4.32Zm0,24h-.96v4.32h-4.32v.96h4.32v4.32h.96v-4.32h4.32v-.96h-4.32v-4.32Zm24-24h-.96v4.32h-4.32v.96h4.32v4.32h.96v-4.32h4.32v-.96h-4.32v-4.32Zm0,24h-.96v4.32h-4.32v.96h4.32v4.32h.96v-4.32h4.32v-.96h-4.32v-4.32Zm24-24h-.96v4.32h-4.32v.96h4.32v4.32h.96v-4.32h4.32v-.96h-4.32v-4.32Zm0,24h-.96v4.32h-4.32v.96h4.32v4.32h.96v-4.32h4.32v-.96h-4.32v-4.32Zm-168,24h-.96v4.32h-4.32v.96h4.32v4.32h.96v-4.32h4.32v-.96h-4.32v-4.32Zm0,24h-.96v4.32h-4.32v.96h4.32v4.32h.96v-4.32h4.32v-.96h-4.32v-4.32Zm24-24h-.96v4.32h-4.32v.96h4.32v4.32h.96v-4.32h4.32v-.96h-4.32v-4.32Zm0,24h-.96v4.32h-4.32v.96h4.32v4.32h.96v-4.32h4.32v-.96h-4.32v-4.32Zm24-24h-.96v4.32h-4.32v.96h4.32v4.32h.96v-4.32h4.32v-.96h-4.32v-4.32Zm0,24h-.96v4.32h-4.32v.96h4.32v4.32h.96v-4.32h4.32v-.96h-4.32v-4.32Zm24-24h-.96v4.32h-4.32v.96h4.32v4.32h.96v-4.32h4.32v-.96h-4.32v-4.32Zm0,24h-.96v4.32h-4.32v.96h4.32v4.32h.96v-4.32h4.32v-.96h-4.32v-4.32Zm-72,24h-.96v4.32h-4.32v.96h4.32v4.32h.96v-4.32h4.32v-.96h-4.32v-4.32Zm0,24h-.96v4.32h-4.32v.96h4.32v4.32h.96v-4.32h4.32v-.96h-4.32v-4.32Zm24-24h-.96v4.32h-4.32v.96h4.32v4.32h.96v-4.32h4.32v-.96h-4.32v-4.32Zm0,24h-.96v4.32h-4.32v.96h4.32v4.32h.96v-4.32h4.32v-.96h-4.32v-4.32Zm24-24h-.96v4.32h-4.32v.96h4.32v4.32h.96v-4.32h4.32v-.96h-4.32v-4.32Zm0,24h-.96v4.32h-4.32v.96h4.32v4.32h.96v-4.32h4.32v-.96h-4.32v-4.32Zm24-24h-.96v4.32h-4.32v.96h4.32v4.32h.96v-4.32h4.32v-.96h-4.32v-4.32Zm0,24h-.96v4.32h-4.32v.96h4.32v4.32h.96v-4.32h4.32v-.96h-4.32v-4.32Zm24-72h-.96v4.32h-4.32v.96h4.32v4.32h.96v-4.32h4.32v-.96h-4.32v-4.32Zm0,24h-.96v4.32h-4.32v.96h4.32v4.32h.96v-4.32h4.32v-.96h-4.32v-4.32Zm24-24h-.96v4.32h-4.32v.96h4.32v4.32h.96v-4.32h4.32v-.96h-4.32v-4.32Zm0,24h-.96v4.32h-4.32v.96h4.32v4.32h.96v-4.32h4.32v-.96h-4.32v-4.32Zm24-24h-.96v4.32h-4.32v.96h4.32v4.32h.96v-4.32h4.32v-.96h-4.32v-4.32Zm0,24h-.96v4.32h-4.32v.96h4.32v4.32h.96v-4.32h4.32v-.96h-4.32v-4.32Zm24-24h-.96v4.32h-4.32v.96h4.32v4.32h.96v-4.32h4.32v-.96h-4.32v-4.32Zm0,24h-.96v4.32h-4.32v.96h4.32v4.32h.96v-4.32h4.32v-.96h-4.32v-4.32Zm-72,24h-.96v4.32h-4.32v.96h4.32v4.32h.96v-4.32h4.32v-.96h-4.32v-4.32Zm0,24h-.96v4.32h-4.32v.96h4.32v4.32h.96v-4.32h4.32v-.96h-4.32v-4.32Zm24-24h-.96v4.32h-4.32v.96h4.32v4.32h.96v-4.32h4.32v-.96h-4.32v-4.32Zm0,24h-.96v4.32h-4.32v.96h4.32v4.32h.96v-4.32h4.32v-.96h-4.32v-4.32Zm24-24h-.96v4.32h-4.32v.96h4.32v4.32h.96v-4.32h4.32v-.96h-4.32v-4.32Zm0,24h-.96v4.32h-4.32v.96h4.32v4.32h.96v-4.32h4.32v-.96h-4.32v-4.32Zm24-24h-.96v4.32h-4.32v.96h4.32v4.32h.96v-4.32h4.32v-.96h-4.32v-4.32Zm0,24h-.96v4.32h-4.32v.96h4.32v4.32h.96v-4.32h4.32v-.96h-4.32v-4.32Zm-312,24h-.96v4.32h-4.32v.96h4.32v4.32h.96v-4.32h4.32v-.96h-4.32v-4.32Zm0,24h-.96v4.32h-4.32v.96h4.32v4.32h.96v-4.32h4.32v-.96h-4.32v-4.32Zm24-24h-.96v4.32h-4.32v.96h4.32v4.32h.96v-4.32h4.32v-.96h-4.32v-4.32Zm0,24h-.96v4.32h-4.32v.96h4.32v4.32h.96v-4.32h4.32v-.96h-4.32v-4.32Zm-24,24h-.96v4.32h-4.32v.96h4.32v4.32h.96v-4.32h4.32v-.96h-4.32v-4.32Zm0,24h-.96v4.32h-4.32v.96h4.32v4.32h.96v-4.32h4.32v-.96h-4.32v-4.32Zm24-24h-.96v4.32h-4.32v.96h4.32v4.32h.96v-4.32h4.32v-.96h-4.32v-4.32Zm0,24h-.96v4.32h-4.32v.96h4.32v4.32h.96v-4.32h4.32v-.96h-4.32v-4.32Zm24-72h-.96v4.32h-4.32v.96h4.32v4.32h.96v-4.32h4.32v-.96h-4.32v-4.32Zm0,24h-.96v4.32h-4.32v.96h4.32v4.32h.96v-4.32h4.32v-.96h-4.32v-4.32Zm24-24h-.96v4.32h-4.32v.96h4.32v4.32h.96v-4.32h4.32v-.96h-4.32v-4.32Zm0,24h-.96v4.32h-4.32v.96h4.32v4.32h.96v-4.32h4.32v-.96h-4.32v-4.32Zm24-24h-.96v4.32h-4.32v.96h4.32v4.32h.96v-4.32h4.32v-.96h-4.32v-4.32Zm0,24h-.96v4.32h-4.32v.96h4.32v4.32h.96v-4.32h4.32v-.96h-4.32v-4.32Zm24-24h-.96v4.32h-4.32v.96h4.32v4.32h.96v-4.32h4.32v-.96h-4.32v-4.32Zm0,24h-.96v4.32h-4.32v.96h4.32v4.32h.96v-4.32h4.32v-.96h-4.32v-4.32Zm-72,24h-.96v4.32h-4.32v.96h4.32v4.32h.96v-4.32h4.32v-.96h-4.32v-4.32Zm0,24h-.96v4.32h-4.32v.96h4.32v4.32h.96v-4.32h4.32v-.96h-4.32v-4.32Zm24-24h-.96v4.32h-4.32v.96h4.32v4.32h.96v-4.32h4.32v-.96h-4.32v-4.32Zm0,24h-.96v4.32h-4.32v.96h4.32v4.32h.96v-4.32h4.32v-.96h-4.32v-4.32Zm24-24h-.96v4.32h-4.32v.96h4.32v4.32h.96v-4.32h4.32v-.96h-4.32v-4.32Zm0,24h-.96v4.32h-4.32v.96h4.32v4.32h.96v-4.32h4.32v-.96h-4.32v-4.32Zm24-24h-.96v4.32h-4.32v.96h4.32v4.32h.96v-4.32h4.32v-.96h-4.32v-4.32Zm0,24h-.96v4.32h-4.32v.96h4.32v4.32h.96v-4.32h4.32v-.96h-4.32v-4.32Zm-120,24h-.96v4.32h-4.32v.96h4.32v4.32h.96v-4.32h4.32v-.96h-4.32v-4.32Zm0,24h-.96v4.32h-4.32v.96h4.32v4.32h.96v-4.32h4.32v-.96h-4.32v-4.32Zm24-24h-.96v4.32h-4.32v.96h4.32v4.32h.96v-4.32h4.32v-.96h-4.32v-4.32Zm0,24h-.96v4.32h-4.32v.96h4.32v4.32h.96v-4.32h4.32v-.96h-4.32v-4.32Zm-24,24h-.96v4.32h-4.32v.96h4.32v4.32h.96v-4.32h4.32v-.96h-4.32v-4.32Zm0,24h-.96v4.32h-4.32v.96h4.32v4.32h.96v-4.32h4.32v-.96h-4.32v-4.32Zm24-24h-.96v4.32h-4.32v.96h4.32v4.32h.96v-4.32h4.32v-.96h-4.32v-4.32Zm0,24h-.96v4.32h-4.32v.96h4.32v4.32h.96v-4.32h4.32v-.96h-4.32v-4.32Zm24-72h-.96v4.32h-4.32v.96h4.32v4.32h.96v-4.32h4.32v-.96h-4.32v-4.32Zm0,24h-.96v4.32h-4.32v.96h4.32v4.32h.96v-4.32h4.32v-.96h-4.32v-4.32Zm24-24h-.96v4.32h-4.32v.96h4.32v4.32h.96v-4.32h4.32v-.96h-4.32v-4.32Zm0,24h-.96v4.32h-4.32v.96h4.32v4.32h.96v-4.32h4.32v-.96h-4.32v-4.32Zm24-24h-.96v4.32h-4.32v.96h4.32v4.32h.96v-4.32h4.32v-.96h-4.32v-4.32Zm0,24h-.96v4.32h-4.32v.96h4.32v4.32h.96v-4.32h4.32v-.96h-4.32v-4.32Zm24-24h-.96v4.32h-4.32v.96h4.32v4.32h.96v-4.32h4.32v-.96h-4.32v-4.32Zm0,24h-.96v4.32h-4.32v.96h4.32v4.32h.96v-4.32h4.32v-.96h-4.32v-4.32Zm-72,24h-.96v4.32h-4.32v.96h4.32v4.32h.96v-4.32h4.32v-.96h-4.32v-4.32Zm0,24h-.96v4.32h-4.32v.96h4.32v4.32h.96v-4.32h4.32v-.96h-4.32v-4.32Zm24-24h-.96v4.32h-4.32v.96h4.32v4.32h.96v-4.32h4.32v-.96h-4.32v-4.32Zm0,24h-.96v4.32h-4.32v.96h4.32v4.32h.96v-4.32h4.32v-.96h-4.32v-4.32Zm24-24h-.96v4.32h-4.32v.96h4.32v4.32h.96v-4.32h4.32v-.96h-4.32v-4.32Zm0,24h-.96v4.32h-4.32v.96h4.32v4.32h.96v-4.32h4.32v-.96h-4.32v-4.32Zm24-24h-.96v4.32h-4.32v.96h4.32v4.32h.96v-4.32h4.32v-.96h-4.32v-4.32Zm0,24h-.96v4.32h-4.32v.96h4.32v4.32h.96v-4.32h4.32v-.96h-4.32v-4.32Zm24-168h-.96v4.32h-4.32v.96h4.32v4.32h.96v-4.32h4.32v-.96h-4.32v-4.32Zm0,24h-.96v4.32h-4.32v.96h4.32v4.32h.96v-4.32h4.32v-.96h-4.32v-4.32Zm24-24h-.96v4.32h-4.32v.96h4.32v4.32h.96v-4.32h4.32v-.96h-4.32v-4.32Zm0,24h-.96v4.32h-4.32v.96h4.32v4.32h.96v-4.32h4.32v-.96h-4.32v-4.32Zm24-24h-.96v4.32h-4.32v.96h4.32v4.32h.96v-4.32h4.32v-.96h-4.32v-4.32Zm0,24h-.96v4.32h-4.32v.96h4.32v4.32h.96v-4.32h4.32v-.96h-4.32v-4.32Zm24-24h-.96v4.32h-4.32v.96h4.32v4.32h.96v-4.32h4.32v-.96h-4.32v-4.32Zm0,24h-.96v4.32h-4.32v.96h4.32v4.32h.96v-4.32h4.32v-.96h-4.32v-4.32Zm-72,24h-.96v4.32h-4.32v.96h4.32v4.32h.96v-4.32h4.32v-.96h-4.32v-4.32Zm0,24h-.96v4.32h-4.32v.96h4.32v4.32h.96v-4.32h4.32v-.96h-4.32v-4.32Zm24-24h-.96v4.32h-4.32v.96h4.32v4.32h.96v-4.32h4.32v-.96h-4.32v-4.32Zm0,24h-.96v4.32h-4.32v.96h4.32v4.32h.96v-4.32h4.32v-.96h-4.32v-4.32Zm24-24h-.96v4.32h-4.32v.96h4.32v4.32h.96v-4.32h4.32v-.96h-4.32v-4.32Zm0,24h-.96v4.32h-4.32v.96h4.32v4.32h.96v-4.32h4.32v-.96h-4.32v-4.32Zm24-24h-.96v4.32h-4.32v.96h4.32v4.32h.96v-4.32h4.32v-.96h-4.32v-4.32Zm0,24h-.96v4.32h-4.32v.96h4.32v4.32h.96v-4.32h4.32v-.96h-4.32v-4.32Zm24-72h-.96v4.32h-4.32v.96h4.32v4.32h.96v-4.32h4.32v-.96h-4.32v-4.32Zm0,24h-.96v4.32h-4.32v.96h4.32v4.32h.96v-4.32h4.32v-.96h-4.32v-4.32Zm24-24h-.96v4.32h-4.32v.96h4.32v4.32h.96v-4.32h4.32v-.96h-4.32v-4.32Zm0,24h-.96v4.32h-4.32v.96h4.32v4.32h.96v-4.32h4.32v-.96h-4.32v-4.32Zm24-24h-.96v4.32h-4.32v.96h4.32v4.32h.96v-4.32h4.32v-.96h-4.32v-4.32Zm0,24h-.96v4.32h-4.32v.96h4.32v4.32h.96v-4.32h4.32v-.96h-4.32v-4.32Zm24-24h-.96v4.32h-4.32v.96h4.32v4.32h.96v-4.32h4.32v-.96h-4.32v-4.32Zm0,24h-.96v4.32h-4.32v.96h4.32v4.32h.96v-4.32h4.32v-.96h-4.32v-4.32Zm-72,24h-.96v4.32h-4.32v.96h4.32v4.32h.96v-4.32h4.32v-.96h-4.32v-4.32Zm0,24h-.96v4.32h-4.32v.96h4.32v4.32h.96v-4.32h4.32v-.96h-4.32v-4.32Zm24-24h-.96v4.32h-4.32v.96h4.32v4.32h.96v-4.32h4.32v-.96h-4.32v-4.32Zm0,24h-.96v4.32h-4.32v.96h4.32v4.32h.96v-4.32h4.32v-.96h-4.32v-4.32Zm24-24h-.96v4.32h-4.32v.96h4.32v4.32h.96v-4.32h4.32v-.96h-4.32v-4.32Zm0,24h-.96v4.32h-4.32v.96h4.32v4.32h.96v-4.32h4.32v-.96h-4.32v-4.32Zm24-24h-.96v4.32h-4.32v.96h4.32v4.32h.96v-4.32h4.32v-.96h-4.32v-4.32Zm0,24h-.96v4.32h-4.32v.96h4.32v4.32h.96v-4.32h4.32v-.96h-4.32v-4.32Zm-168,24h-.96v4.32h-4.32v.96h4.32v4.32h.96v-4.32h4.32v-.96h-4.32v-4.32Zm0,24h-.96v4.32h-4.32v.96h4.32v4.32h.96v-4.32h4.32v-.96h-4.32v-4.32Zm24-24h-.96v4.32h-4.32v.96h4.32v4.32h.96v-4.32h4.32v-.96h-4.32v-4.32Zm0,24h-.96v4.32h-4.32v.96h4.32v4.32h.96v-4.32h4.32v-.96h-4.32v-4.32Zm24-24h-.96v4.32h-4.32v.96h4.32v4.32h.96v-4.32h4.32v-.96h-4.32v-4.32Zm0,24h-.96v4.32h-4.32v.96h4.32v4.32h.96v-4.32h4.32v-.96h-4.32v-4.32Zm24-24h-.96v4.32h-4.32v.96h4.32v4.32h.96v-4.32h4.32v-.96h-4.32v-4.32Zm0,24h-.96v4.32h-4.32v.96h4.32v4.32h.96v-4.32h4.32v-.96h-4.32v-4.32Zm-72,24h-.96v4.32h-4.32v.96h4.32v4.32h.96v-4.32h4.32v-.96h-4.32v-4.32Zm0,24h-.96v4.32h-4.32v.96h4.32v4.32h.96v-4.32h4.32v-.96h-4.32v-4.32Zm24-24h-.96v4.32h-4.32v.96h4.32v4.32h.96v-4.32h4.32v-.96h-4.32v-4.32Zm0,24h-.96v4.32h-4.32v.96h4.32v4.32h.96v-4.32h4.32v-.96h-4.32v-4.32Zm24-24h-.96v4.32h-4.32v.96h4.32v4.32h.96v-4.32h4.32v-.96h-4.32v-4.32Zm0,24h-.96v4.32h-4.32v.96h4.32v4.32h.96v-4.32h4.32v-.96h-4.32v-4.32Zm24-24h-.96v4.32h-4.32v.96h4.32v4.32h.96v-4.32h4.32v-.96h-4.32v-4.32Zm0,24h-.96v4.32h-4.32v.96h4.32v4.32h.96v-4.32h4.32v-.96h-4.32v-4.32Zm24-72h-.96v4.32h-4.32v.96h4.32v4.32h.96v-4.32h4.32v-.96h-4.32v-4.32Zm0,24h-.96v4.32h-4.32v.96h4.32v4.32h.96v-4.32h4.32v-.96h-4.32v-4.32Zm24-24h-.96v4.32h-4.32v.96h4.32v4.32h.96v-4.32h4.32v-.96h-4.32v-4.32Zm0,24h-.96v4.32h-4.32v.96h4.32v4.32h.96v-4.32h4.32v-.96h-4.32v-4.32Zm24-24h-.96v4.32h-4.32v.96h4.32v4.32h.96v-4.32h4.32v-.96h-4.32v-4.32Zm0,24h-.96v4.32h-4.32v.96h4.32v4.32h.96v-4.32h4.32v-.96h-4.32v-4.32Zm24-24h-.96v4.32h-4.32v.96h4.32v4.32h.96v-4.32h4.32v-.96h-4.32v-4.32Zm0,24h-.96v4.32h-4.32v.96h4.32v4.32h.96v-4.32h4.32v-.96h-4.32v-4.32Zm-72,24h-.96v4.32h-4.32v.96h4.32v4.32h.96v-4.32h4.32v-.96h-4.32v-4.32Zm0,24h-.96v4.32h-4.32v.96h4.32v4.32h.96v-4.32h4.32v-.96h-4.32v-4.32Zm24-24h-.96v4.32h-4.32v.96h4.32v4.32h.96v-4.32h4.32v-.96h-4.32v-4.32Zm0,24h-.96v4.32h-4.32v.96h4.32v4.32h.96v-4.32h4.32v-.96h-4.32v-4.32Zm24-24h-.96v4.32h-4.32v.96h4.32v4.32h.96v-4.32h4.32v-.96h-4.32v-4.32Zm0,24h-.96v4.32h-4.32v.96h4.32v4.32h.96v-4.32h4.32v-.96h-4.32v-4.32Zm24-24h-.96v4.32h-4.32v.96h4.32v4.32h.96v-4.32h4.32v-.96h-4.32v-4.32Zm0,24h-.96v4.32h-4.32v.96h4.32v4.32h.96v-4.32h4.32v-.96h-4.32v-4.32Zm-312,24h-.96v4.32h-4.32v.96h4.32v4.32h.96v-4.32h4.32v-.96h-4.32v-4.32Zm0,24h-.96v4.32h-4.32v.96h4.32v4.32h.96v-4.32h4.32v-.96h-4.32v-4.32Zm24-24h-.96v4.32h-4.32v.96h4.32v4.32h.96v-4.32h4.32v-.96h-4.32v-4.32Zm0,24h-.96v4.32h-4.32v.96h4.32v4.32h.96v-4.32h4.32v-.96h-4.32v-4.32Zm-24,24h-.96v4.32h-4.32v.96h4.32v4.32h.96v-4.32h4.32v-.96h-4.32v-4.32Zm0,24h-.96v4.32h-4.32v.96h4.32v4.32h.96v-4.32h4.32v-.96h-4.32v-4.32Zm24-24h-.96v4.32h-4.32v.96h4.32v4.32h.96v-4.32h4.32v-.96h-4.32v-4.32Zm0,24h-.96v4.32h-4.32v.96h4.32v4.32h.96v-4.32h4.32v-.96h-4.32v-4.32Zm24-72h-.96v4.32h-4.32v.96h4.32v4.32h.96v-4.32h4.32v-.96h-4.32v-4.32Zm0,24h-.96v4.32h-4.32v.96h4.32v4.32h.96v-4.32h4.32v-.96h-4.32v-4.32Zm24-24h-.96v4.32h-4.32v.96h4.32v4.32h.96v-4.32h4.32v-.96h-4.32v-4.32Zm0,24h-.96v4.32h-4.32v.96h4.32v4.32h.96v-4.32h4.32v-.96h-4.32v-4.32Zm24-24h-.96v4.32h-4.32v.96h4.32v4.32h.96v-4.32h4.32v-.96h-4.32v-4.32Zm0,24h-.96v4.32h-4.32v.96h4.32v4.32h.96v-4.32h4.32v-.96h-4.32v-4.32Zm24-24h-.96v4.32h-4.32v.96h4.32v4.32h.96v-4.32h4.32v-.96h-4.32v-4.32Zm0,24h-.96v4.32h-4.32v.96h4.32v4.32h.96v-4.32h4.32v-.96h-4.32v-4.32Zm-72,24h-.96v4.32h-4.32v.96h4.32v4.32h.96v-4.32h4.32v-.96h-4.32v-4.32Zm0,24h-.96v4.32h-4.32v.96h4.32v4.32h.96v-4.32h4.32v-.96h-4.32v-4.32Zm24-24h-.96v4.32h-4.32v.96h4.32v4.32h.96v-4.32h4.32v-.96h-4.32v-4.32Zm0,24h-.96v4.32h-4.32v.96h4.32v4.32h.96v-4.32h4.32v-.96h-4.32v-4.32Zm24-24h-.96v4.32h-4.32v.96h4.32v4.32h.96v-4.32h4.32v-.96h-4.32v-4.32Zm0,24h-.96v4.32h-4.32v.96h4.32v4.32h.96v-4.32h4.32v-.96h-4.32v-4.32Zm24-24h-.96v4.32h-4.32v.96h4.32v4.32h.96v-4.32h4.32v-.96h-4.32v-4.32Zm0,24h-.96v4.32h-4.32v.96h4.32v4.32h.96v-4.32h4.32v-.96h-4.32v-4.32Zm-120,24h-.96v4.32h-4.32v.96h4.32v4.32h.96v-4.32h4.32v-.96h-4.32v-4.32Zm0,24h-.96v4.32h-4.32v.96h4.32v4.32h.96v-4.32h4.32v-.96h-4.32v-4.32Zm24-24h-.96v4.32h-4.32v.96h4.32v4.32h.96v-4.32h4.32v-.96h-4.32v-4.32Zm0,24h-.96v4.32h-4.32v.96h4.32v4.32h.96v-4.32h4.32v-.96h-4.32v-4.32Zm-24,24h-.96v4.32h-4.32v.96h4.32v4.32h.96v-4.32h4.32v-.96h-4.32v-4.32Zm24,0h-.96v4.32h-4.32v.96h4.32v4.32h.96v-4.32h4.32v-.96h-4.32v-4.32Zm24-48h-.96v4.32h-4.32v.96h4.32v4.32h.96v-4.32h4.32v-.96h-4.32v-4.32Zm0,24h-.96v4.32h-4.32v.96h4.32v4.32h.96v-4.32h4.32v-.96h-4.32v-4.32Zm24-24h-.96v4.32h-4.32v.96h4.32v4.32h.96v-4.32h4.32v-.96h-4.32v-4.32Zm0,24h-.96v4.32h-4.32v.96h4.32v4.32h.96v-4.32h4.32v-.96h-4.32v-4.32Zm24-24h-.96v4.32h-4.32v.96h4.32v4.32h.96v-4.32h4.32v-.96h-4.32v-4.32Zm0,24h-.96v4.32h-4.32v.96h4.32v4.32h.96v-4.32h4.32v-.96h-4.32v-4.32Zm24-24h-.96v4.32h-4.32v.96h4.32v4.32h.96v-4.32h4.32v-.96h-4.32v-4.32Zm0,24h-.96v4.32h-4.32v.96h4.32v4.32h.96v-4.32h4.32v-.96h-4.32v-4.32Zm-72,24h-.96v4.32h-4.32v.96h4.32v4.32h.96v-4.32h4.32v-.96h-4.32v-4.32Zm24,0h-.96v4.32h-4.32v.96h4.32v4.32h.96v-4.32h4.32v-.96h-4.32v-4.32Zm24,0h-.96v4.32h-4.32v.96h4.32v4.32h.96v-4.32h4.32v-.96h-4.32v-4.32Zm24,0h-.96v4.32h-4.32v.96h4.32v4.32h.96v-4.32h4.32v-.96h-4.32v-4.32Zm24-144h-.96v4.32h-4.32v.96h4.32v4.32h.96v-4.32h4.32v-.96h-4.32v-4.32Zm0,24h-.96v4.32h-4.32v.96h4.32v4.32h.96v-4.32h4.32v-.96h-4.32v-4.32Zm24-24h-.96v4.32h-4.32v.96h4.32v4.32h.96v-4.32h4.32v-.96h-4.32v-4.32Zm0,24h-.96v4.32h-4.32v.96h4.32v4.32h.96v-4.32h4.32v-.96h-4.32v-4.32Zm24-24h-.96v4.32h-4.32v.96h4.32v4.32h.96v-4.32h4.32v-.96h-4.32v-4.32Zm0,24h-.96v4.32h-4.32v.96h4.32v4.32h.96v-4.32h4.32v-.96h-4.32v-4.32Zm24-24h-.96v4.32h-4.32v.96h4.32v4.32h.96v-4.32h4.32v-.96h-4.32v-4.32Zm0,24h-.96v4.32h-4.32v.96h4.32v4.32h.96v-4.32h4.32v-.96h-4.32v-4.32Zm-72,24h-.96v4.32h-4.32v.96h4.32v4.32h.96v-4.32h4.32v-.96h-4.32v-4.32Zm0,24h-.96v4.32h-4.32v.96h4.32v4.32h.96v-4.32h4.32v-.96h-4.32v-4.32Zm24-24h-.96v4.32h-4.32v.96h4.32v4.32h.96v-4.32h4.32v-.96h-4.32v-4.32Zm0,24h-.96v4.32h-4.32v.96h4.32v4.32h.96v-4.32h4.32v-.96h-4.32v-4.32Zm24-24h-.96v4.32h-4.32v.96h4.32v4.32h.96v-4.32h4.32v-.96h-4.32v-4.32Zm0,24h-.96v4.32h-4.32v.96h4.32v4.32h.96v-4.32h4.32v-.96h-4.32v-4.32Zm24-24h-.96v4.32h-4.32v.96h4.32v4.32h.96v-4.32h4.32v-.96h-4.32v-4.32Zm0,24h-.96v4.32h-4.32v.96h4.32v4.32h.96v-4.32h4.32v-.96h-4.32v-4.32Zm24-72h-.96v4.32h-4.32v.96h4.32v4.32h.96v-4.32h4.32v-.96h-4.32v-4.32Zm0,24h-.96v4.32h-4.32v.96h4.32v4.32h.96v-4.32h4.32v-.96h-4.32v-4.32Zm24-24h-.96v4.32h-4.32v.96h4.32v4.32h.96v-4.32h4.32v-.96h-4.32v-4.32Zm0,24h-.96v4.32h-4.32v.96h4.32v4.32h.96v-4.32h4.32v-.96h-4.32v-4.32Zm24-24h-.96v4.32h-4.32v.96h4.32v4.32h.96v-4.32h4.32v-.96h-4.32v-4.32Zm0,24h-.96v4.32h-4.32v.96h4.32v4.32h.96v-4.32h4.32v-.96h-4.32v-4.32Zm24-24h-.96v4.32h-4.32v.96h4.32v4.32h.96v-4.32h4.32v-.96h-4.32v-4.32Zm0,24h-.96v4.32h-4.32v.96h4.32v4.32h.96v-4.32h4.32v-.96h-4.32v-4.32Zm-72,24h-.96v4.32h-4.32v.96h4.32v4.32h.96v-4.32h4.32v-.96h-4.32v-4.32Zm0,24h-.96v4.32h-4.32v.96h4.32v4.32h.96v-4.32h4.32v-.96h-4.32v-4.32Zm24-24h-.96v4.32h-4.32v.96h4.32v4.32h.96v-4.32h4.32v-.96h-4.32v-4.32Zm0,24h-.96v4.32h-4.32v.96h4.32v4.32h.96v-4.32h4.32v-.96h-4.32v-4.32Zm24-24h-.96v4.32h-4.32v.96h4.32v4.32h.96v-4.32h4.32v-.96h-4.32v-4.32Zm0,24h-.96v4.32h-4.32v.96h4.32v4.32h.96v-4.32h4.32v-.96h-4.32v-4.32Zm24-24h-.96v4.32h-4.32v.96h4.32v4.32h.96v-4.32h4.32v-.96h-4.32v-4.32Zm0,24h-.96v4.32h-4.32v.96h4.32v4.32h.96v-4.32h4.32v-.96h-4.32v-4.32Zm-168,24h-.96v4.32h-4.32v.96h4.32v4.32h.96v-4.32h4.32v-.96h-4.32v-4.32Zm0,24h-.96v4.32h-4.32v.96h4.32v4.32h.96v-4.32h4.32v-.96h-4.32v-4.32Zm24-24h-.96v4.32h-4.32v.96h4.32v4.32h.96v-4.32h4.32v-.96h-4.32v-4.32Zm0,24h-.96v4.32h-4.32v.96h4.32v4.32h.96v-4.32h4.32v-.96h-4.32v-4.32Zm24-24h-.96v4.32h-4.32v.96h4.32v4.32h.96v-4.32h4.32v-.96h-4.32v-4.32Zm0,24h-.96v4.32h-4.32v.96h4.32v4.32h.96v-4.32h4.32v-.96h-4.32v-4.32Zm24-24h-.96v4.32h-4.32v.96h4.32v4.32h.96v-4.32h4.32v-.96h-4.32v-4.32Zm0,24h-.96v4.32h-4.32v.96h4.32v4.32h.96v-4.32h4.32v-.96h-4.32v-4.32Zm-72,24h-.96v4.32h-4.32v.96h4.32v4.32h.96v-4.32h4.32v-.96h-4.32v-4.32Zm24,0h-.96v4.32h-4.32v.96h4.32v4.32h.96v-4.32h4.32v-.96h-4.32v-4.32Zm24,0h-.96v4.32h-4.32v.96h4.32v4.32h.96v-4.32h4.32v-.96h-4.32v-4.32Zm24,0h-.96v4.32h-4.32v.96h4.32v4.32h.96v-4.32h4.32v-.96h-4.32v-4.32Zm24-48h-.96v4.32h-4.32v.96h4.32v4.32h.96v-4.32h4.32v-.96h-4.32v-4.32Zm0,24h-.96v4.32h-4.32v.96h4.32v4.32h.96v-4.32h4.32v-.96h-4.32v-4.32Zm24-24h-.96v4.32h-4.32v.96h4.32v4.32h.96v-4.32h4.32v-.96h-4.32v-4.32Zm0,24h-.96v4.32h-4.32v.96h4.32v4.32h.96v-4.32h4.32v-.96h-4.32v-4.32Zm24-24h-.96v4.32h-4.32v.96h4.32v4.32h.96v-4.32h4.32v-.96h-4.32v-4.32Zm0,24h-.96v4.32h-4.32v.96h4.32v4.32h.96v-4.32h4.32v-.96h-4.32v-4.32Zm24-24h-.96v4.32h-4.32v.96h4.32v4.32h.96v-4.32h4.32v-.96h-4.32v-4.32Zm0,24h-.96v4.32h-4.32v.96h4.32v4.32h.96v-4.32h4.32v-.96h-4.32v-4.32Zm-72,24h-.96v4.32h-4.32v.96h4.32v4.32h.96v-4.32h4.32v-.96h-4.32v-4.32Zm24,0h-.96v4.32h-4.32v.96h4.32v4.32h.96v-4.32h4.32v-.96h-4.32v-4.32Zm24,0h-.96v4.32h-4.32v.96h4.32v4.32h.96v-4.32h4.32v-.96h-4.32v-4.32Zm24,0h-.96v4.32h-4.32v.96h4.32v4.32h.96v-4.32h4.32v-.96h-4.32v-4.32Z"/></g></svg>