<?xml version="1.0" standalone="no"?>
<!DOCTYPE svg PUBLIC "-//W3C//DTD SVG 1.1//EN" "http://www.w3.org/Graphics/SVG/1.1/DTD/svg11.dtd">
<svg xmlns:inkscape="http://www.inkscape.org/namespaces/inkscape" xmlns:sodipodi="http://sodipodi.sourceforge.net/DTD/sodipodi-0.dtd" xmlns="http://www.w3.org/2000/svg" xmlns:svg="http://www.w3.org/2000/svg" version="1.1" viewBox="0 0 1200 1200" id="svg140" sodipodi:docname="VIPER EYES.svg" inkscape:version="1.3 (0e150ed, 2023-07-21)" inkscape:export-filename="Viper head source file No outline no shadow.png" inkscape:export-xdpi="120" inkscape:export-ydpi="120" width="1200" height="1200">
  <defs id="defs140"/>
  <sodipodi:namedview id="namedview140" pagecolor="#ffffff" bordercolor="#000000" borderopacity="0.25" inkscape:showpageshadow="2" inkscape:pageopacity="0.0" inkscape:pagecheckerboard="0" inkscape:deskcolor="#d1d1d1" inkscape:zoom="0.33048545" inkscape:cx="555.24381" inkscape:cy="695.94592" inkscape:window-width="1472" inkscape:window-height="833" inkscape:window-x="0" inkscape:window-y="38" inkscape:window-maximized="0" inkscape:current-layer="svg140"/>
  <g id="g1" transform="matrix(0.91887169,0,0,0.91025888,-50.556562,-2.8011582)">
    <g fill="#febc4c" id="g73" style="display:inline;fill:#ffba26;fill-opacity:1" inkscape:label="g73">
      <path d="m 440.73,857.82 q 3,-3.41 5.92,-6.76 c 3.85,-4.43 5.63,-7.84 7.84,-13.06 q 7.26,-17.1 9.91,-36.11 c 1.04,-7.54 1.5,-15.1 2.31,-22.5 q 0.79,-7.29 -0.2,-14.57 c -0.95,-7.06 -3.73,-13.12 -7.49,-19.36 q -4.57,-7.58 -9.02,-14.81 -0.57,-2.18 -1.69,-3.96 -9.59,-15.26 -17.24,-25.15 -5.51,-7.12 -14.46,-15.02 -18.62,-16.44 -26.69,-39.64 -2.07,-5.96 -1.97,-13.43 c 0.03,-2.92 -0.62,-5.82 -0.73,-7.7 a 7.35,7.19 -40.8 0 1 0.18,-2.14 l 3.19,-13.84 q 0.02,-0.05 0.04,-0.1 7.07,-14.34 18.27,-22.85 11.61,-8.83 18.44,-17.41 c 2.31,-2.91 3.64,-5.26 5.42,-8.62 q 0.73,-1.36 4.27,-6.33 5.51,-7.71 7.3,-14.35 1.71,-6.31 1.63,-16.57 c -0.02,-1.64 -0.57,-2.89 -1.29,-4.35 a 0.17,0.17 0 0 0 -0.32,0.06 q -0.28,6.99 -2.69,13.82 c -2.05,5.82 -7.09,12 -11.32,16.26 -7.48,7.51 -19.82,14.12 -30.56,10.08 a 0.24,0.23 -40.2 0 1 0.04,-0.45 q 14.33,-2.74 22.37,-15.2 c 1.3,-2.02 1.82,-3.87 2.33,-5.69 a 0.25,0.24 -20.4 0 0 -0.44,-0.2 q -2.82,4.21 -6.78,7.67 c -6.9,6.02 -21.75,6.55 -30.04,2.97 q -4.46,-1.93 -6.9,-3.24 a 5.89,5.89 0 0 1 -2.49,-2.55 c -3.59,-7.12 -7.93,-15.92 -13.66,-23.08 q -0.9,-1.14 -6.29,-6.17 -7.63,-7.15 -10.29,-17.61 -0.32,-1.28 -1.36,-8.01 -0.28,-1.83 -1.42,-7.99 -1.72,-9.3 -1.72,-14.11 0.03,-16.53 4.62,-39.49 c 0.4,-2.02 2.41,-6.85 3.35,-10.33 q 0.59,-2.23 1.87,-4.11 a 0.24,0.23 32.4 0 0 -0.08,-0.33 l -0.3,-0.17 a 0.16,0.16 0 0 0 -0.21,0.05 l -4.95,7.77 a 0.19,0.18 45.9 0 1 -0.32,-0.01 l -0.19,-0.34 a 0.36,0.36 0 0 0 -0.59,-0.05 q -8.49,10.11 -12.28,22.32 -3.96,12.75 -5.94,24.53 -2.76,16.45 -0.72,35.36 1.42,13.14 4.86,22.6 4.46,12.29 10,20.78 6.64,10.18 9.38,16.77 c 5.41,12.97 6.89,31.53 -0.38,44.64 q -13.82,24.93 -42.11,28.45 -11.04,1.37 -21.1,-0.31 -4.2,-0.69 -7.42,-2.31 -4.67,-2.35 -6.46,-4.28 -5.54,-5.96 -9.85,-10.32 -0.44,-0.45 -0.59,-0.9 -0.3,-0.9 -0.57,-0.94 a 0.44,0.44 0 0 0 -0.47,0.62 q 5.11,10.54 11.57,17.53 7.25,7.85 18.71,11.13 a 0.18,0.17 -77.3 0 1 0.12,0.2 l -0.02,0.07 a 0.17,0.17 0 0 1 -0.19,0.14 q -18.04,-2.03 -31.66,-12.7 c -4.28,-3.35 -10.9,-11.92 -12.2,-18.84 q -0.96,-5.07 -1.01,-6.03 -0.34,-5.4 0.22,-19.25 c 0.38,-9.38 -1.8,-16.87 -5.47,-25.63 a 19.27,18.94 -62.9 0 1 -1.09,-3.47 c -2.49,-11.81 -6.33,-20.41 -11.39,-31.91 q -2.1,-4.77 -5.07,-15.98 a 7.41,6.81 39 0 1 -0.22,-1.49 q -0.16,-4.11 -0.92,-6.81 a 4.76,4.63 -53.7 0 1 -0.18,-1.29 l 0.04,-7.33 a 0.26,0.25 5.5 0 0 -0.21,-0.25 h -0.01 a 0.14,0.13 6.8 0 0 -0.15,0.11 q -2.89,17.4 0.97,32.11 7.52,28.68 9.04,40.54 1.04,8.04 2.8,18.19 a 24.19,24.01 -49.3 0 1 0.35,4.94 q -0.07,2.55 -0.28,6.27 c -0.93,16.57 1.07,33.69 8.97,48.36 q 4.06,7.53 10.28,12 10.44,7.5 23.36,8.4 6.07,0.43 11.53,0.36 a 6.21,5.86 -37.2 0 1 1.47,0.16 q 2.96,0.69 6.99,2.43 8.84,3.81 16.09,8.9 c 12.44,8.73 18.54,21.9 21.21,37.62 q 2.22,13.08 3.36,22.45 c 1.04,8.53 2.85,15.87 4.99,24.88 q 0.96,4.06 2.6,7.21 1.78,16.83 8.36,36.89 5.78,17.59 12.41,28.09 c 1.49,2.37 3.52,5.1 5.24,6.97 q 8.79,9.55 17.64,17.6 4.89,4.45 15.94,9.11 a 7.17,6.93 57.3 0 0 2.17,0.51 q 3.26,0.22 4.94,-0.01 5.31,-0.71 11.38,-1.34 l -6.54,3.88 -0.84,0.08 c -25.41,-2.24 -47.63,-17.26 -61.3,-38.22 q -9.24,-14.17 -14.5,-26.24 -4.57,-10.5 -8.14,-26.1 -2.96,-12.91 -8.87,-29.12 c -5.81,-15.93 -17.04,-32.23 -32.33,-39.96 q -7.08,-3.58 -13.75,-2.67 c -0.77,0.1 -2.78,0.96 -2.97,0.94 a 0.23,0.22 31.6 0 1 -0.1,-0.41 q 2.68,-1.72 2.8,-1.76 c 8.35,-2.83 18.85,-0.7 26.05,4 q 9.05,5.92 12,8.78 3.85,3.73 8.61,11.91 a 0.26,0.26 0 0 0 0.41,0.05 l 0.08,-0.08 a 0.26,0.25 58.5 0 0 0.06,-0.26 q -0.96,-3.11 -1.76,-4.69 -5.94,-11.85 -6.92,-13.82 a 10.65,10.5 12.4 0 0 -1.41,-2.17 q -12.41,-14.89 -31.22,-16.59 c -14.96,-1.36 -25.85,11.69 -28.49,25.29 -1.66,8.58 0.36,16.82 3.27,24.91 2.26,6.32 2.86,12.72 0.92,19.22 a 0.4,0.4 0 0 1 -0.71,0.12 q -0.16,-0.23 -0.09,-0.77 a 1.41,1.4 -55.8 0 0 -0.17,-0.9 q -7.93,-14.03 -21.31,-22.89 -3.76,-2.48 -12.97,-7.78 c -10.28,-5.92 -19.31,-20.37 -20.43,-31.85 q -0.82,-8.27 -1.51,-15.1 a 0.2,0.2 0 0 1 0.38,-0.09 c 3.27,8.15 5.6,16.44 11.52,23.24 q 7.48,8.6 16.53,14.58 a 0.05165768,0.04132614 1.8 0 0 0.07,-0.06 c -7.11,-10.08 -11.75,-21.23 -16.42,-33.11 -4.05,-10.33 -6.83,-19.7 -7.88,-31.17 q -1.95,-21.37 0.74,-39.39 1.08,-7.24 5.56,-28.4 0.94,-4.44 0.9,-10.35 1.52,15.35 -0.02,33.63 -0.78,9.37 -0.5,17.92 0.27,8.31 1.97,15.84 a 0.08,0.08 0 0 0 0.09,0.06 l 0.34,-0.06 a 0.18,0.18 0 0 0 0.15,-0.21 q -1.58,-10.41 -0.74,-14.34 5.63,-26.14 5.64,-26.19 0.45,-1.92 1.9,-13.18 0.76,-5.96 0.07,-13.24 -1.22,-12.78 -2.18,-16.93 -2.18,-9.47 -12.36,-42.33 c -0.76,-2.48 -1.32,-5.67 -1.46,-8.16 q -0.64,-10.95 -0.67,-13.2 c -0.05,-4.74 0.84,-11 2.32,-16.93 q 3.11,-12.53 5.44,-20.72 c 2.38,-8.39 5.76,-14.55 10.86,-24.13 q 1.13,-2.14 2.83,-4.37 a 0.38,0.16 -50 0 1 0.41,-0.21 q 0.04,0.07 0.11,0.11 a 0.22,0.09 -61.5 0 1 -0.03,0.24 q -0.6,1.15 -0.66,1.65 -0.11,1.03 -1.73,6.43 -1.7,5.71 -4.23,20.4 -0.26,1.53 -0.31,4.89 h 0.01 q 6.32,-14.14 13.91,-28.31 c 6.14,-11.47 9.42,-23.32 11.17,-35.96 0.81,-5.8 0.05,-11.08 -1.05,-18.07 -0.93,-5.93 -4.29,-11.51 -6.72,-16.06 a 0.22,0.21 60.9 0 1 0.07,-0.28 l 0.01,-0.01 a 0.24,0.24 0 0 1 0.32,0.06 q 8.31,11.6 9.3,13.92 5.3,12.47 5.7,25.08 0.17,5.42 -1.78,12.87 c -2.11,8.06 -3.77,14.43 -6.48,21.73 -6.88,18.56 -13.92,36.89 -11.64,55.52 q 1.36,11.09 6.71,22.91 c 4.16,9.2 7.22,16.5 9.94,23.02 q 2.96,7.12 4.04,11.82 1.95,8.45 2.1,16.75 0.16,8.99 0.88,12.23 c 1.93,8.72 5.86,18.09 13.19,22.63 3.49,2.16 7.5,4.82 11.75,4.98 q 7.12,0.27 11.56,-1.58 7.44,-3.09 13.92,-11.19 c 7.2,-8.98 6.6,-24.18 3.28,-34.48 q -1.72,-5.35 -4.86,-12.22 c -1.43,-3.11 -3.89,-6.01 -5.34,-9.27 a 0.29,0.28 -26.6 0 1 0.13,-0.37 l 0.07,-0.03 a 0.28,0.27 58.8 0 1 0.36,0.09 q 3.02,4.79 3.86,5.59 8.29,7.93 11.2,11.81 12.89,17.15 7.78,38.63 a 0.18,0.18 0 0 0 0.32,0.15 c 1.6,-2.28 3.09,-4.81 3.69,-7.68 q 3.25,-15.44 -2.69,-29.14 -2.1,-4.86 -8.05,-13.35 c -6.85,-9.78 -11.97,-17 -15.7,-27.21 -3.31,-9.03 -3.18,-18.68 -1.17,-28.21 q 1.88,-8.97 4.31,-15.7 a 0.09,0.08 -68.3 0 0 -0.04,-0.11 l -0.01,-0.01 a 0.17,0.16 -61.6 0 0 -0.21,0.07 c -6.47,11.57 -11.74,21.19 -13.93,31.44 q -0.76,3.58 -0.42,7.17 0.62,6.38 0.82,7.67 a 0.2,0.2 0 0 1 -0.38,0.11 q -5.64,-14.81 -2.14,-30.01 c 1.27,-5.54 3.95,-11.79 5.79,-16.73 q 2.62,-7.01 4.01,-12.53 2.58,-10.27 2.84,-12.84 1.26,-12.65 2.27,-16.98 4.56,-19.57 17.23,-36.71 3.18,-4.31 12.64,-14.48 7.79,-8.39 12.65,-14.5 4.14,-5.2 6.77,-9.4 a 8.16,7.77 -20 0 0 0.74,-1.49 c 4.29,-11.64 4.82,-23.57 3.28,-36.53 q -0.78,-6.64 -3.39,-12.02 -5.51,-11.41 -13.65,-21 -1.65,-1.95 -7.2,-6.76 -9.74,-8.45 -14.99,-22.55 -3.12,-8.38 -3.34,-13.38 -0.3,-6.67 -0.05,-10.25 c 0.58,-8.6 4.46,-20.83 10.1,-27.17 a 0.17,0.17 0 0 1 0.28,0.17 q -7.47,19.1 -0.72,38.92 0.87,2.55 2.26,4.54 a 0.15,0.14 -69.2 0 0 0.26,-0.12 q -1.34,-5.96 -0.84,-11.54 c 0.59,-6.71 1.39,-12.79 3.47,-19.26 q 2.19,-6.79 6.18,-18.08 c 1.8,-5.07 3.99,-8.75 5.81,-13.37 0.76,-1.93 2.73,-4.43 3.31,-6.03 a 0.23,0.22 30.6 0 1 0.36,-0.09 q 0.12,0.12 0.17,0.3 a 0.2,0.17 -40.3 0 1 -0.01,0.06 q -6.84,16.86 -6.42,33.59 0.22,8.36 3.37,17.78 3.37,10.09 10.42,16.82 c 4.94,4.71 16.06,12.25 26.06,20.91 q 6.01,5.2 11.49,12.9 c 7.47,10.48 10.91,25.36 10.79,37.75 a 0.0813941,0.0813941 0 0 0 0.16,0.03 c 5.75,-15.95 2.84,-31.8 -6.46,-45.91 a 0.16,0.16 0 0 1 0.23,-0.21 q 6.56,5.45 11.78,13.86 c 7.93,12.77 10.91,29.99 6.83,44.75 q -2.74,9.92 -8.85,19.01 c -4.91,7.3 -11.78,14.63 -17.02,21.91 q -6.34,8.83 -7.3,10.5 -5.38,9.45 -8.75,14.97 c -6.6,10.8 -9.11,20.61 -10.3,33.29 q -1.06,11.22 1.37,23.24 c 1.03,5.1 3.4,10.27 5.93,15.72 q 4.76,10.27 5.35,12.77 c 2.9,12.32 4.46,20.6 11,29.07 3.2,4.14 10.16,4.64 15.6,4.7 q 5.33,0.07 9.11,-2.58 c 9.02,-6.35 9.87,-18.45 6.78,-28.12 a 0.33,0.33 0 0 1 0.59,-0.29 c 3.37,4.96 7.07,11.71 6.88,18 q -0.3,9.73 -0.84,13.99 -0.47,3.73 -1.5,6.72 a 0.18,0.18 0 0 0 0.3,0.19 q 3.84,-3.66 5.95,-8.67 c 5.14,-12.15 2.93,-23.4 -3.47,-34.52 -4.35,-7.55 -6.98,-13.72 -10.82,-22.83 -2.86,-6.81 -2.4,-13.37 -2.02,-22.25 q 0.15,-3.51 2.87,-11.64 1.2,-3.57 5.54,-10.66 3.65,-5.97 6.58,-12.23 c 0.9,-1.94 1.23,-3.56 1.56,-4.84 a 0.4,0.4 0 0 1 0.78,0.04 q 0.51,3.59 -0.61,7.35 -3.58,11.93 -4.74,22.4 -2.02,18.19 6.85,33.26 0.02,0.02 9.27,15.18 16.5,27.03 16.95,58.51 c 0.08,5.7 -1.34,12.64 -3.57,18.31 -4.7,11.93 -11.82,22.29 -21.69,30.37 -3.51,2.88 -6.94,5.07 -9.59,8.43 q -9.49,12.05 -13.08,26.57 a 6.59,6.52 48.2 0 0 -0.13,2.51 l 1.15,8.28 a 3.15,2.87 -60.8 0 0 0.14,0.6 q 3.48,10.44 4.84,14.17 c 1.99,5.44 4.93,9.81 9.12,14.46 5.45,6.05 12.66,14.87 19.83,21.61 11.15,10.49 19.98,21.26 27.59,34.45 q 16,27.79 13.93,59.31 -0.21,3.16 -0.57,5.08 -0.46,2.5 -0.3,5.15 a 0.22,0.21 84.2 0 1 -0.18,0.23 l -0.26,0.05 a 0.12,0.11 -5 0 1 -0.13,-0.1 q -0.97,-7.66 -1.05,-11.01 -0.16,-6.3 -1.28,-10.79 c -2.7,-10.81 -8.35,-20.97 -14.81,-30.17 a 0.06,0.06 0 0 0 -0.1,0.06 q 5.7,13.22 8.69,27.86 1.61,7.88 1.3,15.28 -0.27,6.52 -1.55,15.29 -3.35,22.97 -18.8,46.21 -7.5,11.27 -15.95,17.36 z M 334.4,229.66 q -0.18,0.2 -0.2,0.78 -0.01,0.29 0.44,0.41 0.23,0.05 0.4,-0.5 a 0.55,0.4 82.8 0 0 -0.64,-0.69 z m 44.63,77.09 q 1.31,5.15 1.99,11.3 c 1.08,9.9 -1.29,20.41 -5.63,28.65 -2.22,4.22 -5.9,10.39 -8.26,15.9 q -2.58,6.04 -6.4,13.91 0,0.01 -1.28,4.68 a 0.35,0.34 1.5 0 0 0.41,0.43 q 0.84,-0.21 1.56,-1.49 c 2.05,-3.68 3.96,-6.9 6.97,-10.07 8.13,-8.55 14.94,-15.37 16.41,-27.03 0.42,-3.37 1.1,-6.53 1.06,-9.38 q -0.21,-14.37 -6.58,-27 a 0.14,0.13 -66.1 0 0 -0.25,0.1 z M 233.68,639.38 a 0.25,0.25 0 0 0 -0.49,-0.01 c -0.85,4.37 -0.75,8.35 -0.81,15.34 q -0.04,3.57 2.53,9.53 c 1.57,3.66 7.04,9.12 9.82,11.1 6.55,4.67 14.14,5.34 22.06,3.81 2.63,-0.51 4.99,-0.14 7.4,-0.2 a 0.58,0.58 0 0 0 0.29,-1.07 q -8.23,-5.09 -18.52,-9.46 -13.24,-5.62 -20.4,-18.84 a 2.85,2.77 -65.1 0 1 -0.29,-0.83 z m 8.91,46.04 q -0.02,-0.05 -0.78,-0.21 -0.55,-0.12 -1.11,-0.75 -4.25,-4.8 -5.12,-5.68 a 4.53,4.44 -79.4 0 1 -1,-1.49 c -1.15,-2.78 -3.52,-4.71 -5.12,-7.49 a 0.41,0.4 -48.7 0 0 -0.73,0.05 q -2.36,5.83 0.47,9.47 a 5.15,4.89 1.9 0 0 0.77,0.78 q 5.48,4.36 12.15,5.87 a 0.41,0.41 0 0 0 0.47,-0.55 z" id="path70" style="fill:#ffba26;fill-opacity:1"/>
      <path d="m 990.05,866.34 16.4,1.8 a 2.31,2.28 37.7 0 0 0.99,-0.12 q 10.24,-3.71 16.66,-8.95 6.43,-5.25 18.1,-17.87 c 6.71,-7.24 11.23,-16.8 14.99,-26.48 q 8.88,-22.89 11.42,-45.5 1.78,-3.87 2.7,-7.43 3.78,-14.75 6.21,-33.54 1.55,-11.98 3.43,-20.3 5.39,-23.87 26.04,-35.26 c 5.11,-2.82 11.01,-5.9 16.8,-7.35 a 7.1,7.07 38 0 1 1.83,-0.22 q 5.58,0.06 11.15,-0.34 13.1,-0.93 23.41,-8.31 6.34,-4.54 10.53,-12.29 c 9.14,-16.96 9.64,-35.63 8.5,-54.81 a 12.51,11.99 49.3 0 1 0.15,-2.75 q 1.43,-8.7 3.77,-24.23 1.44,-9.58 6.53,-29.14 2.98,-11.47 3.27,-14.08 1.05,-9.29 0.75,-14.44 -0.01,-0.02 -0.92,-10.71 a 0.25,0.25 0 0 0 -0.26,-0.23 l -0.31,0.01 a 0.02,0.01 -90 0 0 -0.01,0.02 l -0.15,8.2 a 2.11,1.83 -40.8 0 1 -0.05,0.34 q -0.8,3.11 -0.99,7.13 a 8.21,8.18 53.9 0 1 -0.27,1.75 q -2.75,10.68 -5.45,16.79 -6.71,15.25 -8.32,20.45 -0.91,2.91 -2.67,10.64 a 21.14,20.65 -27.8 0 1 -1.05,3.26 c -3.06,7.24 -5.71,15.12 -5.48,22.62 q 0.24,7.38 0.35,17 0.11,8.88 -1.86,14.02 c -2.96,7.7 -8.81,14.88 -16.41,19.65 q -11.9,7.46 -26.64,9.2 a 0.11,0.11 0 0 1 -0.1,-0.06 l -0.12,-0.21 a 0.15,0.15 0 0 1 0.1,-0.21 q 11.84,-3.32 19.51,-12.02 6.2,-7.03 10.71,-16.62 a 0.41,0.4 8.3 0 0 -0.43,-0.57 q -0.28,0.04 -0.52,0.73 -0.26,0.76 -0.74,1.21 -3.4,3.15 -6.54,6.78 c -4.8,5.56 -10.12,8.97 -17.37,10.01 q -11.63,1.67 -22.67,0.03 -23.47,-3.48 -37.07,-22.91 -7.22,-10.32 -7.97,-22.21 c -0.75,-11.79 1.68,-24.58 7.94,-34.91 q 5.01,-8.27 8.71,-14.48 6.9,-11.59 10.01,-26.42 c 5.27,-25.07 2.78,-49.43 -5.17,-73.45 q -3.5,-10.56 -11.62,-20.65 a 0.45,0.44 -41.2 0 0 -0.65,-0.04 q -0.17,0.16 -0.18,0.16 a 0.52,0.52 0 0 1 -0.63,-0.2 l -4.83,-7.44 a 0.31,0.3 15.3 0 0 -0.53,0.3 l 1.56,3.1 a 2.07,1.97 -65.3 0 1 0.15,0.44 c 0.88,4.13 2.97,8.42 3.91,13.12 q 3.74,18.58 4.24,36.68 0.05,1.76 -0.19,3.91 c -0.39,3.66 -0.64,6.66 -1.27,9.69 q -1.18,5.6 -1.91,10.55 c -1.38,9.44 -3.67,15.6 -9.63,22.62 q -0.89,1.05 -4.49,4.16 c -8.61,7.45 -12.09,18.28 -17.91,27.62 a 4.33,4.25 -0.3 0 1 -1.39,1.38 q -13.11,7.98 -28.12,4.87 c -7.42,-1.53 -12.1,-5.96 -16.08,-11.94 a 0.24,0.24 0 0 0 -0.43,0.21 l 0.99,3.01 a 5.77,5.67 21.3 0 0 0.54,1.2 q 7.9,13.61 23.08,16.72 a 0.24,0.24 0 0 1 0.02,0.46 c -2.91,0.8 -6.22,1.64 -9.52,1.05 -12.84,-2.32 -23.01,-11.24 -29.63,-22.28 q -5.29,-8.81 -5.25,-18.99 a 0.19,0.18 61 0 0 -0.34,-0.1 c -1.56,2.56 -1.14,4.63 -1.22,7.38 q -0.41,14.67 7.61,26.19 c 2.62,3.76 4.59,6.32 6.91,10.67 q 1.65,3.11 4.42,6.51 6.09,7.48 12.86,12.74 c 10.2,7.92 18.41,15.79 23.43,27.19 a 1.92,1.64 -67 0 1 0.12,0.38 l 3.14,13.38 a 6.05,6.02 41.4 0 1 0.13,1.98 c -0.27,2.78 -0.63,4.63 -0.64,8.27 q -0.05,10.05 -4.9,20.34 -7.77,16.51 -18,26.75 -3.76,3.76 -9.29,8.77 c -5.45,4.95 -8.92,8.78 -13.12,14.61 q -10.11,14.01 -12.99,19.22 0,0.01 -0.31,0.78 a 2.34,2.28 -15.1 0 1 -0.35,0.59 q -1.7,2.05 -2.4,4.67 -3.1,4.8 -10.45,16.97 -8.55,14.17 -7.26,29.92 0.91,11.21 2.18,22.38 2.62,23.04 12.63,44.54 2.16,4.64 10.16,13.22 -7.01,-5.01 -12.55,-12.83 -10.32,-14.59 -16.05,-30.18 c -3.72,-10.11 -6.13,-23.57 -6.49,-35.27 q -0.23,-7.52 1.63,-16.08 2.98,-13.73 8.11,-25.86 a 0.1,0.1 0 0 0 -0.17,-0.09 c -7.83,11.6 -15.55,25.08 -15.67,39.53 -0.03,4.15 -0.82,7.48 -0.98,11.59 a 0.26,0.25 -1.2 0 1 -0.25,0.25 l -0.27,0.01 a 0.09,0.09 0 0 1 -0.1,-0.1 q 0.14,-3.79 -0.76,-7.42 a 5.9,5.88 -52.5 0 1 -0.17,-1.32 q -0.29,-10.71 -0.19,-14.67 c 0.07,-2.59 0.8,-4.81 0.87,-7.23 q 0.04,-1.22 0.3,-2.9 c 3.39,-21.51 14.32,-41.64 28.4,-58.04 6.79,-7.89 16.46,-16.07 23.27,-24.06 q 6.15,-7.21 11.07,-12.68 c 6.06,-6.73 8.56,-16.68 11.66,-26.36 a 1.98,1.57 -38.5 0 0 0.06,-0.26 l 1.15,-8.28 a 6.28,6.1 42.9 0 0 -0.12,-2.31 c -2.46,-10.04 -7.04,-19.1 -13.41,-27.13 -2.61,-3.29 -6.34,-5.63 -10.86,-9.3 -9.29,-7.54 -16.34,-19.01 -20.5,-30.13 q -3.61,-9.66 -3.09,-20.89 1.12,-24.24 12.28,-46.91 2.5,-5.07 12.02,-19.98 10.78,-16.89 8.73,-36.19 -1.06,-10.03 -4.78,-22.64 -0.94,-3.2 -0.76,-7.09 a 0.57,0.57 0 0 1 0.55,-0.54 h 0.02 a 0.56,0.56 0 0 1 0.57,0.51 q 0.2,2.09 0.8,3.44 2.66,5.99 7.38,13.81 4.36,7.22 5.38,10.44 2.63,8.32 2.77,11.21 0.44,9.41 -0.08,15.6 c -0.33,3.93 -2.77,8.93 -4.79,13.75 q -2.77,6.6 -9.67,19.23 c -6.94,12.71 -6.43,29.22 4.11,39.83 a 0.22,0.21 -74.9 0 0 0.36,-0.21 c -0.76,-2.69 -1.53,-5.53 -1.67,-8.02 q -0.29,-5.13 -0.57,-8.78 c -0.44,-5.67 0.28,-9.81 2.74,-14.8 q 0.15,-0.32 3.77,-6.91 a 0.49,0.48 26 0 1 0.62,-0.21 l 0.02,0.01 a 0.44,0.43 21 0 1 0.24,0.53 c -3.1,9.72 -2.24,21.16 6.49,27.77 5.5,4.17 14.54,3.05 20.84,1.08 5.42,-1.7 9.94,-12.15 11.28,-16.74 q 1.7,-5.78 3.78,-14.94 0.65,-2.84 1.82,-5.22 1.79,-3.62 7.37,-16.59 2.51,-5.81 3.32,-14.13 1.83,-18.75 -3.36,-35.23 c -2.82,-8.98 -9.81,-19.31 -12.98,-24.9 -4.09,-7.25 -9.88,-15.54 -14.53,-21.03 -9.76,-11.53 -17.61,-21.46 -21.3,-35.44 -4.09,-15.45 -0.33,-34.61 9.12,-47.09 3.08,-4.07 5.43,-7.5 9.81,-10.81 a 0.0212132,0.0212132 0 0 1 0.03,0.03 q -3.17,5.43 -5.57,10.98 c -4.9,11.35 -4.92,23.48 -0.83,35.14 a 0.09124144,0.09124144 0 0 0 0.18,-0.03 c 0,-14.47 3.89,-29.58 13.24,-41.06 q 6.6,-8.09 13.73,-13.59 13.87,-10.71 17.47,-13.6 c 7.93,-6.36 11.93,-12.61 14.92,-22.02 5.12,-16.14 2.69,-34.06 -3.68,-49.53 a 0.23,0.22 -25.4 0 1 0.11,-0.29 0.25,0.25 0 0 1 0.32,0.09 q 1.66,2.59 2.58,4.59 c 2.93,6.33 4.65,9.34 7.19,16.35 q 1.33,3.69 5.38,15.75 c 2.34,6.96 3.33,14.55 3.8,20.77 q 0.3,3.99 -0.8,10.37 a 0.18,0.18 0 0 0 0.32,0.15 q 0.99,-1.13 1.58,-2.74 5.72,-15.56 2.53,-31.72 -0.25,-1.29 -2.56,-8.12 a 0.23,0.23 0 0 1 0.38,-0.23 q 1.51,1.57 2.25,2.89 4.64,8.33 6.58,17.41 3.7,17.25 -3.93,33.79 -3.26,7.08 -7.5,12.82 -1.18,1.6 -8.32,8.09 -10.08,9.16 -16.68,22.2 c -2.48,4.89 -4.07,7.88 -4.73,12.15 -1.84,11.98 -1.85,23.67 1.28,35.55 q 1.32,5.02 3.86,8.39 9.98,13.26 22.16,26.06 17.45,18.34 24.31,41.72 1.91,6.51 3,17.15 0.72,7 1.94,11.79 2.65,10.46 3.05,11.57 4.05,11.31 4.88,13.33 c 5.4,13.08 6.3,26.52 1.23,39.9 a 0.25109759,0.25109759 0 0 1 -0.49,-0.11 l 0.93,-10.36 a 5.46,5.23 43.8 0 0 -0.06,-1.38 q -1.4,-7.94 -2.05,-9.52 -5.09,-12.28 -13.19,-26.62 -0.04,-0.07 -0.07,-0.16 -0.76,-2.08 -0.01,0.01 3.5,9.78 5.46,20.34 c 2.84,15.35 -1.02,28.56 -9.94,41.87 q -5.55,8.28 -10.2,14.88 -11.84,16.8 -8.29,36.9 c 0.72,4.04 2.23,6.72 4.42,9.66 a 0.05041421,0.04033137 -70.5 0 0 0.08,-0.04 q -5.5,-21.81 7.71,-39.35 2.09,-2.77 11.63,-12.38 1.13,-1.13 3.31,-4.82 a 0.27,0.26 27.1 0 1 0.35,-0.11 l 0.09,0.05 a 0.21,0.2 -71.2 0 1 0.11,0.24 q -0.34,1.43 -3.55,6.2 -1.79,2.67 -5.36,11.85 c -4.01,10.3 -4.88,21.96 -1.58,31.56 1.93,5.62 7.42,11.24 11.93,14.52 q 8.29,6.02 19.4,4.4 a 7.19,7.14 -61.4 0 0 2.05,-0.61 c 5.84,-2.74 10.64,-5.45 14.2,-10.87 q 5.5,-8.38 6.92,-19.09 c 0.58,-4.4 0.15,-9.44 0.65,-14.1 0.95,-9.01 2.56,-15.85 6.48,-24.95 2.24,-5.19 5.45,-12.88 9.41,-21.59 q 5.34,-11.78 6.71,-23.25 c 1.99,-16.78 -3.47,-32.64 -9.96,-50.3 -4.1,-11.14 -7.15,-21.58 -9.07,-29.95 -2.51,-10.97 0.41,-24.65 4.65,-34.17 q 1.53,-3.44 9.39,-14.18 a 0.22,0.21 -55.9 0 1 0.29,-0.06 l 0.01,0.01 a 0.2,0.19 -60.6 0 1 0.06,0.25 c -2.92,5.71 -5.63,9.93 -6.77,16.64 -1.16,6.84 -1.73,13.06 -0.45,20.4 2.27,13.04 4.88,21.7 10.68,32.83 q 8.32,15.96 13.72,27.78 a 0.11,0.1 33.4 0 0 0.2,-0.04 q 0.04,-2.26 -0.35,-4.66 -2.33,-14.29 -6.49,-28.15 a 0.2,0.2 0 0 1 0.36,-0.16 q 7.06,11.12 11.79,22.75 0.99,2.45 4.3,14.37 0.92,3.3 3.56,14.48 2.1,8.95 1.75,16.8 c -0.43,9.43 -0.17,13.49 -2.31,20.28 q -4.97,15.77 -9.47,31.49 -2.91,10.18 -3.59,15.69 -1.45,11.79 -1.5,16.08 -0.09,7.25 1.93,19.35 0.64,3.82 6.02,28.14 a 0.76,0.54 -61.6 0 1 0.02,0.17 l -0.01,11.06 a 1.09,0.87 60.3 0 1 -0.05,0.32 l -0.92,2.77 a 0.32,0.31 15.5 0 0 0.23,0.4 l 0.01,0.01 a 0.24,0.23 16.8 0 0 0.29,-0.15 q 1.23,-3.72 1.25,-3.87 2.01,-17.33 -0.02,-36.56 -0.69,-6.58 0.08,-23.64 a 0.2,0.2 0 0 1 0.19,-0.19 h 0.01 a 0.2,0.2 0 0 1 0.2,0.18 c 1.11,12.62 6.42,29.91 7.45,44.04 q 1.55,21.05 -1.4,39.55 -0.87,5.49 -3.06,12.18 -4.28,13.08 -11.53,28.72 -3.94,8.52 -8.68,14.72 a 0.05315073,0.05315073 0 0 0 0.07,0.08 q 9.95,-6.56 17.26,-15.35 c 5.48,-6.59 8.08,-15.4 10.88,-22.54 a 0.22192341,0.22192341 0 0 1 0.43,0.11 c -0.41,3.59 -0.96,8.43 -1.28,12.9 -0.87,11.97 -7.26,22.49 -15.79,30.38 -4.36,4.03 -11.64,7.47 -16.36,10.47 q -14.61,9.28 -22.87,23.94 a 1.35,1.31 59.5 0 0 -0.18,0.74 l 0.04,0.88 a 0.13,0.13 0 0 1 -0.12,0.13 l -0.36,0.01 a 0.31,0.3 -8.9 0 1 -0.32,-0.23 q -2.46,-9.01 0.19,-16.9 c 2.99,-8.87 5.09,-15.63 4.54,-23.19 q -0.81,-11.02 -7.65,-19.51 c -7.06,-8.75 -16.28,-11.55 -26.97,-9.07 q -13.68,3.17 -23.14,12.93 -3.08,3.18 -5.82,8.78 c -3.65,7.48 -5.46,10.91 -6.7,14.77 a 0.39,0.39 0 0 0 0.55,0.47 q 0.22,-0.11 0.32,-0.75 0.08,-0.56 0.23,-0.74 c 2.65,-3.26 5.11,-8.35 9.34,-11.72 q 7.4,-5.9 11.83,-8.35 c 7.76,-4.29 18.36,-6.69 26.49,-2.44 q 0.98,0.51 1.23,0.79 a 0.22,0.22 0 0 1 -0.23,0.35 q -7.75,-2.47 -16.15,1.65 c -19.61,9.65 -30.54,31.06 -36.49,50.96 q -4.36,14.57 -5.82,20.92 -2.6,11.22 -6.58,21.47 -2.35,6.04 -9.76,19.23 -8.33,14.85 -18.7,24.82 c -12.42,11.94 -28.79,20.49 -46.54,22.24 q -2.59,0.26 -4.59,-1.02 a 3.91,3.67 -18.2 0 0 -0.88,-0.41 q -2.32,-0.74 -4.22,-2.53 z m 46.86,-559.33 a 0.14,0.13 66 0 0 -0.25,-0.1 q -6.33,12.6 -6.51,26.92 c -0.03,2.84 0.65,5.99 1.08,9.34 1.48,11.62 8.28,18.4 16.4,26.91 3.01,3.15 4.91,6.36 6.96,10.02 q 0.72,1.28 1.56,1.48 a 0.34,0.34 0 0 0 0.41,-0.43 q -1.28,-4.65 -1.28,-4.66 -3.83,-7.83 -6.41,-13.85 c -2.36,-5.48 -6.04,-11.62 -8.26,-15.83 -4.34,-8.2 -6.72,-18.67 -5.66,-28.54 q 0.66,-6.13 1.96,-11.26 z m 145.42,332.4 -1.59,9.36 a 2.85,2.76 65.2 0 1 -0.29,0.83 q -7.16,13.2 -20.39,18.82 -10.28,4.36 -18.5,9.44 a 0.58,0.58 0 0 0 0.29,1.07 c 2.4,0.06 4.76,-0.31 7.39,0.2 7.91,1.53 15.5,0.87 22.04,-3.8 2.78,-1.97 8.24,-7.43 9.81,-11.08 q 2.57,-5.96 2.53,-9.52 c -0.05,-6.99 0.05,-10.96 -0.8,-15.33 a 0.25,0.25 0 0 0 -0.49,0.01 z m -8.94,46.01 a 0.41,0.41 0 0 0 0.47,0.55 q 6.68,-1.51 12.17,-5.88 a 5.16,4.89 -1.9 0 0 0.77,-0.78 q 2.84,-3.65 0.47,-9.49 a 0.41,0.41 0 0 0 -0.73,-0.05 c -1.6,2.79 -3.98,4.72 -5.13,7.5 a 4.54,4.45 79.4 0 1 -1,1.5 q -0.87,0.88 -5.13,5.69 -0.56,0.63 -1.11,0.75 -0.76,0.16 -0.78,0.21 z" id="path71" style="fill:#ffba26;fill-opacity:1"/>
      <path d="m 264.68,323.38 q 0.69,-1.15 0.38,-3.39 c -0.93,-6.7 -4.79,-15.78 -11.06,-19.49 q -5.04,-2.98 -8.17,-4.8 c -6.31,-3.68 -9.52,-12.23 -10.34,-19.53 -0.53,-4.68 0.81,-9.56 1.7,-14.47 q 0.7,-3.84 4.73,-12.37 a 3.42,3.31 -13 0 1 0.48,-0.74 l 3.03,-3.51 a 6.45,5.82 83.3 0 0 0.66,-0.93 q 2.57,-4.35 4,-5.69 a 0.39,0.39 0 0 1 0.65,0.34 q -0.1,0.76 -2.13,5.56 c -2.03,4.79 -1.82,7.92 -1.93,13.9 q -0.18,9.66 6.28,16.32 4.71,4.86 6.24,6.69 a 12.84,12.72 11 0 1 1.32,1.94 q 1.72,3.07 3.71,5.23 a 7.09,6.81 -82 0 1 0.92,1.27 c 4.77,8.31 8.97,19.27 3.66,28.41 q -1.44,2.48 -3.27,5.66 a 0.38,0.38 0 0 1 -0.59,0.09 l -0.23,-0.22 a 0.22,0.22 0 0 1 -0.04,-0.27 z" id="path72" style="fill:#ffba26;fill-opacity:1"/>
      <path d="m 1151.07,323.91 a 0.38,0.38 0 0 1 -0.59,-0.09 q -1.84,-3.18 -3.28,-5.66 c -5.33,-9.15 -1.13,-20.12 3.64,-28.45 a 7.09,6.82 82 0 1 0.92,-1.27 q 1.99,-2.16 3.71,-5.24 a 12.85,12.73 -11.1 0 1 1.32,-1.94 q 1.53,-1.83 6.24,-6.7 6.46,-6.67 6.27,-16.34 c -0.12,-5.99 0.09,-9.12 -1.94,-13.92 q -2.04,-4.8 -2.14,-5.56 a 0.39,0.39 0 0 1 0.65,-0.34 q 1.43,1.34 4.01,5.69 a 6.45,5.83 -83.3 0 0 0.66,0.93 l 3.04,3.51 a 3.43,3.31 13 0 1 0.48,0.74 q 4.04,8.54 4.74,12.38 c 0.9,4.92 2.24,9.8 1.72,14.49 -0.82,7.3 -4.03,15.87 -10.34,19.55 q -3.13,1.83 -8.17,4.82 c -6.28,3.72 -10.13,12.81 -11.06,19.52 q -0.31,2.24 0.39,3.39 a 0.22,0.22 0 0 1 -0.04,0.27 z" id="path73" style="fill:#ffba26;fill-opacity:1"/>
    </g>
    <g fill="#fa4d0b" id="g128" style="fill:#ff3700;fill-opacity:1">
      <path d="m 418.82,870.47 6.54,-3.88 q 8.36,-2.74 15.37,-8.77 8.45,-6.09 15.95,-17.36 15.45,-23.24 18.8,-46.21 1.28,-8.77 1.55,-15.29 0.31,-7.4 -1.3,-15.28 -2.99,-14.64 -8.69,-27.86 a 0.06,0.06 0 0 1 0.1,-0.06 c 6.46,9.2 12.11,19.36 14.81,30.17 q 1.12,4.49 1.28,10.79 0.08,3.35 1.05,11.01 a 0.12,0.11 -5 0 0 0.13,0.1 l 0.26,-0.05 a 0.22,0.21 84.2 0 0 0.18,-0.23 q -0.16,-2.65 0.3,-5.15 0.36,-1.92 0.57,-5.08 2.07,-31.52 -13.93,-59.31 c -7.61,-13.19 -16.44,-23.96 -27.59,-34.45 -7.17,-6.74 -14.38,-15.56 -19.83,-21.61 -4.19,-4.65 -7.13,-9.02 -9.12,-14.46 q -1.36,-3.73 -4.84,-14.17 a 3.15,2.87 -60.8 0 1 -0.14,-0.6 l -1.15,-8.28 a 6.59,6.52 48.2 0 1 0.13,-2.51 q 3.59,-14.52 13.08,-26.57 c 2.65,-3.36 6.08,-5.55 9.59,-8.43 9.87,-8.08 16.99,-18.44 21.69,-30.37 2.23,-5.67 3.65,-12.61 3.57,-18.31 q -0.45,-31.48 -16.95,-58.51 -9.25,-15.16 -9.27,-15.18 -8.87,-15.07 -6.85,-33.26 1.16,-10.47 4.74,-22.4 1.12,-3.76 0.61,-7.35 a 0.4,0.4 0 0 0 -0.78,-0.04 c -0.33,1.28 -0.66,2.9 -1.56,4.84 q -2.93,6.26 -6.58,12.23 -4.34,7.09 -5.54,10.66 -2.72,8.13 -2.87,11.64 c -0.38,8.88 -0.84,15.44 2.02,22.25 3.84,9.11 6.47,15.28 10.82,22.83 6.4,11.12 8.61,22.37 3.47,34.52 q -2.11,5.01 -5.95,8.67 a 0.18,0.18 0 0 1 -0.3,-0.19 q 1.03,-2.99 1.5,-6.72 0.54,-4.26 0.84,-13.99 c 0.19,-6.29 -3.51,-13.04 -6.88,-18 a 0.33,0.33 0 0 0 -0.59,0.29 c 3.09,9.67 2.24,21.77 -6.78,28.12 q -3.78,2.65 -9.11,2.58 c -5.44,-0.06 -12.4,-0.56 -15.6,-4.7 -6.54,-8.47 -8.1,-16.75 -11,-29.07 q -0.59,-2.5 -5.35,-12.77 c -2.53,-5.45 -4.9,-10.62 -5.93,-15.72 q -2.43,-12.02 -1.37,-23.24 c 1.19,-12.68 3.7,-22.49 10.3,-33.29 q 3.37,-5.52 8.75,-14.97 0.96,-1.67 7.3,-10.5 c 5.24,-7.28 12.11,-14.61 17.02,-21.91 q 6.11,-9.09 8.85,-19.01 c 4.08,-14.76 1.1,-31.98 -6.83,-44.75 q -5.22,-8.41 -11.78,-13.86 a 0.16,0.16 0 0 0 -0.23,0.21 c 9.3,14.11 12.21,29.96 6.46,45.91 a 0.0813941,0.0813941 0 0 1 -0.16,-0.03 c 0.12,-12.39 -3.32,-27.27 -10.79,-37.75 q -5.48,-7.7 -11.49,-12.9 c -10,-8.66 -21.12,-16.2 -26.06,-20.91 q -7.05,-6.73 -10.42,-16.82 -3.15,-9.42 -3.37,-17.78 -0.42,-16.73 6.42,-33.59 a 0.2,0.17 -40.3 0 0 0.01,-0.06 q -0.05,-0.18 -0.17,-0.3 a 0.23,0.22 30.6 0 0 -0.36,0.09 c -0.58,1.6 -2.55,4.1 -3.31,6.03 -1.82,4.62 -4.01,8.3 -5.81,13.37 q -3.99,11.29 -6.18,18.08 c -2.08,6.47 -2.88,12.55 -3.47,19.26 q -0.5,5.58 0.84,11.54 a 0.15,0.14 -69.2 0 1 -0.26,0.12 q -1.39,-1.99 -2.26,-4.54 -6.75,-19.82 0.72,-38.92 a 0.17,0.17 0 0 0 -0.28,-0.17 c -5.64,6.34 -9.52,18.57 -10.1,27.17 q -0.25,3.58 0.05,10.25 0.22,5 3.34,13.38 5.25,14.1 14.99,22.55 5.55,4.81 7.2,6.76 8.14,9.59 13.65,21 2.61,5.38 3.39,12.02 c 1.54,12.96 1.01,24.89 -3.28,36.53 a 8.16,7.77 -20 0 1 -0.74,1.49 q -2.63,4.2 -6.77,9.4 -4.86,6.11 -12.65,14.5 -9.46,10.17 -12.64,14.48 -12.67,17.14 -17.23,36.71 -1.01,4.33 -2.27,16.98 -0.26,2.57 -2.84,12.84 -1.39,5.52 -4.01,12.53 c -1.84,4.94 -4.52,11.19 -5.79,16.73 q -3.5,15.2 2.14,30.01 a 0.2,0.2 0 0 0 0.38,-0.11 q -0.2,-1.29 -0.82,-7.67 -0.34,-3.59 0.42,-7.17 c 2.19,-10.25 7.46,-19.87 13.93,-31.44 a 0.17,0.16 -61.6 0 1 0.21,-0.07 l 0.01,0.01 a 0.09,0.08 -68.3 0 1 0.04,0.11 q -2.43,6.73 -4.31,15.7 c -2.01,9.53 -2.14,19.18 1.17,28.21 3.73,10.21 8.85,17.43 15.7,27.21 q 5.95,8.49 8.05,13.35 5.94,13.7 2.69,29.14 c -0.6,2.87 -2.09,5.4 -3.69,7.68 a 0.18,0.18 0 0 1 -0.32,-0.15 q 5.11,-21.48 -7.78,-38.63 -2.91,-3.88 -11.2,-11.81 -0.84,-0.8 -3.86,-5.59 a 0.28,0.27 58.8 0 0 -0.36,-0.09 l -0.07,0.03 a 0.29,0.28 -26.6 0 0 -0.13,0.37 c 1.45,3.26 3.91,6.16 5.34,9.27 q 3.14,6.87 4.86,12.22 c 3.32,10.3 3.92,25.5 -3.28,34.48 q -6.48,8.1 -13.92,11.19 -4.44,1.85 -11.56,1.58 c -4.25,-0.16 -8.26,-2.82 -11.75,-4.98 -7.33,-4.54 -11.26,-13.91 -13.19,-22.63 q -0.72,-3.24 -0.88,-12.23 -0.15,-8.3 -2.1,-16.75 -1.08,-4.7 -4.04,-11.82 c -2.72,-6.52 -5.78,-13.82 -9.94,-23.02 q -5.35,-11.82 -6.71,-22.91 c -2.28,-18.63 4.76,-36.96 11.64,-55.52 2.71,-7.3 4.37,-13.67 6.48,-21.73 q 1.95,-7.45 1.78,-12.87 -0.4,-12.61 -5.7,-25.08 -0.99,-2.32 -9.3,-13.92 a 0.24,0.24 0 0 0 -0.32,-0.06 l -0.01,0.01 a 0.22,0.21 60.9 0 0 -0.07,0.28 c 2.43,4.55 5.79,10.13 6.72,16.06 1.1,6.99 1.86,12.27 1.05,18.07 -1.75,12.64 -5.03,24.49 -11.17,35.96 q -7.59,14.17 -13.91,28.31 h -0.01 q 0.05,-3.36 0.31,-4.89 2.53,-14.69 4.23,-20.4 1.62,-5.4 1.73,-6.43 0.06,-0.5 0.66,-1.65 a 0.22,0.09 -61.5 0 0 0.03,-0.24 q -0.07,-0.04 -0.11,-0.11 a 0.38,0.16 -50 0 0 -0.41,0.21 q -1.7,2.23 -2.83,4.37 c -5.1,9.58 -8.48,15.74 -10.86,24.13 q -2.33,8.19 -5.44,20.72 c -1.48,5.93 -2.37,12.19 -2.32,16.93 q 0.03,2.25 0.67,13.2 c 0.14,2.49 0.7,5.68 1.46,8.16 q 10.18,32.86 12.36,42.33 0.96,4.15 2.18,16.93 0.69,7.28 -0.07,13.24 -1.45,11.26 -1.9,13.18 -0.01,0.05 -5.64,26.19 -0.84,3.93 0.74,14.34 a 0.18,0.18 0 0 1 -0.15,0.21 l -0.34,0.06 a 0.08,0.08 0 0 1 -0.09,-0.06 q -1.7,-7.53 -1.97,-15.84 -0.28,-8.55 0.5,-17.92 1.54,-18.28 0.02,-33.63 0.04,5.91 -0.9,10.35 -4.48,21.16 -5.56,28.4 -2.69,18.02 -0.74,39.39 c 1.05,11.47 3.83,20.84 7.88,31.17 4.67,11.88 9.31,23.03 16.42,33.11 a 0.05165768,0.04132614 1.8 0 1 -0.07,0.06 q -9.05,-5.98 -16.53,-14.58 c -5.92,-6.8 -8.25,-15.09 -11.52,-23.24 a 0.2,0.2 0 0 0 -0.38,0.09 q 0.69,6.83 1.51,15.1 c 1.12,11.48 10.15,25.93 20.43,31.85 q 9.21,5.3 12.97,7.78 13.38,8.86 21.31,22.89 a 1.41,1.4 -55.8 0 1 0.17,0.9 q -0.07,0.54 0.09,0.77 a 0.4,0.4 0 0 0 0.71,-0.12 c 1.94,-6.5 1.34,-12.9 -0.92,-19.22 -2.91,-8.09 -4.93,-16.33 -3.27,-24.91 2.64,-13.6 13.53,-26.65 28.49,-25.29 q 18.81,1.7 31.22,16.59 a 10.65,10.5 12.4 0 1 1.41,2.17 q 0.98,1.97 6.92,13.82 0.8,1.58 1.76,4.69 a 0.26,0.25 58.5 0 1 -0.06,0.26 l -0.08,0.08 a 0.26,0.26 0 0 1 -0.41,-0.05 q -4.76,-8.18 -8.61,-11.91 -2.95,-2.86 -12,-8.78 c -7.2,-4.7 -17.7,-6.83 -26.05,-4 q -0.12,0.04 -2.8,1.76 a 0.23,0.22 31.6 0 0 0.1,0.41 c 0.19,0.02 2.2,-0.84 2.97,-0.94 q 6.67,-0.91 13.75,2.67 c 15.29,7.73 26.52,24.03 32.33,39.96 q 5.91,16.21 8.87,29.12 3.57,15.6 8.14,26.1 5.26,12.07 14.5,26.24 c 13.67,20.96 35.89,35.98 61.3,38.22 q -13.76,3.47 -26.29,-0.02 -4.26,-1.19 -10.88,-5.11 c -17.89,-10.57 -33.29,-24.76 -43.1,-43.37 q -14.08,-26.73 -22.21,-56.13 -2.63,-9.53 -4.37,-13.37 -2.19,-4.85 -6.3,-12.62 -4.42,-8.33 -12.25,-11.37 -5.93,-2.31 -10.61,-0.36 c -6.71,2.78 -7.41,8.33 -8.72,15.62 a 2.63,2.56 44.2 0 0 0.03,1.08 q 2.96,12.93 3.27,15.64 0.42,3.69 -0.69,11.37 -2.04,14.11 -14.66,21.33 c -1.42,0.81 -2.74,1.47 -4.6,1.43 q -1.77,-0.04 -3.66,0.62 a 0.22,0.21 80 0 1 -0.29,-0.21 l 0.01,-0.33 a 0.04,0.03 -14.9 0 1 0.02,-0.03 q 4.49,-1.9 5.18,-5.1 2.02,-9.35 -4.13,-18.02 a 4.1,4.02 1.6 0 0 -0.86,-0.89 c -8.01,-6.14 -14.4,-9.62 -26.6,-16.97 q -4.96,-2.98 -14.32,-10.91 -19.18,-16.24 -29.21,-39.56 -5.28,-12.27 -6.64,-17.99 -0.62,-2.62 -2.77,-13.27 -1.18,-5.88 -1.15,-13.53 0.1,-20.31 4.42,-40.02 a 0.07,0.06 4.7 0 1 0.07,-0.05 l 0.38,-0.02 a 0.13,0.12 -86.4 0 1 0.13,0.15 q -0.56,2.46 -0.28,6.5 0.14,1.96 -0.12,6.41 -0.41,7.26 0.36,11.23 1.55,8.01 2.84,15.28 1.46,8.28 3.79,13.49 3.38,7.56 7.9,14.43 a 0.08,0.08 0 0 0 0.14,-0.07 q -2.8,-7.86 -4.25,-15.6 c -1.16,-6.16 -1.05,-10.79 -1.56,-17.45 q -0.31,-3.89 0.2,-8.5 c 0.38,-3.52 0.3,-7.12 0.85,-11.34 q 2,-15.26 5.37,-30.59 1.88,-8.58 2.22,-14.62 0.11,-2 1.38,-16.21 c 1.12,-12.65 -0.9,-23.28 -3.5,-37.55 q -2.21,-12.18 -7,-24.5 -0.62,-1.58 -2.11,-9.26 -0.83,-4.26 -0.91,-9.43 c -0.13,-9.82 0.13,-18.26 2.95,-27.06 q 3.84,-11.92 10.18,-23.02 c 2.36,-4.12 5.49,-7.5 8.53,-11.27 a 2.43,2.11 -84.6 0 1 0.45,-0.43 l 4.95,-3.62 a 0.24,0.24 0 0 1 0.34,0.32 q -1.4,2.11 -1.85,3.43 c -1.19,3.53 -3.27,6.65 -4.76,9.93 -3.18,7 -5.26,13.76 -5.43,21.37 -0.13,5.79 -0.83,11.57 0,17.78 q 0.01,0.06 0.01,0.19 c 0.92,-5.66 1.25,-10.49 2.92,-15.1 q 3.98,-11.01 6.57,-15.67 c 5.37,-9.66 12.36,-20.09 19.02,-29.35 8.02,-11.17 11.58,-24.04 9.4,-37.61 -0.8,-4.98 -2.47,-9.56 -3.88,-15.33 -0.37,-1.53 -0.29,-3.46 -0.31,-5.99 q -0.04,-6.32 4.09,-11.37 3.35,-4.1 7.5,-3.86 a 0.34,0.33 22.5 0 1 0.24,0.56 q -2.88,3.16 -3.31,7.53 a 3.31,3.28 41.4 0 0 0.07,1.05 q 1.42,5.9 5.05,11.5 a 5.52,5.31 6.3 0 0 0.85,1.02 c 7.64,7.06 11.62,15.96 15.06,25.98 4.17,12.11 4.88,25.6 3.69,37.68 q -0.08,0.73 -2.92,13.28 -0.42,1.84 -4.44,12.81 -4.66,12.7 -5.33,23.76 -0.28,4.66 -0.26,13.95 c 0.03,12.26 3.42,25.27 8.83,35.81 q 8.41,16.38 8.95,17.51 3.29,6.93 3.34,13.66 c 0.03,5.32 1.5,9.67 0.45,15.16 a 5.08,5.06 47.3 0 0 -0.06,1.55 q 0.52,4.36 3.43,11.79 c 2.33,5.94 8.39,7.91 14.47,7.53 q 3.86,-0.24 6.33,-1.88 3.8,-2.52 5.89,-6.85 c 3.08,-6.38 4.3,-11.96 1.53,-18.54 -2,-4.76 -3.93,-7.63 -7.46,-11.71 q -7.51,-8.67 -11.59,-14.71 -7.85,-11.61 -11.04,-26.49 -0.73,-3.4 -0.23,-10.55 c 0.89,-12.68 4.61,-24.03 8.58,-38.82 a 10.27,10.16 -35.7 0 0 0.33,-1.95 c 0.38,-5.19 -0.14,-11.44 0.73,-17.04 0.46,-2.97 0.08,-6.91 0.58,-10.24 q 1.21,-8.03 1.65,-9.57 c 4.04,-14.21 10.99,-28.28 19.74,-40.29 q 3.75,-5.15 6.49,-10.8 1.3,-2.67 7.36,-13.83 2.03,-3.73 2.98,-10.24 c 1.99,-13.69 -0.15,-32.09 -8.18,-43.73 q -7.19,-10.43 -8.03,-11.66 c -3.66,-5.43 -7.43,-12.18 -8.72,-18.98 q -0.47,-2.53 -1.06,-5.7 -0.34,-1.79 0.17,-5.32 a 0.16,0.16 0 0 1 0.31,-0.04 q 2.17,5.99 4.07,9.46 2.42,4.43 8.01,9.7 7.99,7.56 11.74,10.35 6.86,5.1 9.5,8.45 6.67,8.45 8.77,18.67 a 0.2,0.2 0 0 0 0.24,0.16 h 0.01 a 0.31,0.3 -8.1 0 0 0.25,-0.33 q -0.81,-8.76 -5.92,-21.21 -4.56,-11.13 -13.33,-18.07 -8.16,-6.44 -11.73,-14.67 -5.5,-12.67 -5.88,-27.11 -0.23,-8.72 0.53,-17.65 a 2.67,2.55 -33.4 0 1 0.17,-0.74 q 0.23,-0.63 0.44,-1.79 c 3.86,-21.64 11.19,-39.65 27.8,-54.59 q 4.7,-4.23 7.41,-6.93 c 9.99,-9.97 12.84,-26.39 10.19,-39.7 -0.26,-1.32 -2.2,-4.53 -3.4,-5.75 q -4.38,-4.41 -8.55,-7.26 a 5.72,5.64 -17.5 0 0 -1.31,-0.67 l -7.74,-2.71 a 0.83,0.8 -36.6 0 0 -0.31,-0.04 l -1.14,0.04 a 0.09,0.09 0 0 1 -0.1,-0.09 l -0.02,-0.34 a 0.22,0.21 -4.2 0 1 0.2,-0.22 q 12.85,-1.16 23.24,5.85 5.59,3.76 10.03,10.32 4.92,7.25 6.78,12.72 2.26,6.62 3.34,17.34 c 0.77,7.61 -0.97,15.03 -4.14,24.21 q -3.66,10.59 -4.71,21.81 -0.17,1.83 -0.13,9.52 c 0.04,8.9 3.05,17.6 6.8,25.26 q 5.13,10.49 14.97,18.26 5,3.94 11.78,9.56 12.27,10.16 21.28,22.8 a 0.03,0.03 0 0 0 0.05,-0.03 q -4.79,-14.97 -14.83,-26.88 c -3.34,-3.95 -10.01,-8.96 -13.54,-14.06 q -6.49,-9.34 -8.96,-19.32 a 0.18,0.18 0 0 1 0.32,-0.14 l 6.29,10.07 a 10.44,10.27 -86.6 0 0 2.21,2.53 q 8.86,7.28 10.45,8.16 c 4.07,2.24 8.95,4.57 13.05,7.74 q 13.36,10.37 19.87,27.55 4.34,11.46 5.1,21.21 0.57,7.3 0.95,14.03 c 1.09,19.13 -6.93,35.87 -17.72,51.51 -4.78,6.94 -13.84,15.73 -19.17,23.44 q -9.03,13.05 -12.68,19.96 -5.06,9.58 -8.19,27.33 -0.03,0.2 0.01,7.86 0.02,3.84 1.02,7.76 2.63,10.37 3.35,12.02 c 4.26,9.89 8.26,17.84 9.71,25.82 q 1.2,6.6 2.26,10.52 c 0.45,1.69 1.19,3.43 3.07,4.28 q 3.3,1.51 5.85,-0.81 6.42,-5.86 2.66,-14.39 c -4.98,-11.3 -9.47,-23.39 -9.21,-35.83 q 0.36,-16.78 7.95,-31.35 c 3.07,-5.91 6.66,-11.37 11.8,-18.16 q 3.95,-5.22 6.3,-11.67 1.45,-4 0.04,-12.45 a 2.28,2.2 -70.5 0 0 -0.48,-1.06 l -4.39,-5.21 a 5.62,2.06 51.1 0 0 -0.53,-0.58 l -0.49,-0.5 a 0.28,0.28 0 0 1 0.39,-0.05 q 1.08,0.81 2.88,1.47 c 2.77,1.02 4.4,2.56 6.56,3.49 3.27,1.42 4.99,4.34 6.46,7.64 q 4.34,9.8 1.88,20.23 -1.67,7.05 -2.5,11.55 -2.5,13.52 3.97,25.37 c 4.61,8.44 10.3,16.34 15.15,24.5 q 3.01,5.06 10.36,16.98 1.89,3.06 6.14,13.34 7.38,17.85 6.44,36.99 c -0.16,3.26 0.3,5.86 0.38,8.96 a 0.1118034,0.1118034 0 0 0 0.22,0.04 q 9.07,-22.05 3.84,-45.55 c -1.01,-4.57 -2.09,-7.78 -4.75,-11.92 q -3.16,-4.9 -5.52,-9.03 -0.17,-0.31 -1.56,-1.76 a 0.25,0.24 49.6 0 1 0.02,-0.36 l 0.2,-0.16 a 0.11,0.11 0 0 1 0.15,0 q 12,10.79 16.86,20.48 4.96,9.89 6.48,25.28 0.22,2.26 0.1,10.03 c -0.25,16.32 -6.02,31.15 -16.41,43.88 q -8.06,9.89 -12.26,13.99 -7.85,7.66 -8.98,9 c -8.76,10.47 -14.79,21.06 -9.6,34.31 2.64,6.73 7.82,14.34 12.84,20.39 5.63,6.81 9.35,13.32 13.25,20.76 q 1.61,3.08 3.99,11.34 a 0.31,0.31 0 0 1 -0.22,0.38 l -0.04,0.01 a 0.32,0.32 0 0 1 -0.39,-0.21 q -0.96,-3.01 -1.97,-4.39 -5.85,-8.05 -14.59,-14.89 c -2.88,-2.25 -5.83,-3.77 -9.15,-5.62 -3.32,-1.86 -9.71,-6.73 -12.46,-8.93 a 0.17,0.17 0 0 0 -0.27,0.2 q 4.97,10.9 10.23,16.76 c 9.2,10.25 19.93,21.42 28.53,33.44 q 3.44,4.82 6.48,11.03 c 6.37,13 12.59,24.4 15.01,37.87 2.52,14.02 3.69,29.59 0.24,43.36 q -2.6,10.38 -4.74,16.12 c -8.56,23.01 -26.15,43.39 -48.61,54.36 q -9.69,4.72 -10.28,5.01 -4.03,1.99 -14.84,3.53 z" id="path122" style="fill:#ff3700;fill-opacity:1"/>
      <path d="m 1076.16,323.34 q 1.92,-5.4 2.02,-5.71 2.11,-6.53 7.09,-12.65 2.26,-2.79 10.28,-9.08 9.72,-7.64 15.98,-15.1 c 3.36,-4 5.16,-9.07 6.92,-13.87 a 0.19,0.18 -35.3 0 1 0.36,0.06 l 0.09,5.22 a 6.05,5.96 52 0 1 -0.19,1.65 q -0.16,0.61 -1.61,7.46 -0.66,3.06 -4.15,9.39 -3.91,7.11 -10.06,15.41 c -9.79,13.23 -12.2,31.51 -10,47.44 1.16,8.37 7,16.54 10.54,23.7 3.33,6.72 7.17,11.45 11.49,18.32 q 9.95,15.81 14.64,32.93 c 0.73,2.67 1.07,6.55 1.73,10.11 a 3.24,2.87 52.6 0 1 0.05,0.44 l 1.15,27.02 a 3.55,3.03 40.4 0 0 0.1,0.62 c 4.01,14.09 7.59,25.67 8.73,38.8 1.71,19.82 -10.75,38.38 -23.52,52.49 -4.29,4.75 -9.12,12.86 -8.36,19.49 0.87,7.55 5.01,16.98 13.22,18.49 5.17,0.95 10.95,-0.11 14.75,-4.04 a 4.7,4.47 -11.8 0 0 0.85,-1.23 q 3.12,-6.68 4.28,-13.25 a 6.52,6.39 -44.4 0 0 0.04,-2.02 q -0.75,-5.24 -0.45,-6.76 0.89,-4.55 1.01,-11.35 0.03,-2.08 1.67,-6.93 0.94,-2.81 2.85,-6.52 5.4,-10.5 6.89,-13.35 7.5,-14.3 9.28,-30.79 0.51,-4.67 0.11,-18.73 -0.4,-13.89 -7.68,-31.48 -0.99,-2.41 -3.55,-12.77 -1.76,-7.12 -1.93,-13.13 c -0.31,-11.42 0.51,-21.98 4.19,-32.15 q 2.16,-5.97 3.15,-8.57 1.67,-4.41 7.46,-12.66 a 6.28,6.19 87.6 0 1 1.07,-1.18 q 6.87,-5.86 9.13,-16.03 a 2.69,2.67 51.1 0 0 0.07,-0.69 q -0.16,-4.3 -3.27,-7.67 a 0.4,0.4 0 0 1 0.33,-0.67 c 5.41,0.59 7.84,3.68 10.22,8.52 1.7,3.45 1.62,10.13 0.74,13.6 q -0.7,2.74 -2.46,9.26 c -4.42,16.35 -0.58,30.57 9.02,44.07 11.95,16.8 19.53,28.08 24.99,44.45 1.44,4.35 1.82,9.25 2.7,14.21 0.88,-6.04 0.08,-13.09 0.03,-17.29 -0.13,-9.76 -3.68,-19.25 -8.34,-27.46 -1.49,-2.63 -1.94,-5.17 -3.74,-7.8 a 0.23,0.23 0 0 1 0.35,-0.29 q 1.29,1.25 3.06,2.33 c 2.7,1.65 3.94,3.74 6.76,7.19 4.87,5.94 8.2,13.16 11.67,21.57 q 5.04,12.18 5.52,24.15 0.54,13.32 -1.16,21.78 -0.85,4.22 -4.2,14.08 -3,8.84 -4.37,16.29 -2.58,13.97 -3.74,24.09 c -0.5,4.36 -0.48,9.68 -0.05,14.34 q 0.73,7.8 1.55,17.63 c 0.69,8.21 2.48,14.73 4.02,22.8 q 2.44,12.87 3.81,24.47 0.62,5.22 0.33,22.87 c -0.14,9.29 -2.45,18.54 -5.39,26.9 a 0.10062306,0.10062306 0 0 0 0.18,0.09 q 4.23,-6.42 7.9,-14.71 2.51,-5.67 3.69,-13.2 0.33,-2.17 2.57,-13.55 c 1.53,-7.8 0.25,-15.35 0.61,-23.55 q 0.04,-0.78 -0.38,-2.01 a 0.25,0.25 0 0 1 0.4,-0.26 q 0.2,0.18 0.36,0.83 3.24,13.27 4.12,33.39 0.45,10.19 -0.44,15.48 -2.13,12.69 -4.49,20.83 -2.07,7.13 -8.06,19.6 c -5.56,11.56 -14.37,23.62 -24.77,32.5 q -11.12,9.49 -16.82,12.92 -16.62,9.99 -19.35,11.89 c -2.57,1.77 -6.22,3.78 -7.75,5.98 q -6.02,8.66 -3.75,17.79 0.86,3.47 5.02,4.85 a 0.04,0.03 13.3 0 1 0.03,0.03 l 0.12,0.48 a 0.19,0.19 0 0 1 -0.29,0.2 q -0.86,-0.6 -4.37,-0.71 a 5.52,5.46 58.6 0 1 -2.3,-0.57 q -13.45,-6.61 -16.02,-20.62 c -1.1,-5.97 -1.58,-10.89 -0.31,-16.86 q 1.92,-9.03 2.56,-11.29 a 3.21,3.11 -41.9 0 0 0.09,-1.29 c -1.05,-7.17 -2.14,-12.82 -8.73,-15.79 q -3.72,-1.67 -8.65,-0.28 -8.1,2.27 -12.47,9.23 -8.28,13.2 -12.05,27.27 c -5.57,20.74 -13.54,40.81 -24.02,60.17 -9.15,16.91 -25.08,31.06 -41.66,40.85 -3.5,2.06 -8.79,4.89 -13.79,5.71 -6.55,1.07 -12.46,1.5 -18.81,0.34 -7.9,-1.45 -16.25,-2.51 -24.14,-6.36 q -7.82,-3.81 -11.16,-5.69 c -20.42,-11.46 -37.44,-32.06 -44.69,-54.33 q -2.27,-6.94 -4.19,-14.99 -1.69,-7.01 -1.76,-15.39 -0.16,-17.37 3.83,-33.73 0.54,-2.24 4.05,-10.73 1.51,-3.67 8.84,-18.91 c 5.51,-11.44 14.31,-22.27 22.18,-30.81 9.88,-10.72 18.35,-18.91 23.58,-31.54 a 0.19,0.19 0 0 0 -0.29,-0.22 q -8.59,6.77 -14.49,10.06 c -8.6,4.81 -15.97,11.55 -21.41,19.06 q -1.34,1.84 -2.19,4.68 a 0.26,0.25 23.4 0 1 -0.37,0.14 l -0.23,-0.13 a 0.17,0.16 -68 0 1 -0.07,-0.18 q 3.42,-10.81 4.97,-13.33 1.63,-2.65 5.62,-9.67 1.92,-3.39 6.25,-8.5 4.63,-5.47 9.49,-13.49 c 6.45,-10.63 8.02,-21 1.26,-31.97 q -4.94,-8 -9.27,-12.15 C 941.45,577.08 925.43,559.06 923.29,535 c -1.31,-14.75 0.17,-30.96 7.4,-43.61 q 5.39,-9.44 15.72,-18.3 a 0.24,0.24 0 0 1 0.31,0.01 l 0.19,0.18 a 0.04,0.04 0 0 1 0,0.06 q -1.42,1.41 -1.51,1.56 -2.81,4.88 -6.88,11.26 a 19.36,19.34 69.7 0 0 -2.19,4.76 q -7.71,25.38 2.33,50.77 a 0.14,0.14 0 0 0 0.27,-0.05 c 0.11,-2.49 0.54,-5.63 0.43,-8.86 q -0.49,-13.64 2.2,-23.97 4.19,-16.06 11.76,-28.54 7.73,-12.72 8.29,-13.68 c 4.74,-8.01 12.87,-19.2 16.79,-27.47 q 5.49,-11.62 2.89,-24.36 c -1.29,-6.29 -3.34,-12.68 -3.27,-18.27 0.07,-6 2.65,-17.3 8.86,-20.14 2.31,-1.05 4.14,-2.73 6.91,-3.65 q 1.83,-0.61 3.02,-1.56 a 0.12,0.12 0 0 1 0.17,0.01 q 0.09,0.11 0.17,0.22 a 0.15,0.13 51.9 0 1 -0.01,0.16 l -5.62,6.35 a 1.33,1.3 -20.5 0 0 -0.3,0.64 c -0.98,5.24 -1.25,10.54 1.22,15.53 3.12,6.27 5.5,9.17 10.25,15.73 13.63,18.84 18.86,43.12 10.57,65.23 q -2.27,6.03 -5.48,14 -3.15,7.81 2.57,13.06 c 2.66,2.45 5.48,2.36 7.92,-0.08 q 1.22,-1.22 2.21,-6.45 2.05,-10.91 3.78,-15.35 2.2,-5.66 4.87,-11.66 4.61,-10.34 6.61,-21.78 c 0.68,-3.83 0.57,-11.25 -0.46,-15.97 q -2.34,-10.7 -5.08,-17.99 c -2.09,-5.54 -5.51,-10.57 -9.53,-16.94 q -6.11,-9.65 -13.28,-17.88 -9.75,-11.17 -11.22,-13.34 c -11.82,-17.47 -20.46,-35.43 -17.51,-56.53 0.64,-4.55 0.15,-8.69 1.05,-13.77 3.12,-17.68 10.36,-33.05 24.33,-44.3 3.23,-2.6 7.46,-4.78 11.2,-6.71 4.39,-2.25 7.77,-5.47 12.28,-9.02 a 8.74,8.62 87.4 0 0 2.04,-2.27 l 6.63,-10.58 a 0.19,0.18 68.9 0 1 0.33,0.15 q -2.64,10.54 -9.68,20.27 c -3.11,4.31 -9.21,8.94 -12.15,12.35 q -10.77,12.48 -15.52,27.59 a 0.03,0.03 0 0 0 0.05,0.03 c 9.58,-13.17 20.04,-22.11 34.12,-33.2 9.55,-7.52 15.15,-17.96 18.7,-29.52 q 2.04,-6.66 2.08,-15.45 0.06,-12.74 -3.67,-25.11 c -1.47,-4.85 -3.47,-9.6 -4.38,-14.13 -1.92,-9.6 -1.01,-18.56 1.37,-27.98 q 1.42,-5.61 3.82,-9.67 4.57,-7.72 6.89,-10.37 11.87,-13.51 30.21,-12.19 a 0.25,0.24 89.9 0 1 0.23,0.24 l 0.02,0.32 a 0.1,0.1 0 0 1 -0.1,0.1 c -2.83,0.08 -5.7,1.61 -8.38,2.41 a 7.23,7.2 19.2 0 0 -2.06,0.99 c -5.51,3.78 -11.48,8.54 -12.41,15.17 -1.85,13.25 1,26.73 9.98,36.91 3.56,4.03 10.62,9.43 14.87,14.42 q 8.35,9.79 12.58,19.34 12.02,27.12 8.99,56.48 -0.46,4.45 -3.15,13.34 c -2.02,6.69 -5.56,13.35 -10.88,17.84 -5.7,4.8 -11.25,10.03 -14.4,16.46 q -6.37,12.97 -7.8,25.03 a 0.16,0.16 0 0 0 0.31,0.07 z M 974.02,856.62 q 6.97,6.71 16.03,9.72 1.9,1.79 4.22,2.53 a 3.91,3.67 -18.2 0 1 0.88,0.41 q 2,1.28 4.59,1.02 c 17.75,-1.75 34.12,-10.3 46.54,-22.24 q 10.37,-9.97 18.7,-24.82 7.41,-13.19 9.76,-19.23 3.98,-10.25 6.58,-21.47 1.46,-6.35 5.82,-20.92 c 5.95,-19.9 16.88,-41.31 36.49,-50.96 q 8.4,-4.12 16.15,-1.65 a 0.22,0.22 0 0 0 0.23,-0.35 q -0.25,-0.28 -1.23,-0.79 c -8.13,-4.25 -18.73,-1.85 -26.49,2.44 q -4.43,2.45 -11.83,8.35 c -4.23,3.37 -6.69,8.46 -9.34,11.72 q -0.15,0.18 -0.23,0.74 -0.1,0.64 -0.32,0.75 a 0.39,0.39 0 0 1 -0.55,-0.47 c 1.24,-3.86 3.05,-7.29 6.7,-14.77 q 2.74,-5.6 5.82,-8.78 9.46,-9.76 23.14,-12.93 c 10.69,-2.48 19.91,0.32 26.97,9.07 q 6.84,8.49 7.65,19.51 c 0.55,7.56 -1.55,14.32 -4.54,23.19 q -2.65,7.89 -0.19,16.9 a 0.31,0.3 -8.9 0 0 0.32,0.23 l 0.36,-0.01 a 0.13,0.13 0 0 0 0.12,-0.13 l -0.04,-0.88 a 1.35,1.31 59.5 0 1 0.18,-0.74 q 8.26,-14.66 22.87,-23.94 c 4.72,-3 12,-6.44 16.36,-10.47 8.53,-7.89 14.92,-18.41 15.79,-30.38 0.32,-4.47 0.87,-9.31 1.28,-12.9 a 0.22192341,0.22192341 0 0 0 -0.43,-0.11 c -2.8,7.14 -5.4,15.95 -10.88,22.54 q -7.31,8.79 -17.26,15.35 a 0.05315073,0.05315073 0 0 1 -0.07,-0.08 q 4.74,-6.2 8.68,-14.72 7.25,-15.64 11.53,-28.72 2.19,-6.69 3.06,-12.18 2.95,-18.5 1.4,-39.55 c -1.03,-14.13 -6.34,-31.42 -7.45,-44.04 a 0.2,0.2 0 0 0 -0.2,-0.18 h -0.01 a 0.2,0.2 0 0 0 -0.19,0.19 q -0.77,17.06 -0.08,23.64 2.03,19.23 0.02,36.56 -0.02,0.15 -1.25,3.87 a 0.24,0.23 16.8 0 1 -0.29,0.15 l -0.01,-0.01 a 0.32,0.31 15.5 0 1 -0.23,-0.4 l 0.92,-2.77 a 1.09,0.87 60.3 0 0 0.05,-0.32 l 0.01,-11.06 a 0.76,0.54 -61.6 0 0 -0.02,-0.17 q -5.38,-24.32 -6.02,-28.14 -2.02,-12.1 -1.93,-19.35 0.05,-4.29 1.5,-16.08 0.68,-5.51 3.59,-15.69 4.5,-15.72 9.47,-31.49 c 2.14,-6.79 1.88,-10.85 2.31,-20.28 q 0.35,-7.85 -1.75,-16.8 -2.64,-11.18 -3.56,-14.48 -3.31,-11.92 -4.3,-14.37 -4.73,-11.63 -11.79,-22.75 a 0.2,0.2 0 0 0 -0.36,0.16 q 4.16,13.86 6.49,28.15 0.39,2.4 0.35,4.66 a 0.11,0.1 33.4 0 1 -0.2,0.04 q -5.4,-11.82 -13.72,-27.78 c -5.8,-11.13 -8.41,-19.79 -10.68,-32.83 -1.28,-7.34 -0.71,-13.56 0.45,-20.4 1.14,-6.71 3.85,-10.93 6.77,-16.64 a 0.2,0.19 -60.6 0 0 -0.06,-0.25 l -0.01,-0.01 a 0.22,0.21 -55.9 0 0 -0.29,0.06 q -7.86,10.74 -9.39,14.18 c -4.24,9.52 -7.16,23.2 -4.65,34.17 1.92,8.37 4.97,18.81 9.07,29.95 6.49,17.66 11.95,33.52 9.96,50.3 q -1.37,11.47 -6.71,23.25 c -3.96,8.71 -7.17,16.4 -9.41,21.59 -3.92,9.1 -5.53,15.94 -6.48,24.95 -0.5,4.66 -0.07,9.7 -0.65,14.1 q -1.42,10.71 -6.92,19.09 c -3.56,5.42 -8.36,8.13 -14.2,10.87 a 7.19,7.14 -61.4 0 1 -2.05,0.61 q -11.11,1.62 -19.4,-4.4 c -4.51,-3.28 -10,-8.9 -11.93,-14.52 -3.3,-9.6 -2.43,-21.26 1.58,-31.56 q 3.57,-9.18 5.36,-11.85 3.21,-4.77 3.55,-6.2 a 0.21,0.2 -71.2 0 0 -0.11,-0.24 l -0.09,-0.05 a 0.27,0.26 27.1 0 0 -0.35,0.11 q -2.18,3.69 -3.31,4.82 -9.54,9.61 -11.63,12.38 -13.21,17.54 -7.71,39.35 a 0.05041421,0.04033137 -70.5 0 1 -0.08,0.04 c -2.19,-2.94 -3.7,-5.62 -4.42,-9.66 q -3.55,-20.1 8.29,-36.9 4.65,-6.6 10.2,-14.88 c 8.92,-13.31 12.78,-26.52 9.94,-41.87 q -1.96,-10.56 -5.46,-20.34 -0.75,-2.09 0.01,-0.01 0.03,0.09 0.07,0.16 8.1,14.34 13.19,26.62 0.65,1.58 2.05,9.52 a 5.46,5.23 43.8 0 1 0.06,1.38 l -0.93,10.36 a 0.25109759,0.25109759 0 0 0 0.49,0.11 c 5.07,-13.38 4.17,-26.82 -1.23,-39.9 q -0.83,-2.02 -4.88,-13.33 -0.4,-1.11 -3.05,-11.57 -1.22,-4.79 -1.94,-11.79 -1.09,-10.64 -3,-17.15 -6.86,-23.38 -24.31,-41.72 -12.18,-12.8 -22.16,-26.06 -2.54,-3.37 -3.86,-8.39 c -3.13,-11.88 -3.12,-23.57 -1.28,-35.55 0.66,-4.27 2.25,-7.26 4.73,-12.15 q 6.6,-13.04 16.68,-22.2 7.14,-6.49 8.32,-8.09 4.24,-5.74 7.5,-12.82 7.63,-16.54 3.93,-33.79 -1.94,-9.08 -6.58,-17.41 -0.74,-1.32 -2.25,-2.89 a 0.23,0.23 0 0 0 -0.38,0.23 q 2.31,6.83 2.56,8.12 3.19,16.16 -2.53,31.72 -0.59,1.61 -1.58,2.74 a 0.18,0.18 0 0 1 -0.32,-0.15 q 1.1,-6.38 0.8,-10.37 c -0.47,-6.22 -1.46,-13.81 -3.8,-20.77 q -4.05,-12.06 -5.38,-15.75 c -2.54,-7.01 -4.26,-10.02 -7.19,-16.35 q -0.92,-2 -2.58,-4.59 a 0.25,0.25 0 0 0 -0.32,-0.09 0.23,0.22 -25.4 0 0 -0.11,0.29 c 6.37,15.47 8.8,33.39 3.68,49.53 -2.99,9.41 -6.99,15.66 -14.92,22.02 q -3.6,2.89 -17.47,13.6 -7.13,5.5 -13.73,13.59 c -9.35,11.48 -13.24,26.59 -13.24,41.06 a 0.09124144,0.09124144 0 0 1 -0.18,0.03 c -4.09,-11.66 -4.07,-23.79 0.83,-35.14 q 2.4,-5.55 5.57,-10.98 a 0.0212132,0.0212132 0 0 0 -0.03,-0.03 c -4.38,3.31 -6.73,6.74 -9.81,10.81 -9.45,12.48 -13.21,31.64 -9.12,47.09 3.69,13.98 11.54,23.91 21.3,35.44 4.65,5.49 10.44,13.78 14.53,21.03 3.17,5.59 10.16,15.92 12.98,24.9 q 5.19,16.48 3.36,35.23 -0.81,8.32 -3.32,14.13 -5.58,12.97 -7.37,16.59 -1.17,2.38 -1.82,5.22 -2.08,9.16 -3.78,14.94 c -1.34,4.59 -5.86,15.04 -11.28,16.74 -6.3,1.97 -15.34,3.09 -20.84,-1.08 -8.73,-6.61 -9.59,-18.05 -6.49,-27.77 a 0.44,0.43 21 0 0 -0.24,-0.53 l -0.02,-0.01 a 0.49,0.48 26 0 0 -0.62,0.21 q -3.62,6.59 -3.77,6.91 c -2.46,4.99 -3.18,9.13 -2.74,14.8 q 0.28,3.65 0.57,8.78 c 0.14,2.49 0.91,5.33 1.67,8.02 a 0.22,0.21 -74.9 0 1 -0.36,0.21 c -10.54,-10.61 -11.05,-27.12 -4.11,-39.83 q 6.9,-12.63 9.67,-19.23 c 2.02,-4.82 4.46,-9.82 4.79,-13.75 q 0.52,-6.19 0.08,-15.6 -0.14,-2.89 -2.77,-11.21 -1.02,-3.22 -5.38,-10.44 -4.72,-7.82 -7.38,-13.81 -0.6,-1.35 -0.8,-3.44 a 0.56,0.56 0 0 0 -0.57,-0.51 h -0.02 a 0.57,0.57 0 0 0 -0.55,0.54 q -0.18,3.89 0.76,7.09 3.72,12.61 4.78,22.64 2.05,19.3 -8.73,36.19 -9.52,14.91 -12.02,19.98 -11.16,22.67 -12.28,46.91 -0.52,11.23 3.09,20.89 c 4.16,11.12 11.21,22.59 20.5,30.13 4.52,3.67 8.25,6.01 10.86,9.3 6.37,8.03 10.95,17.09 13.41,27.13 a 6.28,6.1 42.9 0 1 0.12,2.31 l -1.15,8.28 a 1.98,1.57 -38.5 0 1 -0.06,0.26 c -3.1,9.68 -5.6,19.63 -11.66,26.36 q -4.92,5.47 -11.07,12.68 c -6.81,7.99 -16.48,16.17 -23.27,24.06 -14.08,16.4 -25.01,36.53 -28.4,58.04 q -0.26,1.68 -0.3,2.9 c -0.07,2.42 -0.8,4.64 -0.87,7.23 q -0.1,3.96 0.19,14.67 a 5.9,5.88 -52.5 0 0 0.17,1.32 q 0.9,3.63 0.76,7.42 a 0.09,0.09 0 0 0 0.1,0.1 l 0.27,-0.01 a 0.26,0.25 -1.2 0 0 0.25,-0.25 c 0.16,-4.11 0.95,-7.44 0.98,-11.59 0.12,-14.45 7.84,-27.93 15.67,-39.53 a 0.1,0.1 0 0 1 0.17,0.09 q -5.13,12.13 -8.11,25.86 -1.86,8.56 -1.63,16.08 c 0.36,11.7 2.77,25.16 6.49,35.27 q 5.73,15.59 16.05,30.18 5.54,7.82 12.55,12.83 z" id="path123" style="fill:#ff3700;fill-opacity:1"/>
      <path d="m 294.22,202.71 a 0.33,0.33 0 0 1 -0.64,-0.02 q -0.2,-0.79 -1.44,-7.28 -0.83,-4.33 -0.1,-7.26 c 1.48,-5.95 4.26,-8.9 9.79,-11.52 q 4.34,-2.06 6.45,-4.61 a 0.38,0.37 -37.7 0 1 0.63,0.08 q 0.77,1.66 -0.1,4.01 c -1.77,4.76 -4.01,10.04 -8.15,14.02 a 1.8,1.67 87.9 0 0 -0.25,0.29 l -4.04,5.8 a 1.55,1.45 74.1 0 0 -0.19,0.37 z" id="path124" style="fill:#ff3700;fill-opacity:1"/>
      <path d="m 1121.76,202.65 -1.95,-6.1 a 1.54,1.44 -74.1 0 0 -0.19,-0.37 l -4.02,-5.77 a 1.79,1.67 -87.9 0 0 -0.25,-0.29 c -4.12,-3.97 -6.35,-9.23 -8.11,-13.97 q -0.87,-2.34 -0.1,-3.99 a 0.37,0.37 0 0 1 0.63,-0.08 q 2.1,2.54 6.42,4.59 c 5.51,2.61 8.27,5.55 9.75,11.48 q 0.72,2.92 -0.11,7.23 -1.23,6.46 -1.43,7.25 a 0.33,0.33 0 0 1 -0.64,0.02 z" id="path125" style="fill:#ff3700;fill-opacity:1"/>
      <path d="m 256.24,211.91 a 1.77,1.77 0 0 1 2.68,-0.73 c 7.33,5.39 7.08,16.1 3.37,23.4 -1.53,3.02 -4.46,7.22 -5.03,11.22 q -1.06,7.56 0.38,12.53 1.6,5.51 4.23,11.07 c 2.17,4.58 7.22,6.05 10.18,9.07 q 6.51,6.67 7.73,13.53 c 1.63,9.17 1.9,19.86 -1.64,28.64 q -1.5,3.73 -1.89,5.6 c -0.99,4.88 -3.82,8.45 -7.02,11.5 -2.37,2.27 -8.86,6.59 -11.16,2.28 a 1.86,1.75 32.6 0 1 -0.21,-0.84 q -0.1,-4.72 -0.29,-11.27 -0.18,-6.14 -1.8,-9.55 c -2.14,-4.51 -6.46,-10.15 -11.3,-11.51 -10.97,-3.1 -18.73,-11.09 -19.62,-22.51 -0.71,-9.14 -1.23,-17.66 1.61,-26.34 q 4.19,-12.79 12.08,-22.14 c 2.88,-3.41 9.72,-6.94 12.75,-10.65 2.31,-2.84 4.59,-6.61 4.65,-10.23 q 0.04,-2.47 0.3,-3.07 z m 8.71,111.96 a 0.38,0.38 0 0 0 0.59,-0.09 q 1.83,-3.18 3.27,-5.66 c 5.31,-9.14 1.11,-20.1 -3.66,-28.41 a 7.09,6.81 -82 0 0 -0.92,-1.27 q -1.99,-2.16 -3.71,-5.23 a 12.84,12.72 11 0 0 -1.32,-1.94 q -1.53,-1.83 -6.24,-6.69 -6.46,-6.66 -6.28,-16.32 c 0.11,-5.98 -0.1,-9.11 1.93,-13.9 q 2.03,-4.8 2.13,-5.56 a 0.39,0.39 0 0 0 -0.65,-0.34 q -1.43,1.34 -4,5.69 a 6.45,5.82 83.3 0 1 -0.66,0.93 l -3.03,3.51 a 3.42,3.31 -13 0 0 -0.48,0.74 q -4.03,8.53 -4.73,12.37 c -0.89,4.91 -2.23,9.79 -1.7,14.47 0.82,7.3 4.03,15.85 10.34,19.53 q 3.13,1.82 8.17,4.8 c 6.27,3.71 10.13,12.79 11.06,19.49 q 0.31,2.24 -0.38,3.39 a 0.22,0.22 0 0 0 0.04,0.27 z" id="path126" style="fill:#ff3700;fill-opacity:1"/>
      <path d="m 1159.77,211.91 q 0.26,0.6 0.3,3.07 c 0.06,3.62 2.34,7.39 4.64,10.23 3.03,3.71 9.87,7.24 12.75,10.65 q 7.89,9.35 12.08,22.14 c 2.84,8.68 2.31,17.2 1.6,26.34 -0.89,11.42 -8.65,19.41 -19.62,22.51 -4.84,1.35 -9.16,6.99 -11.3,11.5 q -1.62,3.41 -1.8,9.55 -0.19,6.55 -0.29,11.27 a 1.86,1.75 -32.6 0 1 -0.21,0.84 c -2.3,4.31 -8.79,-0.01 -11.16,-2.28 -3.2,-3.05 -6.03,-6.62 -7.02,-11.5 q -0.39,-1.87 -1.89,-5.6 c -3.54,-8.78 -3.26,-19.47 -1.63,-28.64 q 1.22,-6.86 7.73,-13.53 c 2.96,-3.02 8.01,-4.48 10.18,-9.06 q 2.63,-5.56 4.23,-11.07 1.44,-4.97 0.38,-12.53 c -0.57,-4 -3.5,-8.2 -5.03,-11.22 -3.7,-7.3 -3.95,-18.01 3.38,-23.4 a 1.77,1.77 0 0 1 2.68,0.73 z m -8.7,112 0.23,-0.22 a 0.22,0.22 0 0 0 0.04,-0.27 q -0.7,-1.15 -0.39,-3.39 c 0.93,-6.71 4.78,-15.8 11.06,-19.52 q 5.04,-2.99 8.17,-4.82 c 6.31,-3.68 9.52,-12.25 10.34,-19.55 0.52,-4.69 -0.82,-9.57 -1.72,-14.49 q -0.7,-3.84 -4.74,-12.38 a 3.43,3.31 13 0 0 -0.48,-0.74 l -3.04,-3.51 a 6.45,5.83 -83.3 0 1 -0.66,-0.93 q -2.58,-4.35 -4.01,-5.69 a 0.39,0.39 0 0 0 -0.65,0.34 q 0.1,0.76 2.14,5.56 c 2.03,4.8 1.82,7.93 1.94,13.92 q 0.19,9.67 -6.27,16.34 -4.71,4.87 -6.24,6.7 a 12.85,12.73 -11.1 0 0 -1.32,1.94 q -1.72,3.08 -3.71,5.24 a 7.09,6.82 82 0 0 -0.92,1.27 c -4.77,8.33 -8.97,19.3 -3.64,28.45 q 1.44,2.48 3.28,5.66 a 0.38,0.38 0 0 0 0.59,0.09 z" id="path127" style="fill:#ff3700;fill-opacity:1"/>
      <path d="m 334.4,229.66 a 0.55,0.4 82.8 0 1 0.64,0.69 q -0.17,0.55 -0.4,0.5 -0.45,-0.12 -0.44,-0.41 0.02,-0.58 0.2,-0.78 z" id="path128" style="fill:#ff3700;fill-opacity:1"/>
    </g>
    <g fill="#fff0c7" id="g130" style="display:inline;fill:#ffefc2;fill-opacity:1">
      <path d="m 450,730.65 q 4.45,7.23 9.02,14.81 c 3.76,6.24 6.54,12.3 7.49,19.36 q 0.99,7.28 0.2,14.57 c -0.81,7.4 -1.27,14.96 -2.31,22.5 q -2.65,19.01 -9.91,36.11 c -2.21,5.22 -3.99,8.63 -7.84,13.06 q -2.92,3.35 -5.92,6.76 -7.01,6.03 -15.37,8.77 -6.07,0.63 -11.38,1.34 -1.68,0.23 -4.94,0.01 a 7.17,6.93 57.3 0 1 -2.17,-0.51 q -11.05,-4.66 -15.94,-9.11 -8.85,-8.05 -17.64,-17.6 c -1.72,-1.87 -3.75,-4.6 -5.24,-6.97 q -6.63,-10.5 -12.41,-28.09 -6.58,-20.06 -8.36,-36.89 -0.05,-11.46 -0.09,-22.77 -0.02,-5.36 2.15,-19.74 c 2.76,-18.24 8.17,-35.07 20.48,-48.42 q 4.77,-5.18 11.47,-7.52 c 5.03,-1.76 13.95,3.75 17.69,6.74 14.45,11.54 26.47,24.12 39.21,38.83 q 1.83,2.11 5.88,7.41 2.84,3.71 5.93,7.35 z m -46.64,105.13 q 5.48,-10.78 7.59,-23.81 2.88,-17.83 2.94,-36.97 c 0.03,-9.63 0.31,-16.04 -0.43,-24.61 q -1.26,-14.56 -4.42,-27.68 -1.59,-6.6 -5.04,-11.9 a 0.4,0.4 0 0 0 -0.7,0.07 q -7.71,18.99 -9.28,40.13 c -0.6,8.09 -1.3,13.49 -1.05,19.67 q 0.72,17.97 2.02,28.08 2.37,18.38 7.72,36.96 a 0.35,0.35 0 0 0 0.65,0.06 z" id="path129" style="fill:#ffefc2;fill-opacity:1"/>
      <path d="m 1068.61,769.22 q -2.54,22.61 -11.42,45.5 c -3.76,9.68 -8.28,19.24 -14.99,26.48 q -11.67,12.62 -18.1,17.87 -6.42,5.24 -16.66,8.95 a 2.31,2.28 37.7 0 1 -0.99,0.12 l -16.4,-1.8 q -9.06,-3.01 -16.03,-9.72 -8,-8.58 -10.16,-13.22 -10.01,-21.5 -12.63,-44.54 -1.27,-11.17 -2.18,-22.38 -1.29,-15.75 7.26,-29.92 7.35,-12.17 10.45,-16.97 4.11,-6.53 9.27,-12.06 5.71,-6.13 5.77,-6.21 c 11.33,-12.71 22.49,-24.28 35.84,-34.69 3.72,-2.91 12.09,-7.91 16.9,-6.34 q 6.97,2.29 11.83,7.82 c 3.89,4.42 6.94,8.21 9.67,13.53 q 6.78,13.16 9.48,27.61 4.58,24.44 3.09,49.97 z m -55.97,66.31 a 0.35,0.35 0 0 0 0.65,-0.06 q 5.34,-18.54 7.7,-36.88 1.3,-10.09 2.02,-28.02 c 0.25,-6.17 -0.45,-11.56 -1.05,-19.63 q -1.57,-21.1 -9.26,-40.05 a 0.4,0.39 50.4 0 0 -0.7,-0.07 q -3.44,5.29 -5.03,11.88 -3.15,13.09 -4.41,27.62 c -0.74,8.55 -0.46,14.95 -0.43,24.56 q 0.06,19.1 2.94,36.89 2.1,13 7.57,23.76 z" id="path130" style="fill:#ffefc2;fill-opacity:1"/>
    </g>
    <g fill="#ffdb88" id="g138" style="display:inline;fill:#ffd97a;fill-opacity:1">
      <path d="m 379.03,306.75 a 0.14,0.13 -66.1 0 1 0.25,-0.1 q 6.37,12.63 6.58,27 c 0.04,2.85 -0.64,6.01 -1.06,9.38 -1.47,11.66 -8.28,18.48 -16.41,27.03 -3.01,3.17 -4.92,6.39 -6.97,10.07 q -0.72,1.28 -1.56,1.49 a 0.35,0.34 1.5 0 1 -0.41,-0.43 q 1.28,-4.67 1.28,-4.68 3.82,-7.87 6.4,-13.91 c 2.36,-5.51 6.04,-11.68 8.26,-15.9 4.34,-8.24 6.71,-18.75 5.63,-28.65 q -0.68,-6.15 -1.99,-11.3 z" id="path131" style="fill:#ffd97a;fill-opacity:1"/>
      <path d="m 1036.91,307.01 q -1.3,5.13 -1.96,11.26 c -1.06,9.87 1.32,20.34 5.66,28.54 2.22,4.21 5.9,10.35 8.26,15.83 q 2.58,6.02 6.41,13.85 0,0.01 1.28,4.66 a 0.34,0.34 0 0 1 -0.41,0.43 q -0.84,-0.2 -1.56,-1.48 c -2.05,-3.66 -3.95,-6.87 -6.96,-10.02 -8.12,-8.51 -14.92,-15.29 -16.4,-26.91 -0.43,-3.35 -1.11,-6.5 -1.08,-9.34 q 0.18,-14.32 6.51,-26.92 a 0.14,0.13 66 0 1 0.25,0.1 z" id="path132" style="fill:#ffd97a;fill-opacity:1"/>
      <path d="m 450,730.65 q -3.09,-3.64 -5.93,-7.35 -4.05,-5.3 -5.88,-7.41 c -12.74,-14.71 -24.76,-27.29 -39.21,-38.83 -3.74,-2.99 -12.66,-8.5 -17.69,-6.74 q -6.7,2.34 -11.47,7.52 c -12.31,13.35 -17.72,30.18 -20.48,48.42 q -2.17,14.38 -2.15,19.74 0.04,11.31 0.09,22.77 -1.64,-3.15 -2.6,-7.21 c -2.14,-9.01 -3.95,-16.35 -4.99,-24.88 q -1.14,-9.37 -3.36,-22.45 c -2.67,-15.72 -8.77,-28.89 -21.21,-37.62 q -7.25,-5.09 -16.09,-8.9 -4.03,-1.74 -6.99,-2.43 a 6.21,5.86 -37.2 0 0 -1.47,-0.16 q -5.46,0.07 -11.53,-0.36 -12.92,-0.9 -23.36,-8.4 -6.22,-4.47 -10.28,-12 c -7.9,-14.67 -9.9,-31.79 -8.97,-48.36 q 0.21,-3.72 0.28,-6.27 a 24.19,24.01 -49.3 0 0 -0.35,-4.94 q -1.76,-10.15 -2.8,-18.19 -1.52,-11.86 -9.04,-40.54 -3.86,-14.71 -0.97,-32.11 a 0.14,0.13 6.8 0 1 0.15,-0.11 h 0.01 a 0.26,0.25 5.5 0 1 0.21,0.25 l -0.04,7.33 a 4.76,4.63 -53.7 0 0 0.18,1.29 q 0.76,2.7 0.92,6.81 a 7.41,6.81 39 0 0 0.22,1.49 q 2.97,11.21 5.07,15.98 c 5.06,11.5 8.9,20.1 11.39,31.91 a 19.27,18.94 -62.9 0 0 1.09,3.47 c 3.67,8.76 5.85,16.25 5.47,25.63 q -0.56,13.85 -0.22,19.25 0.05,0.96 1.01,6.03 c 1.3,6.92 7.92,15.49 12.2,18.84 q 13.62,10.67 31.66,12.7 a 0.17,0.17 0 0 0 0.19,-0.14 l 0.02,-0.07 a 0.18,0.17 -77.3 0 0 -0.12,-0.2 q -11.46,-3.28 -18.71,-11.13 -6.46,-6.99 -11.57,-17.53 a 0.44,0.44 0 0 1 0.47,-0.62 q 0.27,0.04 0.57,0.94 0.15,0.45 0.59,0.9 4.31,4.36 9.85,10.32 1.79,1.93 6.46,4.28 3.22,1.62 7.42,2.31 10.06,1.68 21.1,0.31 28.29,-3.52 42.11,-28.45 c 7.27,-13.11 5.79,-31.67 0.38,-44.64 q -2.74,-6.59 -9.38,-16.77 -5.54,-8.49 -10,-20.78 -3.44,-9.46 -4.86,-22.6 -2.04,-18.91 0.72,-35.36 1.98,-11.78 5.94,-24.53 3.79,-12.21 12.28,-22.32 a 0.36,0.36 0 0 1 0.59,0.05 l 0.19,0.34 a 0.19,0.18 45.9 0 0 0.32,0.01 l 4.95,-7.77 a 0.16,0.16 0 0 1 0.21,-0.05 l 0.3,0.17 a 0.24,0.23 32.4 0 1 0.08,0.33 q -1.28,1.88 -1.87,4.11 c -0.94,3.48 -2.95,8.31 -3.35,10.33 q -4.59,22.96 -4.62,39.49 0,4.81 1.72,14.11 1.14,6.16 1.42,7.99 1.04,6.73 1.36,8.01 2.66,10.46 10.29,17.61 5.39,5.03 6.29,6.17 c 5.73,7.16 10.07,15.96 13.66,23.08 a 5.89,5.89 0 0 0 2.49,2.55 q 2.44,1.31 6.9,3.24 c 8.29,3.58 23.14,3.05 30.04,-2.97 q 3.96,-3.46 6.78,-7.67 a 0.25,0.24 -20.4 0 1 0.44,0.2 c -0.51,1.82 -1.03,3.67 -2.33,5.69 q -8.04,12.46 -22.37,15.2 a 0.24,0.23 -40.2 0 0 -0.04,0.45 c 10.74,4.04 23.08,-2.57 30.56,-10.08 4.23,-4.26 9.27,-10.44 11.32,-16.26 q 2.41,-6.83 2.69,-13.82 a 0.17,0.17 0 0 1 0.32,-0.06 c 0.72,1.46 1.27,2.71 1.29,4.35 q 0.08,10.26 -1.63,16.57 -1.79,6.64 -7.3,14.35 -3.54,4.97 -4.27,6.33 c -1.78,3.36 -3.11,5.71 -5.42,8.62 q -6.83,8.58 -18.44,17.41 -11.2,8.51 -18.27,22.85 -0.02,0.05 -0.04,0.1 l -3.19,13.84 a 7.35,7.19 -40.8 0 0 -0.18,2.14 c 0.11,1.88 0.76,4.78 0.73,7.7 q -0.1,7.47 1.97,13.43 8.07,23.2 26.69,39.64 8.95,7.9 14.46,15.02 7.65,9.89 17.24,25.15 1.12,1.78 1.69,3.96 z" id="path133" style="fill:#ffd97a;fill-opacity:1"/>
      <path d="m 1068.61,769.22 q 1.49,-25.53 -3.09,-49.97 -2.7,-14.45 -9.48,-27.61 c -2.73,-5.32 -5.78,-9.11 -9.67,-13.53 q -4.86,-5.53 -11.83,-7.82 c -4.81,-1.57 -13.18,3.43 -16.9,6.34 -13.35,10.41 -24.51,21.98 -35.84,34.69 q -0.06,0.08 -5.77,6.21 -5.16,5.53 -9.27,12.06 0.7,-2.62 2.4,-4.67 a 2.34,2.28 -15.1 0 0 0.35,-0.59 q 0.31,-0.77 0.31,-0.78 2.88,-5.21 12.99,-19.22 c 4.2,-5.83 7.67,-9.66 13.12,-14.61 q 5.53,-5.01 9.29,-8.77 10.23,-10.24 18,-26.75 4.85,-10.29 4.9,-20.34 c 0.01,-3.64 0.37,-5.49 0.64,-8.27 a 6.05,6.02 41.4 0 0 -0.13,-1.98 l -3.14,-13.38 a 1.92,1.64 -67 0 0 -0.12,-0.38 c -5.02,-11.4 -13.23,-19.27 -23.43,-27.19 q -6.77,-5.26 -12.86,-12.74 -2.77,-3.4 -4.42,-6.51 c -2.32,-4.35 -4.29,-6.91 -6.91,-10.67 q -8.02,-11.52 -7.61,-26.19 c 0.08,-2.75 -0.34,-4.82 1.22,-7.38 a 0.19,0.18 61 0 1 0.34,0.1 q -0.04,10.18 5.25,18.99 c 6.62,11.04 16.79,19.96 29.63,22.28 3.3,0.59 6.61,-0.25 9.52,-1.05 a 0.24,0.24 0 0 0 -0.02,-0.46 Q 1000.9,555.92 993,542.31 a 5.77,5.67 21.3 0 1 -0.54,-1.2 l -0.99,-3.01 a 0.24,0.24 0 0 1 0.43,-0.21 c 3.98,5.98 8.66,10.41 16.08,11.94 q 15.01,3.11 28.12,-4.87 a 4.33,4.25 -0.3 0 0 1.39,-1.38 c 5.82,-9.34 9.3,-20.17 17.91,-27.62 q 3.6,-3.11 4.49,-4.16 c 5.96,-7.02 8.25,-13.18 9.63,-22.62 q 0.73,-4.95 1.91,-10.55 c 0.63,-3.03 0.88,-6.03 1.27,-9.69 q 0.24,-2.15 0.19,-3.91 -0.5,-18.1 -4.24,-36.68 c -0.94,-4.7 -3.03,-8.99 -3.91,-13.12 a 2.07,1.97 -65.3 0 0 -0.15,-0.44 l -1.56,-3.1 a 0.31,0.3 15.3 0 1 0.53,-0.3 l 4.83,7.44 a 0.52,0.52 0 0 0 0.63,0.2 q 0.01,0 0.18,-0.16 a 0.45,0.44 -41.2 0 1 0.65,0.04 q 8.12,10.09 11.62,20.65 c 7.95,24.02 10.44,48.38 5.17,73.45 q -3.11,14.83 -10.01,26.42 -3.7,6.21 -8.71,14.48 c -6.26,10.33 -8.69,23.12 -7.94,34.91 q 0.75,11.89 7.97,22.21 13.6,19.43 37.07,22.91 11.04,1.64 22.67,-0.03 c 7.25,-1.04 12.57,-4.45 17.37,-10.01 q 3.14,-3.63 6.54,-6.78 0.48,-0.45 0.74,-1.21 0.24,-0.69 0.52,-0.73 a 0.41,0.4 8.3 0 1 0.43,0.57 q -4.51,9.59 -10.71,16.62 -7.67,8.7 -19.51,12.02 a 0.15,0.15 0 0 0 -0.1,0.21 l 0.12,0.21 a 0.11,0.11 0 0 0 0.1,0.06 q 14.74,-1.74 26.64,-9.2 c 7.6,-4.77 13.45,-11.95 16.41,-19.65 q 1.97,-5.14 1.86,-14.02 -0.11,-9.62 -0.35,-17 c -0.23,-7.5 2.42,-15.38 5.48,-22.62 a 21.14,20.65 -27.8 0 0 1.05,-3.26 q 1.76,-7.73 2.67,-10.64 1.61,-5.2 8.32,-20.45 2.7,-6.11 5.45,-16.79 a 8.21,8.18 53.9 0 0 0.27,-1.75 q 0.19,-4.02 0.99,-7.13 a 2.11,1.83 -40.8 0 0 0.05,-0.34 l 0.15,-8.2 a 0.02,0.01 -90 0 1 0.01,-0.02 l 0.31,-0.01 a 0.25,0.25 0 0 1 0.26,0.23 q 0.91,10.69 0.92,10.71 0.3,5.15 -0.75,14.44 -0.29,2.61 -3.27,14.08 -5.09,19.56 -6.53,29.14 -2.34,15.53 -3.77,24.23 a 12.51,11.99 49.3 0 0 -0.15,2.75 c 1.14,19.18 0.64,37.85 -8.5,54.81 q -4.19,7.75 -10.53,12.29 -10.31,7.38 -23.41,8.31 -5.57,0.4 -11.15,0.34 a 7.1,7.07 38 0 0 -1.83,0.22 c -5.79,1.45 -11.69,4.53 -16.8,7.35 q -20.65,11.39 -26.04,35.26 -1.88,8.32 -3.43,20.3 -2.43,18.79 -6.21,33.54 -0.92,3.56 -2.7,7.43 z" id="path134" style="fill:#ffd97a;fill-opacity:1"/>
      <path d="m 233.68,639.38 1.59,9.37 a 2.85,2.77 -65.1 0 0 0.29,0.83 q 7.16,13.22 20.4,18.84 10.29,4.37 18.52,9.46 a 0.58,0.58 0 0 1 -0.29,1.07 c -2.41,0.06 -4.77,-0.31 -7.4,0.2 -7.92,1.53 -15.51,0.86 -22.06,-3.81 -2.78,-1.98 -8.25,-7.44 -9.82,-11.1 q -2.57,-5.96 -2.53,-9.53 c 0.06,-6.99 -0.04,-10.97 0.81,-15.34 a 0.25,0.25 0 0 1 0.49,0.01 z" id="path135" style="fill:#ffd97a;fill-opacity:1"/>
      <path d="m 1182.33,639.41 a 0.25,0.25 0 0 1 0.49,-0.01 c 0.85,4.37 0.75,8.34 0.8,15.33 q 0.04,3.56 -2.53,9.52 c -1.57,3.65 -7.03,9.11 -9.81,11.08 -6.54,4.67 -14.13,5.33 -22.04,3.8 -2.63,-0.51 -4.99,-0.14 -7.39,-0.2 a 0.58,0.58 0 0 1 -0.29,-1.07 q 8.22,-5.08 18.5,-9.44 13.23,-5.62 20.39,-18.82 a 2.85,2.76 65.2 0 0 0.29,-0.83 z" id="path136" style="fill:#ffd97a;fill-opacity:1"/>
      <path d="m 242.12,685.97 q -6.67,-1.51 -12.15,-5.87 a 5.15,4.89 1.9 0 1 -0.77,-0.78 q -2.83,-3.64 -0.47,-9.47 a 0.41,0.4 -48.7 0 1 0.73,-0.05 c 1.6,2.78 3.97,4.71 5.12,7.49 a 4.53,4.44 -79.4 0 0 1,1.49 q 0.87,0.88 5.12,5.68 0.56,0.63 1.11,0.75 0.76,0.16 0.78,0.21 a 0.41,0.41 0 0 1 -0.47,0.55 z" id="path137" style="fill:#ffd97a;fill-opacity:1"/>
      <path d="m 1173.39,685.42 q 0.02,-0.05 0.78,-0.21 0.55,-0.12 1.11,-0.75 4.26,-4.81 5.13,-5.69 a 4.54,4.45 79.4 0 0 1,-1.5 c 1.15,-2.78 3.53,-4.71 5.13,-7.5 a 0.41,0.41 0 0 1 0.73,0.05 q 2.37,5.84 -0.47,9.49 a 5.16,4.89 -1.9 0 1 -0.77,0.78 q -5.49,4.37 -12.17,5.88 a 0.41,0.41 0 0 1 -0.47,-0.55 z" id="path138" style="fill:#ffd97a;fill-opacity:1"/>
    </g>
    <g fill="#781818" id="g140" style="fill:#830511;fill-opacity:1">
      <path d="m 403.36,835.78 a 0.35,0.35 0 0 1 -0.65,-0.06 q -5.35,-18.58 -7.72,-36.96 -1.3,-10.11 -2.02,-28.08 c -0.25,-6.18 0.45,-11.58 1.05,-19.67 q 1.57,-21.14 9.28,-40.13 a 0.4,0.4 0 0 1 0.7,-0.07 q 3.45,5.3 5.04,11.9 3.16,13.12 4.42,27.68 c 0.74,8.57 0.46,14.98 0.43,24.61 q -0.06,19.14 -2.94,36.97 -2.11,13.03 -7.59,23.81 z" id="path139" style="fill:#830511;fill-opacity:1"/>
      <path d="m 1012.64,835.53 q -5.47,-10.76 -7.57,-23.76 -2.88,-17.79 -2.94,-36.89 c -0.03,-9.61 -0.31,-16.01 0.43,-24.56 q 1.26,-14.53 4.41,-27.62 1.59,-6.59 5.03,-11.88 a 0.4,0.39 50.4 0 1 0.7,0.07 q 7.69,18.95 9.26,40.05 c 0.6,8.07 1.3,13.46 1.05,19.63 q -0.72,17.93 -2.02,28.02 -2.36,18.34 -7.7,36.88 a 0.35,0.35 0 0 1 -0.65,0.06 z" id="path140" style="fill:#830511;fill-opacity:1"/>
    </g>
  </g>
</svg>