<?xml version="1.0" encoding="UTF-8"?><svg id="Layer_2" xmlns="http://www.w3.org/2000/svg" viewBox="0 0 1083.39 723.39"><defs><style>.cls-1{fill:#ffffff;fill-rule:evenodd;stroke-width:0px;}</style></defs><g id="Layer_1-2"><path class="cls-1" d="m0,1.7l1.7,1.7,1.7-1.7L1.7,0,0,1.7Zm24,0l1.7,1.7,1.7-1.7-1.7-1.7-1.7,1.7ZM0,25.7l1.7,1.7,1.7-1.7-1.7-1.7L0,25.7Zm24,0l1.7,1.7,1.7-1.7-1.7-1.7-1.7,1.7ZM0,49.7l1.7,1.7,1.7-1.7-1.7-1.7L0,49.7Zm24,0l1.7,1.7,1.7-1.7-1.7-1.7-1.7,1.7ZM0,73.7l1.7,1.7,1.7-1.7-1.7-1.7L0,73.7Zm24,0l1.7,1.7,1.7-1.7-1.7-1.7-1.7,1.7ZM0,97.7l1.7,1.7,1.7-1.7-1.7-1.7L0,97.7Zm24,0l1.7,1.7,1.7-1.7-1.7-1.7-1.7,1.7ZM0,121.7l1.7,1.7,1.7-1.7-1.7-1.7L0,121.7Zm24,0l1.7,1.7,1.7-1.7-1.7-1.7-1.7,1.7ZM0,145.7l1.7,1.7,1.7-1.7-1.7-1.7L0,145.7Zm24,0l1.7,1.7,1.7-1.7-1.7-1.7-1.7,1.7ZM0,169.7l1.7,1.7,1.7-1.7-1.7-1.7L0,169.7Zm24,0l1.7,1.7,1.7-1.7-1.7-1.7-1.7,1.7ZM0,193.7l1.7,1.7,1.7-1.7-1.7-1.7L0,193.7Zm24,0l1.7,1.7,1.7-1.7-1.7-1.7-1.7,1.7ZM0,217.7l1.7,1.7,1.7-1.7-1.7-1.7L0,217.7Zm24,0l1.7,1.7,1.7-1.7-1.7-1.7-1.7,1.7ZM0,241.7l1.7,1.7,1.7-1.7-1.7-1.7L0,241.7Zm24,0l1.7,1.7,1.7-1.7-1.7-1.7-1.7,1.7ZM0,265.7l1.7,1.7,1.7-1.7-1.7-1.7L0,265.7Zm24,0l1.7,1.7,1.7-1.7-1.7-1.7-1.7,1.7ZM0,289.7l1.7,1.7,1.7-1.7-1.7-1.7L0,289.7Zm24,0l1.7,1.7,1.7-1.7-1.7-1.7-1.7,1.7ZM0,313.7l1.7,1.7,1.7-1.7-1.7-1.7L0,313.7Zm24,0l1.7,1.7,1.7-1.7-1.7-1.7-1.7,1.7ZM0,337.7l1.7,1.7,1.7-1.7-1.7-1.7L0,337.7Zm24,0l1.7,1.7,1.7-1.7-1.7-1.7-1.7,1.7ZM0,361.7l1.7,1.7,1.7-1.7-1.7-1.7L0,361.7Zm24,0l1.7,1.7,1.7-1.7-1.7-1.7-1.7,1.7ZM0,385.7l1.7,1.7,1.7-1.7-1.7-1.7L0,385.7Zm24,0l1.7,1.7,1.7-1.7-1.7-1.7-1.7,1.7ZM0,409.7l1.7,1.7,1.7-1.7-1.7-1.7L0,409.7Zm24,0l1.7,1.7,1.7-1.7-1.7-1.7-1.7,1.7ZM0,433.7l1.7,1.7,1.7-1.7-1.7-1.7L0,433.7Zm24,0l1.7,1.7,1.7-1.7-1.7-1.7-1.7,1.7ZM0,457.7l1.7,1.7,1.7-1.7-1.7-1.7L0,457.7Zm24,0l1.7,1.7,1.7-1.7-1.7-1.7-1.7,1.7ZM0,481.7l1.7,1.7,1.7-1.7-1.7-1.7L0,481.7Zm24,0l1.7,1.7,1.7-1.7-1.7-1.7-1.7,1.7ZM0,505.7l1.7,1.7,1.7-1.7-1.7-1.7L0,505.7Zm24,0l1.7,1.7,1.7-1.7-1.7-1.7-1.7,1.7ZM0,529.7l1.7,1.7,1.7-1.7-1.7-1.7L0,529.7Zm24,0l1.7,1.7,1.7-1.7-1.7-1.7-1.7,1.7ZM0,553.7l1.7,1.7,1.7-1.7-1.7-1.7L0,553.7Zm24,0l1.7,1.7,1.7-1.7-1.7-1.7-1.7,1.7ZM0,577.7l1.7,1.7,1.7-1.7-1.7-1.7L0,577.7Zm24,0l1.7,1.7,1.7-1.7-1.7-1.7-1.7,1.7ZM0,601.7l1.7,1.7,1.7-1.7-1.7-1.7L0,601.7Zm24,0l1.7,1.7,1.7-1.7-1.7-1.7-1.7,1.7ZM0,625.7l1.7,1.7,1.7-1.7-1.7-1.7L0,625.7Zm24,0l1.7,1.7,1.7-1.7-1.7-1.7-1.7,1.7ZM0,649.7l1.7,1.7,1.7-1.7-1.7-1.7L0,649.7Zm24,0l1.7,1.7,1.7-1.7-1.7-1.7-1.7,1.7ZM0,673.7l1.7,1.7,1.7-1.7-1.7-1.7L0,673.7Zm24,0l1.7,1.7,1.7-1.7-1.7-1.7-1.7,1.7ZM0,697.7l1.7,1.7,1.7-1.7-1.7-1.7L0,697.7Zm24,0l1.7,1.7,1.7-1.7-1.7-1.7-1.7,1.7ZM0,721.7l1.7,1.7,1.7-1.7-1.7-1.7L0,721.7Zm24,0l1.7,1.7,1.7-1.7-1.7-1.7-1.7,1.7ZM48,1.7l1.7,1.7,1.7-1.7-1.7-1.7-1.7,1.7Zm24,0l1.7,1.7,1.7-1.7-1.7-1.7-1.7,1.7Zm-24,24l1.7,1.7,1.7-1.7-1.7-1.7-1.7,1.7Zm24,0l1.7,1.7,1.7-1.7-1.7-1.7-1.7,1.7Zm-24,24l1.7,1.7,1.7-1.7-1.7-1.7-1.7,1.7Zm24,0l1.7,1.7,1.7-1.7-1.7-1.7-1.7,1.7Zm-24,24l1.7,1.7,1.7-1.7-1.7-1.7-1.7,1.7Zm24,0l1.7,1.7,1.7-1.7-1.7-1.7-1.7,1.7Zm-24,24l1.7,1.7,1.7-1.7-1.7-1.7-1.7,1.7Zm24,0l1.7,1.7,1.7-1.7-1.7-1.7-1.7,1.7Zm-24,24l1.7,1.7,1.7-1.7-1.7-1.7-1.7,1.7Zm24,0l1.7,1.7,1.7-1.7-1.7-1.7-1.7,1.7Zm-24,24l1.7,1.7,1.7-1.7-1.7-1.7-1.7,1.7Zm24,0l1.7,1.7,1.7-1.7-1.7-1.7-1.7,1.7Zm-24,24l1.7,1.7,1.7-1.7-1.7-1.7-1.7,1.7Zm24,0l1.7,1.7,1.7-1.7-1.7-1.7-1.7,1.7Zm-24,24l1.7,1.7,1.7-1.7-1.7-1.7-1.7,1.7Zm24,0l1.7,1.7,1.7-1.7-1.7-1.7-1.7,1.7Zm-24,24l1.7,1.7,1.7-1.7-1.7-1.7-1.7,1.7Zm24,0l1.7,1.7,1.7-1.7-1.7-1.7-1.7,1.7Zm-24,24l1.7,1.7,1.7-1.7-1.7-1.7-1.7,1.7Zm24,0l1.7,1.7,1.7-1.7-1.7-1.7-1.7,1.7Zm-24,24l1.7,1.7,1.7-1.7-1.7-1.7-1.7,1.7Zm24,0l1.7,1.7,1.7-1.7-1.7-1.7-1.7,1.7Zm-24,24l1.7,1.7,1.7-1.7-1.7-1.7-1.7,1.7Zm24,0l1.7,1.7,1.7-1.7-1.7-1.7-1.7,1.7Zm-24,24l1.7,1.7,1.7-1.7-1.7-1.7-1.7,1.7Zm24,0l1.7,1.7,1.7-1.7-1.7-1.7-1.7,1.7Zm-24,24l1.7,1.7,1.7-1.7-1.7-1.7-1.7,1.7Zm24,0l1.7,1.7,1.7-1.7-1.7-1.7-1.7,1.7Zm-24,24l1.7,1.7,1.7-1.7-1.7-1.7-1.7,1.7Zm24,0l1.7,1.7,1.7-1.7-1.7-1.7-1.7,1.7Zm-24,24l1.7,1.7,1.7-1.7-1.7-1.7-1.7,1.7Zm24,0l1.7,1.7,1.7-1.7-1.7-1.7-1.7,1.7Zm-24,24l1.7,1.7,1.7-1.7-1.7-1.7-1.7,1.7Zm24,0l1.7,1.7,1.7-1.7-1.7-1.7-1.7,1.7Zm-24,24l1.7,1.7,1.7-1.7-1.7-1.7-1.7,1.7Zm24,0l1.7,1.7,1.7-1.7-1.7-1.7-1.7,1.7Zm-24,24l1.7,1.7,1.7-1.7-1.7-1.7-1.7,1.7Zm24,0l1.7,1.7,1.7-1.7-1.7-1.7-1.7,1.7Zm-24,24l1.7,1.7,1.7-1.7-1.7-1.7-1.7,1.7Zm24,0l1.7,1.7,1.7-1.7-1.7-1.7-1.7,1.7Zm-24,24l1.7,1.7,1.7-1.7-1.7-1.7-1.7,1.7Zm24,0l1.7,1.7,1.7-1.7-1.7-1.7-1.7,1.7Zm-24,24l1.7,1.7,1.7-1.7-1.7-1.7-1.7,1.7Zm24,0l1.7,1.7,1.7-1.7-1.7-1.7-1.7,1.7Zm-24,24l1.7,1.7,1.7-1.7-1.7-1.7-1.7,1.7Zm24,0l1.7,1.7,1.7-1.7-1.7-1.7-1.7,1.7Zm-24,24l1.7,1.7,1.7-1.7-1.7-1.7-1.7,1.7Zm24,0l1.7,1.7,1.7-1.7-1.7-1.7-1.7,1.7Zm-24,24l1.7,1.7,1.7-1.7-1.7-1.7-1.7,1.7Zm24,0l1.7,1.7,1.7-1.7-1.7-1.7-1.7,1.7Zm-24,24l1.7,1.7,1.7-1.7-1.7-1.7-1.7,1.7Zm24,0l1.7,1.7,1.7-1.7-1.7-1.7-1.7,1.7Zm-24,24l1.7,1.7,1.7-1.7-1.7-1.7-1.7,1.7Zm24,0l1.7,1.7,1.7-1.7-1.7-1.7-1.7,1.7Zm-24,24l1.7,1.7,1.7-1.7-1.7-1.7-1.7,1.7Zm24,0l1.7,1.7,1.7-1.7-1.7-1.7-1.7,1.7Zm-24,24l1.7,1.7,1.7-1.7-1.7-1.7-1.7,1.7Zm24,0l1.7,1.7,1.7-1.7-1.7-1.7-1.7,1.7Zm-24,24l1.7,1.7,1.7-1.7-1.7-1.7-1.7,1.7Zm24,0l1.7,1.7,1.7-1.7-1.7-1.7-1.7,1.7ZM96,1.7l1.7,1.7,1.7-1.7-1.7-1.7-1.7,1.7Zm24,0l1.7,1.7,1.7-1.7-1.7-1.7-1.7,1.7Zm-24,24l1.7,1.7,1.7-1.7-1.7-1.7-1.7,1.7Zm24,0l1.7,1.7,1.7-1.7-1.7-1.7-1.7,1.7Zm-24,24l1.7,1.7,1.7-1.7-1.7-1.7-1.7,1.7Zm24,0l1.7,1.7,1.7-1.7-1.7-1.7-1.7,1.7Zm-24,24l1.7,1.7,1.7-1.7-1.7-1.7-1.7,1.7Zm24,0l1.7,1.7,1.7-1.7-1.7-1.7-1.7,1.7Zm-24,24l1.7,1.7,1.7-1.7-1.7-1.7-1.7,1.7Zm24,0l1.7,1.7,1.7-1.7-1.7-1.7-1.7,1.7Zm-24,24l1.7,1.7,1.7-1.7-1.7-1.7-1.7,1.7Zm24,0l1.7,1.7,1.7-1.7-1.7-1.7-1.7,1.7Zm-24,24l1.7,1.7,1.7-1.7-1.7-1.7-1.7,1.7Zm24,0l1.7,1.7,1.7-1.7-1.7-1.7-1.7,1.7Zm-24,24l1.7,1.7,1.7-1.7-1.7-1.7-1.7,1.7Zm24,0l1.7,1.7,1.7-1.7-1.7-1.7-1.7,1.7Zm-24,24l1.7,1.7,1.7-1.7-1.7-1.7-1.7,1.7Zm24,0l1.7,1.7,1.7-1.7-1.7-1.7-1.7,1.7Zm-24,24l1.7,1.7,1.7-1.7-1.7-1.7-1.7,1.7Zm24,0l1.7,1.7,1.7-1.7-1.7-1.7-1.7,1.7Zm-24,24l1.7,1.7,1.7-1.7-1.7-1.7-1.7,1.7Zm24,0l1.7,1.7,1.7-1.7-1.7-1.7-1.7,1.7Zm-24,24l1.7,1.7,1.7-1.7-1.7-1.7-1.7,1.7Zm24,0l1.7,1.7,1.7-1.7-1.7-1.7-1.7,1.7Zm-24,24l1.7,1.7,1.7-1.7-1.7-1.7-1.7,1.7Zm24,0l1.7,1.7,1.7-1.7-1.7-1.7-1.7,1.7Zm-24,24l1.7,1.7,1.7-1.7-1.7-1.7-1.7,1.7Zm24,0l1.7,1.7,1.7-1.7-1.7-1.7-1.7,1.7Zm-24,24l1.7,1.7,1.7-1.7-1.7-1.7-1.7,1.7Zm24,0l1.7,1.7,1.7-1.7-1.7-1.7-1.7,1.7Zm-24,24l1.7,1.7,1.7-1.7-1.7-1.7-1.7,1.7Zm24,0l1.7,1.7,1.7-1.7-1.7-1.7-1.7,1.7Zm-24,24l1.7,1.7,1.7-1.7-1.7-1.7-1.7,1.7Zm24,0l1.7,1.7,1.7-1.7-1.7-1.7-1.7,1.7Zm-24,24l1.7,1.7,1.7-1.7-1.7-1.7-1.7,1.7Zm24,0l1.7,1.7,1.7-1.7-1.7-1.7-1.7,1.7Zm-24,24l1.7,1.7,1.7-1.7-1.7-1.7-1.7,1.7Zm24,0l1.7,1.7,1.7-1.7-1.7-1.7-1.7,1.7Zm-24,24l1.7,1.7,1.7-1.7-1.7-1.7-1.7,1.7Zm24,0l1.7,1.7,1.7-1.7-1.7-1.7-1.7,1.7Zm-24,24l1.7,1.7,1.7-1.7-1.7-1.7-1.7,1.7Zm24,0l1.7,1.7,1.7-1.7-1.7-1.7-1.7,1.7Zm-24,24l1.7,1.7,1.7-1.7-1.7-1.7-1.7,1.7Zm24,0l1.7,1.7,1.7-1.7-1.7-1.7-1.7,1.7Zm-24,24l1.7,1.7,1.7-1.7-1.7-1.7-1.7,1.7Zm24,0l1.7,1.7,1.7-1.7-1.7-1.7-1.7,1.7Zm-24,24l1.7,1.7,1.7-1.7-1.7-1.7-1.7,1.7Zm24,0l1.7,1.7,1.7-1.7-1.7-1.7-1.7,1.7Zm-24,24l1.7,1.7,1.7-1.7-1.7-1.7-1.7,1.7Zm24,0l1.7,1.7,1.7-1.7-1.7-1.7-1.7,1.7Zm-24,24l1.7,1.7,1.7-1.7-1.7-1.7-1.7,1.7Zm24,0l1.7,1.7,1.7-1.7-1.7-1.7-1.7,1.7Zm-24,24l1.7,1.7,1.7-1.7-1.7-1.7-1.7,1.7Zm24,0l1.7,1.7,1.7-1.7-1.7-1.7-1.7,1.7Zm-24,24l1.7,1.7,1.7-1.7-1.7-1.7-1.7,1.7Zm24,0l1.7,1.7,1.7-1.7-1.7-1.7-1.7,1.7Zm-24,24l1.7,1.7,1.7-1.7-1.7-1.7-1.7,1.7Zm24,0l1.7,1.7,1.7-1.7-1.7-1.7-1.7,1.7Zm-24,24l1.7,1.7,1.7-1.7-1.7-1.7-1.7,1.7Zm24,0l1.7,1.7,1.7-1.7-1.7-1.7-1.7,1.7Zm-24,24l1.7,1.7,1.7-1.7-1.7-1.7-1.7,1.7Zm24,0l1.7,1.7,1.7-1.7-1.7-1.7-1.7,1.7ZM144,1.7l1.7,1.7,1.7-1.7-1.7-1.7-1.7,1.7Zm24,0l1.7,1.7,1.7-1.7-1.7-1.7-1.7,1.7Zm-24,24l1.7,1.7,1.7-1.7-1.7-1.7-1.7,1.7Zm24,0l1.7,1.7,1.7-1.7-1.7-1.7-1.7,1.7Zm-24,24l1.7,1.7,1.7-1.7-1.7-1.7-1.7,1.7Zm24,0l1.7,1.7,1.7-1.7-1.7-1.7-1.7,1.7Zm-24,24l1.7,1.7,1.7-1.7-1.7-1.7-1.7,1.7Zm24,0l1.7,1.7,1.7-1.7-1.7-1.7-1.7,1.7Zm-24,24l1.7,1.7,1.7-1.7-1.7-1.7-1.7,1.7Zm24,0l1.7,1.7,1.7-1.7-1.7-1.7-1.7,1.7Zm-24,24l1.7,1.7,1.7-1.7-1.7-1.7-1.7,1.7Zm24,0l1.7,1.7,1.7-1.7-1.7-1.7-1.7,1.7Zm-24,24l1.7,1.7,1.7-1.7-1.7-1.7-1.7,1.7Zm24,0l1.7,1.7,1.7-1.7-1.7-1.7-1.7,1.7Zm-24,24l1.7,1.7,1.7-1.7-1.7-1.7-1.7,1.7Zm24,0l1.7,1.7,1.7-1.7-1.7-1.7-1.7,1.7Zm-24,24l1.7,1.7,1.7-1.7-1.7-1.7-1.7,1.7Zm24,0l1.7,1.7,1.7-1.7-1.7-1.7-1.7,1.7Zm-24,24l1.7,1.7,1.7-1.7-1.7-1.7-1.7,1.7Zm24,0l1.7,1.7,1.7-1.7-1.7-1.7-1.7,1.7Zm-24,24l1.7,1.7,1.7-1.7-1.7-1.7-1.7,1.7Zm24,0l1.7,1.7,1.7-1.7-1.7-1.7-1.7,1.7Zm-24,24l1.7,1.7,1.7-1.7-1.7-1.7-1.7,1.7Zm24,0l1.7,1.7,1.7-1.7-1.7-1.7-1.7,1.7Zm-24,24l1.7,1.7,1.7-1.7-1.7-1.7-1.7,1.7Zm24,0l1.7,1.7,1.7-1.7-1.7-1.7-1.7,1.7Zm-24,24l1.7,1.7,1.7-1.7-1.7-1.7-1.7,1.7Zm24,0l1.7,1.7,1.7-1.7-1.7-1.7-1.7,1.7Zm-24,24l1.7,1.7,1.7-1.7-1.7-1.7-1.7,1.7Zm24,0l1.7,1.7,1.7-1.7-1.7-1.7-1.7,1.7Zm-24,24l1.7,1.7,1.7-1.7-1.7-1.7-1.7,1.7Zm24,0l1.7,1.7,1.7-1.7-1.7-1.7-1.7,1.7Zm-24,24l1.7,1.7,1.7-1.7-1.7-1.7-1.7,1.7Zm24,0l1.7,1.7,1.7-1.7-1.7-1.7-1.7,1.7Zm-24,24l1.7,1.7,1.7-1.7-1.7-1.7-1.7,1.7Zm24,0l1.7,1.7,1.7-1.7-1.7-1.7-1.7,1.7Zm-24,24l1.7,1.7,1.7-1.7-1.7-1.7-1.7,1.7Zm24,0l1.7,1.7,1.7-1.7-1.7-1.7-1.7,1.7Zm-24,24l1.7,1.7,1.7-1.7-1.7-1.7-1.7,1.7Zm24,0l1.7,1.7,1.7-1.7-1.7-1.7-1.7,1.7Zm-24,24l1.7,1.7,1.7-1.7-1.7-1.7-1.7,1.7Zm24,0l1.7,1.7,1.7-1.7-1.7-1.7-1.7,1.7Zm-24,24l1.7,1.7,1.7-1.7-1.7-1.7-1.7,1.7Zm24,0l1.7,1.7,1.7-1.7-1.7-1.7-1.7,1.7Zm-24,24l1.7,1.7,1.7-1.7-1.7-1.7-1.7,1.7Zm24,0l1.7,1.7,1.7-1.7-1.7-1.7-1.7,1.7Zm-24,24l1.7,1.7,1.7-1.7-1.7-1.7-1.7,1.7Zm24,0l1.7,1.7,1.7-1.7-1.7-1.7-1.7,1.7Zm-24,24l1.7,1.7,1.7-1.7-1.7-1.7-1.7,1.7Zm24,0l1.7,1.7,1.7-1.7-1.7-1.7-1.7,1.7Zm-24,24l1.7,1.7,1.7-1.7-1.7-1.7-1.7,1.7Zm24,0l1.7,1.7,1.7-1.7-1.7-1.7-1.7,1.7Zm-24,24l1.7,1.7,1.7-1.7-1.7-1.7-1.7,1.7Zm24,0l1.7,1.7,1.7-1.7-1.7-1.7-1.7,1.7Zm-24,24l1.7,1.7,1.7-1.7-1.7-1.7-1.7,1.7Zm24,0l1.7,1.7,1.7-1.7-1.7-1.7-1.7,1.7Zm-24,24l1.7,1.7,1.7-1.7-1.7-1.7-1.7,1.7Zm24,0l1.7,1.7,1.7-1.7-1.7-1.7-1.7,1.7Zm-24,24l1.7,1.7,1.7-1.7-1.7-1.7-1.7,1.7Zm24,0l1.7,1.7,1.7-1.7-1.7-1.7-1.7,1.7Zm-24,24l1.7,1.7,1.7-1.7-1.7-1.7-1.7,1.7Zm24,0l1.7,1.7,1.7-1.7-1.7-1.7-1.7,1.7ZM192,1.7l1.7,1.7,1.7-1.7-1.7-1.7-1.7,1.7Zm24,0l1.7,1.7,1.7-1.7-1.7-1.7-1.7,1.7Zm-24,24l1.7,1.7,1.7-1.7-1.7-1.7-1.7,1.7Zm24,0l1.7,1.7,1.7-1.7-1.7-1.7-1.7,1.7Zm-24,24l1.7,1.7,1.7-1.7-1.7-1.7-1.7,1.7Zm24,0l1.7,1.7,1.7-1.7-1.7-1.7-1.7,1.7Zm-24,24l1.7,1.7,1.7-1.7-1.7-1.7-1.7,1.7Zm24,0l1.7,1.7,1.7-1.7-1.7-1.7-1.7,1.7Zm-24,24l1.7,1.7,1.7-1.7-1.7-1.7-1.7,1.7Zm24,0l1.7,1.7,1.7-1.7-1.7-1.7-1.7,1.7Zm-24,24l1.7,1.7,1.7-1.7-1.7-1.7-1.7,1.7Zm24,0l1.7,1.7,1.7-1.7-1.7-1.7-1.7,1.7Zm-24,24l1.7,1.7,1.7-1.7-1.7-1.7-1.7,1.7Zm24,0l1.7,1.7,1.7-1.7-1.7-1.7-1.7,1.7Zm-24,24l1.7,1.7,1.7-1.7-1.7-1.7-1.7,1.7Zm24,0l1.7,1.7,1.7-1.7-1.7-1.7-1.7,1.7Zm-24,24l1.7,1.7,1.7-1.7-1.7-1.7-1.7,1.7Zm24,0l1.7,1.7,1.7-1.7-1.7-1.7-1.7,1.7Zm-24,24l1.7,1.7,1.7-1.7-1.7-1.7-1.7,1.7Zm24,0l1.7,1.7,1.7-1.7-1.7-1.7-1.7,1.7Zm-24,24l1.7,1.7,1.7-1.7-1.7-1.7-1.7,1.7Zm24,0l1.7,1.7,1.7-1.7-1.7-1.7-1.7,1.7Zm-24,24l1.7,1.7,1.7-1.7-1.7-1.7-1.7,1.7Zm24,0l1.7,1.7,1.7-1.7-1.7-1.7-1.7,1.7Zm-24,24l1.7,1.7,1.7-1.7-1.7-1.7-1.7,1.7Zm24,0l1.7,1.7,1.7-1.7-1.7-1.7-1.7,1.7Zm-24,24l1.7,1.7,1.7-1.7-1.7-1.7-1.7,1.7Zm24,0l1.7,1.7,1.7-1.7-1.7-1.7-1.7,1.7Zm-24,24l1.7,1.7,1.7-1.7-1.7-1.7-1.7,1.7Zm24,0l1.7,1.7,1.7-1.7-1.7-1.7-1.7,1.7Zm-24,24l1.7,1.7,1.7-1.7-1.7-1.7-1.7,1.7Zm24,0l1.7,1.7,1.7-1.7-1.7-1.7-1.7,1.7Zm-24,24l1.7,1.7,1.7-1.7-1.7-1.7-1.7,1.7Zm24,0l1.7,1.7,1.7-1.7-1.7-1.7-1.7,1.7Zm-24,24l1.7,1.7,1.7-1.7-1.7-1.7-1.7,1.7Zm24,0l1.7,1.7,1.7-1.7-1.7-1.7-1.7,1.7Zm-24,24l1.7,1.7,1.7-1.7-1.7-1.7-1.7,1.7Zm24,0l1.7,1.7,1.7-1.7-1.7-1.7-1.7,1.7Zm-24,24l1.7,1.7,1.7-1.7-1.7-1.7-1.7,1.7Zm24,0l1.7,1.7,1.7-1.7-1.7-1.7-1.7,1.7Zm-24,24l1.7,1.7,1.7-1.7-1.7-1.7-1.7,1.7Zm24,0l1.7,1.7,1.7-1.7-1.7-1.7-1.7,1.7Zm-24,24l1.7,1.7,1.7-1.7-1.7-1.7-1.7,1.7Zm24,0l1.7,1.7,1.7-1.7-1.7-1.7-1.7,1.7Zm-24,24l1.7,1.7,1.7-1.7-1.7-1.7-1.7,1.7Zm24,0l1.7,1.7,1.7-1.7-1.7-1.7-1.7,1.7Zm-24,24l1.7,1.7,1.7-1.7-1.7-1.7-1.7,1.7Zm24,0l1.7,1.7,1.7-1.7-1.7-1.7-1.7,1.7Zm-24,24l1.7,1.7,1.7-1.7-1.7-1.7-1.7,1.7Zm24,0l1.7,1.7,1.7-1.7-1.7-1.7-1.7,1.7Zm-24,24l1.7,1.7,1.7-1.7-1.7-1.7-1.7,1.7Zm24,0l1.7,1.7,1.7-1.7-1.7-1.7-1.7,1.7Zm-24,24l1.7,1.7,1.7-1.7-1.7-1.7-1.7,1.7Zm24,0l1.7,1.7,1.7-1.7-1.7-1.7-1.7,1.7Zm-24,24l1.7,1.7,1.7-1.7-1.7-1.7-1.7,1.7Zm24,0l1.7,1.7,1.7-1.7-1.7-1.7-1.7,1.7Zm-24,24l1.7,1.7,1.7-1.7-1.7-1.7-1.7,1.7Zm24,0l1.7,1.7,1.7-1.7-1.7-1.7-1.7,1.7Zm-24,24l1.7,1.7,1.7-1.7-1.7-1.7-1.7,1.7Zm24,0l1.7,1.7,1.7-1.7-1.7-1.7-1.7,1.7Zm-24,24l1.7,1.7,1.7-1.7-1.7-1.7-1.7,1.7Zm24,0l1.7,1.7,1.7-1.7-1.7-1.7-1.7,1.7ZM240,1.7l1.7,1.7,1.7-1.7-1.7-1.7-1.7,1.7Zm24,0l1.7,1.7,1.7-1.7-1.7-1.7-1.7,1.7Zm-24,24l1.7,1.7,1.7-1.7-1.7-1.7-1.7,1.7Zm24,0l1.7,1.7,1.7-1.7-1.7-1.7-1.7,1.7Zm-24,24l1.7,1.7,1.7-1.7-1.7-1.7-1.7,1.7Zm24,0l1.7,1.7,1.7-1.7-1.7-1.7-1.7,1.7Zm-24,24l1.7,1.7,1.7-1.7-1.7-1.7-1.7,1.7Zm24,0l1.7,1.7,1.7-1.7-1.7-1.7-1.7,1.7Zm-24,24l1.7,1.7,1.7-1.7-1.7-1.7-1.7,1.7Zm24,0l1.7,1.7,1.7-1.7-1.7-1.7-1.7,1.7Zm-24,24l1.7,1.7,1.7-1.7-1.7-1.7-1.7,1.7Zm24,0l1.7,1.7,1.7-1.7-1.7-1.7-1.7,1.7Zm-24,24l1.7,1.7,1.7-1.7-1.7-1.7-1.7,1.7Zm24,0l1.7,1.7,1.7-1.7-1.7-1.7-1.7,1.7Zm-24,24l1.7,1.7,1.7-1.7-1.7-1.7-1.7,1.7Zm24,0l1.7,1.7,1.7-1.7-1.7-1.7-1.7,1.7Zm-24,24l1.7,1.7,1.7-1.7-1.7-1.7-1.7,1.7Zm24,0l1.7,1.7,1.7-1.7-1.7-1.7-1.7,1.7Zm-24,24l1.7,1.7,1.7-1.7-1.7-1.7-1.7,1.7Zm24,0l1.7,1.7,1.7-1.7-1.7-1.7-1.7,1.7Zm-24,24l1.7,1.7,1.7-1.7-1.7-1.7-1.7,1.7Zm24,0l1.7,1.7,1.7-1.7-1.7-1.7-1.7,1.7Zm-24,24l1.7,1.7,1.7-1.7-1.7-1.7-1.7,1.7Zm24,0l1.7,1.7,1.7-1.7-1.7-1.7-1.7,1.7Zm-24,24l1.7,1.7,1.7-1.7-1.7-1.7-1.7,1.7Zm24,0l1.7,1.7,1.7-1.7-1.7-1.7-1.7,1.7Zm-24,24l1.7,1.7,1.7-1.7-1.7-1.7-1.7,1.7Zm24,0l1.7,1.7,1.7-1.7-1.7-1.7-1.7,1.7Zm-24,24l1.7,1.7,1.7-1.7-1.7-1.7-1.7,1.7Zm24,0l1.7,1.7,1.7-1.7-1.7-1.7-1.7,1.7Zm-24,24l1.7,1.7,1.7-1.7-1.7-1.7-1.7,1.7Zm24,0l1.7,1.7,1.7-1.7-1.7-1.7-1.7,1.7Zm-24,24l1.7,1.7,1.7-1.7-1.7-1.7-1.7,1.7Zm24,0l1.7,1.7,1.7-1.7-1.7-1.7-1.7,1.7Zm-24,24l1.7,1.7,1.7-1.7-1.7-1.7-1.7,1.7Zm24,0l1.7,1.7,1.7-1.7-1.7-1.7-1.7,1.7Zm-24,24l1.7,1.7,1.7-1.7-1.7-1.7-1.7,1.7Zm24,0l1.7,1.7,1.7-1.7-1.7-1.7-1.7,1.7Zm-24,24l1.7,1.7,1.7-1.7-1.7-1.7-1.7,1.7Zm24,0l1.7,1.7,1.7-1.7-1.7-1.7-1.7,1.7Zm-24,24l1.7,1.7,1.7-1.7-1.7-1.7-1.7,1.7Zm24,0l1.7,1.7,1.7-1.7-1.7-1.7-1.7,1.7Zm-24,24l1.7,1.7,1.7-1.7-1.7-1.7-1.7,1.7Zm24,0l1.7,1.7,1.7-1.7-1.7-1.7-1.7,1.7Zm-24,24l1.7,1.7,1.7-1.7-1.7-1.7-1.7,1.7Zm24,0l1.7,1.7,1.7-1.7-1.7-1.7-1.7,1.7Zm-24,24l1.7,1.7,1.7-1.7-1.7-1.7-1.7,1.7Zm24,0l1.7,1.7,1.7-1.7-1.7-1.7-1.7,1.7Zm-24,24l1.7,1.7,1.7-1.7-1.7-1.7-1.7,1.7Zm24,0l1.7,1.7,1.7-1.7-1.7-1.7-1.7,1.7Zm-24,24l1.7,1.7,1.7-1.7-1.7-1.7-1.7,1.7Zm24,0l1.7,1.7,1.7-1.7-1.7-1.7-1.7,1.7Zm-24,24l1.7,1.7,1.7-1.7-1.7-1.7-1.7,1.7Zm24,0l1.7,1.7,1.7-1.7-1.7-1.7-1.7,1.7Zm-24,24l1.7,1.7,1.7-1.7-1.7-1.7-1.7,1.7Zm24,0l1.7,1.7,1.7-1.7-1.7-1.7-1.7,1.7Zm-24,24l1.7,1.7,1.7-1.7-1.7-1.7-1.7,1.7Zm24,0l1.7,1.7,1.7-1.7-1.7-1.7-1.7,1.7Zm-24,24l1.7,1.7,1.7-1.7-1.7-1.7-1.7,1.7Zm24,0l1.7,1.7,1.7-1.7-1.7-1.7-1.7,1.7Zm-24,24l1.7,1.7,1.7-1.7-1.7-1.7-1.7,1.7Zm24,0l1.7,1.7,1.7-1.7-1.7-1.7-1.7,1.7ZM288,1.7l1.7,1.7,1.7-1.7-1.7-1.7-1.7,1.7Zm24,0l1.7,1.7,1.7-1.7-1.7-1.7-1.7,1.7Zm-24,24l1.7,1.7,1.7-1.7-1.7-1.7-1.7,1.7Zm24,0l1.7,1.7,1.7-1.7-1.7-1.7-1.7,1.7Zm-24,24l1.7,1.7,1.7-1.7-1.7-1.7-1.7,1.7Zm24,0l1.7,1.7,1.7-1.7-1.7-1.7-1.7,1.7Zm-24,24l1.7,1.7,1.7-1.7-1.7-1.7-1.7,1.7Zm24,0l1.7,1.7,1.7-1.7-1.7-1.7-1.7,1.7Zm-24,24l1.7,1.7,1.7-1.7-1.7-1.7-1.7,1.7Zm24,0l1.7,1.7,1.7-1.7-1.7-1.7-1.7,1.7Zm-24,24l1.7,1.7,1.7-1.7-1.7-1.7-1.7,1.7Zm24,0l1.7,1.7,1.7-1.7-1.7-1.7-1.7,1.7Zm-24,24l1.7,1.7,1.7-1.7-1.7-1.7-1.7,1.7Zm24,0l1.7,1.7,1.7-1.7-1.7-1.7-1.7,1.7Zm-24,24l1.7,1.7,1.7-1.7-1.7-1.7-1.7,1.7Zm24,0l1.7,1.7,1.7-1.7-1.7-1.7-1.7,1.7Zm-24,24l1.7,1.7,1.7-1.7-1.7-1.7-1.7,1.7Zm24,0l1.7,1.7,1.7-1.7-1.7-1.7-1.7,1.7Zm-24,24l1.7,1.7,1.7-1.7-1.7-1.7-1.7,1.7Zm24,0l1.7,1.7,1.7-1.7-1.7-1.7-1.7,1.7Zm-24,24l1.7,1.7,1.7-1.7-1.7-1.7-1.7,1.7Zm24,0l1.7,1.7,1.7-1.7-1.7-1.7-1.7,1.7Zm-24,24l1.7,1.7,1.7-1.7-1.7-1.7-1.7,1.7Zm24,0l1.7,1.7,1.7-1.7-1.7-1.7-1.7,1.7Zm-24,24l1.7,1.7,1.7-1.7-1.7-1.7-1.7,1.7Zm24,0l1.7,1.7,1.7-1.7-1.7-1.7-1.7,1.7Zm-24,24l1.7,1.7,1.7-1.7-1.7-1.7-1.7,1.7Zm24,0l1.7,1.7,1.7-1.7-1.7-1.7-1.7,1.7Zm-24,24l1.7,1.7,1.7-1.7-1.7-1.7-1.7,1.7Zm24,0l1.7,1.7,1.7-1.7-1.7-1.7-1.7,1.7Zm-24,24l1.7,1.7,1.7-1.7-1.7-1.7-1.7,1.7Zm24,0l1.7,1.7,1.7-1.7-1.7-1.7-1.7,1.7Zm-24,24l1.7,1.7,1.7-1.7-1.7-1.7-1.7,1.7Zm24,0l1.7,1.7,1.7-1.7-1.7-1.7-1.7,1.7Zm-24,24l1.7,1.7,1.7-1.7-1.7-1.7-1.7,1.7Zm24,0l1.7,1.7,1.7-1.7-1.7-1.7-1.7,1.7Zm-24,24l1.7,1.7,1.7-1.7-1.7-1.7-1.7,1.7Zm24,0l1.7,1.7,1.7-1.7-1.7-1.7-1.7,1.7Zm-24,24l1.7,1.7,1.7-1.7-1.7-1.7-1.7,1.7Zm24,0l1.7,1.7,1.7-1.7-1.7-1.7-1.7,1.7Zm-24,24l1.7,1.7,1.7-1.7-1.7-1.7-1.7,1.7Zm24,0l1.7,1.7,1.7-1.7-1.7-1.7-1.7,1.7Zm-24,24l1.7,1.7,1.7-1.7-1.7-1.7-1.7,1.7Zm24,0l1.7,1.7,1.7-1.7-1.7-1.7-1.7,1.7Zm-24,24l1.7,1.7,1.7-1.7-1.7-1.7-1.7,1.7Zm24,0l1.7,1.7,1.7-1.7-1.7-1.7-1.7,1.7Zm-24,24l1.7,1.7,1.7-1.7-1.7-1.7-1.7,1.7Zm24,0l1.7,1.7,1.7-1.7-1.7-1.7-1.7,1.7Zm-24,24l1.7,1.7,1.7-1.7-1.7-1.7-1.7,1.7Zm24,0l1.7,1.7,1.7-1.7-1.7-1.7-1.7,1.7Zm-24,24l1.7,1.7,1.7-1.7-1.7-1.7-1.7,1.7Zm24,0l1.7,1.7,1.7-1.7-1.7-1.7-1.7,1.7Zm-24,24l1.7,1.7,1.7-1.7-1.7-1.7-1.7,1.7Zm24,0l1.7,1.7,1.7-1.7-1.7-1.7-1.7,1.7Zm-24,24l1.7,1.7,1.7-1.7-1.7-1.7-1.7,1.7Zm24,0l1.7,1.7,1.7-1.7-1.7-1.7-1.7,1.7Zm-24,24l1.7,1.7,1.7-1.7-1.7-1.7-1.7,1.7Zm24,0l1.7,1.7,1.7-1.7-1.7-1.7-1.7,1.7Zm-24,24l1.7,1.7,1.7-1.7-1.7-1.7-1.7,1.7Zm24,0l1.7,1.7,1.7-1.7-1.7-1.7-1.7,1.7Zm-24,24l1.7,1.7,1.7-1.7-1.7-1.7-1.7,1.7Zm24,0l1.7,1.7,1.7-1.7-1.7-1.7-1.7,1.7ZM336,1.7l1.7,1.7,1.7-1.7-1.7-1.7-1.7,1.7Zm24,0l1.7,1.7,1.7-1.7-1.7-1.7-1.7,1.7Zm-24,24l1.7,1.7,1.7-1.7-1.7-1.7-1.7,1.7Zm24,0l1.7,1.7,1.7-1.7-1.7-1.7-1.7,1.7Zm-24,24l1.7,1.7,1.7-1.7-1.7-1.7-1.7,1.7Zm24,0l1.7,1.7,1.7-1.7-1.7-1.7-1.7,1.7Zm-24,24l1.7,1.7,1.7-1.7-1.7-1.7-1.7,1.7Zm24,0l1.7,1.7,1.7-1.7-1.7-1.7-1.7,1.7Zm-24,24l1.7,1.7,1.7-1.7-1.7-1.7-1.7,1.7Zm24,0l1.7,1.7,1.7-1.7-1.7-1.7-1.7,1.7Zm-24,24l1.7,1.7,1.7-1.7-1.7-1.7-1.7,1.7Zm24,0l1.7,1.7,1.7-1.7-1.7-1.7-1.7,1.7Zm-24,24l1.7,1.7,1.7-1.7-1.7-1.7-1.7,1.7Zm24,0l1.7,1.7,1.7-1.7-1.7-1.7-1.7,1.7Zm-24,24l1.7,1.7,1.7-1.7-1.7-1.7-1.7,1.7Zm24,0l1.7,1.7,1.7-1.7-1.7-1.7-1.7,1.7Zm-24,24l1.7,1.7,1.7-1.7-1.7-1.7-1.7,1.7Zm24,0l1.7,1.7,1.7-1.7-1.7-1.7-1.7,1.7Zm-24,24l1.7,1.7,1.7-1.7-1.7-1.7-1.7,1.7Zm24,0l1.7,1.7,1.7-1.7-1.7-1.7-1.7,1.7Zm-24,24l1.7,1.7,1.7-1.7-1.7-1.7-1.7,1.7Zm24,0l1.7,1.7,1.7-1.7-1.7-1.7-1.7,1.7Zm-24,24l1.7,1.7,1.7-1.7-1.7-1.7-1.7,1.7Zm24,0l1.7,1.7,1.7-1.7-1.7-1.7-1.7,1.7Zm-24,24l1.7,1.7,1.7-1.7-1.7-1.7-1.7,1.7Zm24,0l1.7,1.7,1.7-1.7-1.7-1.7-1.7,1.7Zm-24,24l1.7,1.7,1.7-1.7-1.7-1.7-1.7,1.7Zm24,0l1.7,1.7,1.7-1.7-1.7-1.7-1.7,1.7Zm-24,24l1.7,1.7,1.7-1.7-1.7-1.7-1.7,1.7Zm24,0l1.7,1.7,1.7-1.7-1.7-1.7-1.7,1.7Zm-24,24l1.7,1.7,1.7-1.7-1.7-1.7-1.7,1.7Zm24,0l1.7,1.7,1.7-1.7-1.7-1.7-1.7,1.7Zm-24,24l1.7,1.7,1.7-1.7-1.7-1.7-1.7,1.7Zm24,0l1.7,1.7,1.7-1.7-1.7-1.7-1.7,1.7Zm-24,24l1.7,1.7,1.7-1.7-1.7-1.7-1.7,1.7Zm24,0l1.7,1.7,1.7-1.7-1.7-1.7-1.7,1.7Zm-24,24l1.7,1.7,1.7-1.7-1.7-1.7-1.7,1.7Zm24,0l1.7,1.7,1.7-1.7-1.7-1.7-1.7,1.7Zm-24,24l1.7,1.7,1.7-1.7-1.7-1.7-1.7,1.7Zm24,0l1.7,1.7,1.7-1.7-1.7-1.7-1.7,1.7Zm-24,24l1.7,1.7,1.7-1.7-1.7-1.7-1.7,1.7Zm24,0l1.7,1.7,1.7-1.7-1.7-1.7-1.7,1.7Zm-24,24l1.7,1.7,1.7-1.7-1.7-1.7-1.7,1.7Zm24,0l1.7,1.7,1.7-1.7-1.7-1.7-1.7,1.7Zm-24,24l1.7,1.7,1.7-1.7-1.7-1.7-1.7,1.7Zm24,0l1.7,1.7,1.7-1.7-1.7-1.7-1.7,1.7Zm-24,24l1.7,1.7,1.7-1.7-1.7-1.7-1.7,1.7Zm24,0l1.7,1.7,1.7-1.7-1.7-1.7-1.7,1.7Zm-24,24l1.7,1.7,1.7-1.7-1.7-1.7-1.7,1.7Zm24,0l1.7,1.7,1.7-1.7-1.7-1.7-1.7,1.7Zm-24,24l1.7,1.7,1.7-1.7-1.7-1.7-1.7,1.7Zm24,0l1.7,1.7,1.7-1.7-1.7-1.7-1.7,1.7Zm-24,24l1.7,1.7,1.7-1.7-1.7-1.7-1.7,1.7Zm24,0l1.7,1.7,1.7-1.7-1.7-1.7-1.7,1.7Zm-24,24l1.7,1.7,1.7-1.7-1.7-1.7-1.7,1.7Zm24,0l1.7,1.7,1.7-1.7-1.7-1.7-1.7,1.7Zm-24,24l1.7,1.7,1.7-1.7-1.7-1.7-1.7,1.7Zm24,0l1.7,1.7,1.7-1.7-1.7-1.7-1.7,1.7Zm-24,24l1.7,1.7,1.7-1.7-1.7-1.7-1.7,1.7Zm24,0l1.7,1.7,1.7-1.7-1.7-1.7-1.7,1.7Zm-24,24l1.7,1.7,1.7-1.7-1.7-1.7-1.7,1.7Zm24,0l1.7,1.7,1.7-1.7-1.7-1.7-1.7,1.7ZM384,1.7l1.7,1.7,1.7-1.7-1.7-1.7-1.7,1.7Zm24,0l1.7,1.7,1.7-1.7-1.7-1.7-1.7,1.7Zm-24,24l1.7,1.7,1.7-1.7-1.7-1.7-1.7,1.7Zm24,0l1.7,1.7,1.7-1.7-1.7-1.7-1.7,1.7Zm-24,24l1.7,1.7,1.7-1.7-1.7-1.7-1.7,1.7Zm24,0l1.7,1.7,1.7-1.7-1.7-1.7-1.7,1.7Zm-24,24l1.7,1.7,1.7-1.7-1.7-1.7-1.7,1.7Zm24,0l1.7,1.7,1.7-1.7-1.7-1.7-1.7,1.7Zm-24,24l1.7,1.7,1.7-1.7-1.7-1.7-1.7,1.7Zm24,0l1.7,1.7,1.7-1.7-1.7-1.7-1.7,1.7Zm-24,24l1.7,1.7,1.7-1.7-1.7-1.7-1.7,1.7Zm24,0l1.7,1.7,1.7-1.7-1.7-1.7-1.7,1.7Zm-24,24l1.7,1.7,1.7-1.7-1.7-1.7-1.7,1.7Zm24,0l1.7,1.7,1.7-1.7-1.7-1.7-1.7,1.7Zm-24,24l1.7,1.7,1.7-1.7-1.7-1.7-1.7,1.7Zm24,0l1.7,1.7,1.7-1.7-1.7-1.7-1.7,1.7Zm-24,24l1.7,1.7,1.7-1.7-1.7-1.7-1.7,1.7Zm24,0l1.7,1.7,1.7-1.7-1.7-1.7-1.7,1.7Zm-24,24l1.7,1.7,1.7-1.7-1.7-1.7-1.7,1.7Zm24,0l1.7,1.7,1.7-1.7-1.7-1.7-1.7,1.7Zm-24,24l1.7,1.7,1.7-1.7-1.7-1.7-1.7,1.7Zm24,0l1.7,1.7,1.7-1.7-1.7-1.7-1.7,1.7Zm-24,24l1.7,1.7,1.7-1.7-1.7-1.7-1.7,1.7Zm24,0l1.7,1.7,1.7-1.7-1.7-1.7-1.7,1.7Zm-24,24l1.7,1.7,1.7-1.7-1.7-1.7-1.7,1.7Zm24,0l1.7,1.7,1.7-1.7-1.7-1.7-1.7,1.7Zm-24,24l1.7,1.7,1.7-1.7-1.7-1.7-1.7,1.7Zm24,0l1.7,1.7,1.7-1.7-1.7-1.7-1.7,1.7Zm-24,24l1.7,1.7,1.7-1.7-1.7-1.7-1.7,1.7Zm24,0l1.7,1.7,1.7-1.7-1.7-1.7-1.7,1.7Zm-24,24l1.7,1.7,1.7-1.7-1.7-1.7-1.7,1.7Zm24,0l1.7,1.7,1.7-1.7-1.7-1.7-1.7,1.7Zm-24,24l1.7,1.7,1.7-1.7-1.7-1.7-1.7,1.7Zm24,0l1.7,1.7,1.7-1.7-1.7-1.7-1.7,1.7Zm-24,24l1.7,1.7,1.7-1.7-1.7-1.7-1.7,1.7Zm24,0l1.7,1.7,1.7-1.7-1.7-1.7-1.7,1.7Zm-24,24l1.7,1.7,1.7-1.7-1.7-1.7-1.7,1.7Zm24,0l1.7,1.7,1.7-1.7-1.7-1.7-1.7,1.7Zm-24,24l1.7,1.7,1.7-1.7-1.7-1.7-1.7,1.7Zm24,0l1.7,1.7,1.7-1.7-1.7-1.7-1.7,1.7Zm-24,24l1.7,1.7,1.7-1.7-1.7-1.7-1.7,1.7Zm24,0l1.7,1.7,1.7-1.7-1.7-1.7-1.7,1.7Zm-24,24l1.7,1.7,1.7-1.7-1.7-1.7-1.7,1.7Zm24,0l1.7,1.7,1.7-1.7-1.7-1.7-1.7,1.7Zm-24,24l1.7,1.7,1.7-1.7-1.7-1.7-1.7,1.7Zm24,0l1.7,1.7,1.7-1.7-1.7-1.7-1.7,1.7Zm-24,24l1.7,1.7,1.7-1.7-1.7-1.7-1.7,1.7Zm24,0l1.7,1.7,1.7-1.7-1.7-1.7-1.7,1.7Zm-24,24l1.7,1.7,1.7-1.7-1.7-1.7-1.7,1.7Zm24,0l1.7,1.7,1.7-1.7-1.7-1.7-1.7,1.7Zm-24,24l1.7,1.7,1.7-1.7-1.7-1.7-1.7,1.7Zm24,0l1.7,1.7,1.7-1.7-1.7-1.7-1.7,1.7Zm-24,24l1.7,1.7,1.7-1.7-1.7-1.7-1.7,1.7Zm24,0l1.7,1.7,1.7-1.7-1.7-1.7-1.7,1.7Zm-24,24l1.7,1.7,1.7-1.7-1.7-1.7-1.7,1.7Zm24,0l1.7,1.7,1.7-1.7-1.7-1.7-1.7,1.7Zm-24,24l1.7,1.7,1.7-1.7-1.7-1.7-1.7,1.7Zm24,0l1.7,1.7,1.7-1.7-1.7-1.7-1.7,1.7Zm-24,24l1.7,1.7,1.7-1.7-1.7-1.7-1.7,1.7Zm24,0l1.7,1.7,1.7-1.7-1.7-1.7-1.7,1.7Zm-24,24l1.7,1.7,1.7-1.7-1.7-1.7-1.7,1.7Zm24,0l1.7,1.7,1.7-1.7-1.7-1.7-1.7,1.7ZM432,1.7l1.7,1.7,1.7-1.7-1.7-1.7-1.7,1.7Zm24,0l1.7,1.7,1.7-1.7-1.7-1.7-1.7,1.7Zm-24,24l1.7,1.7,1.7-1.7-1.7-1.7-1.7,1.7Zm24,0l1.7,1.7,1.7-1.7-1.7-1.7-1.7,1.7Zm-24,24l1.7,1.7,1.7-1.7-1.7-1.7-1.7,1.7Zm24,0l1.7,1.7,1.7-1.7-1.7-1.7-1.7,1.7Zm-24,24l1.7,1.7,1.7-1.7-1.7-1.7-1.7,1.7Zm24,0l1.7,1.7,1.7-1.7-1.7-1.7-1.7,1.7Zm-24,24l1.7,1.7,1.7-1.7-1.7-1.7-1.7,1.7Zm24,0l1.7,1.7,1.7-1.7-1.7-1.7-1.7,1.7Zm-24,24l1.7,1.7,1.7-1.7-1.7-1.7-1.7,1.7Zm24,0l1.7,1.7,1.7-1.7-1.7-1.7-1.7,1.7Zm-24,24l1.7,1.7,1.7-1.7-1.7-1.7-1.7,1.7Zm24,0l1.7,1.7,1.7-1.7-1.7-1.7-1.7,1.7Zm-24,24l1.7,1.7,1.7-1.7-1.7-1.7-1.7,1.7Zm24,0l1.7,1.7,1.7-1.7-1.7-1.7-1.7,1.7Zm-24,24l1.7,1.7,1.7-1.7-1.7-1.7-1.7,1.7Zm24,0l1.7,1.7,1.7-1.7-1.7-1.7-1.7,1.7Zm-24,24l1.7,1.7,1.7-1.7-1.7-1.7-1.7,1.7Zm24,0l1.7,1.7,1.7-1.7-1.7-1.7-1.7,1.7Zm-24,24l1.7,1.7,1.7-1.7-1.7-1.7-1.7,1.7Zm24,0l1.7,1.7,1.7-1.7-1.7-1.7-1.7,1.7Zm-24,24l1.7,1.7,1.7-1.7-1.7-1.7-1.7,1.7Zm24,0l1.7,1.7,1.7-1.7-1.7-1.7-1.7,1.7Zm-24,24l1.7,1.7,1.7-1.7-1.7-1.7-1.7,1.7Zm24,0l1.7,1.7,1.7-1.7-1.7-1.7-1.7,1.7Zm-24,24l1.7,1.7,1.7-1.7-1.7-1.7-1.7,1.7Zm24,0l1.7,1.7,1.7-1.7-1.7-1.7-1.7,1.7Zm-24,24l1.7,1.7,1.7-1.7-1.7-1.7-1.7,1.7Zm24,0l1.7,1.7,1.7-1.7-1.7-1.7-1.7,1.7Zm-24,24l1.7,1.7,1.7-1.7-1.7-1.7-1.7,1.7Zm24,0l1.7,1.7,1.7-1.7-1.7-1.7-1.7,1.7Zm-24,24l1.7,1.7,1.7-1.7-1.7-1.7-1.7,1.7Zm24,0l1.7,1.7,1.7-1.7-1.7-1.7-1.7,1.7Zm-24,24l1.7,1.7,1.7-1.7-1.7-1.7-1.7,1.7Zm24,0l1.7,1.7,1.7-1.7-1.7-1.7-1.7,1.7Zm-24,24l1.7,1.7,1.7-1.7-1.7-1.7-1.7,1.7Zm24,0l1.7,1.7,1.7-1.7-1.7-1.7-1.7,1.7Zm-24,24l1.7,1.7,1.7-1.7-1.7-1.7-1.7,1.7Zm24,0l1.7,1.7,1.7-1.7-1.7-1.7-1.7,1.7Zm-24,24l1.7,1.7,1.7-1.7-1.7-1.7-1.7,1.7Zm24,0l1.7,1.7,1.7-1.7-1.7-1.7-1.7,1.7Zm-24,24l1.7,1.7,1.7-1.7-1.7-1.7-1.7,1.7Zm24,0l1.7,1.7,1.7-1.7-1.7-1.7-1.7,1.7Zm-24,24l1.7,1.7,1.7-1.7-1.7-1.7-1.7,1.7Zm24,0l1.7,1.7,1.7-1.7-1.7-1.7-1.7,1.7Zm-24,24l1.7,1.7,1.7-1.7-1.7-1.7-1.7,1.7Zm24,0l1.7,1.7,1.7-1.7-1.7-1.7-1.7,1.7Zm-24,24l1.7,1.7,1.7-1.7-1.7-1.7-1.7,1.7Zm24,0l1.7,1.7,1.7-1.7-1.7-1.7-1.7,1.7Zm-24,24l1.7,1.7,1.7-1.7-1.7-1.7-1.7,1.7Zm24,0l1.7,1.7,1.7-1.7-1.7-1.7-1.7,1.7Zm-24,24l1.7,1.7,1.7-1.7-1.7-1.7-1.7,1.7Zm24,0l1.7,1.7,1.7-1.7-1.7-1.7-1.7,1.7Zm-24,24l1.7,1.7,1.7-1.7-1.7-1.7-1.7,1.7Zm24,0l1.7,1.7,1.7-1.7-1.7-1.7-1.7,1.7Zm-24,24l1.7,1.7,1.7-1.7-1.7-1.7-1.7,1.7Zm24,0l1.7,1.7,1.7-1.7-1.7-1.7-1.7,1.7Zm-24,24l1.7,1.7,1.7-1.7-1.7-1.7-1.7,1.7Zm24,0l1.7,1.7,1.7-1.7-1.7-1.7-1.7,1.7Zm-24,24l1.7,1.7,1.7-1.7-1.7-1.7-1.7,1.7Zm24,0l1.7,1.7,1.7-1.7-1.7-1.7-1.7,1.7ZM480,1.7l1.7,1.7,1.7-1.7-1.7-1.7-1.7,1.7Zm24,0l1.7,1.7,1.7-1.7-1.7-1.7-1.7,1.7Zm-24,24l1.7,1.7,1.7-1.7-1.7-1.7-1.7,1.7Zm24,0l1.7,1.7,1.7-1.7-1.7-1.7-1.7,1.7Zm-24,24l1.7,1.7,1.7-1.7-1.7-1.7-1.7,1.7Zm24,0l1.7,1.7,1.7-1.7-1.7-1.7-1.7,1.7Zm-24,24l1.7,1.7,1.7-1.7-1.7-1.7-1.7,1.7Zm24,0l1.7,1.7,1.7-1.7-1.7-1.7-1.7,1.7Zm-24,24l1.7,1.7,1.7-1.7-1.7-1.7-1.7,1.7Zm24,0l1.7,1.7,1.7-1.7-1.7-1.7-1.7,1.7Zm-24,24l1.7,1.7,1.7-1.7-1.7-1.7-1.7,1.7Zm24,0l1.7,1.7,1.7-1.7-1.7-1.7-1.7,1.7Zm-24,24l1.7,1.7,1.7-1.7-1.7-1.7-1.7,1.7Zm24,0l1.7,1.7,1.7-1.7-1.7-1.7-1.7,1.7Zm-24,24l1.7,1.7,1.7-1.7-1.7-1.7-1.7,1.7Zm24,0l1.7,1.7,1.7-1.7-1.7-1.7-1.7,1.7Zm-24,24l1.7,1.7,1.7-1.7-1.7-1.7-1.7,1.7Zm24,0l1.7,1.7,1.7-1.7-1.7-1.7-1.7,1.7Zm-24,24l1.7,1.7,1.7-1.7-1.7-1.7-1.7,1.7Zm24,0l1.7,1.7,1.7-1.7-1.7-1.7-1.7,1.7Zm-24,24l1.7,1.7,1.7-1.7-1.7-1.7-1.7,1.7Zm24,0l1.7,1.7,1.7-1.7-1.7-1.7-1.7,1.7Zm-24,24l1.7,1.7,1.7-1.7-1.7-1.7-1.7,1.7Zm24,0l1.7,1.7,1.7-1.7-1.7-1.7-1.7,1.7Zm-24,24l1.7,1.7,1.7-1.7-1.7-1.7-1.7,1.7Zm24,0l1.7,1.7,1.7-1.7-1.7-1.7-1.7,1.7Zm-24,24l1.7,1.7,1.7-1.7-1.7-1.7-1.7,1.7Zm24,0l1.7,1.7,1.7-1.7-1.7-1.7-1.7,1.7Zm-24,24l1.7,1.7,1.7-1.7-1.7-1.7-1.7,1.7Zm24,0l1.7,1.7,1.7-1.7-1.7-1.7-1.7,1.7Zm-24,24l1.7,1.7,1.7-1.7-1.7-1.7-1.7,1.7Zm24,0l1.7,1.7,1.7-1.7-1.7-1.7-1.7,1.7Zm-24,24l1.7,1.7,1.7-1.7-1.7-1.7-1.7,1.7Zm24,0l1.7,1.7,1.7-1.7-1.7-1.7-1.7,1.7Zm-24,24l1.7,1.7,1.7-1.7-1.7-1.7-1.7,1.7Zm24,0l1.7,1.7,1.7-1.7-1.7-1.7-1.7,1.7Zm-24,24l1.7,1.7,1.7-1.7-1.7-1.7-1.7,1.7Zm24,0l1.7,1.7,1.7-1.7-1.7-1.7-1.7,1.7Zm-24,24l1.7,1.7,1.7-1.7-1.7-1.7-1.7,1.7Zm24,0l1.7,1.7,1.7-1.7-1.7-1.7-1.7,1.7Zm-24,24l1.7,1.7,1.7-1.7-1.7-1.7-1.7,1.7Zm24,0l1.7,1.7,1.7-1.7-1.7-1.7-1.7,1.7Zm-24,24l1.7,1.7,1.7-1.7-1.7-1.7-1.7,1.7Zm24,0l1.7,1.7,1.7-1.7-1.7-1.7-1.7,1.7Zm-24,24l1.7,1.7,1.7-1.7-1.7-1.7-1.7,1.7Zm24,0l1.7,1.7,1.7-1.7-1.7-1.7-1.7,1.7Zm-24,24l1.7,1.7,1.7-1.7-1.7-1.7-1.7,1.7Zm24,0l1.7,1.7,1.7-1.7-1.7-1.7-1.7,1.7Zm-24,24l1.7,1.7,1.7-1.7-1.7-1.7-1.7,1.7Zm24,0l1.7,1.7,1.7-1.7-1.7-1.7-1.7,1.7Zm-24,24l1.7,1.7,1.7-1.7-1.7-1.7-1.7,1.7Zm24,0l1.7,1.7,1.7-1.7-1.7-1.7-1.7,1.7Zm-24,24l1.7,1.7,1.7-1.7-1.7-1.7-1.7,1.7Zm24,0l1.7,1.7,1.7-1.7-1.7-1.7-1.7,1.7Zm-24,24l1.7,1.7,1.7-1.7-1.7-1.7-1.7,1.7Zm24,0l1.7,1.7,1.7-1.7-1.7-1.7-1.7,1.7Zm-24,24l1.7,1.7,1.7-1.7-1.7-1.7-1.7,1.7Zm24,0l1.7,1.7,1.7-1.7-1.7-1.7-1.7,1.7Zm-24,24l1.7,1.7,1.7-1.7-1.7-1.7-1.7,1.7Zm24,0l1.7,1.7,1.7-1.7-1.7-1.7-1.7,1.7Zm-24,24l1.7,1.7,1.7-1.7-1.7-1.7-1.7,1.7Zm24,0l1.7,1.7,1.7-1.7-1.7-1.7-1.7,1.7ZM528,1.7l1.7,1.7,1.7-1.7-1.7-1.7-1.7,1.7Zm24,0l1.7,1.7,1.7-1.7-1.7-1.7-1.7,1.7Zm-24,24l1.7,1.7,1.7-1.7-1.7-1.7-1.7,1.7Zm24,0l1.7,1.7,1.7-1.7-1.7-1.7-1.7,1.7Zm-24,24l1.7,1.7,1.7-1.7-1.7-1.7-1.7,1.7Zm24,0l1.7,1.7,1.7-1.7-1.7-1.7-1.7,1.7Zm-24,24l1.7,1.7,1.7-1.7-1.7-1.7-1.7,1.7Zm24,0l1.7,1.7,1.7-1.7-1.7-1.7-1.7,1.7Zm-24,24l1.7,1.7,1.7-1.7-1.7-1.7-1.7,1.7Zm24,0l1.7,1.7,1.7-1.7-1.7-1.7-1.7,1.7Zm-24,24l1.7,1.7,1.7-1.7-1.7-1.7-1.7,1.7Zm24,0l1.7,1.7,1.7-1.7-1.7-1.7-1.7,1.7Zm-24,24l1.7,1.7,1.7-1.7-1.7-1.7-1.7,1.7Zm24,0l1.7,1.7,1.7-1.7-1.7-1.7-1.7,1.7Zm-24,24l1.7,1.7,1.7-1.7-1.7-1.7-1.7,1.7Zm24,0l1.7,1.7,1.7-1.7-1.7-1.7-1.7,1.7Zm-24,24l1.7,1.7,1.7-1.7-1.7-1.7-1.7,1.7Zm24,0l1.7,1.7,1.7-1.7-1.7-1.7-1.7,1.7Zm-24,24l1.7,1.7,1.7-1.7-1.7-1.7-1.7,1.7Zm24,0l1.7,1.7,1.7-1.7-1.7-1.7-1.7,1.7Zm-24,24l1.7,1.7,1.7-1.7-1.7-1.7-1.7,1.7Zm24,0l1.7,1.7,1.7-1.7-1.7-1.7-1.7,1.7Zm-24,24l1.7,1.7,1.7-1.7-1.7-1.7-1.7,1.7Zm24,0l1.7,1.7,1.7-1.7-1.7-1.7-1.7,1.7Zm-24,24l1.7,1.7,1.7-1.7-1.7-1.7-1.7,1.7Zm24,0l1.7,1.7,1.7-1.7-1.7-1.7-1.7,1.7Zm-24,24l1.7,1.7,1.7-1.7-1.7-1.7-1.7,1.7Zm24,0l1.7,1.7,1.7-1.7-1.7-1.7-1.7,1.7Zm-24,24l1.7,1.7,1.7-1.7-1.7-1.7-1.7,1.7Zm24,0l1.7,1.7,1.7-1.7-1.7-1.7-1.7,1.7Zm-24,24l1.7,1.7,1.7-1.7-1.7-1.7-1.7,1.7Zm24,0l1.7,1.7,1.7-1.7-1.7-1.7-1.7,1.7Zm-24,24l1.7,1.7,1.7-1.7-1.7-1.7-1.7,1.7Zm24,0l1.7,1.7,1.7-1.7-1.7-1.7-1.7,1.7Zm-24,24l1.7,1.7,1.7-1.7-1.7-1.7-1.7,1.7Zm24,0l1.7,1.7,1.7-1.7-1.7-1.7-1.7,1.7Zm-24,24l1.7,1.7,1.7-1.7-1.7-1.7-1.7,1.7Zm24,0l1.7,1.7,1.7-1.7-1.7-1.7-1.7,1.7Zm-24,24l1.7,1.7,1.7-1.7-1.7-1.7-1.7,1.7Zm24,0l1.7,1.7,1.7-1.7-1.7-1.7-1.7,1.7Zm-24,24l1.7,1.7,1.7-1.7-1.7-1.7-1.7,1.7Zm24,0l1.7,1.7,1.7-1.7-1.7-1.7-1.7,1.7Zm-24,24l1.7,1.7,1.7-1.7-1.7-1.7-1.7,1.7Zm24,0l1.7,1.7,1.7-1.7-1.7-1.7-1.7,1.7Zm-24,24l1.7,1.7,1.7-1.7-1.7-1.7-1.7,1.7Zm24,0l1.7,1.7,1.7-1.7-1.7-1.7-1.7,1.7Zm-24,24l1.7,1.7,1.7-1.7-1.7-1.7-1.7,1.7Zm24,0l1.7,1.7,1.7-1.7-1.7-1.7-1.7,1.7Zm-24,24l1.7,1.7,1.7-1.7-1.7-1.7-1.7,1.7Zm24,0l1.7,1.7,1.7-1.7-1.7-1.7-1.7,1.7Zm-24,24l1.7,1.7,1.7-1.7-1.7-1.7-1.7,1.7Zm24,0l1.7,1.7,1.7-1.7-1.7-1.7-1.7,1.7Zm-24,24l1.7,1.7,1.7-1.7-1.7-1.7-1.7,1.7Zm24,0l1.7,1.7,1.7-1.7-1.7-1.7-1.7,1.7Zm-24,24l1.7,1.7,1.7-1.7-1.7-1.7-1.7,1.7Zm24,0l1.7,1.7,1.7-1.7-1.7-1.7-1.7,1.7Zm-24,24l1.7,1.7,1.7-1.7-1.7-1.7-1.7,1.7Zm24,0l1.7,1.7,1.7-1.7-1.7-1.7-1.7,1.7Zm-24,24l1.7,1.7,1.7-1.7-1.7-1.7-1.7,1.7Zm24,0l1.7,1.7,1.7-1.7-1.7-1.7-1.7,1.7Zm-24,24l1.7,1.7,1.7-1.7-1.7-1.7-1.7,1.7Zm24,0l1.7,1.7,1.7-1.7-1.7-1.7-1.7,1.7ZM576,1.7l1.7,1.7,1.7-1.7-1.7-1.7-1.7,1.7Zm24,0l1.7,1.7,1.7-1.7-1.7-1.7-1.7,1.7Zm-24,24l1.7,1.7,1.7-1.7-1.7-1.7-1.7,1.7Zm24,0l1.7,1.7,1.7-1.7-1.7-1.7-1.7,1.7Zm-24,24l1.7,1.7,1.7-1.7-1.7-1.7-1.7,1.7Zm24,0l1.7,1.7,1.7-1.7-1.7-1.7-1.7,1.7Zm-24,24l1.7,1.7,1.7-1.7-1.7-1.7-1.7,1.7Zm24,0l1.7,1.7,1.7-1.7-1.7-1.7-1.7,1.7Zm-24,24l1.7,1.7,1.7-1.7-1.7-1.7-1.7,1.7Zm24,0l1.7,1.7,1.7-1.7-1.7-1.7-1.7,1.7Zm-24,24l1.7,1.7,1.7-1.7-1.7-1.7-1.7,1.7Zm24,0l1.7,1.7,1.7-1.7-1.7-1.7-1.7,1.7Zm-24,24l1.7,1.7,1.7-1.7-1.7-1.7-1.7,1.7Zm24,0l1.7,1.7,1.7-1.7-1.7-1.7-1.7,1.7Zm-24,24l1.7,1.7,1.7-1.7-1.7-1.7-1.7,1.7Zm24,0l1.7,1.7,1.7-1.7-1.7-1.7-1.7,1.7Zm-24,24l1.7,1.7,1.7-1.7-1.7-1.7-1.7,1.7Zm24,0l1.7,1.7,1.7-1.7-1.7-1.7-1.7,1.7Zm-24,24l1.7,1.7,1.7-1.7-1.7-1.7-1.7,1.7Zm24,0l1.7,1.7,1.7-1.7-1.7-1.7-1.7,1.7Zm-24,24l1.7,1.7,1.7-1.7-1.7-1.7-1.7,1.7Zm24,0l1.7,1.7,1.7-1.7-1.7-1.7-1.7,1.7Zm-24,24l1.7,1.7,1.7-1.7-1.7-1.7-1.7,1.7Zm24,0l1.7,1.7,1.7-1.7-1.7-1.7-1.7,1.7Zm-24,24l1.7,1.7,1.7-1.7-1.7-1.7-1.7,1.7Zm24,0l1.7,1.7,1.7-1.7-1.7-1.7-1.7,1.7Zm-24,24l1.7,1.7,1.7-1.7-1.7-1.7-1.7,1.7Zm24,0l1.7,1.7,1.7-1.7-1.7-1.7-1.7,1.7Zm-24,24l1.7,1.7,1.7-1.7-1.7-1.7-1.7,1.7Zm24,0l1.7,1.7,1.7-1.7-1.7-1.7-1.7,1.7Zm-24,24l1.7,1.7,1.7-1.7-1.7-1.7-1.7,1.7Zm24,0l1.7,1.7,1.7-1.7-1.7-1.7-1.7,1.7Zm-24,24l1.7,1.7,1.7-1.7-1.7-1.7-1.7,1.7Zm24,0l1.7,1.7,1.7-1.7-1.7-1.7-1.7,1.7Zm-24,24l1.7,1.7,1.7-1.7-1.7-1.7-1.7,1.7Zm24,0l1.7,1.7,1.7-1.7-1.7-1.7-1.7,1.7Zm-24,24l1.7,1.7,1.7-1.7-1.7-1.7-1.7,1.7Zm24,0l1.7,1.7,1.7-1.7-1.7-1.7-1.7,1.7Zm-24,24l1.7,1.7,1.7-1.7-1.7-1.7-1.7,1.7Zm24,0l1.7,1.7,1.7-1.7-1.7-1.7-1.7,1.7Zm-24,24l1.7,1.7,1.7-1.7-1.7-1.7-1.7,1.7Zm24,0l1.7,1.7,1.7-1.7-1.7-1.7-1.7,1.7Zm-24,24l1.7,1.7,1.7-1.7-1.7-1.7-1.7,1.7Zm24,0l1.7,1.7,1.7-1.7-1.7-1.7-1.7,1.7Zm-24,24l1.7,1.7,1.7-1.7-1.7-1.7-1.7,1.7Zm24,0l1.7,1.7,1.7-1.7-1.7-1.7-1.7,1.7Zm-24,24l1.7,1.7,1.7-1.7-1.7-1.7-1.7,1.7Zm24,0l1.7,1.7,1.7-1.7-1.7-1.7-1.7,1.7Zm-24,24l1.7,1.7,1.7-1.7-1.7-1.7-1.7,1.7Zm24,0l1.7,1.7,1.7-1.7-1.7-1.7-1.7,1.7Zm-24,24l1.7,1.7,1.7-1.7-1.7-1.7-1.7,1.7Zm24,0l1.7,1.7,1.7-1.7-1.7-1.7-1.7,1.7Zm-24,24l1.7,1.7,1.7-1.7-1.7-1.7-1.7,1.7Zm24,0l1.7,1.7,1.7-1.7-1.7-1.7-1.7,1.7Zm-24,24l1.7,1.7,1.7-1.7-1.7-1.7-1.7,1.7Zm24,0l1.7,1.7,1.7-1.7-1.7-1.7-1.7,1.7Zm-24,24l1.7,1.7,1.7-1.7-1.7-1.7-1.7,1.7Zm24,0l1.7,1.7,1.7-1.7-1.7-1.7-1.7,1.7Zm-24,24l1.7,1.7,1.7-1.7-1.7-1.7-1.7,1.7Zm24,0l1.7,1.7,1.7-1.7-1.7-1.7-1.7,1.7Zm-24,24l1.7,1.7,1.7-1.7-1.7-1.7-1.7,1.7Zm24,0l1.7,1.7,1.7-1.7-1.7-1.7-1.7,1.7ZM624,1.7l1.7,1.7,1.7-1.7-1.7-1.7-1.7,1.7Zm24,0l1.7,1.7,1.7-1.7-1.7-1.7-1.7,1.7Zm-24,24l1.7,1.7,1.7-1.7-1.7-1.7-1.7,1.7Zm24,0l1.7,1.7,1.7-1.7-1.7-1.7-1.7,1.7Zm-24,24l1.7,1.7,1.7-1.7-1.7-1.7-1.7,1.7Zm24,0l1.7,1.7,1.7-1.7-1.7-1.7-1.7,1.7Zm-24,24l1.7,1.7,1.7-1.7-1.7-1.7-1.7,1.7Zm24,0l1.7,1.7,1.7-1.7-1.7-1.7-1.7,1.7Zm-24,24l1.7,1.7,1.7-1.7-1.7-1.7-1.7,1.7Zm24,0l1.7,1.7,1.7-1.7-1.7-1.7-1.7,1.7Zm-24,24l1.7,1.7,1.7-1.7-1.7-1.7-1.7,1.7Zm24,0l1.7,1.7,1.7-1.7-1.7-1.7-1.7,1.7Zm-24,24l1.7,1.7,1.7-1.7-1.7-1.7-1.7,1.7Zm24,0l1.7,1.7,1.7-1.7-1.7-1.7-1.7,1.7Zm-24,24l1.7,1.7,1.7-1.7-1.7-1.7-1.7,1.7Zm24,0l1.7,1.7,1.7-1.7-1.7-1.7-1.7,1.7Zm-24,24l1.7,1.7,1.7-1.7-1.7-1.7-1.7,1.7Zm24,0l1.7,1.7,1.7-1.7-1.7-1.7-1.7,1.7Zm-24,24l1.7,1.7,1.7-1.7-1.7-1.7-1.7,1.7Zm24,0l1.7,1.7,1.7-1.7-1.7-1.7-1.7,1.7Zm-24,24l1.7,1.7,1.7-1.7-1.7-1.7-1.7,1.7Zm24,0l1.7,1.7,1.7-1.7-1.7-1.7-1.7,1.7Zm-24,24l1.7,1.7,1.7-1.7-1.7-1.7-1.7,1.7Zm24,0l1.7,1.7,1.7-1.7-1.7-1.7-1.7,1.7Zm-24,24l1.7,1.7,1.7-1.7-1.7-1.7-1.7,1.7Zm24,0l1.7,1.7,1.7-1.7-1.7-1.7-1.7,1.7Zm-24,24l1.7,1.7,1.7-1.7-1.7-1.7-1.7,1.7Zm24,0l1.7,1.7,1.7-1.7-1.7-1.7-1.7,1.7Zm-24,24l1.7,1.7,1.7-1.7-1.7-1.7-1.7,1.7Zm24,0l1.7,1.7,1.7-1.7-1.7-1.7-1.7,1.7Zm-24,24l1.7,1.7,1.7-1.7-1.7-1.7-1.7,1.7Zm24,0l1.7,1.7,1.7-1.7-1.7-1.7-1.7,1.7Zm-24,24l1.7,1.7,1.7-1.7-1.7-1.7-1.7,1.7Zm24,0l1.7,1.7,1.7-1.7-1.7-1.7-1.7,1.7Zm-24,24l1.7,1.7,1.7-1.7-1.7-1.7-1.7,1.7Zm24,0l1.7,1.7,1.7-1.7-1.7-1.7-1.7,1.7Zm-24,24l1.7,1.7,1.7-1.7-1.7-1.7-1.7,1.7Zm24,0l1.7,1.7,1.7-1.7-1.7-1.7-1.7,1.7Zm-24,24l1.7,1.7,1.7-1.7-1.7-1.7-1.7,1.7Zm24,0l1.7,1.7,1.7-1.7-1.7-1.7-1.7,1.7Zm-24,24l1.7,1.7,1.7-1.7-1.7-1.7-1.7,1.7Zm24,0l1.7,1.7,1.7-1.7-1.7-1.7-1.7,1.7Zm-24,24l1.7,1.7,1.7-1.7-1.7-1.7-1.7,1.7Zm24,0l1.7,1.7,1.7-1.7-1.7-1.7-1.7,1.7Zm-24,24l1.7,1.7,1.7-1.7-1.7-1.7-1.7,1.7Zm24,0l1.7,1.7,1.7-1.7-1.7-1.7-1.7,1.7Zm-24,24l1.7,1.7,1.7-1.7-1.7-1.7-1.7,1.7Zm24,0l1.7,1.7,1.7-1.7-1.7-1.7-1.7,1.7Zm-24,24l1.7,1.7,1.7-1.7-1.7-1.7-1.7,1.7Zm24,0l1.7,1.7,1.7-1.7-1.7-1.7-1.7,1.7Zm-24,24l1.7,1.7,1.7-1.7-1.7-1.7-1.7,1.7Zm24,0l1.7,1.7,1.7-1.7-1.7-1.7-1.7,1.7Zm-24,24l1.7,1.7,1.7-1.7-1.7-1.7-1.7,1.7Zm24,0l1.7,1.7,1.7-1.7-1.7-1.7-1.7,1.7Zm-24,24l1.7,1.7,1.7-1.7-1.7-1.7-1.7,1.7Zm24,0l1.7,1.7,1.7-1.7-1.7-1.7-1.7,1.7Zm-24,24l1.7,1.7,1.7-1.7-1.7-1.7-1.7,1.7Zm24,0l1.7,1.7,1.7-1.7-1.7-1.7-1.7,1.7Zm-24,24l1.7,1.7,1.7-1.7-1.7-1.7-1.7,1.7Zm24,0l1.7,1.7,1.7-1.7-1.7-1.7-1.7,1.7Zm-24,24l1.7,1.7,1.7-1.7-1.7-1.7-1.7,1.7Zm24,0l1.7,1.7,1.7-1.7-1.7-1.7-1.7,1.7ZM672,1.7l1.7,1.7,1.7-1.7-1.7-1.7-1.7,1.7Zm24,0l1.7,1.7,1.7-1.7-1.7-1.7-1.7,1.7Zm-24,24l1.7,1.7,1.7-1.7-1.7-1.7-1.7,1.7Zm24,0l1.7,1.7,1.7-1.7-1.7-1.7-1.7,1.7Zm-24,24l1.7,1.7,1.7-1.7-1.7-1.7-1.7,1.7Zm24,0l1.7,1.7,1.7-1.7-1.7-1.7-1.7,1.7Zm-24,24l1.7,1.7,1.7-1.7-1.7-1.7-1.7,1.7Zm24,0l1.7,1.7,1.7-1.7-1.7-1.7-1.7,1.7Zm-24,24l1.7,1.7,1.7-1.7-1.7-1.7-1.7,1.7Zm24,0l1.7,1.7,1.7-1.7-1.7-1.7-1.7,1.7Zm-24,24l1.7,1.7,1.7-1.7-1.7-1.7-1.7,1.7Zm24,0l1.7,1.7,1.7-1.7-1.7-1.7-1.7,1.7Zm-24,24l1.7,1.7,1.7-1.7-1.7-1.7-1.7,1.7Zm24,0l1.7,1.7,1.7-1.7-1.7-1.7-1.7,1.7Zm-24,24l1.7,1.7,1.7-1.7-1.7-1.7-1.7,1.7Zm24,0l1.7,1.7,1.7-1.7-1.7-1.7-1.7,1.7Zm-24,24l1.7,1.7,1.7-1.7-1.7-1.7-1.7,1.7Zm24,0l1.7,1.7,1.7-1.7-1.7-1.7-1.7,1.7Zm-24,24l1.7,1.7,1.7-1.7-1.7-1.7-1.7,1.7Zm24,0l1.7,1.7,1.7-1.7-1.7-1.7-1.7,1.7Zm-24,24l1.7,1.7,1.7-1.7-1.7-1.7-1.7,1.7Zm24,0l1.7,1.7,1.7-1.7-1.7-1.7-1.7,1.7Zm-24,24l1.7,1.7,1.7-1.7-1.7-1.7-1.7,1.7Zm24,0l1.7,1.7,1.7-1.7-1.7-1.7-1.7,1.7Zm-24,24l1.7,1.7,1.7-1.7-1.7-1.7-1.7,1.7Zm24,0l1.7,1.7,1.7-1.7-1.7-1.7-1.7,1.7Zm-24,24l1.7,1.7,1.7-1.7-1.7-1.7-1.7,1.7Zm24,0l1.7,1.7,1.7-1.7-1.7-1.7-1.7,1.7Zm-24,24l1.7,1.7,1.7-1.7-1.7-1.7-1.7,1.7Zm24,0l1.7,1.7,1.7-1.7-1.7-1.7-1.7,1.7Zm-24,24l1.7,1.7,1.7-1.7-1.7-1.7-1.7,1.7Zm24,0l1.7,1.7,1.7-1.7-1.7-1.7-1.7,1.7Zm-24,24l1.7,1.7,1.7-1.7-1.7-1.7-1.7,1.7Zm24,0l1.7,1.7,1.7-1.7-1.7-1.7-1.7,1.7Zm-24,24l1.7,1.7,1.7-1.7-1.7-1.7-1.7,1.7Zm24,0l1.7,1.7,1.7-1.7-1.7-1.7-1.7,1.7Zm-24,24l1.7,1.7,1.7-1.7-1.7-1.7-1.7,1.7Zm24,0l1.7,1.7,1.7-1.7-1.7-1.7-1.7,1.7Zm-24,24l1.7,1.7,1.7-1.7-1.7-1.7-1.7,1.7Zm24,0l1.7,1.7,1.7-1.7-1.7-1.7-1.7,1.7Zm-24,24l1.7,1.7,1.7-1.7-1.7-1.7-1.7,1.7Zm24,0l1.7,1.7,1.7-1.7-1.7-1.7-1.7,1.7Zm-24,24l1.7,1.7,1.7-1.7-1.7-1.7-1.7,1.7Zm24,0l1.7,1.7,1.7-1.7-1.7-1.7-1.7,1.7Zm-24,24l1.7,1.7,1.7-1.7-1.7-1.7-1.7,1.7Zm24,0l1.7,1.7,1.7-1.7-1.7-1.7-1.7,1.7Zm-24,24l1.7,1.7,1.7-1.7-1.7-1.7-1.7,1.7Zm24,0l1.7,1.7,1.7-1.7-1.7-1.7-1.7,1.7Zm-24,24l1.7,1.7,1.7-1.7-1.7-1.7-1.7,1.7Zm24,0l1.7,1.7,1.7-1.7-1.7-1.7-1.7,1.7Zm-24,24l1.7,1.7,1.7-1.7-1.7-1.7-1.7,1.7Zm24,0l1.7,1.7,1.7-1.7-1.7-1.7-1.7,1.7Zm-24,24l1.7,1.7,1.7-1.7-1.7-1.7-1.7,1.7Zm24,0l1.7,1.7,1.7-1.7-1.7-1.7-1.7,1.7Zm-24,24l1.7,1.7,1.7-1.7-1.7-1.7-1.7,1.7Zm24,0l1.7,1.7,1.7-1.7-1.7-1.7-1.7,1.7Zm-24,24l1.7,1.7,1.7-1.7-1.7-1.7-1.7,1.7Zm24,0l1.7,1.7,1.7-1.7-1.7-1.7-1.7,1.7Zm-24,24l1.7,1.7,1.7-1.7-1.7-1.7-1.7,1.7Zm24,0l1.7,1.7,1.7-1.7-1.7-1.7-1.7,1.7Zm-24,24l1.7,1.7,1.7-1.7-1.7-1.7-1.7,1.7Zm24,0l1.7,1.7,1.7-1.7-1.7-1.7-1.7,1.7ZM720,1.7l1.7,1.7,1.7-1.7-1.7-1.7-1.7,1.7Zm24,0l1.7,1.7,1.7-1.7-1.7-1.7-1.7,1.7Zm-24,24l1.7,1.7,1.7-1.7-1.7-1.7-1.7,1.7Zm24,0l1.7,1.7,1.7-1.7-1.7-1.7-1.7,1.7Zm-24,24l1.7,1.7,1.7-1.7-1.7-1.7-1.7,1.7Zm24,0l1.7,1.7,1.7-1.7-1.7-1.7-1.7,1.7Zm-24,24l1.7,1.7,1.7-1.7-1.7-1.7-1.7,1.7Zm24,0l1.7,1.7,1.7-1.7-1.7-1.7-1.7,1.7Zm-24,24l1.7,1.7,1.7-1.7-1.7-1.7-1.7,1.7Zm24,0l1.7,1.7,1.7-1.7-1.7-1.7-1.7,1.7Zm-24,24l1.7,1.7,1.7-1.7-1.7-1.7-1.7,1.7Zm24,0l1.7,1.7,1.7-1.7-1.7-1.7-1.7,1.7Zm-24,24l1.7,1.7,1.7-1.7-1.7-1.7-1.7,1.7Zm24,0l1.7,1.7,1.7-1.7-1.7-1.7-1.7,1.7Zm-24,24l1.7,1.7,1.7-1.7-1.7-1.7-1.7,1.7Zm24,0l1.7,1.7,1.7-1.7-1.7-1.7-1.7,1.7Zm-24,24l1.7,1.7,1.7-1.7-1.7-1.7-1.7,1.7Zm24,0l1.7,1.7,1.7-1.7-1.7-1.7-1.7,1.7Zm-24,24l1.7,1.7,1.7-1.7-1.7-1.7-1.7,1.7Zm24,0l1.7,1.7,1.7-1.7-1.7-1.7-1.7,1.7Zm-24,24l1.7,1.7,1.7-1.7-1.7-1.7-1.7,1.7Zm24,0l1.7,1.7,1.7-1.7-1.7-1.7-1.7,1.7Zm-24,24l1.7,1.7,1.7-1.7-1.7-1.7-1.7,1.7Zm24,0l1.7,1.7,1.7-1.7-1.7-1.7-1.7,1.7Zm-24,24l1.7,1.7,1.7-1.7-1.7-1.7-1.7,1.7Zm24,0l1.7,1.7,1.7-1.7-1.7-1.7-1.7,1.7Zm-24,24l1.7,1.7,1.7-1.7-1.7-1.7-1.7,1.7Zm24,0l1.7,1.7,1.7-1.7-1.7-1.7-1.7,1.7Zm-24,24l1.7,1.7,1.7-1.7-1.7-1.7-1.7,1.7Zm24,0l1.7,1.7,1.7-1.7-1.7-1.7-1.7,1.7Zm-24,24l1.7,1.7,1.7-1.7-1.7-1.7-1.7,1.7Zm24,0l1.7,1.7,1.7-1.7-1.7-1.7-1.7,1.7Zm-24,24l1.7,1.7,1.7-1.7-1.7-1.7-1.7,1.7Zm24,0l1.7,1.7,1.7-1.7-1.7-1.7-1.7,1.7Zm-24,24l1.7,1.7,1.7-1.7-1.7-1.7-1.7,1.7Zm24,0l1.7,1.7,1.7-1.7-1.7-1.7-1.7,1.7Zm-24,24l1.7,1.7,1.7-1.7-1.7-1.7-1.7,1.7Zm24,0l1.7,1.7,1.7-1.7-1.7-1.7-1.7,1.7Zm-24,24l1.7,1.7,1.7-1.7-1.7-1.7-1.7,1.7Zm24,0l1.7,1.7,1.7-1.7-1.7-1.7-1.7,1.7Zm-24,24l1.7,1.7,1.7-1.7-1.7-1.7-1.7,1.7Zm24,0l1.7,1.7,1.7-1.7-1.7-1.7-1.7,1.7Zm-24,24l1.7,1.7,1.7-1.7-1.7-1.7-1.7,1.7Zm24,0l1.7,1.7,1.7-1.7-1.7-1.7-1.7,1.7Zm-24,24l1.7,1.7,1.7-1.7-1.7-1.7-1.7,1.7Zm24,0l1.7,1.7,1.7-1.7-1.7-1.7-1.7,1.7Zm-24,24l1.7,1.7,1.7-1.7-1.7-1.7-1.7,1.7Zm24,0l1.7,1.7,1.7-1.7-1.7-1.7-1.7,1.7Zm-24,24l1.7,1.7,1.7-1.7-1.7-1.7-1.7,1.7Zm24,0l1.7,1.7,1.7-1.7-1.7-1.7-1.7,1.7Zm-24,24l1.7,1.7,1.7-1.7-1.7-1.7-1.7,1.7Zm24,0l1.7,1.7,1.7-1.7-1.7-1.7-1.7,1.7Zm-24,24l1.7,1.7,1.7-1.7-1.7-1.7-1.7,1.7Zm24,0l1.7,1.7,1.7-1.7-1.7-1.7-1.7,1.7Zm-24,24l1.7,1.7,1.7-1.7-1.7-1.7-1.7,1.7Zm24,0l1.7,1.7,1.7-1.7-1.7-1.7-1.7,1.7Zm-24,24l1.7,1.7,1.7-1.7-1.7-1.7-1.7,1.7Zm24,0l1.7,1.7,1.7-1.7-1.7-1.7-1.7,1.7Zm-24,24l1.7,1.7,1.7-1.7-1.7-1.7-1.7,1.7Zm24,0l1.7,1.7,1.7-1.7-1.7-1.7-1.7,1.7Zm-24,24l1.7,1.7,1.7-1.7-1.7-1.7-1.7,1.7Zm24,0l1.7,1.7,1.7-1.7-1.7-1.7-1.7,1.7ZM768,1.7l1.7,1.7,1.7-1.7-1.7-1.7-1.7,1.7Zm24,0l1.7,1.7,1.7-1.7-1.7-1.7-1.7,1.7Zm-24,24l1.7,1.7,1.7-1.7-1.7-1.7-1.7,1.7Zm24,0l1.7,1.7,1.7-1.7-1.7-1.7-1.7,1.7Zm-24,24l1.7,1.7,1.7-1.7-1.7-1.7-1.7,1.7Zm24,0l1.7,1.7,1.7-1.7-1.7-1.7-1.7,1.7Zm-24,24l1.7,1.7,1.7-1.7-1.7-1.7-1.7,1.7Zm24,0l1.7,1.7,1.7-1.7-1.7-1.7-1.7,1.7Zm-24,24l1.7,1.7,1.7-1.7-1.7-1.7-1.7,1.7Zm24,0l1.7,1.7,1.7-1.7-1.7-1.7-1.7,1.7Zm-24,24l1.7,1.7,1.7-1.7-1.7-1.7-1.7,1.7Zm24,0l1.7,1.7,1.7-1.7-1.7-1.7-1.7,1.7Zm-24,24l1.7,1.7,1.7-1.7-1.7-1.7-1.7,1.7Zm24,0l1.7,1.7,1.7-1.7-1.7-1.7-1.7,1.7Zm-24,24l1.7,1.7,1.7-1.7-1.7-1.7-1.7,1.7Zm24,0l1.7,1.7,1.7-1.7-1.7-1.7-1.7,1.7Zm-24,24l1.7,1.7,1.7-1.7-1.7-1.7-1.7,1.7Zm24,0l1.7,1.7,1.7-1.7-1.7-1.7-1.7,1.7Zm-24,24l1.7,1.7,1.7-1.7-1.7-1.7-1.7,1.7Zm24,0l1.7,1.7,1.7-1.7-1.7-1.7-1.7,1.7Zm-24,24l1.7,1.7,1.7-1.7-1.7-1.7-1.7,1.7Zm24,0l1.7,1.7,1.7-1.7-1.7-1.7-1.7,1.7Zm-24,24l1.7,1.7,1.7-1.7-1.7-1.7-1.7,1.7Zm24,0l1.7,1.7,1.7-1.7-1.7-1.7-1.7,1.7Zm-24,24l1.7,1.7,1.7-1.7-1.7-1.7-1.7,1.7Zm24,0l1.7,1.7,1.7-1.7-1.7-1.7-1.7,1.7Zm-24,24l1.7,1.7,1.7-1.7-1.7-1.7-1.7,1.7Zm24,0l1.7,1.7,1.7-1.7-1.7-1.7-1.7,1.7Zm-24,24l1.7,1.7,1.7-1.7-1.7-1.7-1.7,1.7Zm24,0l1.7,1.7,1.7-1.7-1.7-1.7-1.7,1.7Zm-24,24l1.7,1.7,1.7-1.7-1.7-1.7-1.7,1.7Zm24,0l1.7,1.7,1.7-1.7-1.7-1.7-1.7,1.7Zm-24,24l1.7,1.7,1.7-1.7-1.7-1.7-1.7,1.7Zm24,0l1.7,1.7,1.7-1.7-1.7-1.7-1.7,1.7Zm-24,24l1.7,1.7,1.7-1.7-1.7-1.7-1.7,1.7Zm24,0l1.7,1.7,1.7-1.7-1.7-1.7-1.7,1.7Zm-24,24l1.7,1.7,1.7-1.7-1.7-1.7-1.7,1.7Zm24,0l1.7,1.7,1.7-1.7-1.7-1.7-1.7,1.7Zm-24,24l1.7,1.7,1.7-1.7-1.7-1.7-1.7,1.7Zm24,0l1.7,1.7,1.7-1.7-1.7-1.7-1.7,1.7Zm-24,24l1.7,1.7,1.7-1.7-1.7-1.7-1.7,1.7Zm24,0l1.7,1.7,1.7-1.7-1.7-1.7-1.7,1.7Zm-24,24l1.7,1.7,1.7-1.7-1.7-1.7-1.7,1.7Zm24,0l1.7,1.7,1.7-1.7-1.7-1.7-1.7,1.7Zm-24,24l1.7,1.7,1.7-1.7-1.7-1.7-1.7,1.7Zm24,0l1.7,1.7,1.7-1.7-1.7-1.7-1.7,1.7Zm-24,24l1.7,1.7,1.7-1.7-1.7-1.7-1.7,1.7Zm24,0l1.7,1.7,1.7-1.7-1.7-1.7-1.7,1.7Zm-24,24l1.7,1.7,1.7-1.7-1.7-1.7-1.7,1.7Zm24,0l1.7,1.7,1.7-1.7-1.7-1.7-1.7,1.7Zm-24,24l1.7,1.7,1.7-1.7-1.7-1.7-1.7,1.7Zm24,0l1.7,1.7,1.7-1.7-1.7-1.7-1.7,1.7Zm-24,24l1.7,1.7,1.7-1.7-1.7-1.7-1.7,1.7Zm24,0l1.7,1.7,1.7-1.7-1.7-1.7-1.7,1.7Zm-24,24l1.7,1.7,1.7-1.7-1.7-1.7-1.7,1.7Zm24,0l1.7,1.7,1.7-1.7-1.7-1.7-1.7,1.7Zm-24,24l1.7,1.7,1.7-1.7-1.7-1.7-1.7,1.7Zm24,0l1.7,1.7,1.7-1.7-1.7-1.7-1.7,1.7Zm-24,24l1.7,1.7,1.7-1.7-1.7-1.7-1.7,1.7Zm24,0l1.7,1.7,1.7-1.7-1.7-1.7-1.7,1.7Zm-24,24l1.7,1.7,1.7-1.7-1.7-1.7-1.7,1.7Zm24,0l1.7,1.7,1.7-1.7-1.7-1.7-1.7,1.7ZM816,1.7l1.7,1.7,1.7-1.7-1.7-1.7-1.7,1.7Zm24,0l1.7,1.7,1.7-1.7-1.7-1.7-1.7,1.7Zm-24,24l1.7,1.7,1.7-1.7-1.7-1.7-1.7,1.7Zm24,0l1.7,1.7,1.7-1.7-1.7-1.7-1.7,1.7Zm-24,24l1.7,1.7,1.7-1.7-1.7-1.7-1.7,1.7Zm24,0l1.7,1.7,1.7-1.7-1.7-1.7-1.7,1.7Zm-24,24l1.7,1.7,1.7-1.7-1.7-1.7-1.7,1.7Zm24,0l1.7,1.7,1.7-1.7-1.7-1.7-1.7,1.7Zm-24,24l1.7,1.7,1.7-1.7-1.7-1.7-1.7,1.7Zm24,0l1.7,1.7,1.7-1.7-1.7-1.7-1.7,1.7Zm-24,24l1.7,1.7,1.7-1.7-1.7-1.7-1.7,1.7Zm24,0l1.7,1.7,1.7-1.7-1.7-1.7-1.7,1.7Zm-24,24l1.7,1.7,1.7-1.7-1.7-1.7-1.7,1.7Zm24,0l1.7,1.7,1.7-1.7-1.7-1.7-1.7,1.7Zm-24,24l1.7,1.7,1.7-1.7-1.7-1.7-1.7,1.7Zm24,0l1.7,1.7,1.7-1.7-1.7-1.7-1.7,1.7Zm-24,24l1.7,1.7,1.7-1.7-1.7-1.7-1.7,1.7Zm24,0l1.7,1.7,1.7-1.7-1.7-1.7-1.7,1.7Zm-24,24l1.7,1.7,1.7-1.7-1.7-1.7-1.7,1.7Zm24,0l1.7,1.7,1.7-1.7-1.7-1.7-1.7,1.7Zm-24,24l1.7,1.7,1.7-1.7-1.7-1.7-1.7,1.7Zm24,0l1.7,1.7,1.7-1.7-1.7-1.7-1.7,1.7Zm-24,24l1.7,1.7,1.7-1.7-1.7-1.7-1.7,1.7Zm24,0l1.7,1.7,1.7-1.7-1.7-1.7-1.7,1.7Zm-24,24l1.7,1.7,1.7-1.7-1.7-1.7-1.7,1.7Zm24,0l1.7,1.7,1.7-1.7-1.7-1.7-1.7,1.7Zm-24,24l1.7,1.7,1.7-1.7-1.7-1.7-1.7,1.7Zm24,0l1.7,1.7,1.7-1.7-1.7-1.7-1.7,1.7Zm-24,24l1.7,1.7,1.7-1.7-1.7-1.7-1.7,1.7Zm24,0l1.7,1.7,1.7-1.7-1.7-1.7-1.7,1.7Zm-24,24l1.7,1.7,1.7-1.7-1.7-1.7-1.7,1.7Zm24,0l1.7,1.7,1.7-1.7-1.7-1.7-1.7,1.7Zm-24,24l1.7,1.7,1.7-1.7-1.7-1.7-1.7,1.7Zm24,0l1.7,1.7,1.7-1.7-1.7-1.7-1.7,1.7Zm-24,24l1.7,1.7,1.7-1.7-1.7-1.7-1.7,1.7Zm24,0l1.7,1.7,1.7-1.7-1.7-1.7-1.7,1.7Zm-24,24l1.7,1.7,1.7-1.7-1.7-1.7-1.7,1.7Zm24,0l1.7,1.7,1.7-1.7-1.7-1.7-1.7,1.7Zm-24,24l1.7,1.7,1.7-1.7-1.7-1.7-1.7,1.7Zm24,0l1.7,1.7,1.7-1.7-1.7-1.7-1.7,1.7Zm-24,24l1.7,1.7,1.7-1.7-1.7-1.7-1.7,1.7Zm24,0l1.7,1.7,1.7-1.7-1.7-1.7-1.7,1.7Zm-24,24l1.7,1.7,1.7-1.7-1.7-1.7-1.7,1.7Zm24,0l1.7,1.7,1.7-1.7-1.7-1.7-1.7,1.7Zm-24,24l1.7,1.7,1.7-1.7-1.7-1.7-1.7,1.7Zm24,0l1.7,1.7,1.7-1.7-1.7-1.7-1.7,1.7Zm-24,24l1.7,1.7,1.7-1.7-1.7-1.7-1.7,1.7Zm24,0l1.7,1.7,1.7-1.7-1.7-1.7-1.7,1.7Zm-24,24l1.7,1.7,1.7-1.7-1.7-1.7-1.7,1.7Zm24,0l1.7,1.7,1.7-1.7-1.7-1.7-1.7,1.7Zm-24,24l1.7,1.7,1.7-1.7-1.7-1.7-1.7,1.7Zm24,0l1.7,1.7,1.7-1.7-1.7-1.7-1.7,1.7Zm-24,24l1.7,1.7,1.7-1.7-1.7-1.7-1.7,1.7Zm24,0l1.7,1.7,1.7-1.7-1.7-1.7-1.7,1.7Zm-24,24l1.7,1.7,1.7-1.7-1.7-1.7-1.7,1.7Zm24,0l1.7,1.7,1.7-1.7-1.7-1.7-1.7,1.7Zm-24,24l1.7,1.7,1.7-1.7-1.7-1.7-1.7,1.7Zm24,0l1.7,1.7,1.7-1.7-1.7-1.7-1.7,1.7Zm-24,24l1.7,1.7,1.7-1.7-1.7-1.7-1.7,1.7Zm24,0l1.7,1.7,1.7-1.7-1.7-1.7-1.7,1.7Zm-24,24l1.7,1.7,1.7-1.7-1.7-1.7-1.7,1.7Zm24,0l1.7,1.7,1.7-1.7-1.7-1.7-1.7,1.7ZM864,1.7l1.7,1.7,1.7-1.7-1.7-1.7-1.7,1.7Zm24,0l1.7,1.7,1.7-1.7-1.7-1.7-1.7,1.7Zm-24,24l1.7,1.7,1.7-1.7-1.7-1.7-1.7,1.7Zm24,0l1.7,1.7,1.7-1.7-1.7-1.7-1.7,1.7Zm-24,24l1.7,1.7,1.7-1.7-1.7-1.7-1.7,1.7Zm24,0l1.7,1.7,1.7-1.7-1.7-1.7-1.7,1.7Zm-24,24l1.7,1.7,1.7-1.7-1.7-1.7-1.7,1.7Zm24,0l1.7,1.7,1.7-1.7-1.7-1.7-1.7,1.7Zm-24,24l1.7,1.7,1.7-1.7-1.7-1.7-1.7,1.7Zm24,0l1.7,1.7,1.7-1.7-1.7-1.7-1.7,1.7Zm-24,24l1.7,1.7,1.7-1.7-1.7-1.7-1.7,1.7Zm24,0l1.7,1.7,1.7-1.7-1.7-1.7-1.7,1.7Zm-24,24l1.7,1.7,1.7-1.7-1.7-1.7-1.7,1.7Zm24,0l1.7,1.7,1.7-1.7-1.7-1.7-1.7,1.7Zm-24,24l1.7,1.7,1.7-1.7-1.7-1.7-1.7,1.7Zm24,0l1.7,1.7,1.7-1.7-1.7-1.7-1.7,1.7Zm-24,24l1.7,1.7,1.7-1.7-1.7-1.7-1.7,1.7Zm24,0l1.7,1.7,1.7-1.7-1.7-1.7-1.7,1.7Zm-24,24l1.7,1.7,1.7-1.7-1.7-1.7-1.7,1.7Zm24,0l1.7,1.7,1.7-1.7-1.7-1.7-1.7,1.7Zm-24,24l1.7,1.7,1.7-1.7-1.7-1.7-1.7,1.7Zm24,0l1.7,1.7,1.7-1.7-1.7-1.7-1.7,1.7Zm-24,24l1.7,1.7,1.7-1.7-1.7-1.7-1.7,1.7Zm24,0l1.7,1.7,1.7-1.7-1.7-1.7-1.7,1.7Zm-24,24l1.7,1.7,1.7-1.7-1.7-1.7-1.7,1.7Zm24,0l1.7,1.7,1.7-1.7-1.7-1.7-1.7,1.7Zm-24,24l1.7,1.7,1.7-1.7-1.7-1.7-1.7,1.7Zm24,0l1.7,1.7,1.7-1.7-1.7-1.7-1.7,1.7Zm-24,24l1.7,1.7,1.7-1.7-1.7-1.7-1.7,1.7Zm24,0l1.7,1.7,1.7-1.7-1.7-1.7-1.7,1.7Zm-24,24l1.7,1.7,1.7-1.7-1.7-1.7-1.7,1.7Zm24,0l1.7,1.7,1.7-1.7-1.7-1.7-1.7,1.7Zm-24,24l1.7,1.7,1.7-1.7-1.7-1.7-1.7,1.7Zm24,0l1.7,1.7,1.7-1.7-1.7-1.7-1.7,1.7Zm-24,24l1.7,1.7,1.7-1.7-1.7-1.7-1.7,1.7Zm24,0l1.7,1.7,1.7-1.7-1.7-1.7-1.7,1.7Zm-24,24l1.7,1.7,1.7-1.7-1.7-1.7-1.7,1.7Zm24,0l1.7,1.7,1.7-1.7-1.7-1.7-1.7,1.7Zm-24,24l1.7,1.7,1.7-1.7-1.7-1.7-1.7,1.7Zm24,0l1.7,1.7,1.7-1.7-1.7-1.7-1.7,1.7Zm-24,24l1.7,1.7,1.7-1.7-1.7-1.7-1.7,1.7Zm24,0l1.7,1.7,1.7-1.7-1.7-1.7-1.7,1.7Zm-24,24l1.7,1.7,1.7-1.7-1.7-1.7-1.7,1.7Zm24,0l1.7,1.7,1.7-1.7-1.7-1.7-1.7,1.7Zm-24,24l1.7,1.7,1.7-1.7-1.7-1.7-1.7,1.7Zm24,0l1.7,1.7,1.7-1.7-1.7-1.7-1.7,1.7Zm-24,24l1.7,1.7,1.7-1.7-1.7-1.7-1.7,1.7Zm24,0l1.7,1.7,1.7-1.7-1.7-1.7-1.7,1.7Zm-24,24l1.7,1.7,1.7-1.7-1.7-1.7-1.7,1.7Zm24,0l1.7,1.7,1.7-1.7-1.7-1.7-1.7,1.7Zm-24,24l1.7,1.7,1.7-1.7-1.7-1.7-1.7,1.7Zm24,0l1.7,1.7,1.7-1.7-1.7-1.7-1.7,1.7Zm-24,24l1.7,1.7,1.7-1.7-1.7-1.7-1.7,1.7Zm24,0l1.7,1.7,1.7-1.7-1.7-1.7-1.7,1.7Zm-24,24l1.7,1.7,1.7-1.7-1.7-1.7-1.7,1.7Zm24,0l1.7,1.7,1.7-1.7-1.7-1.7-1.7,1.7Zm-24,24l1.7,1.7,1.7-1.7-1.7-1.7-1.7,1.7Zm24,0l1.7,1.7,1.7-1.7-1.7-1.7-1.7,1.7Zm-24,24l1.7,1.7,1.7-1.7-1.7-1.7-1.7,1.7Zm24,0l1.7,1.7,1.7-1.7-1.7-1.7-1.7,1.7Zm-24,24l1.7,1.7,1.7-1.7-1.7-1.7-1.7,1.7Zm24,0l1.7,1.7,1.7-1.7-1.7-1.7-1.7,1.7ZM912,1.7l1.7,1.7,1.7-1.7-1.7-1.7-1.7,1.7Zm24,0l1.7,1.7,1.7-1.7-1.7-1.7-1.7,1.7Zm-24,24l1.7,1.7,1.7-1.7-1.7-1.7-1.7,1.7Zm24,0l1.7,1.7,1.7-1.7-1.7-1.7-1.7,1.7Zm-24,24l1.7,1.7,1.7-1.7-1.7-1.7-1.7,1.7Zm24,0l1.7,1.7,1.7-1.7-1.7-1.7-1.7,1.7Zm-24,24l1.7,1.7,1.7-1.7-1.7-1.7-1.7,1.7Zm24,0l1.7,1.7,1.7-1.7-1.7-1.7-1.7,1.7Zm-24,24l1.7,1.7,1.7-1.7-1.7-1.7-1.7,1.7Zm24,0l1.7,1.7,1.7-1.7-1.7-1.7-1.7,1.7Zm-24,24l1.7,1.7,1.7-1.7-1.7-1.7-1.7,1.7Zm24,0l1.7,1.7,1.7-1.7-1.7-1.7-1.7,1.7Zm-24,24l1.7,1.7,1.7-1.7-1.7-1.7-1.7,1.7Zm24,0l1.7,1.7,1.7-1.7-1.7-1.7-1.7,1.7Zm-24,24l1.7,1.7,1.7-1.7-1.7-1.7-1.7,1.7Zm24,0l1.7,1.7,1.7-1.7-1.7-1.7-1.7,1.7Zm-24,24l1.7,1.7,1.7-1.7-1.7-1.7-1.7,1.7Zm24,0l1.7,1.7,1.7-1.7-1.7-1.7-1.7,1.7Zm-24,24l1.7,1.7,1.7-1.7-1.7-1.7-1.7,1.7Zm24,0l1.7,1.7,1.7-1.7-1.7-1.7-1.7,1.7Zm-24,24l1.7,1.7,1.7-1.7-1.7-1.7-1.7,1.7Zm24,0l1.7,1.7,1.7-1.7-1.7-1.7-1.7,1.7Zm-24,24l1.7,1.7,1.7-1.7-1.7-1.7-1.7,1.7Zm24,0l1.7,1.7,1.7-1.7-1.7-1.7-1.7,1.7Zm-24,24l1.7,1.7,1.7-1.7-1.7-1.7-1.7,1.7Zm24,0l1.7,1.7,1.7-1.7-1.7-1.7-1.7,1.7Zm-24,24l1.7,1.7,1.7-1.7-1.7-1.7-1.7,1.7Zm24,0l1.7,1.7,1.7-1.7-1.7-1.7-1.7,1.7Zm-24,24l1.7,1.7,1.7-1.7-1.7-1.7-1.7,1.7Zm24,0l1.7,1.7,1.7-1.7-1.7-1.7-1.7,1.7Zm-24,24l1.7,1.7,1.7-1.7-1.7-1.7-1.7,1.7Zm24,0l1.7,1.7,1.7-1.7-1.7-1.7-1.7,1.7Zm-24,24l1.7,1.7,1.7-1.7-1.7-1.7-1.7,1.7Zm24,0l1.7,1.7,1.7-1.7-1.7-1.7-1.7,1.7Zm-24,24l1.7,1.7,1.7-1.7-1.7-1.7-1.7,1.7Zm24,0l1.7,1.7,1.7-1.7-1.7-1.7-1.7,1.7Zm-24,24l1.7,1.7,1.7-1.7-1.7-1.7-1.7,1.7Zm24,0l1.7,1.7,1.7-1.7-1.7-1.7-1.7,1.7Zm-24,24l1.7,1.7,1.7-1.7-1.7-1.7-1.7,1.7Zm24,0l1.7,1.7,1.7-1.7-1.7-1.7-1.7,1.7Zm-24,24l1.7,1.7,1.7-1.7-1.7-1.7-1.7,1.7Zm24,0l1.7,1.7,1.7-1.7-1.7-1.7-1.7,1.7Zm-24,24l1.7,1.7,1.7-1.7-1.7-1.7-1.7,1.7Zm24,0l1.7,1.7,1.7-1.7-1.7-1.7-1.7,1.7Zm-24,24l1.7,1.7,1.7-1.7-1.7-1.7-1.7,1.7Zm24,0l1.7,1.7,1.7-1.7-1.7-1.7-1.7,1.7Zm-24,24l1.7,1.7,1.7-1.7-1.7-1.7-1.7,1.7Zm24,0l1.7,1.7,1.7-1.7-1.7-1.7-1.7,1.7Zm-24,24l1.7,1.7,1.7-1.7-1.7-1.7-1.7,1.7Zm24,0l1.7,1.7,1.7-1.7-1.7-1.7-1.7,1.7Zm-24,24l1.7,1.7,1.7-1.7-1.7-1.7-1.7,1.7Zm24,0l1.7,1.7,1.7-1.7-1.7-1.7-1.7,1.7Zm-24,24l1.7,1.7,1.7-1.7-1.7-1.7-1.7,1.7Zm24,0l1.7,1.7,1.7-1.7-1.7-1.7-1.7,1.7Zm-24,24l1.7,1.7,1.7-1.7-1.7-1.7-1.7,1.7Zm24,0l1.7,1.7,1.7-1.7-1.7-1.7-1.7,1.7Zm-24,24l1.7,1.7,1.7-1.7-1.7-1.7-1.7,1.7Zm24,0l1.7,1.7,1.7-1.7-1.7-1.7-1.7,1.7Zm-24,24l1.7,1.7,1.7-1.7-1.7-1.7-1.7,1.7Zm24,0l1.7,1.7,1.7-1.7-1.7-1.7-1.7,1.7Zm-24,24l1.7,1.7,1.7-1.7-1.7-1.7-1.7,1.7Zm24,0l1.7,1.7,1.7-1.7-1.7-1.7-1.7,1.7ZM960,1.7l1.7,1.7,1.7-1.7-1.7-1.7-1.7,1.7Zm24,0l1.7,1.7,1.7-1.7-1.7-1.7-1.7,1.7Zm-24,24l1.7,1.7,1.7-1.7-1.7-1.7-1.7,1.7Zm24,0l1.7,1.7,1.7-1.7-1.7-1.7-1.7,1.7Zm-24,24l1.7,1.7,1.7-1.7-1.7-1.7-1.7,1.7Zm24,0l1.7,1.7,1.7-1.7-1.7-1.7-1.7,1.7Zm-24,24l1.7,1.7,1.7-1.7-1.7-1.7-1.7,1.7Zm24,0l1.7,1.7,1.7-1.7-1.7-1.7-1.7,1.7Zm-24,24l1.7,1.7,1.7-1.7-1.7-1.7-1.7,1.7Zm24,0l1.7,1.7,1.7-1.7-1.7-1.7-1.7,1.7Zm-24,24l1.7,1.7,1.7-1.7-1.7-1.7-1.7,1.7Zm24,0l1.7,1.7,1.7-1.7-1.7-1.7-1.7,1.7Zm-24,24l1.7,1.7,1.7-1.7-1.7-1.7-1.7,1.7Zm24,0l1.7,1.7,1.7-1.7-1.7-1.7-1.7,1.7Zm-24,24l1.7,1.7,1.7-1.7-1.7-1.7-1.7,1.7Zm24,0l1.7,1.7,1.7-1.7-1.7-1.7-1.7,1.7Zm-24,24l1.7,1.7,1.7-1.7-1.7-1.7-1.7,1.7Zm24,0l1.7,1.7,1.7-1.7-1.7-1.7-1.7,1.7Zm-24,24l1.7,1.7,1.7-1.7-1.7-1.7-1.7,1.7Zm24,0l1.7,1.7,1.7-1.7-1.7-1.7-1.7,1.7Zm-24,24l1.7,1.7,1.7-1.7-1.7-1.7-1.7,1.7Zm24,0l1.7,1.7,1.7-1.7-1.7-1.7-1.7,1.7Zm-24,24l1.7,1.7,1.7-1.7-1.7-1.7-1.7,1.7Zm24,0l1.7,1.7,1.7-1.7-1.7-1.7-1.7,1.7Zm-24,24l1.7,1.7,1.7-1.7-1.7-1.7-1.7,1.7Zm24,0l1.7,1.7,1.7-1.7-1.7-1.7-1.7,1.7Zm-24,24l1.7,1.7,1.7-1.7-1.7-1.7-1.7,1.7Zm24,0l1.7,1.7,1.7-1.7-1.7-1.7-1.7,1.7Zm-24,24l1.7,1.7,1.7-1.7-1.7-1.7-1.7,1.7Zm24,0l1.7,1.7,1.7-1.7-1.7-1.7-1.7,1.7Zm-24,24l1.7,1.7,1.7-1.7-1.7-1.7-1.7,1.7Zm24,0l1.7,1.7,1.7-1.7-1.7-1.7-1.7,1.7Zm-24,24l1.7,1.7,1.7-1.7-1.7-1.7-1.7,1.7Zm24,0l1.7,1.7,1.7-1.7-1.7-1.7-1.7,1.7Zm-24,24l1.7,1.7,1.7-1.7-1.7-1.7-1.7,1.7Zm24,0l1.7,1.7,1.7-1.7-1.7-1.7-1.7,1.7Zm-24,24l1.7,1.7,1.7-1.7-1.7-1.7-1.7,1.7Zm24,0l1.7,1.7,1.7-1.7-1.7-1.7-1.7,1.7Zm-24,24l1.7,1.7,1.7-1.7-1.7-1.7-1.7,1.7Zm24,0l1.7,1.7,1.7-1.7-1.7-1.7-1.7,1.7Zm-24,24l1.7,1.7,1.7-1.7-1.7-1.7-1.7,1.7Zm24,0l1.7,1.7,1.7-1.7-1.7-1.7-1.7,1.7Zm-24,24l1.7,1.7,1.7-1.7-1.7-1.7-1.7,1.7Zm24,0l1.7,1.7,1.7-1.7-1.7-1.7-1.7,1.7Zm-24,24l1.7,1.7,1.7-1.7-1.7-1.7-1.7,1.7Zm24,0l1.7,1.7,1.7-1.7-1.7-1.7-1.7,1.7Zm-24,24l1.7,1.7,1.7-1.7-1.7-1.7-1.7,1.7Zm24,0l1.7,1.7,1.7-1.7-1.7-1.7-1.7,1.7Zm-24,24l1.7,1.7,1.7-1.7-1.7-1.7-1.7,1.7Zm24,0l1.7,1.7,1.7-1.7-1.7-1.7-1.7,1.7Zm-24,24l1.7,1.7,1.7-1.7-1.7-1.7-1.7,1.7Zm24,0l1.7,1.7,1.7-1.7-1.7-1.7-1.7,1.7Zm-24,24l1.7,1.7,1.7-1.7-1.7-1.7-1.7,1.7Zm24,0l1.7,1.7,1.7-1.7-1.7-1.7-1.7,1.7Zm-24,24l1.7,1.7,1.7-1.7-1.7-1.7-1.7,1.7Zm24,0l1.7,1.7,1.7-1.7-1.7-1.7-1.7,1.7Zm-24,24l1.7,1.7,1.7-1.7-1.7-1.7-1.7,1.7Zm24,0l1.7,1.7,1.7-1.7-1.7-1.7-1.7,1.7Zm-24,24l1.7,1.7,1.7-1.7-1.7-1.7-1.7,1.7Zm24,0l1.7,1.7,1.7-1.7-1.7-1.7-1.7,1.7Zm-24,24l1.7,1.7,1.7-1.7-1.7-1.7-1.7,1.7Zm24,0l1.7,1.7,1.7-1.7-1.7-1.7-1.7,1.7ZM1008,1.7l1.7,1.7,1.7-1.7-1.7-1.7-1.7,1.7Zm24,0l1.7,1.7,1.7-1.7-1.7-1.7-1.7,1.7Zm-24,24l1.7,1.7,1.7-1.7-1.7-1.7-1.7,1.7Zm24,0l1.7,1.7,1.7-1.7-1.7-1.7-1.7,1.7Zm-24,24l1.7,1.7,1.7-1.7-1.7-1.7-1.7,1.7Zm24,0l1.7,1.7,1.7-1.7-1.7-1.7-1.7,1.7Zm-24,24l1.7,1.7,1.7-1.7-1.7-1.7-1.7,1.7Zm24,0l1.7,1.7,1.7-1.7-1.7-1.7-1.7,1.7Zm-24,24l1.7,1.7,1.7-1.7-1.7-1.7-1.7,1.7Zm24,0l1.7,1.7,1.7-1.7-1.7-1.7-1.7,1.7Zm-24,24l1.7,1.7,1.7-1.7-1.7-1.7-1.7,1.7Zm24,0l1.7,1.7,1.7-1.7-1.7-1.7-1.7,1.7Zm-24,24l1.7,1.7,1.7-1.7-1.7-1.7-1.7,1.7Zm24,0l1.7,1.7,1.7-1.7-1.7-1.7-1.7,1.7Zm-24,24l1.7,1.7,1.7-1.7-1.7-1.7-1.7,1.7Zm24,0l1.7,1.7,1.7-1.7-1.7-1.7-1.7,1.7Zm-24,24l1.7,1.7,1.7-1.7-1.7-1.7-1.7,1.7Zm24,0l1.7,1.7,1.7-1.7-1.7-1.7-1.7,1.7Zm-24,24l1.7,1.7,1.7-1.7-1.7-1.7-1.7,1.7Zm24,0l1.7,1.7,1.7-1.7-1.7-1.7-1.7,1.7Zm-24,24l1.7,1.7,1.7-1.7-1.7-1.7-1.7,1.7Zm24,0l1.7,1.7,1.7-1.7-1.7-1.7-1.7,1.7Zm-24,24l1.7,1.7,1.7-1.7-1.7-1.7-1.7,1.7Zm24,0l1.7,1.7,1.7-1.7-1.7-1.7-1.7,1.7Zm-24,24l1.7,1.7,1.7-1.7-1.7-1.7-1.7,1.7Zm24,0l1.7,1.7,1.7-1.7-1.7-1.7-1.7,1.7Zm-24,24l1.7,1.7,1.7-1.7-1.7-1.7-1.7,1.7Zm24,0l1.7,1.7,1.7-1.7-1.7-1.7-1.7,1.7Zm-24,24l1.7,1.7,1.7-1.7-1.7-1.7-1.7,1.7Zm24,0l1.7,1.7,1.7-1.7-1.7-1.7-1.7,1.7Zm-24,24l1.7,1.7,1.7-1.7-1.7-1.7-1.7,1.7Zm24,0l1.7,1.7,1.7-1.7-1.7-1.7-1.7,1.7Zm-24,24l1.7,1.7,1.7-1.7-1.7-1.7-1.7,1.7Zm24,0l1.7,1.7,1.7-1.7-1.7-1.7-1.7,1.7Zm-24,24l1.7,1.7,1.7-1.7-1.7-1.7-1.7,1.7Zm24,0l1.7,1.7,1.7-1.7-1.7-1.7-1.7,1.7Zm-24,24l1.7,1.7,1.7-1.7-1.7-1.7-1.7,1.7Zm24,0l1.7,1.7,1.7-1.7-1.7-1.7-1.7,1.7Zm-24,24l1.7,1.7,1.7-1.7-1.7-1.7-1.7,1.7Zm24,0l1.7,1.7,1.7-1.7-1.7-1.7-1.7,1.7Zm-24,24l1.7,1.7,1.7-1.7-1.7-1.7-1.7,1.7Zm24,0l1.7,1.7,1.7-1.7-1.7-1.7-1.7,1.7Zm-24,24l1.7,1.7,1.7-1.7-1.7-1.7-1.7,1.7Zm24,0l1.7,1.7,1.7-1.7-1.7-1.7-1.7,1.7Zm-24,24l1.7,1.7,1.7-1.7-1.7-1.7-1.7,1.7Zm24,0l1.7,1.7,1.7-1.7-1.7-1.7-1.7,1.7Zm-24,24l1.7,1.7,1.7-1.7-1.7-1.7-1.7,1.7Zm24,0l1.7,1.7,1.7-1.7-1.7-1.7-1.7,1.7Zm-24,24l1.7,1.7,1.7-1.7-1.7-1.7-1.7,1.7Zm24,0l1.7,1.7,1.7-1.7-1.7-1.7-1.7,1.7Zm-24,24l1.7,1.7,1.7-1.7-1.7-1.7-1.7,1.7Zm24,0l1.7,1.7,1.7-1.7-1.7-1.7-1.7,1.7Zm-24,24l1.7,1.7,1.7-1.7-1.7-1.7-1.7,1.7Zm24,0l1.7,1.7,1.7-1.7-1.7-1.7-1.7,1.7Zm-24,24l1.7,1.7,1.7-1.7-1.7-1.7-1.7,1.7Zm24,0l1.7,1.7,1.7-1.7-1.7-1.7-1.7,1.7Zm-24,24l1.7,1.7,1.7-1.7-1.7-1.7-1.7,1.7Zm24,0l1.7,1.7,1.7-1.7-1.7-1.7-1.7,1.7Zm-24,24l1.7,1.7,1.7-1.7-1.7-1.7-1.7,1.7Zm24,0l1.7,1.7,1.7-1.7-1.7-1.7-1.7,1.7Zm-24,24l1.7,1.7,1.7-1.7-1.7-1.7-1.7,1.7Zm24,0l1.7,1.7,1.7-1.7-1.7-1.7-1.7,1.7ZM1056,1.7l1.7,1.7,1.7-1.7-1.7-1.7-1.7,1.7Zm27.39,0l-1.7-1.7-1.7,1.7,1.7,1.7,1.7-1.7Zm-27.39,24l1.7,1.7,1.7-1.7-1.7-1.7-1.7,1.7Zm24,0l1.7,1.7,1.7-1.7-1.7-1.7-1.7,1.7Zm-24,24l1.7,1.7,1.7-1.7-1.7-1.7-1.7,1.7Zm24,0l1.7,1.7,1.7-1.7-1.7-1.7-1.7,1.7Zm-24,24l1.7,1.7,1.7-1.7-1.7-1.7-1.7,1.7Zm24,0l1.7,1.7,1.7-1.7-1.7-1.7-1.7,1.7Zm-24,24l1.7,1.7,1.7-1.7-1.7-1.7-1.7,1.7Zm24,0l1.7,1.7,1.7-1.7-1.7-1.7-1.7,1.7Zm-24,24l1.7,1.7,1.7-1.7-1.7-1.7-1.7,1.7Zm24,0l1.7,1.7,1.7-1.7-1.7-1.7-1.7,1.7Zm-24,24l1.7,1.7,1.7-1.7-1.7-1.7-1.7,1.7Zm24,0l1.7,1.7,1.7-1.7-1.7-1.7-1.7,1.7Zm-24,24l1.7,1.7,1.7-1.7-1.7-1.7-1.7,1.7Zm24,0l1.7,1.7,1.7-1.7-1.7-1.7-1.7,1.7Zm-24,24l1.7,1.7,1.7-1.7-1.7-1.7-1.7,1.7Zm24,0l1.7,1.7,1.7-1.7-1.7-1.7-1.7,1.7Zm-24,24l1.7,1.7,1.7-1.7-1.7-1.7-1.7,1.7Zm24,0l1.7,1.7,1.7-1.7-1.7-1.7-1.7,1.7Zm-24,24l1.7,1.7,1.7-1.7-1.7-1.7-1.7,1.7Zm24,0l1.7,1.7,1.7-1.7-1.7-1.7-1.7,1.7Zm-24,24l1.7,1.7,1.7-1.7-1.7-1.7-1.7,1.7Zm24,0l1.7,1.7,1.7-1.7-1.7-1.7-1.7,1.7Zm-24,24l1.7,1.7,1.7-1.7-1.7-1.7-1.7,1.7Zm24,0l1.7,1.7,1.7-1.7-1.7-1.7-1.7,1.7Zm-24,24l1.7,1.7,1.7-1.7-1.7-1.7-1.7,1.7Zm24,0l1.7,1.7,1.7-1.7-1.7-1.7-1.7,1.7Zm-24,24l1.7,1.7,1.7-1.7-1.7-1.7-1.7,1.7Zm24,0l1.7,1.7,1.7-1.7-1.7-1.7-1.7,1.7Zm-24,24l1.7,1.7,1.7-1.7-1.7-1.7-1.7,1.7Zm24,0l1.7,1.7,1.7-1.7-1.7-1.7-1.7,1.7Zm-24,24l1.7,1.7,1.7-1.7-1.7-1.7-1.7,1.7Zm24,0l1.7,1.7,1.7-1.7-1.7-1.7-1.7,1.7Zm-24,24l1.7,1.7,1.7-1.7-1.7-1.7-1.7,1.7Zm24,0l1.7,1.7,1.7-1.7-1.7-1.7-1.7,1.7Zm-24,24l1.7,1.7,1.7-1.7-1.7-1.7-1.7,1.7Zm24,0l1.7,1.7,1.7-1.7-1.7-1.7-1.7,1.7Zm-24,24l1.7,1.7,1.7-1.7-1.7-1.7-1.7,1.7Zm24,0l1.7,1.7,1.7-1.7-1.7-1.7-1.7,1.7Zm-24,24l1.7,1.7,1.7-1.7-1.7-1.7-1.7,1.7Zm24,0l1.7,1.7,1.7-1.7-1.7-1.7-1.7,1.7Zm-24,24l1.7,1.7,1.7-1.7-1.7-1.7-1.7,1.7Zm24,0l1.7,1.7,1.7-1.7-1.7-1.7-1.7,1.7Zm-24,24l1.7,1.7,1.7-1.7-1.7-1.7-1.7,1.7Zm24,0l1.7,1.7,1.7-1.7-1.7-1.7-1.7,1.7Zm-24,24l1.7,1.7,1.7-1.7-1.7-1.7-1.7,1.7Zm24,0l1.7,1.7,1.7-1.7-1.7-1.7-1.7,1.7Zm-24,24l1.7,1.7,1.7-1.7-1.7-1.7-1.7,1.7Zm24,0l1.7,1.7,1.7-1.7-1.7-1.7-1.7,1.7Zm-24,24l1.7,1.7,1.7-1.7-1.7-1.7-1.7,1.7Zm24,0l1.7,1.7,1.7-1.7-1.7-1.7-1.7,1.7Zm-24,24l1.7,1.7,1.7-1.7-1.7-1.7-1.7,1.7Zm24,0l1.7,1.7,1.7-1.7-1.7-1.7-1.7,1.7Zm-24,24l1.7,1.7,1.7-1.7-1.7-1.7-1.7,1.7Zm24,0l1.7,1.7,1.7-1.7-1.7-1.7-1.7,1.7Zm-24,24l1.7,1.7,1.7-1.7-1.7-1.7-1.7,1.7Zm24,0l1.7,1.7,1.7-1.7-1.7-1.7-1.7,1.7Zm-24,24l1.7,1.7,1.7-1.7-1.7-1.7-1.7,1.7Zm24,0l1.7,1.7,1.7-1.7-1.7-1.7-1.7,1.7Zm-24,24l1.7,1.7,1.7-1.7-1.7-1.7-1.7,1.7Zm24,0l1.7,1.7,1.7-1.7-1.7-1.7-1.7,1.7Z"/></g></svg>